<?xml version="1.0" encoding="UTF-8"?>
<!DOCTYPE svg PUBLIC "-//W3C//DTD SVG 1.1//EN" "http://www.w3.org/Graphics/SVG/1.1/DTD/svg11.dtd">
<!-- Creator: CorelDRAW 2018 -->
<svg xmlns="http://www.w3.org/2000/svg" xml:space="preserve" width="210mm" height="297mm" version="1.1" style="shape-rendering:geometricPrecision; text-rendering:geometricPrecision; image-rendering:optimizeQuality; fill-rule:evenodd; clip-rule:evenodd"
viewBox="0 0 21000 29700"
 xmlns:xlink="http://www.w3.org/1999/xlink">
 <defs>
  <style type="text/css">
   <![CDATA[
    .str0 {stroke:white;stroke-width:132.29;stroke-miterlimit:22.9256}
    .fil1 {fill:none}
    .fil3 {fill:none;fill-rule:nonzero}
    .fil0 {fill:#99CC66}
    .fil2 {fill:white}
   ]]>
  </style>
   <clipPath id="id0">
    <path d="M12722.51 -3009.37l27749.49 0 0 35717.07 -27749.49 0c0,-14385.54 0,-22247.18 0,-35717.07z"/>
   </clipPath>
    <clipPath id="id1">
     <path d="M12722.51 -3009.37l23958.43 0 0 35717.07 -23958.43 0c0,-14385.54 0,-22247.18 0,-35717.07z"/>
    </clipPath>
    <clipPath id="id2">
     <path d="M12722.51 -3009.37l27749.49 0 0 35717.07 -27749.49 0c0,-14385.54 0,-22247.18 0,-35717.07z"/>
    </clipPath>
   <clipPath id="id3" style="clip-rule:nonzero">
    <path d="M13327.53 -688.98l553.86 0 -903.11 2501.2 -500.94 0 -903.12 -2501.2 553.86 0 472.73 1386.42 102.3 515.06 38.81 0 95.25 -515.06 490.36 -1386.42zm-1622.78 3975.82c0,-138.76 29.4,-260.47 88.2,-365.13 58.8,-104.65 135.82,-191.67 231.07,-261.05 95.25,-69.38 204.61,-121.12 328.08,-155.22 123.47,-34.11 248.71,-51.16 375.71,-51.16 127,0 252.24,17.64 375.71,52.92 123.47,35.28 232.83,87.61 328.08,156.99 95.25,69.38 172.28,155.81 231.07,259.29 58.8,103.48 88.2,224.6 88.2,363.36l0 906.64c0,138.76 -29.4,259.88 -88.2,363.36 -58.79,103.48 -135.82,189.91 -231.07,259.29 -95.25,69.38 -204.61,121.71 -328.08,156.99 -123.47,35.28 -248.71,52.92 -375.71,52.92 -127,0 -252.24,-17.06 -375.71,-51.16 -123.47,-34.1 -232.83,-85.84 -328.08,-155.22 -95.25,-69.38 -172.27,-156.4 -231.07,-261.06 -58.8,-104.65 -88.2,-226.36 -88.2,-365.12l0 -906.64zm515.06 906.64c0,54.09 14.7,100.54 44.1,139.35 29.4,38.8 67.61,71.14 114.65,97.01 47.04,25.87 101.13,45.27 162.28,58.21 61.15,12.93 123.47,19.4 186.97,19.4 63.5,0 125.24,-7.05 185.21,-21.16 59.97,-14.12 114.06,-34.11 162.28,-59.98 48.21,-25.87 86.43,-58.21 114.65,-97.01 28.22,-38.81 42.33,-84.08 42.33,-135.82l0 -906.64c0,-54.09 -14.7,-101.13 -44.09,-141.11 -29.4,-39.98 -67.62,-72.91 -114.66,-98.78 -47.03,-25.87 -101.13,-45.27 -162.27,-58.21 -61.15,-12.93 -123.48,-19.4 -186.98,-19.4 -63.5,0 -125.23,7.06 -185.21,21.17 -59.97,14.11 -113.47,34.1 -160.51,59.97 -47.04,25.87 -85.25,58.8 -114.65,98.78 -29.4,39.98 -44.1,85.84 -44.1,137.58l0 906.64zm-208.14 1471.09l518.59 0 0 1975.56 1079.5 0 0 522.11 -1598.09 0 0 -2497.67zm0 3175.01l518.59 0 0 1975.56 1079.5 0 0 522.11 -1598.09 0 0 -2497.67zm428.62 4169.85l1075.98 0 0 504.47 -1075.98 0 0 493.89 1171.23 0 0 504.47 -1693.34 0 0 -2501.2 1693.34 0 0 508 -1171.23 0 0 490.37zm26.46 4677.84l0 -956.03 -867.84 -1541.64 596.2 0 529.17 1044.22 529.16 -1044.22 603.25 0 -871.36 1541.64 0 956.03 -518.58 0zm1150.06 1407.59c0,35.28 -4.12,73.5 -12.35,114.66 -8.23,41.15 -22.34,81.72 -42.33,121.7 -19.99,39.98 -44.69,77.61 -74.09,112.89 -29.39,35.28 -65.26,64.68 -107.59,88.2 77.61,37.63 140.52,83.49 188.73,137.58 48.22,54.09 84.67,111.71 109.36,172.86 24.7,61.15 39.4,124.65 44.1,190.5 2.35,21.17 3.53,43.51 3.53,67.03 0,42.33 -3.53,84.67 -10.58,127 -11.76,84.67 -36.46,165.22 -74.09,241.65 -37.63,76.44 -91.13,143.47 -160.51,201.09 -69.38,57.62 -155.81,104.07 -259.29,139.34 -103.48,35.28 -226.96,52.92 -370.42,52.92l-1005.42 0 0 -2501.2 987.78 0c108.19,0 209.9,15.29 305.15,45.87 95.25,30.57 178.16,77.02 248.71,139.34 70.56,62.33 126.41,139.35 167.57,231.07 41.16,91.72 61.74,197.56 61.74,317.5zm-783.17 246.95c87.02,0 155.22,-24.7 204.61,-74.09 51.74,-54.09 77.61,-112.89 77.61,-176.39 0,-51.74 -21.16,-101.13 -63.5,-148.16 -47.03,-49.39 -119.94,-74.09 -218.72,-74.09l-469.19 0 0 472.73 469.19 0zm0 1016c79.96,0 147.58,-14.11 202.85,-42.34 55.27,-28.22 96.42,-63.5 123.47,-105.83 27.05,-42.33 40.57,-88.19 40.57,-137.58 0,-49.39 -13.52,-95.25 -40.57,-137.59 -27.05,-42.33 -67.62,-77.61 -121.71,-105.83 -54.09,-28.22 -122.29,-42.33 -204.61,-42.33l-469.19 0 0 571.5 469.19 0zm1033.64 3679.48l-543.28 0 -218.72 -571.5 -744.36 0 -208.14 571.5 -553.86 0 874.89 -2497.67 497.41 0 896.06 2497.67zm-1375.83 -1047.75l479.77 0 -158.75 -543.28 -77.61 -356.3 -24.69 0 -77.61 359.83 -141.11 539.75zm-479.78 1725.09l518.59 0 0 1975.56 1079.5 0 0 522.11 -1598.09 0 0 -2497.67zm0 3175.01l518.59 0 0 1975.56 1079.5 0 0 522.11 -1598.09 0 0 -2497.67z"/>
   </clipPath>
    <clipPath id="id4">
     <path d="M13327.53 -688.98l553.86 0 -903.11 2501.2 -500.94 0 -903.12 -2501.2 553.86 0 472.73 1386.42 102.3 515.06 38.81 0 95.25 -515.06 490.36 -1386.42zm-1622.78 3975.82c0,-138.76 29.4,-260.47 88.2,-365.13 58.8,-104.65 135.82,-191.67 231.07,-261.05 95.25,-69.38 204.61,-121.12 328.08,-155.22 123.47,-34.11 248.71,-51.16 375.71,-51.16 127,0 252.24,17.64 375.71,52.92 123.47,35.28 232.83,87.61 328.08,156.99 95.25,69.38 172.28,155.81 231.07,259.29 58.8,103.48 88.2,224.6 88.2,363.36l0 906.64c0,138.76 -29.4,259.88 -88.2,363.36 -58.79,103.48 -135.82,189.91 -231.07,259.29 -95.25,69.38 -204.61,121.71 -328.08,156.99 -123.47,35.28 -248.71,52.92 -375.71,52.92 -127,0 -252.24,-17.06 -375.71,-51.16 -123.47,-34.1 -232.83,-85.84 -328.08,-155.22 -95.25,-69.38 -172.27,-156.4 -231.07,-261.06 -58.8,-104.65 -88.2,-226.36 -88.2,-365.12l0 -906.64zm515.06 906.64c0,54.09 14.7,100.54 44.1,139.35 29.4,38.8 67.61,71.14 114.65,97.01 47.04,25.87 101.13,45.27 162.28,58.21 61.15,12.93 123.47,19.4 186.97,19.4 63.5,0 125.24,-7.05 185.21,-21.16 59.97,-14.12 114.06,-34.11 162.28,-59.98 48.21,-25.87 86.43,-58.21 114.65,-97.01 28.22,-38.81 42.33,-84.08 42.33,-135.82l0 -906.64c0,-54.09 -14.7,-101.13 -44.09,-141.11 -29.4,-39.98 -67.62,-72.91 -114.66,-98.78 -47.03,-25.87 -101.13,-45.27 -162.27,-58.21 -61.15,-12.93 -123.48,-19.4 -186.98,-19.4 -63.5,0 -125.23,7.06 -185.21,21.17 -59.97,14.11 -113.47,34.1 -160.51,59.97 -47.04,25.87 -85.25,58.8 -114.65,98.78 -29.4,39.98 -44.1,85.84 -44.1,137.58l0 906.64zm-208.14 1471.09l518.59 0 0 1975.56 1079.5 0 0 522.11 -1598.09 0 0 -2497.67zm0 3175.01l518.59 0 0 1975.56 1079.5 0 0 522.11 -1598.09 0 0 -2497.67zm428.62 4169.85l1075.98 0 0 504.47 -1075.98 0 0 493.89 1171.23 0 0 504.47 -1693.34 0 0 -2501.2 1693.34 0 0 508 -1171.23 0 0 490.37zm26.46 4677.84l0 -956.03 -867.84 -1541.64 596.2 0 529.17 1044.22 529.16 -1044.22 603.25 0 -871.36 1541.64 0 956.03 -518.58 0zm1150.06 1407.59c0,35.28 -4.12,73.5 -12.35,114.66 -8.23,41.15 -22.34,81.72 -42.33,121.7 -19.99,39.98 -44.69,77.61 -74.09,112.89 -29.39,35.28 -65.26,64.68 -107.59,88.2 77.61,37.63 140.52,83.49 188.73,137.58 48.22,54.09 84.67,111.71 109.36,172.86 24.7,61.15 39.4,124.65 44.1,190.5 2.35,21.17 3.53,43.51 3.53,67.03 0,42.33 -3.53,84.67 -10.58,127 -11.76,84.67 -36.46,165.22 -74.09,241.65 -37.63,76.44 -91.13,143.47 -160.51,201.09 -69.38,57.62 -155.81,104.07 -259.29,139.34 -103.48,35.28 -226.96,52.92 -370.42,52.92l-1005.42 0 0 -2501.2 987.78 0c108.19,0 209.9,15.29 305.15,45.87 95.25,30.57 178.16,77.02 248.71,139.34 70.56,62.33 126.41,139.35 167.57,231.07 41.16,91.72 61.74,197.56 61.74,317.5zm-783.17 246.95c87.02,0 155.22,-24.7 204.61,-74.09 51.74,-54.09 77.61,-112.89 77.61,-176.39 0,-51.74 -21.16,-101.13 -63.5,-148.16 -47.03,-49.39 -119.94,-74.09 -218.72,-74.09l-469.19 0 0 472.73 469.19 0zm0 1016c79.96,0 147.58,-14.11 202.85,-42.34 55.27,-28.22 96.42,-63.5 123.47,-105.83 27.05,-42.33 40.57,-88.19 40.57,-137.58 0,-49.39 -13.52,-95.25 -40.57,-137.59 -27.05,-42.33 -67.62,-77.61 -121.71,-105.83 -54.09,-28.22 -122.29,-42.33 -204.61,-42.33l-469.19 0 0 571.5 469.19 0zm1033.64 3679.48l-543.28 0 -218.72 -571.5 -744.36 0 -208.14 571.5 -553.86 0 874.89 -2497.67 497.41 0 896.06 2497.67zm-1375.83 -1047.75l479.77 0 -158.75 -543.28 -77.61 -356.3 -24.69 0 -77.61 359.83 -141.11 539.75zm-479.78 1725.09l518.59 0 0 1975.56 1079.5 0 0 522.11 -1598.09 0 0 -2497.67zm0 3175.01l518.59 0 0 1975.56 1079.5 0 0 522.11 -1598.09 0 0 -2497.67z"/>
    </clipPath>
     <clipPath id="id5">
      <path d="M13327.53 -688.98l553.86 0 -903.11 2501.2 -500.94 0 -903.12 -2501.2 553.86 0 472.73 1386.42 102.3 515.06 38.81 0 95.25 -515.06 490.36 -1386.42zm-1622.78 3975.82c0,-138.76 29.4,-260.47 88.2,-365.13 58.8,-104.65 135.82,-191.67 231.07,-261.05 95.25,-69.38 204.61,-121.12 328.08,-155.22 123.47,-34.11 248.71,-51.16 375.71,-51.16 127,0 252.24,17.64 375.71,52.92 123.47,35.28 232.83,87.61 328.08,156.99 95.25,69.38 172.28,155.81 231.07,259.29 58.8,103.48 88.2,224.6 88.2,363.36l0 906.64c0,138.76 -29.4,259.88 -88.2,363.36 -58.79,103.48 -135.82,189.91 -231.07,259.29 -95.25,69.38 -204.61,121.71 -328.08,156.99 -123.47,35.28 -248.71,52.92 -375.71,52.92 -127,0 -252.24,-17.06 -375.71,-51.16 -123.47,-34.1 -232.83,-85.84 -328.08,-155.22 -95.25,-69.38 -172.27,-156.4 -231.07,-261.06 -58.8,-104.65 -88.2,-226.36 -88.2,-365.12l0 -906.64zm515.06 906.64c0,54.09 14.7,100.54 44.1,139.35 29.4,38.8 67.61,71.14 114.65,97.01 47.04,25.87 101.13,45.27 162.28,58.21 61.15,12.93 123.47,19.4 186.97,19.4 63.5,0 125.24,-7.05 185.21,-21.16 59.97,-14.12 114.06,-34.11 162.28,-59.98 48.21,-25.87 86.43,-58.21 114.65,-97.01 28.22,-38.81 42.33,-84.08 42.33,-135.82l0 -906.64c0,-54.09 -14.7,-101.13 -44.09,-141.11 -29.4,-39.98 -67.62,-72.91 -114.66,-98.78 -47.03,-25.87 -101.13,-45.27 -162.27,-58.21 -61.15,-12.93 -123.48,-19.4 -186.98,-19.4 -63.5,0 -125.23,7.06 -185.21,21.17 -59.97,14.11 -113.47,34.1 -160.51,59.97 -47.04,25.87 -85.25,58.8 -114.65,98.78 -29.4,39.98 -44.1,85.84 -44.1,137.58l0 906.64zm-208.14 1471.09l518.59 0 0 1975.56 1079.5 0 0 522.11 -1598.09 0 0 -2497.67zm0 3175.01l518.59 0 0 1975.56 1079.5 0 0 522.11 -1598.09 0 0 -2497.67zm428.62 4169.85l1075.98 0 0 504.47 -1075.98 0 0 493.89 1171.23 0 0 504.47 -1693.34 0 0 -2501.2 1693.34 0 0 508 -1171.23 0 0 490.37zm26.46 4677.84l0 -956.03 -867.84 -1541.64 596.2 0 529.17 1044.22 529.16 -1044.22 603.25 0 -871.36 1541.64 0 956.03 -518.58 0zm1150.06 1407.59c0,35.28 -4.12,73.5 -12.35,114.66 -8.23,41.15 -22.34,81.72 -42.33,121.7 -19.99,39.98 -44.69,77.61 -74.09,112.89 -29.39,35.28 -65.26,64.68 -107.59,88.2 77.61,37.63 140.52,83.49 188.73,137.58 48.22,54.09 84.67,111.71 109.36,172.86 24.7,61.15 39.4,124.65 44.1,190.5 2.35,21.17 3.53,43.51 3.53,67.03 0,42.33 -3.53,84.67 -10.58,127 -11.76,84.67 -36.46,165.22 -74.09,241.65 -37.63,76.44 -91.13,143.47 -160.51,201.09 -69.38,57.62 -155.81,104.07 -259.29,139.34 -103.48,35.28 -226.96,52.92 -370.42,52.92l-1005.42 0 0 -2501.2 987.78 0c108.19,0 209.9,15.29 305.15,45.87 95.25,30.57 178.16,77.02 248.71,139.34 70.56,62.33 126.41,139.35 167.57,231.07 41.16,91.72 61.74,197.56 61.74,317.5zm-783.17 246.95c87.02,0 155.22,-24.7 204.61,-74.09 51.74,-54.09 77.61,-112.89 77.61,-176.39 0,-51.74 -21.16,-101.13 -63.5,-148.16 -47.03,-49.39 -119.94,-74.09 -218.72,-74.09l-469.19 0 0 472.73 469.19 0zm0 1016c79.96,0 147.58,-14.11 202.85,-42.34 55.27,-28.22 96.42,-63.5 123.47,-105.83 27.05,-42.33 40.57,-88.19 40.57,-137.58 0,-49.39 -13.52,-95.25 -40.57,-137.59 -27.05,-42.33 -67.62,-77.61 -121.71,-105.83 -54.09,-28.22 -122.29,-42.33 -204.61,-42.33l-469.19 0 0 571.5 469.19 0zm1033.64 3679.48l-543.28 0 -218.72 -571.5 -744.36 0 -208.14 571.5 -553.86 0 874.89 -2497.67 497.41 0 896.06 2497.67zm-1375.83 -1047.75l479.77 0 -158.75 -543.28 -77.61 -356.3 -24.69 0 -77.61 359.83 -141.11 539.75zm-479.78 1725.09l518.59 0 0 1975.56 1079.5 0 0 522.11 -1598.09 0 0 -2497.67zm0 3175.01l518.59 0 0 1975.56 1079.5 0 0 522.11 -1598.09 0 0 -2497.67z"/>
     </clipPath>
     <clipPath id="id6">
      <path d="M13327.53 -688.98l553.86 0 -903.11 2501.2 -500.94 0 -903.12 -2501.2 553.86 0 472.73 1386.42 102.3 515.06 38.81 0 95.25 -515.06 490.36 -1386.42zm-1622.78 3975.82c0,-138.76 29.4,-260.47 88.2,-365.13 58.8,-104.65 135.82,-191.67 231.07,-261.05 95.25,-69.38 204.61,-121.12 328.08,-155.22 123.47,-34.11 248.71,-51.16 375.71,-51.16 127,0 252.24,17.64 375.71,52.92 123.47,35.28 232.83,87.61 328.08,156.99 95.25,69.38 172.28,155.81 231.07,259.29 58.8,103.48 88.2,224.6 88.2,363.36l0 906.64c0,138.76 -29.4,259.88 -88.2,363.36 -58.79,103.48 -135.82,189.91 -231.07,259.29 -95.25,69.38 -204.61,121.71 -328.08,156.99 -123.47,35.28 -248.71,52.92 -375.71,52.92 -127,0 -252.24,-17.06 -375.71,-51.16 -123.47,-34.1 -232.83,-85.84 -328.08,-155.22 -95.25,-69.38 -172.27,-156.4 -231.07,-261.06 -58.8,-104.65 -88.2,-226.36 -88.2,-365.12l0 -906.64zm515.06 906.64c0,54.09 14.7,100.54 44.1,139.35 29.4,38.8 67.61,71.14 114.65,97.01 47.04,25.87 101.13,45.27 162.28,58.21 61.15,12.93 123.47,19.4 186.97,19.4 63.5,0 125.24,-7.05 185.21,-21.16 59.97,-14.12 114.06,-34.11 162.28,-59.98 48.21,-25.87 86.43,-58.21 114.65,-97.01 28.22,-38.81 42.33,-84.08 42.33,-135.82l0 -906.64c0,-54.09 -14.7,-101.13 -44.09,-141.11 -29.4,-39.98 -67.62,-72.91 -114.66,-98.78 -47.03,-25.87 -101.13,-45.27 -162.27,-58.21 -61.15,-12.93 -123.48,-19.4 -186.98,-19.4 -63.5,0 -125.23,7.06 -185.21,21.17 -59.97,14.11 -113.47,34.1 -160.51,59.97 -47.04,25.87 -85.25,58.8 -114.65,98.78 -29.4,39.98 -44.1,85.84 -44.1,137.58l0 906.64zm-208.14 1471.09l518.59 0 0 1975.56 1079.5 0 0 522.11 -1598.09 0 0 -2497.67zm0 3175.01l518.59 0 0 1975.56 1079.5 0 0 522.11 -1598.09 0 0 -2497.67zm428.62 4169.85l1075.98 0 0 504.47 -1075.98 0 0 493.89 1171.23 0 0 504.47 -1693.34 0 0 -2501.2 1693.34 0 0 508 -1171.23 0 0 490.37zm26.46 4677.84l0 -956.03 -867.84 -1541.64 596.2 0 529.17 1044.22 529.16 -1044.22 603.25 0 -871.36 1541.64 0 956.03 -518.58 0zm1150.06 1407.59c0,35.28 -4.12,73.5 -12.35,114.66 -8.23,41.15 -22.34,81.72 -42.33,121.7 -19.99,39.98 -44.69,77.61 -74.09,112.89 -29.39,35.28 -65.26,64.68 -107.59,88.2 77.61,37.63 140.52,83.49 188.73,137.58 48.22,54.09 84.67,111.71 109.36,172.86 24.7,61.15 39.4,124.65 44.1,190.5 2.35,21.17 3.53,43.51 3.53,67.03 0,42.33 -3.53,84.67 -10.58,127 -11.76,84.67 -36.46,165.22 -74.09,241.65 -37.63,76.44 -91.13,143.47 -160.51,201.09 -69.38,57.62 -155.81,104.07 -259.29,139.34 -103.48,35.28 -226.96,52.92 -370.42,52.92l-1005.42 0 0 -2501.2 987.78 0c108.19,0 209.9,15.29 305.15,45.87 95.25,30.57 178.16,77.02 248.71,139.34 70.56,62.33 126.41,139.35 167.57,231.07 41.16,91.72 61.74,197.56 61.74,317.5zm-783.17 246.95c87.02,0 155.22,-24.7 204.61,-74.09 51.74,-54.09 77.61,-112.89 77.61,-176.39 0,-51.74 -21.16,-101.13 -63.5,-148.16 -47.03,-49.39 -119.94,-74.09 -218.72,-74.09l-469.19 0 0 472.73 469.19 0zm0 1016c79.96,0 147.58,-14.11 202.85,-42.34 55.27,-28.22 96.42,-63.5 123.47,-105.83 27.05,-42.33 40.57,-88.19 40.57,-137.58 0,-49.39 -13.52,-95.25 -40.57,-137.59 -27.05,-42.33 -67.62,-77.61 -121.71,-105.83 -54.09,-28.22 -122.29,-42.33 -204.61,-42.33l-469.19 0 0 571.5 469.19 0zm1033.64 3679.48l-543.28 0 -218.72 -571.5 -744.36 0 -208.14 571.5 -553.86 0 874.89 -2497.67 497.41 0 896.06 2497.67zm-1375.83 -1047.75l479.77 0 -158.75 -543.28 -77.61 -356.3 -24.69 0 -77.61 359.83 -141.11 539.75zm-479.78 1725.09l518.59 0 0 1975.56 1079.5 0 0 522.11 -1598.09 0 0 -2497.67zm0 3175.01l518.59 0 0 1975.56 1079.5 0 0 522.11 -1598.09 0 0 -2497.67z"/>
     </clipPath>
    <clipPath id="id7">
     <path d="M13327.53 -688.98l553.86 0 -903.11 2501.2 -500.94 0 -903.12 -2501.2 553.86 0 472.73 1386.42 102.3 515.06 38.81 0 95.25 -515.06 490.36 -1386.42zm-1622.78 3975.82c0,-138.76 29.4,-260.47 88.2,-365.13 58.8,-104.65 135.82,-191.67 231.07,-261.05 95.25,-69.38 204.61,-121.12 328.08,-155.22 123.47,-34.11 248.71,-51.16 375.71,-51.16 127,0 252.24,17.64 375.71,52.92 123.47,35.28 232.83,87.61 328.08,156.99 95.25,69.38 172.28,155.81 231.07,259.29 58.8,103.48 88.2,224.6 88.2,363.36l0 906.64c0,138.76 -29.4,259.88 -88.2,363.36 -58.79,103.48 -135.82,189.91 -231.07,259.29 -95.25,69.38 -204.61,121.71 -328.08,156.99 -123.47,35.28 -248.71,52.92 -375.71,52.92 -127,0 -252.24,-17.06 -375.71,-51.16 -123.47,-34.1 -232.83,-85.84 -328.08,-155.22 -95.25,-69.38 -172.27,-156.4 -231.07,-261.06 -58.8,-104.65 -88.2,-226.36 -88.2,-365.12l0 -906.64zm515.06 906.64c0,54.09 14.7,100.54 44.1,139.35 29.4,38.8 67.61,71.14 114.65,97.01 47.04,25.87 101.13,45.27 162.28,58.21 61.15,12.93 123.47,19.4 186.97,19.4 63.5,0 125.24,-7.05 185.21,-21.16 59.97,-14.12 114.06,-34.11 162.28,-59.98 48.21,-25.87 86.43,-58.21 114.65,-97.01 28.22,-38.81 42.33,-84.08 42.33,-135.82l0 -906.64c0,-54.09 -14.7,-101.13 -44.09,-141.11 -29.4,-39.98 -67.62,-72.91 -114.66,-98.78 -47.03,-25.87 -101.13,-45.27 -162.27,-58.21 -61.15,-12.93 -123.48,-19.4 -186.98,-19.4 -63.5,0 -125.23,7.06 -185.21,21.17 -59.97,14.11 -113.47,34.1 -160.51,59.97 -47.04,25.87 -85.25,58.8 -114.65,98.78 -29.4,39.98 -44.1,85.84 -44.1,137.58l0 906.64zm-208.14 1471.09l518.59 0 0 1975.56 1079.5 0 0 522.11 -1598.09 0 0 -2497.67zm0 3175.01l518.59 0 0 1975.56 1079.5 0 0 522.11 -1598.09 0 0 -2497.67zm428.62 4169.85l1075.98 0 0 504.47 -1075.98 0 0 493.89 1171.23 0 0 504.47 -1693.34 0 0 -2501.2 1693.34 0 0 508 -1171.23 0 0 490.37zm26.46 4677.84l0 -956.03 -867.84 -1541.64 596.2 0 529.17 1044.22 529.16 -1044.22 603.25 0 -871.36 1541.64 0 956.03 -518.58 0zm1150.06 1407.59c0,35.28 -4.12,73.5 -12.35,114.66 -8.23,41.15 -22.34,81.72 -42.33,121.7 -19.99,39.98 -44.69,77.61 -74.09,112.89 -29.39,35.28 -65.26,64.68 -107.59,88.2 77.61,37.63 140.52,83.49 188.73,137.58 48.22,54.09 84.67,111.71 109.36,172.86 24.7,61.15 39.4,124.65 44.1,190.5 2.35,21.17 3.53,43.51 3.53,67.03 0,42.33 -3.53,84.67 -10.58,127 -11.76,84.67 -36.46,165.22 -74.09,241.65 -37.63,76.44 -91.13,143.47 -160.51,201.09 -69.38,57.62 -155.81,104.07 -259.29,139.34 -103.48,35.28 -226.96,52.92 -370.42,52.92l-1005.42 0 0 -2501.2 987.78 0c108.19,0 209.9,15.29 305.15,45.87 95.25,30.57 178.16,77.02 248.71,139.34 70.56,62.33 126.41,139.35 167.57,231.07 41.16,91.72 61.74,197.56 61.74,317.5zm-783.17 246.95c87.02,0 155.22,-24.7 204.61,-74.09 51.74,-54.09 77.61,-112.89 77.61,-176.39 0,-51.74 -21.16,-101.13 -63.5,-148.16 -47.03,-49.39 -119.94,-74.09 -218.72,-74.09l-469.19 0 0 472.73 469.19 0zm0 1016c79.96,0 147.58,-14.11 202.85,-42.34 55.27,-28.22 96.42,-63.5 123.47,-105.83 27.05,-42.33 40.57,-88.19 40.57,-137.58 0,-49.39 -13.52,-95.25 -40.57,-137.59 -27.05,-42.33 -67.62,-77.61 -121.71,-105.83 -54.09,-28.22 -122.29,-42.33 -204.61,-42.33l-469.19 0 0 571.5 469.19 0zm1033.64 3679.48l-543.28 0 -218.72 -571.5 -744.36 0 -208.14 571.5 -553.86 0 874.89 -2497.67 497.41 0 896.06 2497.67zm-1375.83 -1047.75l479.77 0 -158.75 -543.28 -77.61 -356.3 -24.69 0 -77.61 359.83 -141.11 539.75zm-479.78 1725.09l518.59 0 0 1975.56 1079.5 0 0 522.11 -1598.09 0 0 -2497.67zm0 3175.01l518.59 0 0 1975.56 1079.5 0 0 522.11 -1598.09 0 0 -2497.67z"/>
    </clipPath>
 </defs>
 <g id="Layer_x0020_1">
  <metadata id="CorelCorpID_0Corel-Layer"/>
  <path class="fil0" d="M12722.51 -3009.37l27749.49 0 0 35717.07 -27749.49 0c0,-14385.54 0,-22247.18 0,-35717.07z"/>
  <g style="clip-path:url(#id0)">
   <g id="_-1841800736">
   </g>
   <g style="clip-path:url(#id1)">
    <image x="7023.98" y="-14059.18" width="29656.96" height="52432.22" xlink:href="VOLLEY_Images\VOLLEY_ImgID1.png"/>
   </g>
   <g style="clip-path:url(#id2)">
   </g>
  </g>
  <path class="fil1" d="M12722.51 -3009.37l27749.49 0 0 35717.07 -27749.49 0c0,-14385.54 0,-22247.18 0,-35717.07z"/>
  <g>
  </g>
  <g style="clip-path:url(#id3)">
   <g>
    <path class="fil2" d="M10500.01 -3009.37l16509.98 0 0 35717.07 -16509.98 0c0,-14385.54 0,-22247.18 0,-35717.07z"/>
   </g>
   <g style="clip-path:url(#id4)">
    <g id="_-1841801408">
    </g>
    <g style="clip-path:url(#id5)">
     <image x="7023.98" y="-14059.18" width="29656.96" height="52432.22" xlink:href="VOLLEY_Images\VOLLEY_ImgID2.png"/>
    </g>
    <g style="clip-path:url(#id6)">
    </g>
   </g>
   <g style="clip-path:url(#id7)">
    <path class="fil1" d="M10500.01 -3009.37l16509.98 0 0 35717.07 -16509.98 0c0,-14385.54 0,-22247.18 0,-35717.07z"/>
   </g>
  </g>
  <path class="fil3 str0" d="M13327.53 -688.98l553.86 0 -903.11 2501.2 -500.94 0 -903.12 -2501.2 553.86 0 472.73 1386.42 102.3 515.06 38.81 0 95.25 -515.06 490.36 -1386.42zm-1622.78 3975.82c0,-138.76 29.4,-260.47 88.2,-365.13 58.8,-104.65 135.82,-191.67 231.07,-261.05 95.25,-69.38 204.61,-121.12 328.08,-155.22 123.47,-34.11 248.71,-51.16 375.71,-51.16 127,0 252.24,17.64 375.71,52.92 123.47,35.28 232.83,87.61 328.08,156.99 95.25,69.38 172.28,155.81 231.07,259.29 58.8,103.48 88.2,224.6 88.2,363.36l0 906.64c0,138.76 -29.4,259.88 -88.2,363.36 -58.79,103.48 -135.82,189.91 -231.07,259.29 -95.25,69.38 -204.61,121.71 -328.08,156.99 -123.47,35.28 -248.71,52.92 -375.71,52.92 -127,0 -252.24,-17.06 -375.71,-51.16 -123.47,-34.1 -232.83,-85.84 -328.08,-155.22 -95.25,-69.38 -172.27,-156.4 -231.07,-261.06 -58.8,-104.65 -88.2,-226.36 -88.2,-365.12l0 -906.64zm515.06 906.64c0,54.09 14.7,100.54 44.1,139.35 29.4,38.8 67.61,71.14 114.65,97.01 47.04,25.87 101.13,45.27 162.28,58.21 61.15,12.93 123.47,19.4 186.97,19.4 63.5,0 125.24,-7.05 185.21,-21.16 59.97,-14.12 114.06,-34.11 162.28,-59.98 48.21,-25.87 86.43,-58.21 114.65,-97.01 28.22,-38.81 42.33,-84.08 42.33,-135.82l0 -906.64c0,-54.09 -14.7,-101.13 -44.09,-141.11 -29.4,-39.98 -67.62,-72.91 -114.66,-98.78 -47.03,-25.87 -101.13,-45.27 -162.27,-58.21 -61.15,-12.93 -123.48,-19.4 -186.98,-19.4 -63.5,0 -125.23,7.06 -185.21,21.17 -59.97,14.11 -113.47,34.1 -160.51,59.97 -47.04,25.87 -85.25,58.8 -114.65,98.78 -29.4,39.98 -44.1,85.84 -44.1,137.58l0 906.64zm-208.14 1471.09l518.59 0 0 1975.56 1079.5 0 0 522.11 -1598.09 0 0 -2497.67zm0 3175.01l518.59 0 0 1975.56 1079.5 0 0 522.11 -1598.09 0 0 -2497.67zm428.62 4169.85l1075.98 0 0 504.47 -1075.98 0 0 493.89 1171.23 0 0 504.47 -1693.34 0 0 -2501.2 1693.34 0 0 508 -1171.23 0 0 490.37zm26.46 4677.84l0 -956.03 -867.84 -1541.64 596.2 0 529.17 1044.22 529.16 -1044.22 603.25 0 -871.36 1541.64 0 956.03 -518.58 0zm1150.06 1407.59c0,35.28 -4.12,73.5 -12.35,114.66 -8.23,41.15 -22.34,81.72 -42.33,121.7 -19.99,39.98 -44.69,77.61 -74.09,112.89 -29.39,35.28 -65.26,64.68 -107.59,88.2 77.61,37.63 140.52,83.49 188.73,137.58 48.22,54.09 84.67,111.71 109.36,172.86 24.7,61.15 39.4,124.65 44.1,190.5 2.35,21.17 3.53,43.51 3.53,67.03 0,42.33 -3.53,84.67 -10.58,127 -11.76,84.67 -36.46,165.22 -74.09,241.65 -37.63,76.44 -91.13,143.47 -160.51,201.09 -69.38,57.62 -155.81,104.07 -259.29,139.34 -103.48,35.28 -226.96,52.92 -370.42,52.92l-1005.42 0 0 -2501.2 987.78 0c108.19,0 209.9,15.29 305.15,45.87 95.25,30.57 178.16,77.02 248.71,139.34 70.56,62.33 126.41,139.35 167.57,231.07 41.16,91.72 61.74,197.56 61.74,317.5zm-783.17 246.95c87.02,0 155.22,-24.7 204.61,-74.09 51.74,-54.09 77.61,-112.89 77.61,-176.39 0,-51.74 -21.16,-101.13 -63.5,-148.16 -47.03,-49.39 -119.94,-74.09 -218.72,-74.09l-469.19 0 0 472.73 469.19 0zm0 1016c79.96,0 147.58,-14.11 202.85,-42.34 55.27,-28.22 96.42,-63.5 123.47,-105.83 27.05,-42.33 40.57,-88.19 40.57,-137.58 0,-49.39 -13.52,-95.25 -40.57,-137.59 -27.05,-42.33 -67.62,-77.61 -121.71,-105.83 -54.09,-28.22 -122.29,-42.33 -204.61,-42.33l-469.19 0 0 571.5 469.19 0zm1033.64 3679.48l-543.28 0 -218.72 -571.5 -744.36 0 -208.14 571.5 -553.86 0 874.89 -2497.67 497.41 0 896.06 2497.67zm-1375.83 -1047.75l479.77 0 -158.75 -543.28 -77.61 -356.3 -24.69 0 -77.61 359.83 -141.11 539.75zm-479.78 1725.09l518.59 0 0 1975.56 1079.5 0 0 522.11 -1598.09 0 0 -2497.67zm0 3175.01l518.59 0 0 1975.56 1079.5 0 0 522.11 -1598.09 0 0 -2497.67z"/>
 </g>
</svg>
