<?xml version="1.0" encoding="UTF-8"?>
<!DOCTYPE svg PUBLIC "-//W3C//DTD SVG 1.1//EN" "http://www.w3.org/Graphics/SVG/1.1/DTD/svg11.dtd">
<!-- Creator: CorelDRAW X7 -->
<svg xmlns="http://www.w3.org/2000/svg" xml:space="preserve" width="53.0012mm" height="36.1526mm" version="1.1" style="shape-rendering:geometricPrecision; text-rendering:geometricPrecision; image-rendering:optimizeQuality; fill-rule:evenodd; clip-rule:evenodd"
viewBox="0 0 5300 3615"
 xmlns:xlink="http://www.w3.org/1999/xlink">
 <defs>
  <style type="text/css">
   <![CDATA[
    .fil2 {fill:none;fill-rule:nonzero}
    .fil5 {fill:#FEFEFE;fill-rule:nonzero}
    .fil1 {fill:#76B94A;fill-rule:nonzero}
    .fil3 {fill:#4D6F91;fill-rule:nonzero}
    .fil4 {fill:#00A0E3;fill-rule:nonzero}
    .fil0 {fill:#009846;fill-rule:nonzero}
   ]]>
  </style>
     <clipPath id="id0" style="clip-rule:nonzero">
      <path d="M-2 1486c0,-475 97,-841 292,-1099 195,-258 469,-386 825,-386 89,0 173,8 252,24 -370,240 -624,734 -624,1303l0 1 0 0c0,295 -8,589 -8,885 0,241 30,422 90,541 59,119 154,179 284,179 120,0 209,-50 267,-149 -99,302 -285,556 -523,724 -232,-47 -420,-163 -564,-347 -193,-248 -291,-597 -291,-1050 0,-208 0,-417 0,-626z"/>
     </clipPath>
     <clipPath id="id1" style="clip-rule:nonzero">
      <path d="M2285 2129c0,475 -102,841 -307,1099 -204,258 -493,387 -866,387 -94,0 -182,-8 -265,-25 389,-240 656,-733 656,-1303l0 0 0 -1c0,-296 5,-588 5,-884 0,-242 -31,-422 -94,-542 -63,-119 -163,-178 -300,-178 -127,0 -220,49 -281,149 104,-303 300,-557 550,-725 245,47 444,163 596,347 204,248 306,598 306,1050 0,209 0,417 0,626z"/>
     </clipPath>
 </defs>
 <g id="Layer_x0020_1">
  <metadata id="CorelCorpID_0Corel-Layer"/>
  <g id="_1856083166432">
   <g>
    <path class="fil0" d="M-2 1486c0,-475 97,-841 292,-1099 195,-258 469,-386 825,-386 89,0 173,8 252,24 -370,240 -624,734 -624,1303l0 1 0 0c0,295 -8,589 -8,885 0,241 30,422 90,541 59,119 154,179 284,179 120,0 209,-50 267,-149 -99,302 -285,556 -523,724 -232,-47 -420,-163 -564,-347 -193,-248 -291,-597 -291,-1050 0,-208 0,-417 0,-626z"/>
    <g style="clip-path:url(#id0)">
     <g>
      <path id="1" class="fil1" d="M-92 1589c0,-526 97,-931 292,-1217 194,-286 469,-428 824,-428 90,0 174,9 253,27 -371,266 -625,813 -625,1443l0 1 0 0c0,327 -7,652 -7,980 0,268 29,467 89,600 60,131 155,197 284,197 121,0 209,-54 267,-165 -99,335 -284,617 -522,803 -232,-53 -420,-181 -565,-385 -193,-274 -290,-661 -290,-1162 0,-231 0,-462 0,-694z"/>
     </g>
    </g>
    <path class="fil2" d="M-2 1486c0,-475 97,-841 292,-1099 195,-258 469,-386 825,-386 89,0 173,8 252,24 -370,240 -624,734 -624,1303l0 1 0 0c0,295 -8,589 -8,885 0,241 30,422 90,541 59,119 154,179 284,179 120,0 209,-50 267,-149 -99,302 -285,556 -523,724 -232,-47 -420,-163 -564,-347 -193,-248 -291,-597 -291,-1050 0,-208 0,-417 0,-626z"/>
    <path class="fil3" d="M2285 2129c0,475 -102,841 -307,1099 -204,258 -493,387 -866,387 -94,0 -182,-8 -265,-25 389,-240 656,-733 656,-1303l0 0 0 -1c0,-296 5,-588 5,-884 0,-242 -31,-422 -94,-542 -63,-119 -163,-178 -300,-178 -127,0 -220,49 -281,149 104,-303 300,-557 550,-725 245,47 444,163 596,347 204,248 306,598 306,1050 0,209 0,417 0,626z"/>
    <g style="clip-path:url(#id1)">
     <g>
      <path id="1" class="fil4" d="M2570 2105c0,488 -123,863 -369,1127 -246,264 -592,396 -1041,396 -113,0 -219,-8 -319,-25 468,-246 789,-752 789,-1336l0 0 0 0c0,-304 6,-604 6,-907 0,-248 -38,-433 -113,-555 -76,-122 -196,-183 -361,-183 -152,0 -264,50 -338,152 126,-309 361,-570 662,-742 294,48 533,167 716,356 245,254 368,612 368,1076 0,214 0,427 0,641z"/>
     </g>
    </g>
    <path class="fil2" d="M2285 2129c0,475 -102,841 -307,1099 -204,258 -493,387 -866,387 -94,0 -182,-8 -265,-25 389,-240 656,-733 656,-1303l0 0 0 -1c0,-296 5,-588 5,-884 0,-242 -31,-422 -94,-542 -63,-119 -163,-178 -300,-178 -127,0 -220,49 -281,149 104,-303 300,-557 550,-725 245,47 444,163 596,347 204,248 306,598 306,1050 0,209 0,417 0,626z"/>
   </g>
   <g>
    <path class="fil5" d="M3233 1527l-122 435 -121 -435 -128 1 -120 434 -121 -435 -129 0 190 646 120 0 125 -427 125 427 120 0 190 -646 -129 0zm-521 -269l454 -577 0 -159 -671 0 0 158 454 0 -454 578 0 159 671 0 0 -159 -454 0zm761 -131l494 0c1,-14 3,-31 3,-46 0,-89 -26,-175 -82,-242 -62,-75 -158,-112 -258,-112 -99,0 -195,38 -257,112 -56,67 -80,149 -82,242 -3,89 24,173 82,243 62,74 158,107 257,112 100,5 197,-34 264,-108 15,-18 28,-36 40,-55l-168 -74c-5,7 -8,14 -13,22 -28,37 -73,57 -123,57 -48,0 -94,-20 -122,-57 -20,-26 -30,-59 -35,-94zm157 -242c50,0 95,19 123,57 11,16 20,35 26,55l-298 0c6,-20 15,-39 27,-55 28,-38 74,-57 122,-57zm815 -157c-40,3 -81,13 -117,35 -31,19 -55,45 -72,75l0 -92 -149 0 0 671 170 0 0 -358c0,-50 14,-95 44,-127 23,-25 58,-42 106,-46 49,-4 95,4 130,18l0 -157c-37,-15 -76,-21 -112,-19zm514 708c101,0 194,-38 257,-112 57,-71 84,-147 84,-243 0,-90 -24,-171 -84,-242 -62,-75 -158,-112 -257,-112 -98,0 -196,38 -258,112 -53,65 -82,148 -82,242 0,92 25,173 82,243 62,73 158,112 258,112zm123 -215c-27,37 -74,57 -123,57 -50,0 -96,-20 -123,-57 -29,-38 -38,-89 -38,-140 0,-51 9,-103 38,-140 27,-37 73,-56 123,-56 49,0 96,19 123,56 28,37 38,89 38,140 0,51 -10,102 -38,140zm-2326 1293c-3,11 -9,22 -16,31 -17,24 -47,36 -76,36 -31,0 -60,-12 -77,-36 -18,-23 -24,-54 -24,-85 0,-31 6,-63 24,-86 17,-23 46,-36 77,-36 29,0 59,13 76,36 8,10 13,22 17,34l68 -12c-6,-21 -16,-43 -32,-62 -31,-39 -78,-58 -129,-58 -51,0 -99,19 -130,58 -29,34 -42,77 -42,126 0,46 13,90 42,125 29,37 78,58 130,58 49,0 97,-19 129,-58 13,-16 23,-34 29,-52l-66 -19zm242 129c40,0 76,-15 101,-44 23,-28 33,-58 33,-95 0,-36 -9,-68 -33,-96 -24,-29 -62,-44 -101,-44 -39,0 -77,16 -101,44 -21,26 -32,59 -32,96 0,36 9,68 32,95 24,29 62,44 101,44zm48 -85c-10,15 -28,23 -48,23 -20,0 -38,-8 -48,-23 -12,-14 -15,-34 -15,-54 0,-20 3,-41 15,-56 10,-14 28,-22 48,-22 20,0 38,8 48,22 12,15 16,36 16,56 0,20 -4,40 -16,54zm498 -168c-17,-15 -41,-25 -63,-25 -33,0 -64,16 -83,43 -3,-6 -8,-12 -14,-18 -17,-15 -41,-25 -63,-25 -30,0 -58,13 -76,35l0 -28 -59 0 0 264 67 0 0 -160c0,-13 2,-25 12,-37 8,-9 21,-14 34,-14 12,0 25,4 34,14 9,10 12,19 12,36l0 161 68 0 0 -160c0,-13 2,-25 12,-37 8,-9 21,-14 34,-14 12,0 25,4 33,14 10,10 13,19 13,36l0 161 68 0 0 -161c0,-34 -6,-64 -29,-85zm445 0c-17,-15 -41,-25 -63,-25 -33,0 -64,16 -82,43 -4,-6 -9,-12 -15,-18 -17,-15 -41,-25 -63,-25 -29,0 -57,13 -76,35l0 -28 -59 0 0 264 67 0 0 -160c0,-13 2,-25 12,-37 9,-9 22,-14 34,-14 13,0 26,4 34,14 9,10 13,19 13,36l0 161 67 0 0 -160c0,-13 2,-25 12,-37 9,-9 21,-14 34,-14 13,0 26,4 34,14 9,10 13,19 13,36l0 161 67 0 0 -161c0,-34 -6,-64 -29,-85zm258 -18l0 115c0,18 0,36 -3,48 -2,14 -9,26 -19,33 -9,7 -19,10 -31,11 -19,0 -33,-5 -42,-15 -14,-14 -18,-36 -18,-60l0 -132 -67 0 0 132c0,46 4,81 36,110 21,19 52,30 81,29 24,-1 51,-9 72,-25l0 18 58 0 0 -264 -67 0zm348 22c-21,-19 -53,-31 -82,-30 -24,1 -50,9 -71,26l0 -18 -59 0 0 264 67 0 0 -115c0,-18 0,-36 3,-48 3,-15 10,-26 19,-34 9,-6 19,-10 32,-10 18,0 32,5 41,15 14,13 18,36 18,60l0 132 67 0 0 -132c0,-46 -4,-81 -35,-110zm99 -118l0 59 66 0 0 -59 -66 0zm0 96l0 264 66 0 0 -264 -66 0zm308 51l0 -51 -76 0 0 -74 -67 0 0 74 -55 0 0 51 55 0 0 101c0,29 2,54 13,75 10,20 29,31 53,38 19,6 56,5 77,-1l0 -57c-14,2 -30,2 -43,1 -10,-1 -21,-7 -27,-16 -6,-9 -6,-25 -6,-45l0 -96 76 0zm234 -51l-68 187 -65 -187 -67 0 102 272c-8,23 -18,40 -26,44 -4,3 -17,4 -25,3l-7 -1 0 63 4 0c24,0 44,-2 63,-16 19,-14 32,-38 42,-66l113 -299 -66 0zm-1731 -541c3,-4 7,-9 10,-12 19,-23 45,-30 77,-30 25,-1 49,4 69,15 18,10 31,26 35,45l-77 11c-70,11 -107,12 -161,40 -46,27 -78,78 -78,130 0,43 12,67 38,102 26,30 75,54 122,54 37,0 79,-9 113,-30 22,-13 52,-40 61,-65l0 82 106 0 0 -304c0,-30 -7,-66 -26,-97 -39,-66 -111,-96 -200,-96 -80,0 -146,26 -190,88 -4,4 -7,11 -10,14l111 53zm194 116c0,4 -1,22 -6,42 -15,58 -77,84 -128,85 -40,2 -66,-23 -64,-52 2,-38 56,-48 108,-58l90 -17zm625 -130c-19,-51 -56,-93 -103,-118 -34,-17 -71,-24 -104,-24 -33,-1 -68,3 -106,19 -51,22 -88,71 -88,132 0,34 17,73 50,99 25,19 52,31 96,43 27,7 52,13 78,20 16,5 39,12 50,24 6,6 8,12 8,21 -2,9 -3,14 -12,22 -15,12 -46,17 -68,17 -30,0 -60,-5 -81,-28 -14,-14 -23,-40 -23,-55l-115 29c1,25 28,79 51,104 45,47 101,65 168,65 49,0 96,-8 134,-32 41,-26 66,-65 69,-111 4,-50 -17,-91 -56,-121 -32,-26 -55,-32 -96,-44 -24,-7 -51,-14 -76,-21 -24,-7 -44,-15 -51,-24 -1,-3 -3,-6 -3,-11 0,-5 3,-13 17,-22 12,-7 31,-11 52,-11 20,0 38,4 53,13 16,8 32,26 37,43l119 -29zm407 -34l0 -94 -140 0 0 -135 -122 0 0 135 -100 0 0 94 100 0 0 185c0,52 3,99 23,138 19,36 53,57 97,70 36,10 103,8 142,-3l0 -105c-26,4 -56,5 -79,3 -19,-2 -39,-13 -49,-30 -11,-17 -12,-45 -12,-82l0 -176 140 0zm213 181l356 0c1,-11 2,-22 2,-33 0,-65 -19,-127 -60,-175 -44,-54 -114,-81 -185,-81 -72,0 -141,28 -186,81 -41,48 -57,108 -59,175 -2,63 18,124 59,175 45,54 114,77 186,81 71,3 141,-25 190,-79 11,-12 20,-26 29,-39l-122 -53c-3,4 -5,10 -9,15 -20,27 -53,42 -88,42 -35,0 -69,-15 -88,-42 -15,-19 -22,-42 -25,-67zm113 -175c35,0 68,14 88,41 8,12 15,25 19,40l-215 0c5,-15 11,-28 20,-40 19,-27 53,-41 88,-41z"/>
    <path class="fil5" d="M2596 3090l18 0 -53 -155 -23 0 -53 155 18 0 10 -30 73 0 10 30zm-77 -46l30 -90 31 90 -61 0z"/>
    <polygon id="1" class="fil5" points="2735,3017 2782,3090 2803,3090 2750,3009 2799,2935 2777,2935 2735,3002 2698,3002 2698,2935 2680,2935 2680,3090 2698,3090 2698,3017 "/>
    <path id="2" class="fil5" d="M2886 2935l0 107c0,13 0,21 -5,31 -8,13 -20,20 -37,20 -7,0 -15,-2 -22,-5 -10,-6 -17,-16 -19,-27l17 -4c1,6 5,12 11,15 4,3 8,5 13,5 9,0 17,-5 21,-13 3,-6 3,-11 3,-22l0 -107 18 0z"/>
    <path id="3" class="fil5" d="M3029 2974c-6,-15 -15,-27 -27,-34 -10,-6 -22,-8 -33,-8 -10,0 -20,1 -30,7 -13,6 -23,19 -23,34 0,9 4,20 12,27 8,7 18,11 29,14l28 9c8,2 14,5 19,10 5,4 7,10 7,16 0,7 -3,15 -9,20 -8,5 -19,8 -30,8 -13,0 -27,-5 -35,-16 -5,-6 -8,-14 -9,-22l-18 4c2,10 6,20 13,29 11,15 29,21 49,21 15,0 29,-2 40,-10 11,-7 18,-21 18,-33 0,-11 -5,-22 -13,-30 -7,-7 -17,-11 -28,-14l-27 -9c-9,-2 -17,-5 -22,-10 -3,-4 -5,-8 -5,-14 0,-7 5,-15 12,-19 6,-4 14,-5 22,-5 9,0 17,2 24,6 9,6 14,14 18,24l18 -5z"/>
    <path id="4" class="fil5" d="M3166 3039c-1,7 -4,13 -8,19 -10,12 -26,19 -41,19 -16,0 -32,-7 -41,-19 -10,-13 -13,-29 -13,-45 0,-16 3,-33 13,-45 9,-13 25,-19 41,-19 15,0 31,6 41,19 4,6 7,13 9,20l18 -3c-2,-10 -7,-19 -14,-28 -12,-17 -33,-25 -54,-25 -22,0 -42,8 -55,25 -13,16 -17,35 -17,56 0,20 4,39 17,56 13,16 33,24 55,24 21,0 41,-8 54,-24 6,-8 10,-16 13,-25l-18 -5z"/>
    <polygon id="5" class="fil5" points="3307,2953 3307,2935 3211,2935 3211,3090 3307,3090 3307,3073 3228,3073 3228,3022 3294,3022 3294,3004 3228,3004 3228,2953 "/>
    <path id="6" class="fil5" d="M3486 2951c-5,-6 -12,-10 -20,-13 -5,-2 -10,-3 -16,-3l-65 0 0 155 17 0 0 -58 48 0c15,0 29,-7 38,-18 6,-8 11,-19 11,-30 0,-12 -5,-24 -13,-33zm-12 53c-6,7 -15,11 -24,11l-48 0 0 -63 48 0c8,0 16,4 22,10 6,6 9,14 9,22 0,7 -3,14 -7,20z"/>
    <path id="7" class="fil5" d="M3534 3003c1,-1 2,-2 3,-4 6,-8 16,-11 27,-11 9,0 18,1 24,7 6,4 9,10 10,18l-24 3c-18,3 -31,4 -44,11 -10,6 -17,17 -17,29 0,8 3,15 7,21 6,9 18,16 30,16 10,1 21,-2 30,-7 8,-3 16,-10 20,-19l0 23 16 0 0 -73c0,-6 -1,-14 -5,-20 -8,-18 -25,-26 -47,-26 -17,0 -32,6 -42,20 -2,1 -3,3 -4,5l16 7zm64 25c0,9 0,17 -4,26 -7,15 -26,24 -42,23 -12,-1 -21,-11 -21,-22 0,-17 21,-20 39,-23 12,-2 20,-3 28,-4z"/>
    <path id="8" class="fil5" d="M3696 2971c-9,0 -19,3 -27,9 -4,3 -7,7 -9,11l0 -17 -16 0 0 116 17 0 0 -56c0,-16 1,-28 11,-38 6,-5 14,-8 23,-9 6,0 12,1 17,3l0 -17c-5,-2 -11,-2 -16,-2z"/>
    <polygon id="9" class="fil5" points="3805,2974 3772,3068 3738,2974 3721,2974 3763,3090 3781,3090 3823,2974 "/>
    <path id="10" class="fil5" d="M3856 3003c1,-1 2,-2 3,-4 6,-8 16,-11 27,-11 9,0 18,1 24,7 5,4 9,10 10,18l-24 3c-18,3 -31,4 -44,11 -10,6 -17,17 -17,29 0,8 3,15 7,21 6,9 18,16 30,16 10,1 20,-2 30,-7 8,-3 16,-10 20,-19l0 23 16 0 0 -73c0,-6 -1,-14 -5,-20 -8,-18 -26,-26 -47,-26 -17,0 -32,6 -42,20 -2,1 -3,3 -4,5l16 7zm64 25c0,9 0,17 -4,26 -7,15 -26,24 -42,23 -12,-1 -21,-11 -21,-22 0,-17 21,-20 39,-23 12,-2 20,-3 28,-4z"/>
    <path id="11" class="fil5" d="M3980 3003c1,-1 2,-2 3,-4 6,-8 16,-11 27,-11 9,0 18,1 24,7 5,4 9,10 10,18l-24 3c-18,3 -31,4 -44,11 -10,6 -17,17 -17,29 0,8 3,15 7,21 6,9 18,16 30,16 10,1 21,-2 30,-7 8,-3 16,-10 20,-19l0 23 16 0 0 -73c0,-6 -1,-14 -5,-20 -8,-18 -25,-26 -47,-26 -17,0 -32,6 -42,20 -2,1 -3,3 -4,5l16 7zm64 25c0,9 0,17 -4,26 -7,15 -26,24 -42,23 -12,-1 -21,-11 -21,-22 0,-17 21,-20 39,-23 12,-2 20,-3 28,-4z"/>
    <path id="12" class="fil5" d="M4172 2981c-9,-7 -21,-10 -32,-10 -11,1 -22,5 -31,12 -1,2 -2,3 -3,4l0 -52 -16 0 0 155 17 0 0 -59c0,-6 1,-12 2,-16 1,-8 5,-15 10,-20 5,-4 12,-7 19,-7 9,0 16,2 22,6 11,9 13,22 13,39l0 57 18 0 0 -57c0,-21 -3,-40 -19,-52z"/>
    <path id="13" class="fil5" d="M4343 3011l0 14 39 0c-1,12 -5,23 -11,33 -10,12 -25,19 -41,19 -16,0 -32,-7 -41,-19 -10,-12 -12,-29 -13,-45 1,-16 3,-33 13,-45 9,-13 25,-19 41,-19 16,0 31,6 41,19 1,2 3,5 5,8l16 -7c-2,-4 -5,-9 -8,-12 -13,-17 -32,-25 -54,-25 -22,0 -43,8 -55,25 -13,16 -17,36 -17,56 0,19 4,39 17,55 12,17 33,25 55,25 21,0 41,-7 54,-25 12,-15 17,-33 18,-52l0 -5 -59 0z"/>
    <path id="14" class="fil5" d="M4474 3093c17,0 32,-6 42,-19 10,-12 14,-26 14,-42 0,-15 -3,-30 -14,-42 -9,-13 -25,-19 -42,-19 -16,0 -32,6 -42,19 -10,12 -13,27 -13,42 0,15 3,30 13,42 10,13 26,19 42,19zm29 -29c-7,8 -17,13 -29,13 -11,0 -22,-5 -28,-13 -7,-9 -9,-21 -9,-32 0,-11 2,-23 9,-32 6,-8 17,-13 28,-13 12,0 22,5 29,13 6,9 8,21 8,32 0,11 -2,23 -8,32z"/>
    <path id="15" class="fil5" d="M4568 3003c1,-1 2,-2 3,-4 6,-8 16,-11 27,-11 9,0 17,1 24,7 5,4 8,10 9,18l-24 3c-18,3 -30,4 -43,11 -11,6 -17,17 -17,29 0,8 2,15 7,21 6,9 18,16 30,16 10,1 20,-2 30,-7 8,-3 16,-10 20,-19l0 23 16 0 0 -73c0,-6 -2,-14 -5,-20 -8,-18 -26,-26 -47,-26 -17,0 -33,6 -43,20 -1,1 -2,3 -3,5l16 7zm64 25c0,9 0,17 -4,26 -7,15 -27,24 -42,23 -12,-1 -22,-11 -21,-22 0,-17 20,-20 39,-23 12,-2 20,-3 28,-4z"/>
    <polygon id="16" class="fil5" points="4678,3090 4678,2932 4695,2932 4695,3090 "/>
   </g>
  </g>
 </g>
</svg>
