<?xml version="1.0" encoding="UTF-8"?>
<!DOCTYPE svg PUBLIC "-//W3C//DTD SVG 1.1//EN" "http://www.w3.org/Graphics/SVG/1.1/DTD/svg11.dtd">
<!-- Creator: CorelDRAW X7 -->
<svg xmlns="http://www.w3.org/2000/svg" xml:space="preserve" width="43.3492mm" height="20.9972mm" version="1.1" style="shape-rendering:geometricPrecision; text-rendering:geometricPrecision; image-rendering:optimizeQuality; fill-rule:evenodd; clip-rule:evenodd"
viewBox="0 0 4335 2100"
 xmlns:xlink="http://www.w3.org/1999/xlink">
 <defs>
  <style type="text/css">
   <![CDATA[
    .fil1 {fill:none}
    .fil0 {fill:#EBECEC}
    .fil3 {fill:#0B599D}
    .fil2 {fill:#2B2A29;fill-rule:nonzero}
    .fil4 {fill:white;fill-rule:nonzero}
   ]]>
  </style>
 </defs>
 <g id="Layer_x0020_1">
  <metadata id="CorelCorpID_0Corel-Layer"/>
  <g id="_2358046922112">
   <path class="fil0" d="M749 1979c409,0 741,-332 741,-741 0,-409 -332,-741 -741,-741 -410,0 -741,332 -741,741 0,409 331,741 741,741z"/>
   <path class="fil1" d="M749 497c409,0 740,332 740,741 0,409 -331,740 -740,740 -409,0 -741,-331 -741,-740 0,-409 332,-741 741,-741z"/>
   <path class="fil2" d="M134 1453l20 -8c-1,5 -2,10 -2,15 0,4 1,9 3,13 1,3 2,5 3,7 1,1 3,3 4,3 1,1 3,2 4,2 1,0 3,0 4,0 2,-1 3,-2 4,-4 1,-1 2,-3 2,-5 1,-2 1,-5 1,-8 0,-3 0,-5 0,-9 0,-8 2,-14 5,-19 2,-5 7,-9 13,-12 4,-1 9,-2 13,-2 4,1 7,2 11,5 3,2 6,5 9,9 3,4 5,8 7,13 2,4 3,8 4,12 1,4 1,8 1,11l-18 8c0,-2 1,-4 1,-6 0,-2 0,-4 0,-7 -1,-2 -1,-4 -2,-6 0,-1 -1,-3 -1,-5 -1,-2 -2,-4 -3,-6 -2,-2 -3,-3 -4,-4 -1,-1 -3,-1 -4,-2 -2,0 -3,0 -4,1 -2,0 -3,1 -4,3 -1,1 -1,2 -2,4 0,2 -1,4 -1,7 0,2 0,5 0,8 0,4 0,8 -1,11 0,4 -1,7 -3,10 -1,3 -3,5 -5,8 -2,2 -5,4 -9,5 -5,2 -9,3 -13,2 -5,0 -8,-2 -12,-4 -3,-3 -6,-6 -9,-10 -2,-4 -5,-8 -6,-13 -2,-4 -4,-9 -5,-14 -1,-5 -1,-9 -1,-13zm139 112l-14 -23 -68 38 -10 -19 68 -38 -14 -24 16 -8 37 66 -15 8zm33 97c-22,18 -42,18 -59,-3 -17,-19 -15,-38 6,-57l42 -36 14 17 -42 36c-12,10 -13,20 -6,29 8,9 18,9 29,-1l43 -37 14 16 -41 36zm-3 54l63 -72 25 23c26,22 28,45 8,68 -10,11 -21,17 -34,18 -13,1 -25,-4 -37,-14l-25 -23zm68 -44l-40 45 8 7c7,6 14,9 22,8 7,0 14,-4 21,-11 6,-7 9,-14 8,-22 -1,-7 -4,-14 -11,-20l-8 -7zm76 146l-50 -29 48 -82 48 28 -9 15 -29 -17 -11 18 27 16 -8 15 -27 -16 -11 19 30 18 -8 15zm110 47l-20 -8 -15 -70c-1,-4 -1,-7 -2,-9l0 -1c-1,4 -2,9 -5,15l-19 49 -19 -7 35 -89 21 8 15 68c0,3 1,6 1,9l1 0c0,-2 1,-6 4,-12l19 -50 19 8 -35 89zm119 -56l-27 -4 -13 77 -21 -4 13 -77 -27 -4 3 -18 75 13 -3 17zm14 78l1 -22c3,4 8,6 12,8 5,2 9,3 14,3 2,0 5,-1 7,-1 2,0 4,-1 5,-2 1,-1 2,-2 3,-3 1,-1 1,-2 1,-4 0,-2 0,-3 -1,-5 -1,-1 -3,-3 -5,-4 -2,-1 -4,-2 -6,-4 -3,-1 -5,-2 -8,-3 -8,-4 -13,-8 -17,-12 -3,-5 -5,-10 -5,-16 0,-5 1,-10 3,-13 2,-4 5,-7 9,-9 3,-2 7,-4 12,-5 4,-1 9,-1 14,-1 5,0 9,0 13,1 4,1 8,2 11,3l-1 20c-1,-1 -3,-2 -5,-3 -2,-1 -4,-2 -6,-2 -1,-1 -3,-1 -5,-2 -2,0 -4,0 -6,0 -3,0 -5,0 -7,0 -2,1 -3,1 -5,2 -1,1 -2,2 -3,3 -1,1 -1,3 -1,4 0,2 0,3 1,4 1,2 2,3 3,4 2,1 4,2 6,4 2,1 5,2 7,3 4,2 8,4 11,5 3,2 5,4 7,7 3,2 4,5 5,8 1,2 2,6 2,10 0,5 -1,10 -3,13 -3,4 -5,7 -9,9 -3,2 -7,3 -12,4 -5,1 -10,2 -15,2 -5,-1 -10,-1 -15,-2 -4,-1 -8,-2 -12,-4zm112 -96l-10 31 -13 1 5 -30 18 -2zm131 72c-6,5 -15,8 -26,11 -14,3 -26,2 -37,-5 -10,-6 -16,-17 -20,-31 -3,-15 -1,-28 6,-39 7,-11 18,-19 33,-22 9,-2 17,-3 23,-2l5 20c-7,-2 -15,-2 -23,-1 -8,2 -15,7 -19,14 -4,6 -5,14 -3,24 2,9 6,15 13,20 6,4 14,5 22,3 8,-2 15,-6 21,-11l5 19zm71 -21c-13,6 -25,6 -36,2 -12,-5 -21,-14 -26,-27 -7,-14 -8,-27 -4,-39 5,-12 13,-21 26,-27 13,-5 25,-6 36,-1 11,4 20,13 26,27 6,13 7,26 3,38 -4,12 -13,21 -25,27zm-33 -74c-6,3 -11,8 -12,15 -2,7 -1,15 3,24 4,8 9,14 15,17 6,4 13,4 19,1 7,-3 11,-8 13,-15 2,-6 1,-14 -3,-23 -4,-9 -9,-15 -15,-18 -6,-4 -13,-4 -20,-1zm148 -41c16,24 13,44 -10,58 -22,14 -40,9 -55,-14l-30 -47 18 -11 30 46c8,13 18,17 28,10 10,-6 11,-16 2,-29l-30 -47 18 -11 29 45zm116 -50l-16 15 -70 -16c-4,-1 -7,-1 -9,-2l0 0c2,2 6,6 11,11l36 38 -14 14 -67 -69 17 -16 68 15c3,1 6,2 9,3l0 0c-2,-2 -5,-5 -10,-10l-36 -38 14 -14 67 69zm63 -89c-2,7 -6,16 -12,25 -8,12 -19,19 -31,21 -11,2 -23,-2 -35,-10 -12,-9 -20,-20 -22,-33 -2,-13 1,-26 9,-38 6,-8 11,-14 17,-17l17 12c-7,3 -13,7 -17,14 -6,7 -8,15 -6,23 1,8 6,14 14,20 7,5 15,7 22,6 8,-1 14,-5 19,-12 5,-7 8,-14 9,-23l16 12zm31 -48l-11 19 -83 -48 11 -19 83 48zm38 -89l-20 53 -90 -35 8 -20 73 29 13 -33 16 6z"/>
   <g>
    <path class="fil3" d="M445 982c-53,2 -141,39 -170,66 -30,28 -17,51 0,85 12,25 26,55 39,82 21,42 143,306 156,321l-39 -344 139 23 134 345c11,28 31,97 48,113l177 -459 137 -21 -36 331c1,8 0,5 3,10 6,-21 28,-64 38,-84 53,-105 107,-227 159,-331 22,-42 7,-61 -20,-81 -33,-24 -136,-61 -183,-62 24,-1 230,72 45,141 -200,74 -707,50 -721,-60 -6,-45 65,-58 94,-75z"/>
    <path class="fil3" d="M726 919c-118,28 -74,210 47,180 113,-28 77,-210 -47,-180z"/>
    <path class="fil3" d="M312 806c-93,29 -51,170 44,142 91,-28 51,-170 -44,-142z"/>
    <path class="fil3" d="M1139 809c-95,37 -35,174 54,136 87,-37 37,-172 -54,-136z"/>
   </g>
   <path class="fil2" d="M602 689l-29 10 -44 -36c-1,-1 -2,-3 -5,-5l0 0 16 51 -24 7 -31 -104 23 -7 15 49 0 0c0,-2 1,-4 1,-7l16 -52 28 -8 -21 60 55 42zm67 -56c3,14 1,26 -4,34 -6,9 -15,14 -27,16 -6,1 -11,1 -16,0l-4 -23c5,3 10,4 15,3 11,-2 15,-11 12,-27l-10 -64 24 -4 10 65zm41 34l0 -24c4,4 9,6 14,8 5,2 11,3 16,3 3,0 6,-1 8,-1 2,-1 4,-1 6,-2 1,-1 2,-3 3,-4 1,-1 1,-3 1,-4 0,-2 -1,-4 -2,-6 -1,-2 -3,-3 -5,-5 -2,-1 -4,-2 -7,-4 -3,-1 -6,-2 -10,-3 -8,-4 -14,-8 -19,-13 -4,-5 -6,-11 -6,-19 0,-5 1,-10 3,-14 2,-4 5,-8 9,-10 4,-3 9,-5 14,-6 5,-1 10,-2 16,-2 6,0 11,0 15,1 5,0 9,1 12,3l0 22c-1,-1 -3,-2 -5,-3 -3,-1 -5,-2 -7,-2 -2,-1 -5,-1 -7,-2 -2,0 -4,0 -6,0 -3,0 -6,0 -8,1 -2,0 -4,1 -6,2 -1,1 -2,2 -3,4 -1,1 -1,2 -1,4 0,2 0,4 1,5 1,1 2,3 4,4 2,1 4,3 7,4 2,1 5,2 8,3 5,2 9,4 12,6 3,2 6,4 9,7 2,3 4,5 6,9 1,3 2,7 2,11 0,6 -1,11 -4,15 -2,5 -5,8 -9,11 -4,2 -8,4 -13,5 -6,1 -11,2 -17,2 -6,0 -12,0 -17,-1 -5,-1 -10,-3 -14,-5zm184 16c-8,3 -19,3 -31,1 -17,-3 -29,-10 -37,-21 -7,-11 -10,-25 -7,-41 2,-17 10,-30 22,-39 13,-9 27,-12 44,-9 10,2 19,4 26,8l-4 23c-7,-5 -14,-8 -23,-10 -11,-2 -19,0 -26,6 -8,5 -12,13 -14,24 -1,10 0,19 5,26 5,7 12,11 22,13 9,1 18,1 27,-3l-4 22zm93 39l-61 -23 38 -102 59 22 -7 19 -36 -13 -8 22 33 13 -7 18 -33 -12 -9 23 38 14 -7 19z"/>
   <g>
    <path class="fil4" d="M1764 1540c0,-5 -2,-11 -6,-16 -3,-5 -8,-8 -13,-10 -3,-1 -6,-1 -9,-1l-38 0 0 83 16 0 0 -28 22 0c9,0 18,-5 22,-11 4,-5 6,-11 6,-17zm-19 8c-2,3 -6,5 -9,5l-22 0 0 -25 22 0c3,0 7,2 9,4 2,2 3,5 3,8 0,3 -1,6 -3,8zm70 -14l0 27c0,4 0,8 -1,11 -1,4 -2,6 -5,8 -2,2 -4,2 -7,3 -4,0 -8,-2 -10,-4 -3,-3 -4,-8 -4,-14l0 -31 -16 0 0 31c0,11 1,19 8,26 5,4 13,7 20,7 5,0 12,-2 17,-6l0 4 14 0 0 -62 -16 0zm85 8c-5,-7 -14,-10 -22,-10 -6,0 -11,2 -15,4l0 -23 -16 0 0 83 14 0 0 -4c4,4 11,6 18,6 8,0 16,-4 21,-10 5,-7 7,-15 7,-23 0,-9 -2,-17 -7,-23zm-12 36c-3,4 -8,6 -12,6 -4,0 -8,-2 -11,-5 -3,-3 -4,-8 -4,-14 0,-6 1,-11 4,-15 3,-3 6,-4 10,-4 6,0 10,1 12,5 3,4 4,9 4,14 0,5 -1,10 -3,13zm32 18l0 -85 16 0 0 85 -16 0zm33 -85l0 14 16 0 0 -14 -16 0zm0 23l0 62 16 0 0 -62 -16 0zm88 14c0,-2 -2,-4 -3,-6 -6,-6 -15,-10 -24,-10 -9,0 -18,3 -24,10 -5,7 -7,14 -7,23 0,8 2,16 7,22 6,7 15,11 24,11 9,0 18,-4 24,-11 1,-1 2,-3 3,-5l-14 -6c-1,1 -1,1 -1,2 -3,3 -7,5 -12,5 -4,0 -9,-2 -11,-5 -3,-4 -4,-8 -4,-13 0,-5 1,-10 4,-13 2,-4 7,-5 11,-5 5,0 9,1 12,5 0,1 0,1 1,2l14 -6zm97 9c4,-5 6,-11 6,-17 0,-5 -2,-11 -6,-16 -3,-5 -8,-8 -14,-10 -2,-1 -5,-1 -8,-1l-38 0 0 83 16 0 0 -28 18 0 14 28 18 0 -15 -31c3,-2 7,-5 9,-8zm-44 -29l22 0c3,0 7,2 9,4 2,2 3,5 3,8 0,3 -1,6 -3,8 -2,3 -6,5 -9,5l-22 0 0 -25zm73 41l46 0c0,-1 0,-3 0,-4 0,-8 -3,-16 -8,-23 -6,-7 -14,-10 -24,-10 -9,0 -18,4 -24,10 -5,7 -7,14 -7,23 0,8 2,16 7,22 6,7 15,10 24,11 10,0 19,-3 25,-10 1,-2 2,-4 3,-5l-15 -7c-1,0 -1,1 -1,2 -3,3 -7,5 -12,5 -4,0 -8,-2 -11,-5 -2,-3 -3,-6 -3,-9zm14 -22c5,0 9,1 12,5 1,1 2,3 2,5l-28 0c1,-2 2,-4 3,-5 3,-4 7,-5 11,-5zm45 49l0 -85 15 0 0 85 -15 0zm44 -44c1,-1 1,-1 1,-2 3,-2 6,-3 10,-3 3,0 7,0 9,2 2,1 4,3 5,5l-10 2c-9,1 -14,1 -21,5 -6,3 -10,10 -10,17 0,5 2,8 5,13 3,4 10,7 16,7 4,0 10,-1 14,-4 3,-2 7,-5 8,-9l0 11 14 0 0 -39c0,-4 -1,-9 -4,-13 -5,-8 -14,-12 -25,-12 -11,0 -19,3 -25,11 0,1 -1,2 -1,2l14 7zm25 15c0,1 0,3 -1,5 -2,8 -10,11 -16,11 -5,1 -9,-3 -8,-6 0,-5 7,-7 14,-8l11 -2zm70 -21l0 -12 -18 0 0 -18 -15 0 0 18 -13 0 0 12 13 0 0 24c0,6 0,12 3,17 2,5 7,8 12,9 5,2 14,1 18,0l0 -13c-3,0 -7,0 -10,0 -2,0 -5,-2 -6,-4 -1,-2 -2,-6 -2,-11l0 -22 18 0zm15 -35l0 14 16 0 0 -14 -16 0zm0 23l0 62 16 0 0 -62 -16 0zm62 64c9,0 18,-4 24,-11 5,-6 7,-13 7,-22 0,-9 -2,-16 -7,-23 -6,-7 -15,-10 -24,-10 -10,0 -19,4 -24,10 -5,6 -8,14 -8,23 0,8 2,16 8,22 5,7 14,11 24,11zm11 -20c-2,3 -7,5 -11,5 -5,0 -9,-2 -12,-5 -2,-4 -3,-8 -3,-13 0,-5 1,-10 3,-13 3,-4 7,-5 12,-5 4,0 9,1 11,5 3,3 4,8 4,13 0,5 -1,9 -4,13zm83 -39c-5,-5 -12,-7 -19,-7 -6,0 -12,2 -17,6l0 -4 -14 0 0 62 16 0 0 -27c0,-4 0,-9 1,-11 0,-4 2,-7 4,-8 2,-2 5,-3 8,-3 4,0 7,1 9,4 4,3 5,8 5,14l0 31 15 0 0 -31c0,-11 -1,-19 -8,-26zm72 11c-2,-6 -7,-12 -13,-15 -4,-2 -9,-3 -13,-3 -5,0 -9,0 -14,2 -7,3 -12,10 -12,17 0,5 3,10 7,13 3,3 7,4 12,6 4,1 7,1 10,2 2,1 5,2 7,3 1,1 1,2 1,3 0,1 -1,2 -2,3 -2,1 -6,2 -9,2 -3,0 -7,-1 -10,-4 -2,-1 -3,-5 -3,-7l-15 4c1,3 4,10 7,14 6,6 13,8 21,8 7,0 13,-1 18,-4 5,-4 8,-9 9,-15 0,-6 -2,-11 -8,-15 -4,-3 -7,-4 -12,-6 -3,-1 -7,-2 -10,-2 -3,-1 -5,-2 -6,-4 0,0 -1,0 -1,-1 0,-1 1,-2 2,-3 2,-1 5,-1 7,-1 3,0 5,0 7,1 2,1 4,4 5,6l15 -4zm-834 111l0 57 -60 0 0 -57 -13 0 0 111 13 0 0 -41 60 0 0 41 12 0 0 -111 -12 0zm37 0l0 13 12 0 0 -13 -12 0zm0 27l0 84 12 0 0 -84 -12 0zm137 7c-5,-4 -11,-7 -18,-7 -9,0 -18,5 -23,13 -1,0 -1,1 -2,2 -1,-3 -3,-6 -6,-8 -5,-4 -12,-7 -18,-7 -9,0 -18,4 -23,12l0 -12 -12 0 0 84 13 0 0 -51c0,-6 1,-10 4,-15 4,-4 9,-6 15,-6 4,0 9,1 12,4 6,5 6,10 6,18l0 50 12 0 1 -50 0 -1c0,-6 0,-10 4,-15 3,-4 9,-6 15,-6 4,0 8,1 11,4 6,5 7,10 7,18l0 50 12 0 0 -50c0,-11 -1,-20 -10,-27zm39 14c1,-1 1,-1 2,-2 5,-6 12,-9 19,-9 7,0 13,2 18,5 4,3 6,8 7,13l-18 3c-13,2 -22,2 -31,7 -7,5 -12,13 -12,21 0,6 2,11 5,16 4,6 13,10 21,11 8,0 15,-2 22,-5 6,-3 11,-8 14,-14l0 17 12 0 0 -52c0,-5 -1,-10 -4,-15 -6,-13 -18,-19 -33,-19 -13,0 -24,5 -31,14 -1,1 -2,3 -2,4l11 5zm46 18c0,7 0,12 -3,19 -5,11 -19,17 -30,16 -9,-1 -15,-8 -15,-15 0,-12 15,-15 28,-17 8,-1 14,-2 20,-3zm92 -34c-7,-5 -15,-7 -24,-7 -7,1 -15,4 -22,9 0,1 -1,2 -2,3l0 -10 -11 0 0 84 12 0 0 -43c0,-4 0,-8 1,-11 1,-6 4,-11 8,-14 3,-4 8,-5 13,-5 6,-1 12,1 16,4 8,6 9,16 9,28l0 41 13 0 0 -41c0,-16 -2,-29 -13,-38zm97 17c-3,-8 -10,-16 -18,-20 -5,-3 -12,-4 -17,-4 -6,0 -12,1 -18,3 -8,4 -14,11 -14,20 0,6 2,12 8,16 4,4 10,5 16,7 6,2 10,3 14,4 7,2 10,3 12,6 3,2 4,5 4,8 -1,3 -2,6 -5,8 -4,3 -11,4 -16,4 -7,0 -14,-2 -19,-7 -3,-4 -5,-9 -6,-14l-12 3c1,6 4,14 9,19 7,8 17,11 28,11 8,0 17,-1 23,-6 6,-3 10,-10 11,-17 0,-7 -3,-14 -9,-19 -5,-4 -10,-6 -16,-7 -7,-2 -12,-3 -16,-5 -6,-1 -8,-3 -10,-5 -2,-1 -3,-3 -3,-6 0,-3 2,-7 6,-9 4,-1 8,-2 12,-2 5,0 9,1 13,3 5,2 8,7 10,12l13 -3zm75 -17c-7,-5 -15,-7 -23,-7 -8,1 -16,4 -22,9 -1,1 -2,2 -3,3l0 -37 -11 0 0 111 13 0 0 -43c0,-4 0,-8 1,-11 1,-6 3,-11 7,-14 4,-4 9,-5 14,-5 6,-1 11,1 15,4 8,6 10,16 10,28l0 41 12 0 0 -41c0,-16 -2,-29 -13,-38zm89 -5l0 37 0 0c0,6 0,12 -2,18 -1,5 -3,10 -7,13 -4,4 -8,5 -14,5 -6,1 -11,-1 -15,-4 -8,-6 -10,-16 -10,-28l0 -41 -12 0 0 41c0,16 2,29 13,38 7,5 15,7 23,7 8,-1 16,-3 22,-9 1,-1 2,-2 3,-3l0 10 11 0 0 -84 -12 0zm109 31l33 53 15 0 -37 -58 34 -53 -15 0 -30 48 -27 0 0 -48 -13 0 0 111 13 0 0 -53 27 0zm118 -26c-7,-5 -15,-7 -23,-7 -8,1 -16,4 -22,9 -1,1 -2,2 -3,3l0 -37 -11 0 0 111 13 0 0 -43c0,-4 0,-8 0,-11 2,-6 4,-11 8,-14 4,-4 8,-5 14,-5 6,-1 11,1 15,4 8,6 10,16 10,28l0 41 12 0 0 -41c0,-16 -2,-29 -13,-38zm41 40l65 0c0,-1 0,-2 0,-3 0,-11 -2,-22 -9,-30 -7,-9 -18,-14 -30,-14 -12,0 -23,5 -31,14 -7,8 -9,19 -9,30 0,11 2,22 9,30 8,9 19,14 31,14 12,0 23,-5 30,-13 2,-3 4,-5 5,-7l-12 -6c-1,2 -2,3 -3,5 -5,6 -12,9 -20,9 -8,0 -16,-3 -20,-9 -4,-6 -6,-12 -6,-20zm26 -35c8,0 15,3 20,9 3,5 5,10 6,16l-52 0c1,-6 2,-11 6,-16 4,-6 12,-9 20,-9zm94 -12c-7,0 -14,2 -19,7 -3,2 -6,5 -7,8l0 -13 -12 0 0 84 13 0 0 -41c0,-11 0,-20 8,-27 4,-4 9,-6 16,-6 4,0 9,0 12,2l0 -12c-4,-1 -7,-2 -11,-2zm84 -25l0 36c-7,-7 -17,-11 -27,-11 -12,0 -22,5 -29,14 -7,8 -9,19 -9,30 0,11 2,22 9,31 7,8 18,13 29,13 12,0 22,-5 28,-13l0 11 11 0 0 -111 -12 0zm-6 92c-4,6 -12,9 -20,9 -8,0 -15,-3 -20,-9 -4,-6 -6,-14 -6,-23 0,-9 2,-17 6,-23 5,-6 12,-9 21,-9 7,0 15,2 19,8 5,6 7,15 7,24 0,9 -2,17 -7,23zm49 -20l66 0c0,-1 0,-2 0,-3 0,-11 -3,-22 -10,-30 -7,-9 -18,-14 -30,-14 -12,0 -23,5 -30,14 -7,8 -10,19 -10,30 0,11 3,22 10,30 7,9 18,14 30,14 12,0 23,-5 31,-13 1,-3 3,-5 4,-7l-12 -6c-1,2 -2,3 -3,5 -4,6 -12,9 -20,9 -8,0 -16,-3 -20,-9 -4,-6 -6,-12 -6,-20zm26 -35c8,0 16,3 20,9 4,5 5,10 6,16l-52 0c1,-6 3,-11 6,-16 4,-6 12,-9 20,-9zm62 2l0 14 14 0 0 -14 -14 0zm0 46l0 14 14 0 0 -14 -14 0zm75 -58c0,7 2,14 7,18 1,3 3,5 6,6 -4,2 -7,5 -9,8 -5,6 -7,13 -7,20 0,9 4,19 11,26 7,5 16,8 25,8 9,0 19,-2 25,-8 8,-7 11,-16 11,-26 0,-7 -2,-14 -7,-20 -2,-3 -5,-6 -8,-8 2,-1 4,-3 6,-6 4,-4 6,-11 6,-18 0,-8 -3,-17 -10,-22 -6,-6 -15,-8 -23,-8 -7,0 -16,2 -22,8 -7,5 -11,13 -11,22zm14 0c0,-5 1,-10 5,-13 4,-3 9,-4 14,-4 6,0 11,1 15,4 3,3 5,8 5,13 0,6 -1,11 -5,14 -4,3 -9,4 -15,4 -5,0 -10,-1 -14,-4 -4,-3 -6,-8 -5,-14zm36 68c-4,4 -10,6 -17,6 -6,0 -12,-2 -16,-6 -5,-4 -6,-10 -6,-16 0,-6 1,-12 6,-16 4,-4 10,-5 16,-5 7,0 13,1 17,5 4,4 6,10 6,16 0,6 -2,12 -6,16zm70 18c-10,0 -21,-4 -28,-12 -6,-8 -9,-16 -9,-26l0 -40c0,-10 3,-18 10,-26 6,-7 16,-12 27,-12 10,0 20,4 27,12 7,7 10,16 10,26l0 40c0,10 -3,18 -9,26 -7,8 -17,12 -28,12zm0 -104c-8,0 -16,5 -20,11 -3,5 -4,10 -4,15l0 40c0,5 1,11 4,15 4,7 12,11 20,11 8,0 16,-4 20,-11 3,-4 4,-9 4,-15l0 -40c0,-5 -1,-10 -4,-15 -4,-6 -12,-11 -20,-11zm53 18c0,7 2,14 7,18 2,3 4,5 6,6 -3,2 -6,5 -9,8 -4,6 -6,13 -6,20 0,9 3,19 10,26 7,5 17,8 25,8 9,0 19,-2 26,-8 7,-7 10,-16 10,-26 0,-7 -2,-14 -6,-20 -3,-3 -6,-6 -9,-8 2,-1 4,-3 6,-6 5,-4 7,-11 7,-18 0,-8 -4,-17 -11,-22 -6,-6 -14,-8 -23,-8 -7,0 -16,2 -22,8 -7,5 -10,13 -11,22zm14 0c0,-5 1,-10 5,-13 4,-3 9,-4 14,-4 6,0 11,1 15,4 4,3 5,8 5,13 0,6 -1,11 -5,14 -4,3 -9,4 -15,4 -5,0 -10,-1 -14,-4 -4,-3 -5,-8 -5,-14zm36 68c-4,4 -10,6 -17,6 -6,0 -12,-2 -16,-6 -4,-4 -6,-10 -6,-16 0,-6 2,-12 6,-16 4,-4 10,-5 16,-5 7,0 13,1 17,5 4,4 6,10 6,16 0,6 -2,12 -6,16zm48 16l12 0 41 -99 0 -12 -65 0 0 12 52 0 -40 99zm105 2c-11,0 -21,-4 -28,-12 -6,-8 -9,-16 -9,-26l0 -40c0,-10 3,-18 10,-26 6,-7 16,-12 27,-12 10,0 20,4 27,12 7,7 10,16 10,26l0 40c0,10 -3,18 -9,26 -7,8 -17,12 -28,12zm0 -104c-8,0 -16,5 -20,11 -3,5 -4,10 -4,15l0 40c0,5 1,11 4,15 4,7 12,11 20,11 8,0 16,-4 20,-11 3,-4 4,-9 4,-15l0 -40c0,-5 -1,-10 -4,-15 -4,-6 -12,-11 -20,-11zm63 102l13 0 40 -99 0 -12 -64 0 0 12 52 0 -41 99zm133 -60c-6,-6 -14,-9 -23,-9l31 -30 0 -12 -65 0 0 12 48 0 -36 34 6 9c4,-1 8,-2 12,-2 6,0 12,1 16,5 5,5 8,12 8,19 0,7 -3,14 -9,19 -4,3 -9,5 -14,5 -6,0 -11,-2 -15,-5 -4,-3 -7,-7 -8,-11l-12 3c2,7 6,13 11,17 7,6 15,8 24,8 8,0 16,-3 23,-8 8,-7 12,-17 12,-28 1,-10 -2,-19 -9,-26zm26 -20l12 0c0,-6 3,-12 7,-16 4,-3 9,-6 15,-6 6,0 11,3 15,7 4,4 7,9 7,15 0,6 -3,13 -10,20l-47 48 0 12 69 0 0 -12 -50 0 35 -38c10,-10 15,-18 15,-30 0,-9 -3,-17 -9,-24 -6,-6 -15,-10 -25,-10 -8,0 -17,3 -23,9 -7,6 -11,15 -11,25zm87 -4c0,7 2,14 6,18 2,3 4,5 6,6 -3,2 -6,5 -8,8 -5,6 -7,13 -7,20 0,9 4,19 11,26 7,5 16,8 25,8 9,0 18,-2 25,-8 8,-7 11,-16 11,-26 0,-7 -2,-14 -7,-20 -2,-3 -5,-6 -8,-8 2,-1 4,-3 5,-6 5,-4 7,-11 7,-18 0,-8 -3,-17 -10,-22 -7,-6 -15,-8 -23,-8 -8,0 -16,2 -23,8 -7,5 -10,13 -10,22zm13 0c0,-5 2,-10 5,-13 4,-3 10,-4 15,-4 5,0 11,1 14,4 4,3 6,8 6,13 0,6 -2,11 -6,14 -3,3 -9,4 -14,4 -5,0 -11,-1 -15,-4 -3,-3 -5,-8 -5,-14zm36 68c-4,4 -10,6 -16,6 -6,0 -12,-2 -17,-6 -4,-4 -6,-10 -6,-16 0,-6 2,-12 6,-16 5,-4 11,-5 17,-5 6,0 12,1 16,5 5,4 6,10 6,16 0,6 -1,12 -6,16zm48 16l13 0 40 -99 0 -12 -64 0 0 12 51 0 -40 99zm-2062 67l-16 0 -27 55 -27 -55 -16 0 0 83 16 0 0 -50 24 50 6 0 24 -50 0 50 16 0 0 -83zm28 39c0,-1 0,-1 1,-2 2,-3 6,-4 10,-4 3,0 6,1 9,2 2,2 4,4 4,6l-10 2c-9,1 -14,1 -21,5 -5,3 -10,10 -10,16 0,6 2,9 5,14 4,3 10,6 16,6 5,0 10,-1 15,-3 2,-2 6,-5 7,-9l0 11 14 0 0 -39c0,-4 -1,-9 -3,-13 -5,-8 -15,-12 -26,-12 -10,0 -19,3 -24,11 -1,1 -1,2 -2,2l15 7zm25 15c0,0 -1,3 -1,5 -2,8 -10,11 -17,11 -5,0 -8,-3 -8,-7 0,-5 7,-6 14,-7l12 -2zm62 -35c-4,0 -8,1 -11,3 -3,2 -5,4 -7,7l0 -9 -14 0 0 63 16 0 0 -33c0,-5 1,-9 4,-12 2,-3 5,-4 10,-5 4,0 9,1 12,2l0 -14c-3,-2 -7,-2 -10,-2zm37 36l6 0 19 28 17 0 -22 -34 19 -29 -17 0 -16 23 -6 0 0 -43 -16 0 0 83 16 0 0 -28zm62 1l45 0c1,-1 1,-3 1,-4 0,-9 -3,-17 -8,-23 -6,-7 -15,-10 -24,-10 -9,0 -18,3 -24,10 -5,6 -7,14 -7,23 -1,8 2,16 7,22 6,7 15,10 24,11 9,0 18,-4 25,-10 1,-2 2,-4 3,-6l-15 -6c-1,0 -1,1 -1,2 -3,3 -7,5 -12,5 -4,0 -9,-2 -11,-5 -2,-3 -3,-6 -3,-9zm14 -23c5,0 9,2 12,6 1,1 1,3 2,5l-28 0c1,-2 2,-4 3,-5 2,-4 7,-6 11,-6z"/>
    <path class="fil4" d="M2096 1872l0 -13 -18 0 0 -17 -16 0 0 17 -13 0 0 13 13 0 0 23c0,7 1,13 3,18 3,5 7,8 13,9 5,1 13,1 18,0l0 -14c-3,1 -7,1 -10,1 -2,-1 -5,-2 -6,-4 -2,-2 -2,-6 -2,-11l0 -22 18 0zm15 -35l0 14 16 0 0 -14 -16 0zm0 22l0 63 16 0 0 -63 -16 0zm83 6c-5,-5 -12,-8 -19,-7 -6,0 -12,2 -17,6l0 -5 -14 0 0 63 16 0 0 -27c0,-5 0,-9 1,-12 0,-3 2,-6 4,-8 2,-1 5,-2 8,-2 4,0 7,1 10,3 3,4 4,9 4,15l0 31 16 0 0 -31c0,-11 -1,-20 -9,-26zm66 -6l0 4c-5,-3 -11,-5 -17,-5 -9,0 -17,3 -23,10 -4,6 -7,14 -7,23 0,8 2,16 7,23 5,6 14,10 22,10 6,0 11,-2 16,-5l0 7c0,3 -1,5 -4,8 -2,1 -6,2 -9,2 -2,0 -6,0 -8,-2 -1,-1 -2,-2 -3,-3l-14 7c2,4 7,8 11,10 4,2 9,3 13,3 6,0 12,-1 18,-4 8,-5 12,-12 12,-21l0 -67 -14 0zm-16 51c-4,0 -8,-2 -11,-6 -2,-3 -3,-8 -3,-13 0,-6 1,-11 3,-14 3,-4 7,-5 12,-5 4,0 8,1 10,4 3,4 5,9 5,15 0,5 -2,11 -5,14 -2,3 -6,5 -11,5zm-466 104c-3,-10 -10,-19 -19,-24 -7,-4 -15,-6 -23,-6 -7,0 -15,1 -22,5 -9,4 -16,14 -16,24 0,7 3,15 8,20 6,5 13,8 21,10l20 6c6,2 10,4 14,8 3,3 5,7 5,11 0,5 -2,11 -7,14 -5,4 -14,6 -21,6 -10,0 -20,-3 -25,-12 -4,-4 -6,-10 -7,-15l-12 3c1,7 4,14 9,20 8,11 20,16 35,16 10,0 21,-2 28,-8 8,-5 13,-14 13,-24 0,-8 -3,-15 -9,-21 -5,-5 -12,-8 -20,-10l-20 -6c-6,-2 -12,-4 -15,-8 -2,-2 -4,-6 -4,-9 0,-6 4,-11 9,-14 4,-3 10,-4 16,-4 6,0 12,2 17,5 6,4 10,10 13,17l12 -4zm27 21c1,-1 1,-2 2,-3 4,-5 12,-8 19,-8 7,0 13,1 17,5 4,3 7,8 7,13l-17 2c-13,2 -22,3 -31,8 -7,5 -12,12 -12,21 0,6 2,10 5,15 4,7 13,11 21,11 8,1 15,-1 22,-4 5,-3 11,-8 14,-14l0 16 11 0 0 -52c0,-4 0,-10 -3,-14 -6,-13 -18,-19 -34,-19 -12,0 -23,4 -30,14 -1,1 -2,3 -3,4l12 5zm46 18c0,6 0,12 -3,19 -5,11 -19,17 -30,16 -9,-1 -16,-8 -15,-16 0,-12 14,-14 28,-16 8,-2 14,-3 20,-3zm45 4l16 0 26 40 15 0 -30 -45 26 -38 -15 0 -22 33 -16 0 0 -61 -13 0 1 111 12 0 0 -40zm69 -71l0 14 12 0 0 -14 -12 0zm0 28l0 83 12 0 0 -83 -12 0zm94 5c-6,-5 -15,-7 -23,-7 -7,0 -16,3 -22,9 -1,1 -2,2 -2,3l0 -10 -12 0 0 83 13 0 0 -42c0,-4 0,-8 1,-12 1,-5 4,-10 7,-14 4,-3 9,-4 14,-5 6,0 12,2 16,5 8,6 9,16 9,27l0 41 13 0 0 -41c0,-15 -2,-28 -14,-37zm43 16c0,-1 1,-2 2,-3 4,-5 11,-8 19,-8 6,0 13,1 17,5 4,3 7,8 7,13l-17 2c-13,2 -22,3 -31,8 -8,5 -12,12 -12,21 0,6 1,10 5,15 4,7 13,11 21,11 7,1 15,-1 22,-4 5,-3 11,-8 14,-14l0 16 11 0 0 -52c0,-4 -1,-10 -3,-14 -6,-13 -19,-19 -34,-19 -12,0 -23,4 -30,14 -1,1 -2,3 -3,4l12 5zm46 18c0,6 0,12 -3,19 -5,11 -19,17 -30,16 -9,-1 -16,-8 -16,-16 1,-12 15,-14 29,-16 8,-2 14,-3 20,-3zm148 -38c-8,-17 -26,-29 -46,-29l-34 0 0 111 34 0c20,0 38,-11 46,-28 5,-8 7,-18 7,-27 0,-9 -2,-19 -7,-27zm-11 48c-7,14 -20,22 -35,22l-21 0 0 -87 21 0c15,0 28,9 35,23 3,6 5,13 5,21 0,7 -2,15 -5,21zm45 -28c1,-1 1,-2 2,-3 5,-5 12,-8 19,-8 7,0 13,1 18,5 4,3 6,8 7,13l-18 2c-13,2 -22,3 -31,8 -7,5 -12,12 -12,21 0,6 2,10 5,15 4,7 13,11 21,11 8,1 15,-1 22,-4 6,-3 11,-8 14,-14l0 16 12 0 0 -52c0,-4 -1,-10 -4,-14 -6,-13 -18,-19 -33,-19 -13,0 -24,4 -31,14 -1,1 -2,3 -2,4l11 5zm46 18c0,6 0,12 -3,19 -5,11 -19,17 -30,16 -9,-1 -15,-8 -15,-16 0,-12 15,-14 28,-16 8,-2 14,-3 20,-3zm98 -17c-3,-8 -10,-16 -18,-20 -5,-3 -11,-4 -17,-4 -6,0 -12,0 -18,3 -8,4 -14,11 -14,20 0,6 2,12 8,16 4,3 10,5 16,7 6,1 10,3 14,4 7,2 10,3 12,5 3,3 4,5 4,9 0,3 -2,6 -5,8 -4,2 -11,4 -16,4 -7,0 -14,-2 -19,-7 -3,-4 -5,-9 -6,-14l-12 3c1,6 4,14 9,19 7,7 17,11 28,11 8,0 17,-2 23,-6 6,-4 10,-10 11,-17 0,-8 -3,-14 -9,-19 -5,-4 -10,-6 -16,-8 -6,-1 -12,-3 -16,-4 -5,-1 -8,-3 -10,-5 -2,-2 -3,-4 -3,-6 0,-4 2,-7 6,-9 4,-1 8,-2 13,-2 4,0 8,1 12,3 5,2 8,7 10,12l13 -3zm51 64c12,0 23,-5 30,-14 8,-9 10,-19 10,-30 0,-11 -2,-22 -10,-31 -7,-9 -18,-13 -30,-13 -12,0 -23,5 -30,13 -7,9 -10,20 -10,31 0,11 3,21 10,30 7,9 18,14 30,14zm21 -22c-5,7 -13,10 -21,10 -8,0 -15,-3 -20,-10 -5,-6 -6,-14 -6,-22 0,-8 1,-17 6,-23 5,-6 12,-9 20,-9 8,0 16,3 21,9 4,6 6,15 6,23 0,8 -2,16 -6,22zm73 -66c-6,0 -13,2 -19,7 -3,2 -5,5 -7,8l0 -13 -11 0 0 83 13 0 0 -40c0,-11 0,-20 7,-27 4,-4 10,-6 16,-6 5,-1 9,0 13,1l0 -11c-4,-2 -8,-2 -12,-2zm118 2l-19 63 -20 -63 -11 0 -19 63 -19 -63 -13 0 26 83 11 0 20 -62 18 62 13 0 25 -83 -12 0zm33 21c1,-1 2,-2 2,-3 5,-5 12,-8 20,-8 6,0 12,1 17,5 4,3 6,8 7,13l-17 2c-13,2 -22,3 -32,8 -7,5 -12,12 -12,21 0,6 2,10 5,15 5,7 13,11 22,11 7,1 14,-1 21,-4 6,-3 12,-8 15,-14l0 16 11 0 0 -52c0,-4 -1,-10 -3,-14 -6,-13 -19,-19 -34,-19 -13,0 -23,4 -31,14 -1,1 -2,3 -2,4l11 5zm46 18c0,6 0,12 -3,19 -5,11 -19,17 -30,16 -8,-1 -15,-8 -15,-16 0,-12 15,-14 28,-16 9,-2 14,-3 20,-3zm33 44l0 -113 12 0 0 113 -12 0zm44 -62c1,-1 2,-2 2,-3 5,-5 12,-8 20,-8 6,0 12,1 17,5 4,3 6,8 7,13l-17 2c-13,2 -22,3 -32,8 -7,5 -12,12 -12,21 0,6 2,10 5,15 5,7 13,11 22,11 7,1 14,-1 21,-4 6,-3 12,-8 15,-14l0 16 11 0 0 -52c0,-4 -1,-10 -3,-14 -7,-13 -19,-19 -34,-19 -13,0 -23,4 -31,14 -1,1 -2,3 -2,4l11 5zm46 18c0,6 0,12 -3,19 -5,11 -19,17 -30,16 -8,-1 -15,-8 -15,-16 0,-12 15,-14 28,-16 9,-2 14,-3 20,-3zm38 -27l0 14 15 0 0 -14 -15 0zm0 45l0 14 15 0 0 -14 -15 0zm80 14c7,9 18,15 31,15 10,0 20,-4 28,-12 7,-8 10,-17 10,-28l0 -36c0,-11 -2,-20 -10,-28 -7,-7 -17,-12 -27,-12 -11,0 -20,4 -27,11 -7,7 -11,16 -11,26 0,11 4,20 11,27 7,6 16,10 25,10 11,0 20,-5 27,-13l0 15c0,7 -2,13 -6,18 -4,6 -12,10 -20,10 -9,0 -17,-5 -21,-12l-10 9zm27 -87c6,-1 13,0 18,4 5,3 8,8 10,14 1,6 0,13 -3,18 -3,5 -9,9 -15,10 -6,2 -13,1 -18,-3 -5,-3 -9,-8 -10,-14 -2,-6 -1,-13 2,-18 4,-5 9,-9 16,-11zm64 -12l-3 57 11 7c2,-3 4,-5 6,-7 4,-3 10,-6 16,-6 6,0 12,3 17,7 5,5 8,11 8,19 0,7 -3,13 -7,17 -5,5 -11,8 -18,8 -6,0 -12,-3 -17,-7 -3,-3 -6,-7 -7,-12l-12 3c2,7 5,13 10,18 7,6 16,10 26,10 10,0 20,-4 26,-11 7,-7 12,-16 12,-26 0,-11 -4,-21 -12,-28 -7,-6 -16,-9 -25,-9 -8,0 -15,3 -21,8l2 -36 47 0 0 -12 -59 0zm90 99c7,9 19,15 31,15 11,0 21,-4 28,-12 8,-8 11,-17 11,-28l0 -36c0,-11 -3,-20 -11,-28 -7,-7 -17,-12 -27,-12 -10,0 -20,4 -27,11 -6,7 -10,16 -11,26 0,11 4,20 11,27 7,6 16,10 26,10 10,0 20,-5 26,-13l0 15c0,7 -2,13 -6,18 -4,6 -12,10 -20,10 -9,0 -16,-5 -21,-12l-10 9zm27 -87c7,-1 13,0 18,4 5,3 9,8 10,14 1,6 0,13 -3,18 -3,5 -8,9 -15,10 -6,2 -12,1 -17,-3 -6,-3 -9,-8 -11,-14 -1,-6 0,-13 3,-18 3,-5 8,-9 15,-11zm120 67l0 -32 -13 0 0 32 -36 0 37 -79 -13 0 -37 79 0 11 49 0 0 21 13 0 0 -21 12 0 0 -11 -12 0zm61 35c-10,0 -21,-4 -27,-12 -7,-8 -10,-16 -10,-26l0 -40c0,-10 3,-19 10,-26 6,-8 16,-12 27,-12 10,0 20,4 27,12 7,7 10,16 10,26l0 40c0,10 -3,18 -9,26 -7,7 -17,12 -28,12zm0 -104c-8,0 -16,4 -20,11 -3,4 -4,9 -4,15l0 40c0,5 1,10 4,15 4,6 12,11 20,11 8,0 16,-5 20,-11 3,-5 4,-9 4,-15l0 -40c0,-6 -1,-10 -4,-15 -4,-7 -12,-11 -20,-11zm53 18c1,7 3,13 7,18 2,2 4,4 6,6 -3,2 -6,5 -8,8 -5,6 -7,13 -7,20 0,9 3,19 11,25 6,6 16,9 25,9 8,0 18,-3 25,-9 7,-6 10,-16 11,-25 -1,-7 -2,-14 -7,-20 -2,-3 -5,-6 -9,-8 3,-2 5,-4 6,-6 5,-5 7,-11 7,-18 0,-9 -4,-17 -11,-23 -6,-5 -14,-7 -22,-7 -8,0 -17,2 -23,7 -7,6 -10,14 -11,23zm14 0c0,-5 2,-10 5,-13 4,-3 9,-5 15,-5 5,0 10,2 14,5 4,3 6,8 5,13 1,5 -1,10 -5,14 -4,3 -9,4 -14,4 -6,0 -11,-1 -15,-4 -4,-4 -5,-9 -5,-14zm36 68c-4,4 -10,6 -16,6 -7,0 -13,-2 -17,-6 -4,-4 -6,-10 -6,-16 0,-6 2,-12 6,-16 4,-4 10,-6 17,-6 6,0 12,2 16,6 5,4 6,10 6,16 0,6 -1,12 -6,16zm42 -96l-4 57 12 7c1,-3 3,-5 5,-7 5,-3 10,-6 16,-6 7,0 13,3 17,7 5,5 8,11 8,19 0,7 -3,13 -7,17 -5,5 -11,8 -18,8 -6,0 -12,-3 -17,-7 -3,-3 -6,-7 -7,-12l-12 3c2,7 6,13 11,18 6,6 16,10 25,10 10,0 20,-4 27,-11 7,-7 11,-16 11,-26 0,-11 -4,-21 -12,-28 -7,-6 -15,-9 -25,-9 -7,0 -15,3 -21,8l2 -36 47 0 0 -12 -58 0zm118 114c-11,0 -21,-4 -28,-12 -7,-8 -9,-16 -9,-26l0 -40c0,-10 2,-19 9,-26 7,-8 17,-12 28,-12 10,0 20,4 27,12 7,7 9,16 9,26l0 40c0,10 -2,18 -9,26 -7,7 -16,12 -27,12zm0 -104c-9,0 -16,4 -21,11 -2,4 -4,9 -4,15l0 40c0,5 1,10 4,15 5,6 12,11 21,11 8,0 15,-5 20,-11 3,-5 4,-9 4,-15l0 -40c0,-6 -1,-10 -4,-15 -5,-7 -12,-11 -20,-11zm57 -10l-4 57 12 7c1,-3 3,-5 5,-7 5,-3 10,-6 16,-6 7,0 13,3 17,7 5,5 9,11 9,19 0,7 -3,13 -8,17 -4,5 -11,8 -18,8 -6,0 -12,-3 -16,-7 -4,-3 -7,-7 -8,-12l-12 3c2,7 6,13 11,18 7,6 16,10 25,10 10,0 20,-4 27,-11 7,-7 11,-16 11,-26 0,-11 -4,-21 -12,-28 -6,-6 -15,-9 -24,-9 -8,0 -16,3 -22,8l2 -36 47 0 0 -12 -58 0zm83 32l13 0c0,-6 3,-12 7,-16 4,-4 9,-6 14,-6 6,0 12,2 16,7 4,4 6,9 6,15 0,6 -3,13 -10,20l-47 47 0 12 70 0 0 -12 -51 0 36 -37c10,-10 15,-18 15,-30 0,-9 -4,-18 -10,-24 -6,-6 -15,-10 -24,-10 -9,0 -17,3 -24,9 -7,6 -11,15 -11,25z"/>
   </g>
   <g>
    <path class="fil4" d="M1725 1103l23 37 19 0 -28 -43 26 -40 -19 0 -21 34 -12 0 0 -34 -16 0 0 83 16 0 0 -37 12 0zm92 -46l0 55c0,8 0,12 -3,18 -5,8 -12,12 -22,12 -5,0 -9,-1 -13,-4 -6,-3 -10,-9 -12,-15l15 -4c1,2 2,4 4,6 2,1 4,2 6,2 3,0 7,-2 8,-5 1,-2 1,-4 1,-10l0 -55 16 0zm80 21c-3,-9 -9,-15 -16,-19 -5,-3 -11,-4 -17,-4 -6,0 -12,0 -18,3 -7,4 -13,11 -13,21 0,5 2,12 7,16 4,3 10,6 16,8l15 4c4,1 6,2 8,4 2,1 2,3 2,5 0,3 0,5 -3,7 -3,3 -8,4 -13,4 -5,0 -12,-2 -15,-7 -2,-2 -4,-6 -4,-10l-16 4c1,6 3,11 7,16 7,9 16,12 28,12 8,0 16,-1 22,-6 7,-4 11,-12 11,-19 0,-7 -3,-13 -8,-18 -3,-3 -8,-5 -15,-8l-15 -4c-4,-1 -7,-2 -9,-4 -1,-1 -2,-3 -2,-4 0,-3 2,-5 5,-7 2,-1 6,-2 10,-2 4,0 7,1 10,3 3,2 5,5 7,9l16 -4zm71 33c0,3 -2,5 -3,7 -4,6 -11,9 -18,9 -8,0 -15,-3 -19,-9 -4,-5 -5,-12 -5,-20 0,-7 1,-15 5,-20 4,-6 11,-8 19,-8 7,0 14,2 18,8 2,2 3,5 4,8l16 -3c-2,-5 -4,-10 -8,-15 -7,-9 -18,-13 -30,-13 -12,0 -24,4 -31,13 -7,9 -10,19 -10,30 0,11 3,22 10,30 7,9 18,14 31,14 11,0 23,-5 30,-14 3,-4 5,-8 7,-12l-16 -5zm85 -39l0 -15 -54 0 0 83 54 0 0 -16 -39 0 0 -18 32 0 0 -16 -32 0 0 -18 39 0zm101 6c-3,-9 -9,-15 -16,-19 -5,-3 -12,-4 -17,-4 -6,0 -12,0 -18,3 -7,4 -13,11 -13,21 0,5 2,12 7,16 4,3 10,6 16,8l15 4c4,1 6,2 8,4 1,1 2,3 2,5 0,3 0,5 -3,7 -3,3 -9,4 -13,4 -6,0 -12,-2 -15,-7 -2,-2 -4,-6 -5,-10l-16 4c2,6 4,11 8,16 7,9 16,12 27,12 9,0 17,-1 23,-6 7,-4 11,-12 11,-19 0,-7 -3,-13 -8,-18 -4,-3 -8,-5 -15,-8l-15 -4c-4,-1 -8,-2 -9,-4 -1,-1 -2,-3 -2,-4 0,-3 2,-5 5,-7 2,-1 6,-2 10,-2 3,0 7,1 9,3 4,2 6,5 8,9l16 -4zm52 12l0 -13 -18 0 0 -17 -16 0 0 17 -12 0 0 13 12 0 0 23c0,7 1,13 3,18 3,5 7,8 13,9 5,1 13,1 18,0l0 -14c-3,1 -7,1 -10,1 -2,-1 -5,-2 -6,-4 -2,-2 -2,-6 -2,-11l0 -22 18 0zm54 -13l0 28c0,4 0,8 0,11 -1,3 -3,6 -5,8 -2,1 -4,2 -7,2 -5,0 -8,-1 -10,-3 -3,-3 -4,-9 -4,-14l0 -32 -16 0 0 32c0,11 1,19 8,26 5,4 13,7 19,7 6,-1 12,-3 17,-6l0 4 14 0 0 -63 -16 0zm74 -20l0 23c-5,-3 -10,-4 -16,-4 -8,0 -17,3 -22,10 -5,6 -7,14 -7,23 0,8 2,16 7,23 5,6 13,10 22,10 7,0 13,-2 18,-6l0 4 14 0 0 -83 -16 0zm-3 66c-2,3 -6,5 -11,5 -4,0 -9,-2 -11,-6 -3,-3 -3,-8 -3,-13 0,-6 1,-11 3,-14 3,-4 7,-5 12,-5 4,0 8,1 10,4 3,4 5,9 5,15 0,5 -2,11 -5,14zm48 -10l46 0c0,-1 0,-3 0,-4 0,-9 -2,-17 -7,-23 -6,-7 -15,-10 -24,-10 -9,0 -18,3 -24,10 -5,6 -7,14 -8,23 0,8 3,16 8,22 6,7 15,10 24,11 9,0 18,-4 24,-10 2,-2 3,-4 4,-6l-16 -6c0,0 0,1 -1,2 -2,3 -7,5 -11,5 -5,0 -9,-2 -12,-5 -1,-3 -2,-6 -3,-9zm15 -23c4,0 9,2 11,6 1,1 2,3 3,5l-28 0c1,-2 1,-4 2,-5 3,-4 7,-6 12,-6zm94 -7c-5,-5 -12,-8 -19,-7 -6,0 -12,2 -17,6l0 -5 -14 0 0 63 16 0 0 -27c0,-5 0,-9 1,-12 0,-3 2,-6 4,-8 2,-1 5,-2 8,-2 4,0 7,1 9,3 4,4 5,9 5,15l0 31 16 0 0 -31c0,-11 -2,-20 -9,-26zm62 7l0 -13 -18 0 0 -17 -16 0 0 17 -13 0 0 13 13 0 0 23c0,7 1,13 3,18 3,5 7,8 13,9 5,1 13,1 18,0l0 -14c-3,1 -7,1 -10,1 -2,-1 -5,-2 -6,-4 -2,-2 -2,-6 -2,-11l0 -22 18 0zm64 4c-3,-7 -7,-12 -13,-15 -5,-2 -9,-3 -14,-3 -4,0 -9,0 -13,2 -7,3 -12,9 -12,17 0,5 2,10 7,13 3,2 6,4 12,5 3,1 7,2 10,3 2,1 5,2 7,3 0,1 1,2 1,3 -1,1 -1,2 -2,3 -2,1 -6,2 -9,2 -4,0 -7,-1 -10,-4 -2,-2 -3,-5 -3,-7l-15 4c0,3 4,10 7,13 5,6 13,9 21,9 7,0 13,-1 17,-4 6,-4 9,-9 9,-15 1,-6 -2,-11 -7,-15 -4,-4 -7,-4 -12,-6 -3,-1 -7,-2 -10,-3 -3,-1 -6,-2 -7,-3 0,0 0,-1 0,-1 0,-1 0,-2 2,-3 2,-1 4,-1 7,-1 3,0 5,0 7,1 2,1 4,3 5,6l15 -4zm28 -22l0 -15 -15 0 0 15 8 0c0,6 -2,10 -8,9l0 7c10,2 15,-5 15,-16zm99 39c0,3 -2,5 -3,7 -4,6 -11,9 -18,9 -8,0 -15,-3 -19,-9 -4,-5 -5,-12 -5,-20 0,-7 1,-15 5,-20 4,-6 11,-8 19,-8 7,0 14,2 18,8 2,2 3,5 4,8l16 -3c-2,-5 -4,-10 -8,-15 -7,-9 -18,-13 -30,-13 -12,0 -24,4 -31,13 -7,9 -10,19 -10,30 0,11 3,22 10,30 7,9 18,14 31,14 11,0 23,-5 30,-14 3,-4 5,-8 7,-12l-16 -5zm58 31c9,0 18,-4 23,-11 6,-6 8,-13 8,-22 0,-9 -2,-16 -8,-23 -5,-7 -14,-10 -23,-10 -10,0 -19,3 -24,10 -5,6 -8,14 -8,23 0,8 2,16 8,22 5,7 14,11 24,11zm11 -20c-3,3 -7,5 -11,5 -5,0 -9,-2 -12,-5 -3,-4 -3,-9 -3,-13 0,-5 0,-10 3,-13 3,-4 7,-6 12,-6 4,0 8,2 11,6 3,3 4,8 4,13 0,4 -1,9 -4,13zm73 -45l0 28c0,4 0,8 0,11 -1,3 -3,6 -5,8 -2,1 -5,2 -7,2 -5,0 -8,-1 -10,-3 -4,-3 -4,-9 -4,-14l0 -32 -16 0 0 32c0,11 1,19 8,26 5,4 12,7 19,7 6,-1 12,-3 17,-6l0 4 14 0 0 -63 -16 0zm82 6c-5,-5 -12,-8 -19,-7 -6,0 -12,2 -17,6l0 -5 -14 0 0 63 16 0 0 -27c0,-5 0,-9 1,-12 0,-3 2,-6 4,-8 2,-1 5,-2 8,-2 4,0 7,1 10,3 3,4 4,9 4,15l0 31 16 0 0 -31c0,-11 -1,-20 -9,-26zm78 8c-1,-1 -2,-3 -4,-5 -5,-7 -14,-10 -23,-10 -9,0 -18,3 -24,10 -5,6 -8,14 -8,23 0,8 3,16 8,22 6,7 14,11 24,10 9,1 18,-3 23,-10 2,-2 3,-3 4,-5l-15 -6c0,0 -1,1 -1,2 -3,3 -7,5 -11,5 -5,0 -9,-2 -12,-5 -2,-4 -3,-9 -3,-13 0,-5 1,-10 3,-13 3,-4 7,-6 12,-6 4,0 8,2 11,6 0,0 1,1 1,2l15 -7zm11 -36l0 14 16 0 0 -14 -16 0zm0 22l0 63 16 0 0 -63 -16 0zm34 63l0 -85 15 0 0 85 -15 0zm67 -83l-16 9 0 17 16 -9 0 66 16 0 0 -83 -16 0zm38 22c0,3 0,6 2,10 1,2 2,4 4,6 -3,3 -5,6 -7,9 -1,4 -2,8 -2,11 0,8 4,15 10,20 5,4 12,7 19,7 7,0 15,-2 20,-7 6,-5 9,-12 9,-20 0,-3 0,-7 -2,-11 -1,-3 -3,-6 -6,-9 2,-2 3,-4 4,-6 2,-4 2,-7 2,-10 0,-8 -3,-15 -9,-19 -5,-4 -11,-5 -18,-5 -6,0 -12,1 -17,5 -6,5 -9,11 -9,19zm16 0c0,-3 1,-5 3,-7 2,-2 5,-2 7,-2 3,0 6,0 8,2 2,2 3,4 3,7 0,3 -1,5 -3,7 -2,1 -5,2 -8,2 -2,0 -5,-1 -7,-2 -2,-2 -3,-4 -3,-7zm19 45c-2,2 -5,3 -9,3 -3,0 -6,-1 -9,-3 -2,-3 -3,-6 -3,-9 0,-4 1,-7 3,-9 3,-2 6,-3 9,-3 4,0 7,1 9,3 3,2 4,5 4,9 0,3 -1,6 -4,9zm33 -23l0 12 35 0 0 -12 -35 0zm62 -44l-16 9 0 17 16 -9 0 66 16 0 0 -83 -16 0zm43 77c7,5 14,8 22,8 9,0 18,-3 24,-10 6,-7 7,-14 7,-23l0 -21c0,-10 -1,-18 -9,-25 -5,-5 -13,-8 -20,-8 -7,0 -15,3 -20,8 -6,5 -9,12 -9,20 0,8 2,15 8,20 5,5 12,7 18,7 6,0 11,-2 16,-5l0 4c0,3 0,6 -1,9 -2,5 -8,9 -14,9 -4,0 -8,-2 -10,-4l-12 11zm15 -60c2,-3 5,-4 9,-4 3,0 7,1 9,4 2,2 4,6 4,9 0,3 -2,7 -4,9 -2,3 -6,4 -9,4 -4,0 -7,-1 -9,-4 -3,-2 -4,-6 -4,-9 0,-3 1,-7 4,-9zm-1617 180c-3,-8 -9,-16 -17,-20 -6,-3 -12,-4 -18,-4 -6,0 -12,1 -18,3 -7,4 -14,11 -14,20 0,6 3,12 8,16 5,3 10,5 16,7 6,1 11,3 15,4 6,2 9,3 12,5 2,3 4,5 3,9 0,3 -2,6 -4,8 -4,2 -11,4 -17,4 -7,0 -14,-2 -19,-7 -3,-4 -5,-9 -5,-14l-12 3c1,6 4,14 8,19 7,7 17,11 28,11 9,0 17,-2 23,-6 6,-4 10,-10 11,-17 1,-8 -2,-14 -9,-19 -4,-4 -10,-6 -16,-8 -6,-1 -11,-3 -16,-4 -5,-1 -8,-3 -10,-5 -2,-2 -3,-4 -3,-6 0,-4 3,-7 6,-9 4,-1 8,-2 13,-2 4,0 9,1 12,3 5,2 9,7 11,12l12 -3zm38 -11l26 0 0 -11 -26 0 0 -23 -12 0 0 23 -19 0 0 11 19 0 0 42c0,8 0,14 3,20 3,6 9,10 16,11 5,1 13,1 19,-1l0 -11c-5,1 -10,1 -14,1 -4,-1 -8,-3 -10,-6 -2,-4 -2,-8 -2,-15l0 -41zm101 -11l0 37 0 0c0,6 0,12 -1,17 -1,6 -4,11 -8,14 -3,3 -8,5 -13,5 -7,0 -12,-1 -16,-4 -8,-6 -9,-16 -9,-28l0 -41 -13 0 0 41c0,15 2,29 13,37 7,5 15,8 24,7 7,0 15,-3 21,-8 1,-1 2,-2 3,-3l0 9 11 0 0 -83 -12 0zm94 -28l0 37c-7,-7 -17,-11 -27,-11 -11,0 -22,5 -29,13 -6,9 -9,20 -9,31 0,11 3,22 9,30 7,9 18,14 29,14 12,0 22,-5 28,-13l0 10 12 0 0 -111 -13 0zm-5 93c-5,6 -12,9 -20,9 -8,0 -16,-3 -21,-10 -4,-5 -6,-14 -6,-22 0,-9 2,-17 7,-23 4,-7 12,-10 20,-10 8,0 15,3 20,9 5,6 6,15 6,24 0,8 -1,17 -6,23zm48 -20l66 0c0,-1 0,-2 0,-3 0,-11 -2,-22 -9,-31 -8,-9 -19,-13 -31,-13 -12,0 -23,4 -30,13 -7,9 -9,20 -9,31 0,10 2,21 9,30 7,9 19,13 30,14 12,0 24,-5 31,-14 2,-2 3,-4 5,-7l-13 -5c-1,2 -1,3 -2,4 -5,7 -13,10 -21,10 -8,0 -15,-3 -20,-10 -4,-5 -5,-12 -6,-19zm26 -35c8,0 16,3 21,9 3,4 5,10 5,16l-51 0c0,-6 2,-12 5,-16 5,-6 12,-9 20,-9zm115 -5c-6,-5 -15,-7 -23,-7 -7,1 -16,3 -22,9 -1,1 -2,2 -2,3l0 -10 -12 0 0 83 13 0 0 -42c0,-4 0,-8 1,-12 1,-5 4,-10 7,-14 4,-3 9,-4 14,-5 6,0 12,2 16,5 8,6 9,16 9,27l0 41 13 0 0 -41c0,-15 -2,-28 -14,-37zm54 6l26 0 0 -11 -26 0 0 -23 -12 0 0 23 -19 0 0 11 19 0 0 42c0,8 0,14 3,20 3,6 9,10 16,11 5,1 13,1 19,-1l0 -11c-5,1 -10,1 -14,1 -4,-1 -8,-3 -10,-6 -2,-4 -2,-8 -2,-15l0 -41zm109 11c-2,-8 -9,-16 -17,-20 -6,-3 -12,-4 -18,-4 -6,0 -12,1 -18,3 -7,4 -13,11 -13,20 0,6 2,12 7,16 5,3 10,5 16,7 6,1 11,3 15,4 6,2 9,3 12,5 3,3 4,5 3,9 0,3 -1,6 -4,8 -4,2 -11,4 -17,4 -7,0 -14,-2 -18,-7 -4,-4 -6,-9 -6,-14l-12 3c1,6 4,14 8,19 8,7 17,11 28,11 9,0 17,-2 24,-6 6,-4 10,-10 10,-17 1,-8 -2,-14 -8,-19 -5,-4 -10,-6 -17,-8 -6,-1 -11,-3 -15,-4 -6,-1 -9,-3 -11,-5 -2,-2 -3,-4 -3,-6 0,-4 3,-7 7,-9 3,-1 7,-2 12,-2 4,0 9,1 12,3 5,2 9,7 11,12l12 -3zm86 -3c-1,-3 -2,-5 -4,-8 -8,-9 -18,-13 -30,-13 -12,0 -23,4 -31,13 -7,9 -9,20 -9,31 0,10 2,21 9,30 8,9 19,14 31,14 12,0 23,-5 30,-14 2,-2 3,-4 4,-7l-12 -5c0,2 -1,3 -2,4 -5,7 -12,10 -20,10 -8,0 -16,-3 -21,-10 -4,-6 -6,-14 -6,-22 0,-8 2,-17 6,-23 5,-6 13,-9 21,-9 8,0 15,3 20,9 1,2 2,3 3,5l11 -5zm49 67c13,0 23,-5 31,-14 7,-9 9,-19 9,-30 0,-11 -2,-22 -9,-31 -8,-9 -19,-13 -31,-13 -12,0 -23,5 -30,13 -7,9 -9,20 -9,31 0,11 2,21 9,30 7,9 18,14 30,14zm21 -22c-5,7 -13,10 -21,10 -8,0 -15,-3 -20,-10 -5,-6 -6,-14 -6,-22 0,-8 1,-17 6,-23 5,-6 12,-9 20,-9 8,0 16,3 21,9 4,6 6,15 6,23 0,8 -2,16 -6,22zm93 -64l0 37 0 0c0,6 0,12 -1,17 -1,6 -4,11 -8,14 -3,3 -8,5 -13,5 -7,0 -12,-1 -16,-4 -8,-6 -9,-16 -9,-28l0 -41 -13 0 0 41c0,15 2,29 13,37 7,5 15,8 24,7 7,0 15,-3 21,-8 1,-1 2,-2 3,-3l0 9 11 0 0 -83 -12 0zm93 5c-7,-5 -15,-7 -23,-7 -8,1 -16,3 -22,9 -1,1 -2,2 -3,3l0 -10 -11 0 0 83 12 0 0 -42c0,-4 1,-8 1,-12 1,-5 4,-10 8,-14 3,-3 8,-4 13,-5 7,0 12,2 16,5 8,6 9,16 9,27l0 41 13 0 0 -41c0,-15 -2,-28 -13,-37zm102 14c-2,-3 -3,-5 -5,-8 -7,-9 -18,-13 -30,-13 -12,0 -23,4 -31,13 -6,9 -9,20 -9,31 0,10 3,21 9,30 8,9 19,14 31,14 12,0 23,-5 30,-14 2,-2 3,-4 5,-7l-12 -5c-1,2 -2,3 -3,4 -5,7 -12,10 -20,10 -8,0 -16,-3 -20,-10 -5,-6 -6,-14 -7,-22 1,-8 2,-17 7,-23 4,-6 12,-9 20,-9 8,0 15,3 20,9 1,2 2,3 3,5l12 -5zm15 -47l0 14 12 0 0 -14 -12 0zm0 28l0 83 12 0 0 -83 -12 0zm36 83l0 -113 12 0 0 113 -12 0zm36 -14l0 14 14 0 0 -14 -14 0zm47 -24l66 0c0,-1 0,-2 0,-3 0,-11 -3,-22 -10,-31 -7,-9 -18,-13 -30,-13 -12,0 -23,4 -30,13 -7,9 -10,20 -10,31 0,10 3,21 10,30 7,9 18,13 30,14 12,0 23,-5 31,-14 1,-2 3,-4 4,-7l-12 -5c-1,2 -2,3 -3,4 -4,7 -12,10 -20,10 -8,0 -16,-3 -20,-10 -4,-5 -6,-12 -6,-19zm26 -35c8,0 16,3 20,9 4,4 5,10 6,16l-52 0c1,-6 3,-12 6,-16 4,-6 12,-9 20,-9zm115 -5c-6,-5 -15,-7 -23,-7 -8,1 -16,3 -22,9 -1,1 -2,2 -3,3l0 -10 -11 0 0 83 13 0 0 -42c0,-4 0,-8 1,-12 1,-5 3,-10 7,-14 4,-3 9,-4 14,-5 6,0 11,2 16,5 8,6 9,16 9,27l0 41 12 0 0 -41c1,-15 -1,-28 -13,-37z"/>
    <path class="fil4" d="M3157 1232l0 11c-7,-8 -18,-13 -29,-13 -11,0 -22,5 -28,13 -7,9 -10,20 -10,31 0,11 3,22 10,30 7,9 17,14 29,14 10,0 20,-4 26,-11l0 8c0,11 -1,17 -7,22 -5,4 -12,6 -19,6 -6,0 -14,-3 -18,-8 -1,-1 -2,-3 -3,-4l-12 5c2,4 5,7 9,9 6,6 15,10 24,10 9,0 18,-2 26,-8 9,-7 13,-16 13,-32l0 -83 -11 0zm-7 65c-5,6 -12,9 -20,9 -8,0 -16,-3 -20,-10 -5,-5 -6,-14 -6,-22 0,-9 1,-17 6,-23 5,-7 12,-10 20,-10 8,0 15,3 20,9 5,6 7,15 7,24 0,8 -2,17 -7,23zm101 -65l0 11c-7,-8 -17,-13 -28,-13 -12,0 -22,5 -29,13 -7,9 -9,20 -9,31 0,11 2,22 9,30 7,9 17,14 29,14 10,0 20,-4 26,-11l0 8c1,11 -1,17 -7,22 -5,4 -12,6 -19,6 -6,0 -13,-3 -18,-8 -1,-1 -2,-3 -3,-4l-12 5c2,4 6,7 9,9 6,6 15,10 24,10 9,0 18,-2 26,-8 10,-7 13,-16 13,-32l0 -83 -11 0zm-7 65c-4,6 -12,9 -20,9 -8,0 -15,-3 -20,-10 -4,-5 -6,-14 -6,-22 0,-9 2,-17 6,-23 5,-7 12,-10 21,-10 7,0 15,3 19,9 5,6 7,15 7,24 0,8 -2,17 -7,23zm101 -86c-39,0 -63,24 -63,63 0,39 24,63 63,63l0 -13c-27,0 -51,-14 -51,-50 0,-37 24,-51 51,-51 32,0 50,19 50,51 0,17 -5,22 -12,22 -8,0 -13,-6 -13,-14l0 -8c0,-15 -10,-25 -25,-25 -15,0 -25,10 -25,25 0,15 10,24 25,24 6,0 11,-1 15,-4 4,8 13,14 23,14 7,0 25,-4 25,-34 0,-39 -24,-63 -63,-63zm0 75c-6,0 -12,-3 -12,-12 0,-10 6,-13 12,-13 6,0 12,3 12,13 0,9 -6,12 -12,12zm148 -32c-3,-8 -10,-16 -17,-20 -6,-3 -12,-4 -18,-4 -6,0 -12,1 -18,3 -8,4 -14,11 -14,20 0,6 3,12 8,16 5,3 10,5 16,7 6,1 10,3 15,4 6,2 9,3 12,5 2,3 3,5 3,9 0,3 -2,6 -5,8 -3,2 -10,4 -16,4 -7,0 -14,-2 -19,-7 -3,-4 -5,-9 -5,-14l-13 3c1,6 4,14 9,19 7,7 17,11 28,11 8,0 17,-2 23,-6 6,-4 10,-10 11,-17 1,-8 -2,-14 -9,-19 -5,-4 -10,-6 -16,-8 -6,-1 -12,-3 -16,-4 -5,-1 -8,-3 -10,-5 -2,-2 -3,-4 -3,-6 0,-4 3,-7 6,-9 4,-1 8,-2 13,-2 4,0 8,1 12,3 5,2 9,7 10,12l13 -3zm51 64c13,0 23,-5 31,-14 7,-9 9,-19 9,-30 0,-11 -2,-22 -9,-31 -7,-9 -19,-13 -31,-13 -12,0 -23,5 -30,13 -7,9 -9,20 -9,31 0,11 2,21 9,30 7,9 18,14 30,14zm21 -22c-5,7 -13,10 -21,10 -8,0 -15,-3 -20,-10 -5,-6 -6,-14 -6,-22 0,-8 1,-17 6,-23 5,-6 12,-9 20,-9 8,0 16,3 21,9 4,6 6,15 6,23 0,8 -2,16 -6,22zm138 -57c-5,-5 -11,-7 -18,-7 -9,0 -18,5 -24,12 0,1 -1,2 -1,2 -1,-2 -3,-5 -6,-7 -5,-5 -12,-7 -18,-7 -9,0 -18,4 -24,11l0 -11 -11 0 0 83 13 0 0 -51c0,-5 0,-9 4,-14 3,-4 9,-7 15,-7 4,0 8,2 11,5 6,5 7,10 7,18l0 49 12 0 0 -49 0 -2c0,-5 1,-9 5,-14 3,-4 8,-7 14,-7 5,0 9,2 12,5 6,5 6,10 6,18l0 49 13 0 0 -49c0,-12 -1,-20 -10,-27zm39 14c1,-1 1,-2 2,-3 4,-5 12,-8 19,-8 7,0 13,1 17,5 4,3 7,8 7,13l-17 2c-13,2 -22,3 -31,8 -8,5 -12,12 -12,21 0,6 2,10 5,15 4,7 13,11 21,11 8,1 15,-1 22,-4 5,-3 11,-8 14,-14l0 16 11 0 0 -52c0,-4 -1,-10 -3,-14 -6,-13 -18,-19 -34,-19 -12,0 -23,4 -30,14 -1,1 -2,3 -3,4l12 5zm46 18c0,7 0,12 -3,19 -5,11 -19,17 -30,16 -9,-1 -16,-8 -16,-16 1,-12 15,-14 29,-16 8,-2 14,-2 20,-3zm34 -67l0 14 12 0 0 -14 -12 0zm0 28l0 83 12 0 0 -83 -12 0zm96 0l-27 70 -28 -70 -13 0 35 86c-5,13 -7,19 -10,21 -2,1 -6,2 -9,2l-2 -1 0 12 2 0c5,0 10,0 15,-3 5,-4 8,-10 11,-18l38 -99 -12 0zm35 21c1,-1 1,-2 2,-3 4,-5 12,-8 19,-8 7,0 13,1 17,5 4,3 7,8 7,13l-17 2c-13,2 -22,3 -31,8 -7,5 -12,12 -12,21 0,6 2,10 5,15 4,7 13,11 21,11 8,1 15,-1 22,-4 5,-3 11,-8 14,-14l0 16 11 0 0 -52c0,-4 0,-10 -3,-14 -6,-13 -18,-19 -34,-19 -12,0 -23,4 -30,14 -1,1 -2,3 -3,4l12 5zm46 18c0,7 0,12 -3,19 -5,11 -19,17 -30,16 -9,-1 -16,-8 -15,-16 0,-12 14,-14 28,-16 8,-2 14,-2 20,-3zm35 30l0 14 14 0 0 -14 -14 0zm47 -24l65 0c1,-1 1,-2 1,-3 0,-11 -3,-22 -10,-31 -7,-9 -18,-13 -30,-13 -12,0 -23,4 -30,13 -7,9 -10,20 -10,31 0,10 3,21 10,30 7,9 18,13 30,14 12,0 23,-5 30,-14 2,-2 4,-4 5,-7l-12 -5c-1,2 -2,3 -3,4 -4,7 -12,10 -20,10 -8,0 -16,-3 -20,-10 -4,-5 -6,-12 -6,-19zm26 -35c8,0 16,3 20,9 3,4 5,10 6,16l-52 0c1,-6 3,-12 6,-16 4,-6 12,-9 20,-9zm117 -38l0 37c-7,-7 -17,-11 -27,-11 -12,0 -22,5 -29,13 -7,9 -9,20 -9,31 0,11 2,22 9,30 7,9 18,14 29,14 12,0 22,-5 28,-13l0 10 11 0 0 -111 -12 0zm-6 93c-4,6 -12,9 -20,9 -8,0 -15,-3 -20,-10 -4,-5 -6,-14 -6,-22 0,-9 2,-17 6,-23 5,-7 12,-10 21,-10 8,0 15,3 19,9 5,6 7,15 7,24 0,8 -2,17 -7,23zm97 -65l0 37 0 0c0,6 0,12 -1,17 -1,6 -4,11 -8,14 -3,3 -8,5 -14,5 -6,0 -11,-1 -15,-4 -8,-6 -9,-16 -9,-28l0 -41 -13 0 0 41c0,15 2,29 13,37 7,5 15,8 23,7 8,0 16,-3 22,-8 1,-1 2,-2 3,-3l0 9 11 0 0 -83 -12 0z"/>
   </g>
   <g>
    <path class="fil4" d="M1768 489l13 0 -37 -111 -17 0 -38 111 13 0 7 -21 52 0 7 21zm-55 -33l22 -64 22 64 -44 0zm109 35c-10,0 -21,-4 -28,-12 -6,-7 -9,-15 -9,-26l0 -39c0,-11 3,-19 10,-27 6,-7 16,-11 27,-11 10,0 20,4 27,11 7,8 10,16 10,27l0 39c0,10 -3,19 -9,26 -7,8 -17,12 -28,12zm0 -103c-8,0 -16,4 -20,11 -3,4 -4,9 -4,15l0 39c0,6 1,11 4,15 4,7 12,11 20,11 8,0 16,-4 20,-11 3,-4 4,-9 4,-15l0 -39c0,-6 -1,-10 -4,-15 -4,-7 -12,-11 -20,-11zm68 -10l-21 13 0 14 21 -13 0 97 13 0 0 -111 -13 0zm40 28c0,7 2,13 7,18 1,2 3,4 6,6 -4,2 -7,5 -9,8 -5,6 -7,13 -7,20 0,9 4,19 11,25 7,6 16,8 25,8 9,0 19,-2 25,-8 8,-6 11,-16 11,-25 0,-7 -2,-14 -7,-20 -2,-3 -5,-6 -8,-8 2,-2 4,-4 6,-6 4,-5 6,-11 6,-18 0,-9 -3,-18 -10,-23 -6,-5 -15,-7 -23,-7 -8,0 -16,2 -22,7 -7,6 -11,14 -11,23zm13 0c0,-5 2,-10 6,-13 4,-4 9,-5 14,-5 6,0 11,1 15,5 3,3 5,8 5,13 0,5 -1,10 -5,13 -4,4 -9,5 -15,5 -5,0 -10,-1 -14,-5 -4,-3 -6,-8 -6,-13zm37 68c-4,4 -11,5 -17,5 -6,0 -12,-1 -16,-5 -5,-4 -6,-10 -6,-16 0,-6 1,-12 6,-16 4,-4 10,-6 16,-6 6,0 13,2 17,6 4,4 6,10 6,16 0,6 -2,12 -6,16zm50 18l0 -20 -14 0 0 17 8 0c0,6 -1,11 -7,11l-1 6c10,1 14,-4 14,-14zm120 -60l0 11 28 0c-1,8 -3,16 -8,23 -7,9 -18,13 -29,13 -12,0 -23,-4 -29,-13 -7,-9 -9,-21 -10,-32 1,-12 3,-24 10,-33 6,-8 17,-13 29,-13 11,0 22,5 29,13 1,2 3,4 4,6l11 -5c-1,-3 -3,-6 -5,-8 -9,-12 -23,-18 -39,-18 -16,0 -31,6 -39,18 -10,11 -12,25 -13,40 1,14 3,28 13,40 8,12 23,17 39,17 15,0 29,-5 39,-17 8,-11 12,-25 12,-38l0 -4 -42 0zm97 -28c-7,0 -14,2 -19,6 -3,3 -6,5 -7,8l0 -12 -12 0 0 83 13 0 0 -40c0,-11 0,-20 8,-27 3,-4 9,-6 16,-7 4,0 9,1 12,2l0 -12c-4,-1 -7,-1 -11,-1zm59 87c12,0 23,-4 30,-13 7,-9 9,-19 9,-31 0,-10 -2,-21 -9,-30 -7,-9 -19,-13 -30,-13 -12,0 -24,4 -31,13 -7,9 -9,20 -9,30 0,11 2,22 9,31 7,9 19,13 31,13zm20 -21c-5,6 -12,10 -20,10 -8,0 -16,-4 -21,-10 -4,-6 -6,-14 -6,-23 0,-8 2,-16 6,-22 5,-6 13,-10 21,-10 8,0 15,4 20,10 5,6 6,14 6,22 0,9 -1,17 -6,23zm93 -64l0 36 0 0c0,7 0,13 -1,18 -1,6 -4,11 -8,14 -3,3 -8,5 -13,5 -6,0 -12,-1 -16,-4 -8,-6 -9,-16 -9,-28l0 -41 -13 0 0 41c0,15 2,28 13,37 7,5 16,8 24,7 7,0 16,-3 22,-8 1,-1 2,-2 2,-3l0 9 11 0 0 -83 -12 0zm93 5c-7,-5 -15,-8 -23,-7 -8,0 -16,3 -22,9 -1,0 -2,1 -3,2l0 -9 -11 0 0 83 13 0 0 -43c0,-4 0,-8 1,-11 1,-5 3,-10 7,-14 4,-3 9,-5 14,-5 6,0 11,1 15,4 8,6 10,16 10,28l0 41 12 0 0 -41c0,-15 -2,-28 -13,-37zm92 -33l0 37c-7,-7 -16,-11 -27,-11 -11,0 -22,4 -28,13 -7,9 -10,20 -10,30 0,11 3,22 10,31 6,9 17,13 28,13 12,0 22,-4 29,-12l0 10 11 0 0 -111 -13 0zm-5 93c-5,6 -12,9 -20,9 -8,0 -16,-3 -20,-10 -5,-6 -6,-14 -6,-23 0,-8 1,-16 6,-22 4,-7 12,-10 20,-10 8,0 15,3 20,9 5,6 7,15 7,23 0,9 -2,18 -7,24zm140 -80l0 -13 -65 0 0 111 13 0 0 -49 42 0 0 -13 -42 0 0 -36 52 0zm13 98l0 -113 13 0 0 113 -13 0zm70 2c12,0 23,-4 30,-13 7,-9 9,-19 9,-31 0,-10 -2,-21 -9,-30 -7,-9 -19,-13 -30,-13 -12,0 -24,4 -31,13 -7,9 -9,20 -9,30 0,11 2,22 9,31 7,9 19,13 31,13zm20 -21c-5,6 -12,10 -20,10 -8,0 -16,-4 -21,-10 -4,-6 -6,-14 -6,-23 0,-8 2,-16 6,-22 5,-6 13,-10 21,-10 8,0 15,4 20,10 5,6 6,14 6,22 0,9 -1,17 -6,23zm71 21c13,0 23,-4 31,-13 7,-9 9,-19 9,-31 0,-10 -2,-21 -9,-30 -7,-9 -19,-13 -31,-13 -12,0 -23,4 -30,13 -7,9 -9,20 -9,30 0,11 2,22 9,31 7,9 18,13 30,13zm21 -21c-5,6 -13,10 -21,10 -8,0 -15,-4 -20,-10 -5,-6 -6,-14 -6,-23 0,-8 1,-16 6,-22 5,-6 12,-10 20,-10 8,0 16,4 21,10 4,6 6,14 6,22 0,9 -2,17 -6,23zm73 -66c-6,0 -13,2 -19,6 -3,3 -5,5 -7,8l0 -12 -11 0 0 83 13 0 0 -40c0,-11 0,-20 7,-27 4,-4 10,-6 16,-7 5,0 9,1 13,2l0 -12c-4,-1 -8,-1 -12,-1zm27 88l0 -20 -14 0 0 17 7 0c1,6 0,11 -6,11l-1 6c9,1 14,-4 14,-14zm-1294 131l33 52 15 0 -37 -57 34 -54 -15 0 -30 48 -27 0 0 -48 -13 0 0 111 13 0 0 -52 27 0zm61 38l0 14 14 0 0 -14 -14 0zm87 -97l0 77c0,9 0,15 -4,22 -5,10 -14,14 -26,14 -5,0 -11,-1 -15,-4 -7,-4 -13,-11 -15,-18l13 -3c1,4 4,8 8,11 2,2 6,3 9,3 6,0 13,-4 15,-9 3,-5 2,-8 2,-16l0 -77 13 0zm18 97l0 14 14 0 0 -14 -14 0zm151 -69c-3,-10 -10,-19 -19,-24 -7,-4 -15,-6 -23,-6 -7,0 -15,1 -22,5 -9,4 -16,14 -16,24 0,7 3,15 8,20 6,5 13,8 21,10l20 6c6,2 11,4 14,7 3,4 5,8 5,12 0,5 -2,11 -7,14 -5,4 -14,6 -21,6 -9,0 -19,-3 -25,-12 -4,-4 -6,-10 -7,-16l-12 4c1,7 4,14 9,20 8,11 20,16 35,16 10,0 21,-2 28,-8 8,-5 13,-15 13,-24 0,-8 -3,-15 -9,-21 -5,-5 -12,-8 -20,-10l-20 -6c-6,-2 -12,-4 -15,-8 -2,-2 -4,-6 -4,-9 0,-6 4,-11 9,-14 4,-3 10,-4 16,-4 6,0 12,2 17,5 6,4 10,10 13,17l12 -4zm52 86c12,0 23,-5 30,-14 7,-9 10,-19 10,-30 0,-11 -3,-22 -10,-31 -7,-9 -18,-13 -30,-13 -12,0 -23,5 -31,13 -6,9 -9,20 -9,31 0,10 2,21 9,30 8,9 19,14 31,14zm20 -22c-5,7 -12,10 -20,10 -8,0 -16,-3 -20,-10 -5,-6 -7,-14 -7,-22 0,-8 2,-17 7,-23 4,-6 12,-9 20,-9 8,0 15,3 20,9 5,6 6,15 6,23 0,8 -1,16 -6,22zm139 -58c-5,-4 -12,-6 -18,-6 -10,0 -19,4 -24,12 -1,1 -1,2 -2,2 -1,-2 -3,-5 -6,-8 -5,-4 -12,-6 -18,-6 -9,0 -18,4 -23,11l0 -11 -12 0 0 83 13 0 0 -51c0,-5 1,-10 4,-14 4,-4 9,-7 15,-7 4,0 9,2 12,5 6,5 6,10 6,18l0 49 13 0 0 -49 0 -2c0,-5 0,-10 4,-14 4,-4 9,-7 15,-7 4,0 8,2 12,5 5,5 6,10 6,18l0 49 12 0 0 -49c0,-12 0,-20 -9,-28zm38 15c1,-1 2,-2 2,-3 5,-6 12,-8 20,-8 6,0 12,1 17,5 4,3 6,8 7,13l-17 2c-13,2 -22,3 -32,8 -7,4 -12,12 -12,21 0,6 2,10 5,15 5,7 13,11 22,11 7,1 14,-1 21,-4 6,-3 12,-8 15,-14l0 16 11 0 0 -52c0,-5 -1,-10 -4,-15 -6,-13 -18,-18 -33,-18 -13,0 -24,4 -31,14 -1,1 -2,3 -2,4l11 5zm46 17c0,7 0,13 -3,20 -5,11 -19,17 -30,16 -9,-1 -15,-8 -15,-16 0,-12 15,-14 28,-16 9,-2 14,-3 20,-4zm34 -66l0 14 13 0 0 -14 -13 0zm0 28l0 83 13 0 0 -83 -13 0zm96 0l-26 70 -29 -70 -13 0 36 86c-5,13 -8,18 -11,21 -2,1 -5,2 -8,1l-3 0 0 12 2 0c6,0 11,0 15,-4 5,-3 9,-9 12,-17l38 -99 -13 0zm35 21c1,-1 2,-2 2,-3 5,-6 12,-8 20,-8 6,0 12,1 17,5 4,3 6,8 7,13l-17 2c-13,2 -22,3 -32,8 -7,4 -12,12 -12,21 0,6 2,10 5,15 5,7 13,11 22,11 7,1 14,-1 21,-4 6,-3 12,-8 15,-14l0 16 11 0 0 -52c0,-5 -1,-10 -3,-15 -6,-13 -19,-18 -34,-18 -13,0 -23,4 -31,14 -1,1 -2,3 -2,4l11 5zm46 17c0,7 0,13 -3,20 -5,11 -19,17 -30,16 -8,-1 -15,-8 -15,-16 0,-12 15,-14 28,-16 9,-2 14,-3 20,-4zm150 9c-2,5 -4,9 -7,13 -6,9 -18,14 -29,14 -11,0 -22,-5 -29,-14 -7,-9 -9,-21 -9,-32 0,-12 2,-24 9,-33 7,-8 18,-13 29,-13 11,0 23,5 29,13 4,5 6,10 7,15l13 -2c-2,-7 -5,-14 -10,-20 -9,-12 -23,-18 -39,-18 -16,0 -30,6 -39,18 -9,11 -12,25 -12,40 -1,14 3,28 12,40 9,12 23,18 39,18 15,0 30,-6 39,-18 5,-5 7,-12 9,-18l-12 -3zm65 39c12,0 23,-5 30,-14 7,-9 10,-19 10,-30 0,-11 -2,-22 -10,-31 -7,-9 -18,-13 -30,-13 -12,0 -23,5 -30,13 -7,9 -10,20 -10,31 0,10 3,21 10,30 7,9 18,14 30,14zm20 -22c-4,7 -12,10 -20,10 -8,0 -16,-3 -20,-10 -5,-6 -6,-14 -6,-22 0,-8 1,-17 6,-23 4,-6 12,-9 20,-9 8,0 16,3 20,9 5,6 7,15 7,23 0,8 -2,16 -7,22zm37 19l0 -113 12 0 0 113 -12 0zm34 0l0 -113 12 0 0 113 -12 0zm43 -38l66 0c0,-1 0,-2 0,-3 0,-11 -3,-22 -10,-31 -7,-9 -18,-13 -30,-13 -12,0 -23,4 -30,13 -7,9 -10,20 -10,31 0,10 3,21 10,30 7,9 18,13 30,14 12,0 23,-5 31,-14 1,-2 3,-4 4,-7l-12 -5c-1,1 -2,3 -3,4 -4,7 -12,10 -20,10 -8,0 -16,-3 -20,-10 -4,-5 -6,-12 -6,-19zm26 -35c8,0 16,3 20,9 3,4 5,10 6,16l-52 0c1,-6 3,-12 6,-16 4,-6 12,-9 20,-9zm118 -10l0 11c-7,-9 -17,-13 -28,-13 -12,0 -22,5 -29,13 -7,9 -9,20 -9,31 0,10 2,21 9,30 7,9 18,14 29,14 11,0 20,-4 27,-11l0 8c0,11 -2,16 -7,22 -5,4 -12,5 -19,5 -7,0 -14,-2 -19,-7 -1,-1 -2,-3 -3,-4l-11 5c2,4 5,7 8,9 6,6 15,10 25,10 8,0 17,-2 25,-8 10,-7 13,-16 13,-32l0 -83 -11 0zm-7 65c-4,6 -12,9 -20,9 -7,0 -15,-3 -20,-10 -4,-5 -6,-14 -6,-22 0,-9 2,-17 6,-23 5,-7 12,-10 21,-10 8,0 15,3 19,9 5,6 7,15 7,24 0,8 -2,17 -7,23zm49 -20l65 0c1,-1 1,-2 1,-3 0,-11 -3,-22 -10,-31 -7,-9 -18,-13 -30,-13 -12,0 -23,4 -30,13 -7,9 -10,20 -10,31 0,10 3,21 10,30 7,9 18,13 30,14 12,0 23,-5 31,-14 1,-2 3,-4 4,-7l-12 -5c-1,1 -2,3 -3,4 -4,7 -12,10 -20,10 -8,0 -16,-3 -20,-10 -4,-5 -6,-12 -6,-19zm26 -35c8,0 16,3 20,9 3,4 5,10 6,16l-52 0c1,-6 3,-12 6,-16 4,-6 12,-9 20,-9zm126 76c12,0 23,-5 30,-14 7,-9 10,-19 10,-30 0,-11 -2,-22 -10,-31 -7,-9 -18,-13 -30,-13 -12,0 -23,5 -30,13 -7,9 -10,20 -10,31 0,10 3,21 10,30 7,9 18,14 30,14zm20 -22c-4,7 -12,10 -20,10 -8,0 -16,-3 -20,-10 -5,-6 -6,-14 -6,-22 0,-8 1,-17 6,-23 4,-6 12,-9 20,-9 8,0 16,3 20,9 5,6 7,15 7,23 0,8 -2,16 -7,22zm69 -82c4,-1 9,-1 13,-1l0 -10c-10,-2 -20,-1 -28,5 -6,6 -8,13 -8,20l0 4 -18 0 0 11 18 0 0 72 13 0 0 -72 23 0 0 -11 -23 0 0 -5c0,-7 3,-12 10,-13zm130 3l0 -13 -68 0 0 111 68 0 0 -12 -56 0 0 -37 47 0 0 -12 -47 0 0 -37 56 0zm79 20c-6,-5 -15,-7 -23,-7 -7,0 -16,3 -22,9 -1,1 -2,2 -2,3l0 -10 -12 0 0 83 13 0 0 -42c0,-4 0,-8 1,-12 1,-5 4,-10 7,-14 4,-3 9,-5 14,-5 6,0 12,2 16,5 8,6 9,15 9,27l0 41 13 0 0 -41c0,-15 -2,-28 -14,-37zm94 -5l0 11c-7,-9 -17,-13 -29,-13 -11,0 -21,5 -28,13 -7,9 -9,20 -9,31 0,10 2,21 9,30 7,9 17,14 29,14 10,0 20,-4 26,-11l0 8c1,11 -1,16 -7,22 -5,4 -12,5 -19,5 -6,0 -13,-2 -18,-7 -1,-1 -2,-3 -3,-4l-12 5c2,4 6,7 9,9 6,6 15,10 24,10 9,0 18,-2 26,-8 10,-7 13,-16 13,-32l0 -83 -11 0zm-7 65c-4,6 -12,9 -20,9 -8,0 -15,-3 -20,-10 -4,-5 -6,-14 -6,-22 0,-9 2,-17 6,-23 5,-7 12,-10 20,-10 8,0 16,3 20,9 5,6 7,15 7,24 0,8 -2,17 -7,23zm41 -93l0 14 13 0 0 -14 -13 0zm0 28l0 83 13 0 0 -83 -13 0zm95 5c-7,-5 -15,-7 -23,-7 -8,0 -16,3 -22,9 -1,1 -2,2 -3,3l0 -10 -11 0 0 83 12 0 0 -42c0,-4 1,-8 1,-12 1,-5 4,-10 8,-14 3,-3 8,-5 13,-5 7,0 12,2 16,5 8,6 9,15 9,27l0 41 13 0 0 -41c0,-15 -2,-28 -13,-37zm41 40l65 0c0,-1 0,-2 0,-3 0,-11 -2,-22 -9,-31 -7,-9 -18,-13 -30,-13 -12,0 -23,4 -31,13 -6,9 -9,20 -9,31 0,10 3,21 9,30 8,9 19,13 31,14 12,0 23,-5 30,-14 2,-2 4,-4 5,-7l-12 -5c-1,1 -2,3 -3,4 -5,7 -12,10 -20,10 -8,0 -16,-3 -20,-10 -4,-5 -6,-12 -6,-19zm26 -35c8,0 15,3 20,9 3,4 5,10 6,16l-52 0c1,-6 2,-12 6,-16 4,-6 12,-9 20,-9zm65 35l66 0c0,-1 0,-2 0,-3 0,-11 -2,-22 -9,-31 -8,-9 -18,-13 -30,-13 -13,0 -23,4 -31,13 -7,9 -9,20 -9,31 0,10 2,21 9,30 7,9 19,13 31,14 11,0 23,-5 30,-14 2,-2 3,-4 5,-7l-13 -5c0,1 -1,3 -2,4 -5,7 -12,10 -20,10 -9,0 -16,-3 -21,-10 -4,-5 -5,-12 -6,-19zm27 -35c8,0 15,3 20,9 3,4 5,10 5,16l-51 0c0,-6 2,-12 5,-16 5,-6 12,-9 21,-9zm93 -12c-6,0 -13,2 -19,6 -3,3 -5,6 -7,8l0 -12 -11 0 0 83 13 0 0 -40c0,-11 0,-20 7,-27 4,-4 10,-6 16,-6 5,-1 9,0 13,1l0 -12c-4,-1 -8,-1 -12,-1zm28 -26l0 14 13 0 0 -14 -13 0zm0 28l0 83 13 0 0 -83 -13 0zm95 5c-7,-5 -15,-7 -24,-7 -7,0 -15,3 -21,9 -1,1 -2,2 -3,3l0 -10 -11 0 0 83 12 0 0 -42c0,-4 0,-8 1,-12 1,-5 4,-10 8,-14 3,-3 8,-5 13,-5 6,0 12,2 16,5 8,6 9,15 9,27l0 41 13 0 0 -41c0,-15 -2,-28 -13,-37zm93 -5l0 11c-7,-9 -17,-13 -28,-13 -12,0 -22,5 -29,13 -7,9 -9,20 -9,31 0,10 2,21 9,30 7,9 18,14 29,14 11,0 20,-4 27,-11l0 8c0,11 -2,16 -7,22 -5,4 -12,5 -19,5 -7,0 -14,-2 -19,-7 -1,-1 -2,-3 -3,-4l-11 5c2,4 5,7 8,9 6,6 15,10 25,10 8,0 17,-2 25,-8 10,-7 13,-16 13,-32l0 -83 -11 0zm-7 65c-4,6 -12,9 -20,9 -7,0 -15,-3 -20,-10 -4,-5 -6,-14 -6,-22 0,-9 2,-17 6,-23 5,-7 12,-10 21,-10 8,0 15,3 19,9 5,6 7,15 7,24 0,8 -2,17 -7,23zm53 21l0 -19 -15 0 0 16 8 0c0,6 -1,11 -7,11l-1 6c10,2 15,-4 15,-14zm-2558 183l17 0 37 -110 -13 0 -33 97 -33 -97 -13 0 38 110zm64 -110l0 13 13 0 0 -13 -13 0zm0 27l0 83 13 0 0 -83 -13 0z"/>
    <path class="fil4" d="M1887 751l0 36c-7,-7 -16,-11 -27,-11 -11,0 -22,5 -28,13 -7,9 -10,20 -10,31 0,11 3,22 10,30 6,9 17,14 28,14 12,0 22,-5 29,-13l0 10 11 0 0 -110 -13 0zm-5 92c-5,6 -12,9 -20,9 -8,0 -16,-3 -20,-9 -5,-6 -6,-15 -6,-23 0,-9 1,-17 6,-23 4,-7 12,-9 20,-9 8,0 15,2 20,8 5,6 7,15 7,24 0,8 -2,17 -7,23zm99 -65l-26 70 -28 -70 -13 0 35 86c-5,13 -7,19 -10,21 -3,1 -6,2 -9,2l-2 -1 0 12 2 0c5,0 10,0 15,-3 4,-4 8,-9 11,-18l38 -99 -13 0zm36 21c1,-1 1,-2 2,-3 4,-5 11,-8 19,-8 6,0 13,1 17,5 4,3 7,8 7,13l-17 2c-13,2 -22,3 -31,8 -8,5 -12,12 -12,21 0,6 2,10 5,15 4,7 13,11 21,11 8,1 15,-1 22,-4 5,-3 11,-8 14,-14l0 16 11 0 0 -52c0,-4 -1,-10 -3,-14 -6,-13 -18,-19 -34,-19 -12,0 -23,4 -30,14 -1,1 -2,3 -3,4l12 5zm46 18c0,7 0,12 -3,19 -5,11 -19,17 -30,16 -9,-1 -16,-8 -16,-15 1,-13 15,-15 29,-17 8,-2 14,-2 20,-3zm85 -39l-24 67 -24 -67 -13 0 30 83 13 0 30 -83 -12 0zm27 -27l0 13 13 0 0 -13 -13 0zm0 27l0 83 13 0 0 -83 -13 0zm95 5c-7,-5 -15,-7 -24,-7 -7,1 -15,3 -21,9 -1,1 -2,2 -3,3l0 -37 -11 0 0 110 12 0 0 -42c0,-4 1,-8 1,-12 1,-5 4,-10 8,-13 3,-4 8,-5 13,-6 7,0 12,2 16,5 8,6 9,16 9,27l0 41 13 0 0 -41c0,-15 -2,-28 -13,-37zm42 16c1,-1 1,-2 2,-3 4,-5 12,-8 19,-8 7,0 13,1 17,5 4,3 7,8 7,13l-17 2c-13,2 -22,3 -31,8 -8,5 -12,12 -12,21 0,6 2,10 5,15 4,7 13,11 21,11 8,1 15,-1 22,-4 5,-3 11,-8 14,-14l0 16 11 0 0 -52c0,-4 -1,-10 -3,-14 -6,-13 -18,-19 -34,-19 -12,0 -23,4 -30,14 -1,1 -2,3 -3,4l12 5zm46 18c0,7 0,12 -3,19 -5,11 -19,17 -30,16 -9,-1 -16,-8 -15,-15 0,-13 14,-15 28,-17 8,-2 14,-2 20,-3zm70 -41c-7,0 -14,2 -19,7 -3,2 -6,5 -7,8l0 -13 -12 0 0 83 13 0 0 -40c0,-11 0,-20 8,-27 4,-4 9,-6 16,-6 4,0 9,0 12,2l0 -12c-3,-2 -7,-2 -11,-2zm26 88l0 -19 -14 0 0 16 7 0c1,6 0,12 -6,11l-1 6c9,2 14,-4 14,-14zm175 -113l-13 0 -42 90 -42 -90 -13 0 0 110 13 0 0 -83 39 83 7 0 38 -83 0 83 13 0 0 -110zm80 27l0 37 0 0c0,6 0,12 -1,17 -1,6 -4,11 -8,14 -3,3 -8,5 -13,5 -6,0 -12,-1 -16,-4 -8,-6 -9,-16 -9,-28l0 -41 -13 0 0 41c0,16 2,29 13,38 7,4 16,7 24,6 7,0 16,-3 21,-8 2,-1 3,-2 3,-3l0 9 11 0 0 -83 -12 0zm136 7c-5,-5 -12,-7 -18,-7 -9,0 -19,5 -24,12 0,1 -1,2 -1,2 -2,-2 -4,-5 -7,-7 -5,-5 -11,-7 -18,-7 -9,0 -17,4 -23,11l0 -11 -11 0 0 83 13 0 0 -51c0,-5 0,-9 4,-14 3,-4 9,-7 14,-7 5,0 9,2 12,5 6,5 7,10 7,18l0 49 12 0 0 -49 0 -2c0,-5 1,-9 5,-14 3,-4 8,-7 14,-7 4,0 9,2 12,5 6,5 6,10 6,18l0 49 13 0 0 -49c0,-12 -1,-20 -10,-27zm97 4c-7,-8 -18,-13 -29,-13 -10,0 -20,4 -27,11l0 -36 -13 0 0 110 12 0 0 -10c6,8 16,13 28,13 11,0 22,-5 29,-14 7,-8 9,-19 9,-30 0,-11 -3,-22 -9,-31zm-11 54c-4,6 -12,9 -20,9 -8,0 -15,-3 -20,-9 -5,-6 -6,-15 -6,-23 0,-9 1,-18 6,-24 5,-6 12,-8 20,-8 8,0 16,2 20,9 5,6 6,14 6,23 0,8 -1,17 -6,23zm47 -44c1,-1 1,-2 2,-3 4,-5 12,-8 19,-8 7,0 13,1 17,5 4,3 7,8 8,13l-18 2c-13,2 -22,3 -31,8 -7,5 -12,12 -12,21 0,6 2,10 5,15 4,7 13,11 21,11 8,1 15,-1 22,-4 5,-3 11,-8 14,-14l0 16 11 0 0 -52c0,-4 0,-10 -3,-14 -6,-13 -18,-19 -34,-19 -12,0 -23,4 -30,14 -1,1 -2,3 -2,4l11 5zm46 18c0,7 0,12 -3,19 -5,11 -19,17 -30,16 -9,-1 -16,-8 -15,-15 0,-13 14,-15 28,-17 8,-2 14,-2 20,-3zm34 -66l0 13 13 0 0 -13 -13 0zm0 27l0 83 13 0 0 -83 -13 0zm68 35l0 10 47 0 0 -10 -47 0zm160 16l0 -32 -13 0 0 32 -36 0 37 -78 -13 0 -37 78 0 12 49 0 0 20 13 0 0 -20 12 0 0 -12 -12 0zm61 35c-11,0 -21,-4 -28,-12 -6,-8 -9,-16 -9,-26l0 -40c0,-10 3,-19 10,-26 6,-8 16,-12 27,-12 10,0 20,4 27,12 7,7 10,16 10,26l0 40c0,10 -3,18 -9,26 -7,7 -17,12 -28,12zm0 -104c-8,0 -16,5 -20,11 -3,4 -4,9 -4,15l0 40c0,5 1,10 4,15 4,6 12,11 20,11 8,0 16,-5 20,-11 3,-5 4,-9 4,-15l0 -40c0,-6 -1,-10 -4,-15 -4,-6 -12,-11 -20,-11zm86 104c-11,0 -21,-4 -28,-12 -6,-8 -9,-16 -9,-26l0 -40c0,-10 3,-19 10,-26 6,-8 16,-12 27,-12 10,0 20,4 27,12 7,7 10,16 10,26l0 40c0,10 -3,18 -9,26 -7,7 -17,12 -28,12zm0 -104c-8,0 -16,5 -20,11 -3,4 -4,9 -4,15l0 40c0,5 1,10 4,15 4,6 12,11 20,11 8,0 16,-5 20,-11 3,-5 4,-9 4,-15l0 -40c0,-6 -1,-10 -4,-15 -4,-6 -12,-11 -20,-11zm120 104c-10,0 -21,-4 -27,-12 -7,-8 -10,-16 -10,-26l0 -40c0,-10 3,-19 10,-26 7,-8 17,-12 27,-12 11,0 21,4 28,12 6,7 9,16 9,26l0 40c0,10 -2,18 -9,26 -7,7 -17,12 -28,12zm0 -104c-8,0 -16,5 -20,11 -3,4 -4,9 -4,15l0 40c0,5 1,10 4,15 5,6 12,11 20,11 9,0 16,-5 20,-11 4,-5 4,-9 4,-15l0 -40c0,-6 -1,-10 -3,-15 -5,-6 -12,-11 -21,-11zm64 101l13 0 40 -98 0 -12 -64 0 0 12 51 0 -40 98zm89 0l12 0 41 -98 0 -12 -65 0 0 12 52 0 -40 98zm60 -14l0 14 14 0 0 -14 -14 0z"/>
   </g>
   <polygon class="fil4" points="55,252 4,252 4,4 55,4 55,107 144,4 206,4 100,125 206,252 143,252 65,160 55,169 "/>
   <path id="1" class="fil4" d="M379 4l0 170c0,14 -3,26 -8,36 -6,10 -13,18 -22,25 -9,7 -19,12 -30,15 -11,4 -23,5 -34,5 -10,0 -21,-1 -31,-4 -11,-4 -20,-9 -29,-16 -8,-7 -15,-15 -21,-25 -7,-11 -10,-23 -12,-37l50 -10c2,14 8,25 16,32 9,7 18,10 28,10 5,0 10,-1 15,-2 5,-1 9,-3 13,-6 4,-2 7,-6 10,-9 2,-4 3,-9 3,-14l0 -121 -58 0 0 -49 110 0z"/>
   <path id="2" class="fil4" d="M501 206c9,0 17,-2 24,-7 8,-4 12,-11 12,-20 0,-5 -1,-9 -4,-12 -2,-3 -6,-6 -10,-8 -4,-3 -10,-4 -16,-6 -5,-1 -12,-2 -18,-3 -10,-1 -19,-3 -29,-7 -9,-3 -18,-8 -25,-14 -7,-6 -13,-13 -18,-23 -4,-9 -6,-20 -6,-32 0,-1 0,-2 0,-3 0,-11 3,-22 9,-31 5,-9 12,-16 20,-22 8,-6 18,-10 28,-13 11,-3 22,-5 33,-5 16,0 31,3 46,10 15,7 27,18 38,34l-43 28c-5,-8 -11,-14 -18,-18 -7,-3 -15,-5 -23,-5 -5,0 -10,0 -14,1 -4,1 -8,2 -12,4 -3,2 -6,5 -8,8 -2,3 -4,7 -4,11l0 1c0,5 1,9 4,12 2,3 5,5 9,7 4,2 9,4 14,5 5,1 11,2 16,3 11,2 21,5 31,8 10,4 19,8 27,15 8,6 14,14 19,23 4,9 6,19 6,31 0,2 0,4 0,6 -2,11 -5,22 -11,30 -5,9 -12,17 -21,23 -9,6 -19,11 -30,14 -10,3 -21,4 -33,4 -16,0 -32,-4 -47,-11 -15,-8 -28,-20 -39,-36l39 -30c6,9 13,16 23,20 10,5 20,7 29,8 1,0 2,0 2,0z"/>
   <path id="3" class="fil4" d="M711 255c-12,0 -24,-1 -36,-5 -11,-3 -22,-8 -31,-15 -9,-7 -17,-16 -22,-26 -6,-10 -9,-22 -9,-36l0 -90c0,-14 3,-26 9,-36 5,-10 12,-19 22,-26 9,-7 19,-12 31,-15 11,-4 23,-6 36,-6 8,0 16,1 25,4 8,2 16,5 24,9 8,5 15,10 21,17 7,7 12,14 16,24l-41 22c-5,-9 -12,-16 -21,-20 -9,-4 -17,-7 -27,-7 0,0 -1,0 -1,0 -6,0 -11,1 -16,3 -5,1 -9,4 -13,7 -4,2 -8,6 -10,10 -2,4 -3,9 -3,14l0 90c0,5 1,10 3,14 2,4 5,7 9,10 4,3 8,5 13,6 5,2 11,3 16,3 0,0 1,0 1,0 9,0 18,-2 27,-7 9,-4 16,-11 21,-20l44 25c-11,17 -24,30 -40,39 -15,8 -32,12 -48,12z"/>
   <polygon id="4" class="fil4" points="876,103 983,103 983,153 876,153 876,202 993,202 993,252 824,252 824,4 993,4 993,54 876,54 "/>
   <path id="5" class="fil4" d="M1176 206c9,0 17,-2 24,-7 8,-4 12,-11 12,-20 0,-5 -1,-9 -4,-12 -2,-3 -6,-6 -10,-8 -4,-3 -9,-4 -15,-6 -6,-1 -12,-2 -19,-3 -10,-1 -19,-3 -29,-7 -9,-3 -18,-8 -25,-14 -7,-6 -13,-13 -18,-23 -4,-9 -6,-20 -6,-32 0,-1 0,-2 0,-3 0,-11 3,-22 9,-31 5,-9 12,-16 20,-22 9,-6 18,-10 29,-13 10,-3 21,-5 32,-5 16,0 32,3 46,10 15,7 27,18 38,34l-43 28c-5,-8 -11,-14 -18,-18 -7,-3 -15,-5 -23,-5 -5,0 -9,0 -14,1 -4,1 -8,2 -12,4 -3,2 -6,5 -8,8 -2,3 -3,7 -4,11l0 1c0,5 1,9 4,12 2,3 6,5 10,7 4,2 8,4 13,5 5,1 11,2 16,3 11,2 21,5 31,8 11,4 20,8 27,15 8,6 14,14 19,23 4,9 6,19 6,31 0,2 0,4 0,6 -1,11 -5,22 -10,30 -6,9 -13,17 -22,23 -9,6 -19,11 -29,14 -11,3 -22,4 -34,4 -16,0 -31,-4 -47,-11 -15,-8 -28,-20 -39,-36l39 -30c6,9 13,16 23,20 10,5 20,7 29,8 1,0 2,0 2,0z"/>
   <polygon id="6" class="fil4" points="1401,55 1401,252 1350,252 1350,55 1278,55 1278,4 1473,4 1473,55 "/>
   <path id="7" class="fil4" d="M1549 170c0,6 2,11 4,16 3,4 6,7 10,10 4,3 9,5 15,7 5,1 11,2 16,2 6,0 12,-1 18,-2 5,-2 10,-4 14,-7 5,-3 8,-6 10,-10 3,-5 4,-10 4,-16l0 -166 52 0 0 166c0,15 -3,27 -8,38 -6,10 -13,19 -22,26 -9,7 -20,13 -31,16 -12,4 -24,5 -37,5 -12,0 -24,-1 -35,-5 -12,-3 -22,-9 -31,-16 -10,-7 -17,-16 -22,-26 -6,-11 -9,-23 -9,-38l0 -166 52 0 0 166z"/>
   <path id="8" class="fil4" d="M1825 4c12,0 24,1 35,5 11,3 22,8 30,14 9,7 16,15 21,25 6,10 8,22 8,36l0 89c0,14 -2,26 -8,36 -5,10 -12,18 -21,24 -8,7 -19,11 -30,14 -11,3 -23,5 -35,5l-91 0 0 -248 91 0zm0 196c5,0 11,0 16,-1 5,-1 9,-3 13,-5 4,-2 8,-5 10,-9 2,-3 3,-7 3,-12l0 -89c0,-5 -1,-9 -3,-13 -2,-3 -6,-6 -10,-9 -4,-2 -8,-4 -13,-5 -5,-1 -11,-1 -16,-1l-40 0 0 144 40 0z"/>
   <polygon id="9" class="fil4" points="2008,103 2115,103 2115,153 2008,153 2008,202 2124,202 2124,252 1956,252 1956,4 2124,4 2124,54 2008,54 "/>
   <path id="10" class="fil4" d="M2304 131l0 -127 51 0 0 248 -55 0 -76 -130 -15 -34 -3 1 6 42 0 121 -51 0 0 -248 50 0 79 135 17 45 4 -1c-1,-4 -2,-8 -2,-14 -1,-5 -2,-11 -3,-16 0,-5 -1,-10 -2,-14 0,-4 0,-7 0,-8z"/>
   <polygon id="11" class="fil4" points="2505,55 2505,252 2453,252 2453,55 2382,55 2382,4 2576,4 2576,55 "/>
   <path id="12" class="fil4" d="M2683 206c9,0 17,-2 24,-7 8,-4 12,-11 12,-20 0,-5 -1,-9 -3,-12 -3,-3 -6,-6 -11,-8 -4,-3 -9,-4 -15,-6 -6,-1 -12,-2 -19,-3 -9,-1 -19,-3 -29,-7 -9,-3 -17,-8 -25,-14 -7,-6 -13,-13 -17,-23 -5,-9 -7,-20 -7,-32 0,-1 0,-2 0,-3 1,-11 4,-22 9,-31 5,-9 12,-16 21,-22 8,-6 17,-10 28,-13 10,-3 21,-5 32,-5 16,0 32,3 46,10 15,7 28,18 38,34l-42 28c-6,-8 -12,-14 -19,-18 -7,-3 -15,-5 -23,-5 -5,0 -9,0 -14,1 -4,1 -8,2 -12,4 -3,2 -6,5 -8,8 -2,3 -3,7 -4,11l0 1c0,5 2,9 4,12 3,3 6,5 10,7 4,2 8,4 13,5 6,1 11,2 16,3 11,2 21,5 32,8 10,4 19,8 27,15 7,6 13,14 18,23 4,9 6,19 6,31 0,2 0,4 0,6 -1,11 -5,22 -10,30 -6,9 -13,17 -22,23 -9,6 -18,11 -29,14 -11,3 -22,4 -33,4 -16,0 -32,-4 -48,-11 -15,-8 -28,-20 -39,-36l39 -30c6,9 14,16 23,20 10,5 20,7 30,8 0,0 1,0 1,0z"/>
   <polygon id="13" class="fil4" points="2836,85 2792,85 2814,5 2872,5 "/>
   <path id="14" class="fil4" d="M3054 255c-12,0 -24,-1 -35,-5 -12,-3 -23,-8 -32,-15 -9,-7 -16,-16 -22,-26 -6,-10 -8,-22 -8,-36l0 -90c0,-14 2,-26 8,-36 5,-10 13,-19 22,-26 9,-7 19,-12 31,-15 12,-4 24,-6 36,-6 8,0 16,1 25,4 8,2 16,5 24,9 8,5 15,10 21,17 7,7 12,14 16,24l-41 22c-5,-9 -12,-16 -21,-20 -9,-4 -17,-7 -26,-7 -1,0 -1,0 -2,0 -5,0 -11,1 -16,3 -5,1 -9,4 -13,7 -4,2 -7,6 -10,10 -2,4 -3,9 -3,14l0 90c0,5 1,10 3,14 2,4 5,7 9,10 4,3 8,5 13,6 5,2 11,3 16,3 1,0 1,0 1,0 9,0 18,-2 27,-7 9,-4 16,-11 21,-20l44 25c-10,17 -24,30 -40,39 -15,8 -31,12 -48,12z"/>
   <path id="15" class="fil4" d="M3161 83c0,-14 3,-26 9,-36 5,-11 13,-19 23,-26 9,-7 20,-12 32,-16 12,-3 25,-5 37,-5 13,0 25,2 38,6 12,3 23,8 32,15 10,7 17,16 23,26 6,10 9,22 9,36l0 90c0,14 -3,26 -9,36 -6,10 -13,19 -23,26 -9,7 -20,12 -32,16 -13,3 -25,5 -38,5 -12,0 -25,-2 -37,-5 -12,-4 -23,-9 -32,-16 -10,-7 -18,-15 -23,-26 -6,-10 -9,-22 -9,-36l0 -90zm51 90c0,5 1,10 4,14 3,4 7,7 12,10 4,2 10,4 16,5 6,2 12,2 18,2 7,0 13,0 19,-2 6,-1 11,-3 16,-6 5,-2 9,-6 11,-9 3,-4 5,-9 5,-14l0 -90c0,-5 -2,-10 -5,-14 -3,-4 -7,-7 -11,-10 -5,-2 -10,-4 -16,-6 -6,-1 -13,-1 -19,-1 -6,0 -12,0 -18,2 -6,1 -12,3 -16,6 -5,2 -9,5 -12,9 -3,4 -4,9 -4,14l0 90z"/>
   <path id="16" class="fil4" d="M3451 170c0,6 1,11 3,16 3,4 6,7 11,10 4,3 9,5 14,7 6,1 11,2 17,2 6,0 11,-1 17,-2 6,-2 10,-4 15,-7 4,-3 7,-6 10,-10 2,-5 4,-10 4,-16l0 -166 51 0 0 166c0,15 -2,27 -8,38 -5,10 -13,19 -22,26 -9,7 -19,13 -31,16 -12,4 -24,5 -36,5 -12,0 -24,-1 -36,-5 -12,-3 -22,-9 -31,-16 -9,-7 -17,-16 -22,-26 -6,-11 -8,-23 -8,-38l0 -166 52 0 0 166z"/>
   <path id="17" class="fil4" d="M3778 131l0 -127 51 0 0 248 -55 0 -75 -130 -15 -34 -4 1 7 42 0 121 -52 0 0 -248 51 0 78 135 18 45 3 -1c-1,-4 -1,-8 -2,-14 -1,-5 -2,-11 -2,-16 -1,-5 -2,-10 -2,-14 -1,-4 -1,-7 -1,-8z"/>
   <path id="18" class="fil4" d="M3964 255c-12,0 -24,-1 -36,-5 -11,-3 -22,-8 -31,-15 -9,-7 -17,-16 -22,-26 -6,-10 -9,-22 -9,-36l0 -90c0,-14 3,-26 9,-36 5,-10 12,-19 22,-26 9,-7 19,-12 31,-15 11,-4 23,-6 36,-6 8,0 16,1 25,4 8,2 16,5 24,9 8,5 15,10 21,17 6,7 12,14 16,24l-41 22c-5,-9 -12,-16 -21,-20 -9,-4 -18,-7 -27,-7 0,0 -1,0 -1,0 -6,0 -11,1 -16,3 -5,1 -9,4 -13,7 -4,2 -8,6 -10,10 -2,4 -3,9 -3,14l0 90c0,5 1,10 3,14 2,4 5,7 9,10 4,3 8,5 13,6 5,2 11,3 16,3 0,0 1,0 1,0 9,0 18,-2 27,-7 9,-4 16,-11 21,-20l44 25c-11,17 -24,30 -40,39 -15,8 -32,12 -48,12z"/>
   <polygon id="19" class="fil4" points="4129,252 4077,252 4077,4 4129,4 "/>
   <polygon id="20" class="fil4" points="4172,4 4224,4 4224,200 4331,200 4331,252 4172,252 "/>
  </g>
 </g>
</svg>
