<?xml version="1.0" encoding="UTF-8"?>
<!DOCTYPE svg PUBLIC "-//W3C//DTD SVG 1.1//EN" "http://www.w3.org/Graphics/SVG/1.1/DTD/svg11.dtd">
<!-- Creator: CorelDRAW X7 -->
<svg xmlns="http://www.w3.org/2000/svg" xml:space="preserve" width="95.508mm" height="44.388mm" version="1.1" style="shape-rendering:geometricPrecision; text-rendering:geometricPrecision; image-rendering:optimizeQuality; fill-rule:evenodd; clip-rule:evenodd"
viewBox="0 0 9551 4439"
 xmlns:xlink="http://www.w3.org/1999/xlink">
 <defs>
  <style type="text/css">
   <![CDATA[
    .fil1 {fill:none}
    .fil3 {fill:#0B599D}
    .fil0 {fill:#EBECEC}
    .fil4 {fill:#FEFEFE;fill-rule:nonzero}
    .fil2 {fill:#2B2A29;fill-rule:nonzero}
   ]]>
  </style>
 </defs>
 <g id="Layer_x0020_1">
  <metadata id="CorelCorpID_0Corel-Layer"/>
  <path class="fil0" d="M3296 2728c0,-909 -737,-1646 -1646,-1646 -909,0 -1646,737 -1646,1646 0,909 737,1646 1646,1646 909,0 1646,-737 1646,-1646z"/>
  <path class="fil1" d="M3296 2728c0,-909 -737,-1646 -1646,-1646 -909,0 -1646,737 -1646,1646 0,909 737,1646 1646,1646 909,0 1646,-737 1646,-1646z"/>
  <path class="fil2" d="M281 3218l46 -18c-5,11 -5,21 -5,33 0,11 2,21 5,28 2,8 5,13 7,16 3,2 5,7 8,7 5,3 7,5 10,5 3,0 5,0 8,-2 5,0 7,-3 10,-5 2,-5 2,-8 5,-13 0,-5 0,-10 2,-18 0,-5 0,-12 0,-20 0,-18 3,-33 11,-43 5,-10 15,-21 27,-26 11,-2 21,-5 28,-2 11,0 18,2 26,7 7,6 15,13 20,21 8,10 13,18 15,28 5,12 8,20 11,30 2,8 2,15 2,23l-41 18c0,-5 3,-10 3,-15 0,-3 0,-8 -3,-13 0,-5 0,-10 -2,-13 0,-5 0,-10 -3,-13 -2,-5 -5,-10 -7,-12 -3,-5 -5,-8 -8,-10 -2,-3 -5,-3 -10,-3 -3,-2 -5,0 -8,0 -2,3 -5,3 -7,8 -3,2 -5,5 -5,10 0,2 -3,7 -3,13 0,5 0,12 0,20 0,7 0,18 -2,25 0,8 -3,13 -6,21 -2,5 -7,12 -12,17 -5,3 -10,8 -21,11 -10,5 -20,7 -30,5 -8,0 -15,-5 -23,-11 -7,-5 -15,-10 -20,-20 -8,-7 -13,-18 -15,-28 -6,-10 -8,-23 -11,-33 -2,-10 -2,-20 -2,-28zm310 249l-31 -53 -150 86 -25 -43 152 -84 -30 -53 33 -20 84 147 -33 20 0 0zm73 214c-48,40 -91,40 -129,-6 -38,-43 -33,-86 13,-127l94 -81 30 38 -94 79c-25,23 -28,46 -13,66 18,20 41,18 66,-3l94 -81 31 36 -92 79zm-7 121l132 -165 61 46c58,48 66,99 23,152 -21,26 -46,41 -74,44 -28,2 -56,-8 -84,-28l-58 -49 0 0zm147 -104l-86 104 20 16c15,12 33,17 48,15 18,-3 33,-13 46,-28 13,-15 18,-33 18,-48 -3,-18 -13,-31 -28,-46l-18 -13 0 0zm175 328l-109 -64 104 -185 107 61 -20 36 -64 -39 -23 41 59 36 -18 33 -61 -33 -23 40 69 41 -21 33 0 0zm247 104l-46 -18 -33 -157c-3,-8 -3,-15 -3,-20l0 0c-2,7 -7,17 -12,33l-43 109 -41 -15 76 -199 48 18 33 150c0,8 3,15 3,20l0 0c3,-5 5,-12 10,-28l43 -109 41 18 -76 198zm264 -124l-59 -11 -30 171 -46 -8 28 -170 -58 -10 5 -38 168 28 -8 38zm30 172l3 -48c8,8 18,13 28,18 10,2 20,5 30,5 5,0 11,0 16,-3 5,0 7,-2 10,-2 5,-3 5,-5 7,-8 3,-2 3,-5 3,-7 0,-5 0,-8 -3,-13 -2,-3 -5,-5 -10,-8 -5,-2 -10,-7 -15,-10 -5,-2 -10,-5 -18,-7 -15,-8 -28,-16 -35,-26 -8,-10 -13,-23 -13,-35 0,-13 2,-23 8,-31 5,-8 10,-13 17,-18 8,-5 18,-10 28,-10 10,-2 21,-5 31,-5 12,0 23,3 30,3 8,2 15,5 23,7l0 43c-2,-2 -8,-2 -13,-5 -2,-2 -7,-5 -12,-5 -3,-2 -8,-2 -13,-2 -5,-3 -8,-3 -13,-3 -5,0 -10,0 -15,3 -2,0 -8,2 -10,2 -3,3 -5,5 -8,8 -2,2 -2,5 -2,7 0,6 0,8 2,11 3,2 5,5 8,7 2,3 8,5 13,8 5,2 10,5 17,8 8,5 16,7 23,12 5,5 10,10 15,15 6,6 11,11 13,16 0,7 3,15 3,23 0,12 -3,22 -8,30 -5,8 -10,15 -18,20 -7,5 -17,8 -28,11 -10,0 -20,2 -33,2 -10,0 -23,-2 -33,-5 -10,-3 -20,-5 -28,-8zm252 -213l-26 69 -27 0 12 -66 41 -3zm289 160c-15,10 -33,18 -58,25 -30,5 -58,3 -81,-12 -23,-13 -36,-36 -43,-69 -8,-33 -6,-61 10,-86 17,-26 40,-43 73,-51 21,-3 38,-5 54,-3l10 44c-15,-5 -33,-5 -51,0 -18,5 -33,12 -43,28 -8,15 -10,33 -5,55 5,18 13,33 28,44 12,10 30,12 48,7 18,-5 36,-12 48,-25l10 43 0 0zm158 -46c-28,10 -56,10 -81,0 -26,-12 -44,-33 -56,-61 -13,-33 -13,-61 -3,-86 10,-28 31,-46 61,-58 28,-13 54,-13 79,0 25,10 43,33 56,61 12,33 12,60 2,86 -10,28 -30,46 -58,58zm-66 -167c-15,7 -26,17 -31,33 -2,15 -2,33 5,50 8,21 21,33 33,41 16,8 28,10 44,3 15,-5 25,-16 30,-31 5,-15 3,-30 -5,-51 -8,-20 -20,-35 -33,-43 -13,-7 -28,-7 -43,-2zm325 -87c33,54 25,97 -25,127 -49,31 -89,21 -122,-33l-66 -101 40 -28 66 104c18,30 38,38 61,23 23,-13 26,-36 8,-64l-69 -104 41 -28 66 104zm257 -111l-36 33 -155 -36c-10,-3 -18,-5 -20,-5l0 0c5,5 12,13 23,23l81 86 -33 31 -147 -155 38 -36 149 36c8,2 16,5 21,5l0 0c-3,-3 -10,-10 -21,-21l-81 -83 33 -33 148 155zm139 -199c-2,18 -12,36 -25,56 -20,28 -43,43 -69,46 -25,5 -53,-3 -78,-20 -28,-21 -44,-46 -49,-74 -7,-30 0,-58 21,-86 12,-16 22,-28 35,-38l38 28c-15,5 -28,17 -38,33 -10,15 -15,33 -13,48 3,18 13,33 31,46 18,12 33,15 51,12 17,0 30,-10 43,-25 10,-15 15,-33 18,-51l35 25 0 0zm69 -104l-23 41 -185 -104 22 -41 186 104zm89 -198l-46 117 -201 -76 18 -46 163 64 28 -74 38 15z"/>
  <path class="fil3" d="M977 2159c-120,5 -315,86 -379,145 -68,63 -38,114 -2,190 28,56 58,122 89,181 45,96 317,680 345,716l-84 -765 308 51 297 765c25,63 71,218 107,251l393 -1018 305 -49 -81 737c5,18 2,10 7,23 16,-48 64,-142 87,-186 117,-233 236,-508 353,-736 46,-94 13,-137 -46,-183 -74,-51 -302,-135 -406,-137 53,-3 510,160 99,315 -442,165 -1570,109 -1603,-135 -13,-99 145,-127 211,-165l0 0 0 0z"/>
  <path class="fil3" d="M1602 2019c-262,61 -165,468 101,399 254,-63 173,-467 -101,-399z"/>
  <path class="fil3" d="M680 1768c-209,63 -112,378 96,315 203,-64 117,-379 -96,-315z"/>
  <path class="fil3" d="M2519 1773c-214,84 -77,386 119,305 196,-84 81,-384 -119,-305z"/>
  <path class="fil2" d="M1326 1488l-66 20 -98 -80c-1,-1 -5,-5 -10,-10l0 0 34 113 -52 15 -70 -230 52 -16 33 109 1 0c0,-4 1,-9 2,-15l35 -116 61 -18 -46 134 124 94z"/>
  <path class="fil2" d="M1476 1361c5,32 1,58 -11,77 -12,19 -32,31 -60,36 -12,2 -24,1 -35,-1l-8 -51c10,6 21,8 32,6 25,-4 34,-24 28,-60l-22 -142 53 -8 23 143z"/>
  <path class="fil2" d="M1564 1438l-1 -53c10,8 20,13 32,17 11,4 23,6 34,6 7,0 13,-1 18,-2 5,-2 10,-3 13,-6 3,-2 6,-5 7,-7 2,-3 3,-7 3,-10 0,-5 -2,-9 -4,-13 -3,-3 -7,-7 -12,-10 -4,-3 -10,-6 -16,-9 -7,-2 -14,-5 -21,-8 -19,-8 -33,-17 -43,-28 -9,-11 -14,-25 -14,-41 0,-12 2,-23 7,-32 5,-9 11,-17 20,-23 9,-6 18,-10 30,-13 11,-3 23,-5 36,-5 13,0 24,0 33,2 10,1 19,3 27,6l1 50c-4,-2 -8,-5 -13,-7 -5,-2 -10,-3 -15,-5 -5,-1 -10,-2 -15,-3 -5,0 -10,0 -14,0 -6,0 -12,0 -17,2 -5,1 -9,3 -13,5 -3,2 -6,5 -8,8 -1,3 -2,6 -2,10 0,4 1,7 3,10 2,4 5,7 9,9 4,3 9,6 15,8 5,3 12,6 19,9 10,3 18,8 26,12 8,4 15,9 20,15 6,6 10,12 13,19 3,8 5,16 5,26 0,13 -2,25 -7,34 -5,9 -12,17 -21,22 -8,6 -18,11 -30,13 -11,3 -24,4 -36,5 -14,0 -26,-1 -38,-3 -12,-2 -23,-5 -31,-10z"/>
  <path class="fil2" d="M1975 1473c-19,6 -42,6 -70,2 -36,-6 -63,-21 -81,-46 -18,-25 -23,-55 -18,-91 6,-38 23,-67 50,-87 27,-20 60,-27 97,-21 24,4 43,10 58,19l-9 51c-14,-12 -31,-20 -52,-23 -22,-3 -41,1 -57,13 -16,12 -26,30 -30,54 -3,23 0,42 11,58 11,15 27,25 49,28 21,4 41,2 60,-6l-8 49z"/>
  <polygon class="fil2" points="2180,1558 2045,1506 2132,1281 2261,1331 2246,1372 2167,1342 2147,1392 2221,1420 2205,1461 2132,1433 2112,1484 2196,1517 "/>
 </g>
 <g id="Layer_x0020_1_0">
  <metadata id="CorelCorpID_1Corel-Layer"/>
  <path class="fil4" d="M99 211c0,2 1,4 3,6 1,1 3,2 5,2l44 0c3,0 5,-1 7,-4l110 -215 112 0 -137 265c-1,2 -1,5 0,7l137 265 -112 0 -110 -215c-2,-3 -4,-4 -7,-4l-44 0c-2,0 -4,0 -5,2 -2,1 -3,3 -3,6l0 211 -99 0 0 -537 99 0 0 211z"/>
  <path id="1" class="fil4" d="M594 413c0,2 1,4 3,6l23 17c2,1 3,2 4,2l65 0c1,0 3,-1 5,-2l22 -17c3,-2 4,-4 4,-6l0 -306c0,-2 -1,-4 -2,-6 -2,-1 -4,-2 -6,-2l-199 0 0 -99 306 0 0 465 -94 72 -137 0 -93 -72 0 -164 99 0 0 112z"/>
  <path id="2" class="fil4" d="M1033 416c0,2 1,5 3,7l19 13c2,1 3,2 5,2l77 0c2,0 4,-1 6,-2l18 -13c2,-2 3,-5 3,-7l0 -75c0,-4 -1,-6 -3,-7l-18 -14c-2,-2 -4,-2 -6,-2l-113 0 -90 -69 0 -181 90 -68 149 0 90 68 0 97 -99 0 0 -44c0,-3 -1,-5 -3,-7l-18 -14c-2,-1 -4,-1 -6,-1l-77 0c-2,0 -3,0 -5,1l-19 14c-2,2 -3,4 -3,7l0 75c0,3 1,6 3,7l19 14c1,2 3,2 5,2l113 0 90 69 0 181 -90 68 -149 0 -90 -68 0 -97 99 0 0 44z"/>
  <path id="3" class="fil4" d="M1626 124c0,-2 -1,-4 -3,-6l-23 -18c-2,-1 -4,-1 -5,-1l-87 0c-1,0 -3,0 -5,1l-23 18c-2,2 -3,4 -3,6l0 289c0,2 1,4 3,6l23 17c2,1 4,2 5,2l87 0c1,0 3,-1 5,-2l23 -17c2,-2 3,-4 3,-6l0 -49 99 0 0 101 -94 72 -159 0 -94 -72 0 -393 94 -72 159 0 94 72 0 101 -99 0 0 -49z"/>
  <path id="4" class="fil4" d="M1947 99c-2,0 -4,1 -5,2 -2,2 -3,4 -3,6l0 121c0,2 1,4 2,5 2,2 4,2 6,2l107 0 0 99 -107 0c-2,0 -4,1 -5,3 -2,1 -3,3 -3,6l0 87c0,2 1,4 3,6 1,2 3,3 5,3l194 0 0 98 -301 0 0 -537 301 0 0 99 -194 0z"/>
  <path id="5" class="fil4" d="M2624 416c0,2 1,5 3,7l18 13c2,1 4,2 6,2l77 0c2,0 3,-1 5,-2l19 -13c2,-2 3,-5 3,-7l0 -75c0,-4 -1,-6 -3,-7l-19 -14c-1,-2 -3,-2 -5,-2l-113 0 -90 -69 0 -181 90 -68 149 0 90 68 0 97 -99 0 0 -44c0,-3 -1,-5 -3,-7l-19 -14c-2,-1 -3,-1 -5,-1l-77 0c-2,0 -4,0 -6,1l-18 14c-2,2 -3,4 -3,7l0 75c0,3 1,6 3,7l18 14c2,2 4,2 6,2l113 0 90 69 0 181 -90 68 -149 0 -90 -68 0 -97 99 0 0 44z"/>
  <path id="6" class="fil4" d="M3069 107c0,-2 -1,-4 -3,-6 -1,-1 -3,-2 -6,-2l-106 0 0 -99 329 0 0 99 -107 0c-2,0 -4,1 -6,2 -2,2 -3,4 -3,6l0 430 -98 0 0 -430z"/>
  <path id="7" class="fil4" d="M3497 413c0,2 1,4 3,6l23 17c2,1 3,2 4,2l88 0c1,0 2,-1 4,-2l23 -17c2,-2 3,-4 3,-6l0 -413 99 0 0 465 -93 72 -160 0 -93 -72 0 -465 99 0 0 413z"/>
  <path id="8" class="fil4" d="M4109 0l93 72 0 393 -93 72 -250 0 0 -537 250 0zm-31 100c-2,-1 -4,-1 -6,-1l-105 0c-2,0 -4,1 -6,2 -2,2 -3,4 -3,6l0 322c0,3 1,4 3,6 2,2 4,3 6,3l105 0c2,0 4,-1 6,-2l22 -17c2,-2 3,-4 3,-6l0 -289c0,-2 -1,-4 -3,-6l-22 -18z"/>
  <path id="9" class="fil4" d="M4425 99c-3,0 -4,1 -6,2 -2,2 -3,4 -3,6l0 121c0,2 1,4 2,5 2,2 4,2 7,2l106 0 0 99 -106 0c-3,0 -4,1 -6,3 -2,1 -3,3 -3,6l0 87c0,2 1,4 3,6 2,2 3,3 6,3l194 0 0 98 -302 0 0 -537 302 0 0 99 -194 0z"/>
  <path id="10" class="fil4" d="M4833 40c0,2 0,3 0,4l144 236c2,4 5,5 10,4 4,-2 6,-5 6,-9l0 -275 99 0 0 537 -99 0 0 -40c0,-1 -1,-3 -2,-5l-143 -235c-3,-4 -6,-5 -9,-4 -4,2 -6,4 -6,9l0 275 -99 0 0 -537 99 0 0 40z"/>
  <path id="11" class="fil4" d="M5306 107c0,-2 0,-4 -2,-6 -1,-1 -3,-2 -6,-2l-107 0 0 -99 329 0 0 99 -106 0c-2,0 -4,1 -6,2 -2,2 -3,4 -3,6l0 430 -99 0 0 -430z"/>
  <path id="12" class="fil4" d="M5734 416c0,2 1,5 4,7l18 13c2,1 4,2 5,2l78 0c1,0 3,-1 5,-2l19 -13c2,-2 3,-5 3,-7l0 -75c0,-4 -1,-6 -3,-7l-19 -14c-1,-2 -3,-2 -5,-2l-114 0 -89 -69 0 -181 89 -68 150 0 90 68 0 97 -99 0 0 -44c0,-3 -1,-5 -3,-7l-19 -14c-2,-1 -4,-1 -5,-1l-78 0c-1,0 -3,0 -5,1l-18 14c-3,2 -4,4 -4,7l0 75c0,3 1,6 4,7l18 14c1,2 3,2 5,2l114 0 90 69 0 181 -90 68 -150 0 -89 -68 0 -97 98 0 0 44z"/>
  <polygon id="13" class="fil4" points="6053,123 6135,123 6172,0 6090,0 "/>
  <path id="14" class="fil4" d="M6776 124c0,-2 -1,-4 -3,-6l-23 -18c-2,-1 -4,-1 -5,-1l-87 0c-1,0 -3,0 -5,1l-23 18c-2,2 -3,4 -3,6l0 289c0,2 1,4 3,6l23 17c2,1 4,2 5,2l87 0c1,0 3,-1 5,-2l23 -17c2,-2 3,-4 3,-6l0 -49 99 0 0 101 -94 72 -159 0 -94 -72 0 -393 94 -72 159 0 94 72 0 101 -99 0 0 -49z"/>
  <path id="15" class="fil4" d="M6990 465l0 -393 93 -72 160 0 94 72 0 393 -94 72 -160 0 -93 -72zm99 -52c0,2 1,4 3,6l23 17c2,1 4,2 5,2l87 0c1,0 3,-1 5,-2l23 -17c2,-2 3,-4 3,-6l0 -289c0,-2 -1,-4 -3,-6l-23 -18c-2,-1 -4,-1 -5,-1l-87 0c-1,0 -3,0 -5,1l-23 18c-2,2 -3,4 -3,6l0 289z"/>
  <path id="16" class="fil4" d="M7551 413c0,2 1,4 3,6l23 17c2,1 3,2 4,2l88 0c1,0 2,-1 4,-2l23 -17c2,-2 3,-4 3,-6l0 -413 99 0 0 465 -93 72 -160 0 -93 -72 0 -465 99 0 0 413z"/>
  <path id="17" class="fil4" d="M8012 40c0,2 1,3 1,4l144 236c2,4 5,5 9,4 4,-2 7,-5 7,-9l0 -275 98 0 0 537 -98 0 0 -40c0,-1 -1,-3 -2,-5l-143 -235c-3,-4 -6,-5 -10,-4 -4,2 -6,4 -6,9l0 275 -99 0 0 -537 99 0 0 40z"/>
  <path id="18" class="fil4" d="M8634 124c0,-2 -1,-4 -3,-6l-23 -18c-2,-1 -3,-1 -4,-1l-88 0c-1,0 -2,0 -4,1l-23 18c-3,2 -4,4 -4,6l0 289c0,2 1,4 4,6l23 17c2,1 3,2 4,2l88 0c1,0 2,-1 4,-2l23 -17c2,-2 3,-4 3,-6l0 -49 99 0 0 101 -93 72 -160 0 -93 -72 0 -393 93 -72 160 0 93 72 0 101 -99 0 0 -49z"/>
  <path id="19" class="fil4" d="M9055 99c-2,0 -4,1 -5,2 -2,2 -3,4 -3,6l0 322c0,3 1,4 3,6 1,2 3,3 5,3l92 0 0 99 -299 0 0 -99 91 0c3,0 5,-1 7,-3 1,-2 2,-3 2,-6l0 -322c0,-2 -1,-4 -2,-6 -2,-1 -4,-2 -7,-2l-91 0 0 -99 299 0 0 99 -92 0z"/>
  <path id="20" class="fil4" d="M9361 429c0,3 0,4 2,6 2,2 4,3 6,3l182 0 0 99 -289 0 0 -537 99 0 0 429z"/>
  <path class="fil4" d="M4789 1309l-28 0 -26 -72 -86 0c-4,12 -8,24 -13,36 -4,12 -8,24 -12,36l-28 0 80 -224 32 0 81 224zm-63 -98c-3,-9 -6,-17 -9,-25 -3,-8 -5,-16 -8,-23 -2,-8 -5,-16 -8,-24 -3,-8 -6,-17 -9,-25 -6,16 -11,32 -17,48 -5,15 -11,32 -17,49l68 0z"/>
  <path id="1" class="fil4" d="M4804 1246l0 -98c0,-12 2,-21 7,-30 5,-8 11,-15 19,-20 8,-5 16,-9 26,-12 10,-3 19,-4 29,-4 9,0 19,1 28,4 10,3 19,7 26,12 8,5 14,12 19,20 5,9 7,18 7,30l0 98c0,12 -2,21 -7,30 -5,8 -11,15 -19,20 -7,5 -16,9 -26,12 -9,3 -19,4 -28,4 -10,0 -19,-1 -29,-4 -10,-3 -18,-7 -26,-12 -8,-5 -14,-12 -19,-20 -5,-9 -7,-18 -7,-30zm26 1c0,7 2,13 5,19 4,5 8,9 13,12 5,3 11,5 18,7 6,1 13,2 19,2 6,0 13,-1 19,-2 6,-2 12,-4 17,-7 6,-3 10,-7 13,-12 4,-6 5,-12 5,-19l0 -99c0,-8 -1,-14 -5,-19 -3,-5 -7,-9 -13,-12 -5,-3 -11,-6 -17,-7 -6,-1 -13,-2 -19,-2 -6,0 -13,1 -19,2 -7,1 -13,4 -18,7 -5,3 -9,7 -13,12 -3,5 -5,11 -5,19l0 99z"/>
  <polygon id="2" class="fil4" points="5036,1309 5036,1123 5005,1157 4985,1141 5038,1085 5062,1085 5062,1309 "/>
  <path id="3" class="fil4" d="M5177 1312c-10,0 -20,-1 -29,-4 -10,-3 -18,-7 -26,-13 -7,-6 -13,-13 -18,-21 -5,-8 -7,-18 -7,-29 0,-12 3,-23 8,-33 6,-10 15,-18 28,-23 -5,-2 -9,-4 -12,-7 -3,-3 -6,-7 -8,-11 -2,-4 -4,-8 -5,-12 -1,-4 -1,-9 -1,-13 0,-10 2,-19 6,-27 4,-7 9,-14 16,-19 6,-5 14,-8 22,-11 9,-3 17,-4 26,-4l6 0c9,0 17,1 26,4 8,3 16,6 23,11 6,5 12,12 16,19 4,8 6,17 6,27 0,5 -1,9 -2,13 -1,5 -3,9 -5,12 -2,4 -4,8 -7,11 -3,3 -6,5 -10,7 5,2 10,5 14,9 5,4 8,8 11,13 3,5 5,10 7,16 1,6 2,12 2,18 0,11 -3,21 -8,29 -4,8 -10,15 -18,20 -7,6 -16,10 -26,13 -9,3 -19,4 -29,5l-6 0zm0 -202c-5,0 -11,1 -17,3 -5,1 -10,3 -14,6 -4,3 -8,7 -10,11 -3,5 -4,10 -4,16 0,7 1,13 4,17 3,4 6,7 10,10 4,2 9,4 15,4 5,1 11,1 16,1l6 0c5,0 11,0 16,-1 6,0 10,-2 15,-4 4,-3 7,-6 10,-10 3,-4 4,-10 4,-17 0,-6 -1,-11 -4,-16 -2,-4 -6,-8 -10,-11 -4,-3 -9,-5 -14,-6 -6,-2 -11,-3 -17,-3l-6 0zm6 176c6,0 13,-1 19,-2 6,-2 12,-4 18,-8 5,-3 9,-7 13,-12 3,-6 5,-12 5,-20 0,-8 -2,-15 -5,-21 -3,-6 -7,-10 -12,-14 -5,-3 -11,-5 -17,-6 -7,-2 -14,-2 -21,-2l-6 0c-7,0 -14,0 -20,2 -7,1 -13,3 -18,6 -5,4 -9,8 -12,14 -3,6 -5,13 -5,21 0,8 2,14 5,20 4,5 8,9 13,12 6,4 12,6 18,8 7,1 13,2 19,2l6 0z"/>
  <polygon id="4" class="fil4" points="5300,1350 5274,1350 5296,1281 5326,1281 "/>
  <path id="5" class="fil4" d="M5425 1152c0,-12 3,-22 8,-30 5,-9 11,-16 19,-22 8,-6 17,-11 27,-14 10,-2 20,-4 31,-4 8,0 16,1 24,3 8,2 15,5 22,8 7,4 13,9 19,15 6,5 10,12 14,20l-24 10c-3,-5 -6,-9 -10,-13 -4,-4 -8,-7 -13,-9 -5,-3 -10,-5 -16,-6 -5,-1 -11,-2 -17,-2 -7,0 -14,1 -21,3 -7,1 -13,4 -18,8 -6,3 -10,8 -13,13 -4,6 -5,12 -5,19l0 90c0,8 1,14 5,20 3,5 7,10 13,14 5,3 12,6 19,8 6,2 14,2 21,2 7,0 14,0 21,-2 7,-2 14,-5 19,-8 6,-4 10,-9 14,-14 3,-6 5,-12 5,-20l0 -22 -66 0 0 -26 92 0 0 48c0,12 -2,22 -7,31 -5,9 -12,16 -20,22 -8,6 -17,11 -27,14 -10,2 -20,4 -31,4 -11,0 -21,-2 -31,-4 -10,-3 -19,-8 -27,-14 -8,-6 -14,-13 -19,-22 -5,-9 -8,-19 -8,-31l0 -89z"/>
  <path id="6" class="fil4" d="M5689 1166c-5,0 -9,1 -14,2 -4,1 -8,3 -12,6 -3,2 -6,6 -8,9 -2,4 -3,9 -3,14l0 112 -25 0 0 -112c0,-10 2,-18 6,-24 3,-7 8,-13 14,-17 6,-5 13,-8 20,-10 7,-3 14,-4 21,-4 3,0 5,0 8,0 2,1 4,1 7,1l0 24c-3,0 -5,-1 -7,-1 -2,0 -4,0 -7,0z"/>
  <path id="7" class="fil4" d="M5719 1197c0,-9 2,-17 6,-24 3,-7 8,-13 14,-17 6,-5 13,-8 20,-10 8,-3 15,-4 23,-4 8,0 16,1 24,4 7,2 14,5 20,10 6,4 10,10 14,17 4,7 5,15 5,24l0 60c0,10 -1,18 -5,24 -4,7 -8,13 -14,17 -6,5 -13,8 -20,10 -8,3 -16,4 -24,4 -8,0 -15,-1 -23,-4 -7,-2 -14,-5 -20,-10 -6,-4 -11,-10 -14,-17 -4,-6 -6,-14 -6,-24l0 -60zm63 -31c-4,0 -9,1 -13,2 -5,1 -9,3 -13,5 -3,3 -6,6 -8,10 -3,4 -4,8 -4,13l0 62c0,5 1,9 4,13 2,4 5,7 8,9 4,3 8,5 13,6 4,1 9,2 13,2 5,0 9,-1 14,-2 4,-1 8,-3 12,-6 4,-2 7,-5 9,-9 2,-4 3,-8 3,-13l0 -62c0,-5 -1,-9 -3,-13 -2,-4 -5,-7 -9,-10 -4,-2 -8,-4 -12,-5 -5,-1 -9,-2 -14,-2z"/>
  <path id="8" class="fil4" d="M5941 1312c-7,0 -15,-1 -22,-4 -8,-2 -14,-5 -20,-10 -6,-4 -11,-10 -14,-17 -4,-6 -6,-14 -6,-23l0 -113 26 0 0 113c0,5 1,9 3,13 2,3 5,7 8,9 4,3 8,5 12,6 4,1 9,2 13,2 8,0 15,0 21,-1 6,-1 12,-3 18,-4l0 -138 25 0 0 155c-7,3 -14,5 -21,6 -6,2 -12,3 -17,4 -5,1 -10,1 -14,2 -5,0 -8,0 -12,0z"/>
  <path id="9" class="fil4" d="M6170 1196l0 113 -25 0 0 -114c0,-5 -1,-10 -4,-13 -2,-4 -5,-7 -8,-9 -4,-3 -8,-5 -12,-6 -4,-1 -9,-2 -13,-2 -7,0 -14,1 -21,3 -7,1 -13,3 -17,5l0 136 -26 0 0 -153c11,-4 21,-7 32,-10 11,-3 22,-4 32,-4 8,0 15,1 23,4 7,2 14,5 19,10 6,4 11,10 14,16 4,7 6,15 6,24z"/>
  <path id="10" class="fil4" d="M6204 1258l0 -61c0,-9 1,-17 5,-24 4,-6 8,-12 14,-17 6,-4 13,-8 21,-10 7,-2 15,-4 23,-4 7,0 13,1 20,3 6,1 12,4 18,7l0 -64 25 0 0 212c-10,4 -21,7 -32,9 -11,2 -21,3 -32,3 -8,0 -15,-1 -23,-4 -7,-2 -14,-5 -20,-10 -6,-4 -10,-10 -14,-17 -4,-6 -5,-14 -5,-23zm62 32c7,0 13,-1 20,-1 7,-1 13,-2 19,-4l0 -111c-6,-3 -12,-6 -19,-7 -7,-1 -13,-2 -19,-2 -5,0 -10,0 -14,2 -4,1 -8,3 -12,6 -4,2 -6,6 -9,10 -2,4 -3,9 -3,14l0 60c0,5 1,10 3,13 3,4 5,8 9,11 3,2 7,5 12,6 4,2 9,3 13,3z"/>
  <polygon id="11" class="fil4" points="6466,1190 6568,1190 6568,1217 6466,1217 6466,1309 6440,1309 6440,1085 6583,1085 6583,1112 6466,1112 "/>
  <path id="12" class="fil4" d="M6667 1312c-18,0 -32,-5 -41,-14 -10,-9 -15,-23 -15,-39l0 -171 26 0 0 171c0,9 2,16 7,21 5,6 12,8 23,8l0 24z"/>
  <path id="13" class="fil4" d="M6684 1197c0,-9 1,-17 5,-24 4,-7 9,-13 14,-17 6,-5 13,-8 21,-10 7,-3 15,-4 23,-4 8,0 16,1 23,4 8,2 14,5 20,10 6,4 11,10 15,17 3,7 5,15 5,24l0 60c0,10 -2,18 -5,24 -4,7 -9,13 -15,17 -6,5 -12,8 -20,10 -7,3 -15,4 -23,4 -8,0 -16,-1 -23,-4 -8,-2 -15,-5 -21,-10 -5,-4 -10,-10 -14,-17 -4,-6 -5,-14 -5,-24l0 -60zm63 -31c-5,0 -9,1 -14,2 -4,1 -8,3 -12,5 -4,3 -7,6 -9,10 -2,4 -3,8 -3,13l0 62c0,5 1,9 3,13 2,4 5,7 9,9 4,3 8,5 12,6 5,1 9,2 14,2 4,0 9,-1 13,-2 5,-1 9,-3 12,-6 4,-2 7,-5 9,-9 3,-4 4,-8 4,-13l0 -62c0,-5 -1,-9 -4,-13 -2,-4 -5,-7 -9,-10 -3,-2 -7,-4 -12,-5 -4,-1 -9,-2 -13,-2z"/>
  <path id="14" class="fil4" d="M6840 1197c0,-9 2,-17 5,-24 4,-7 9,-13 15,-17 6,-5 12,-8 20,-10 8,-3 15,-4 23,-4 8,0 16,1 23,4 8,2 15,5 21,10 6,4 10,10 14,17 3,7 5,15 5,24l0 60c0,10 -2,18 -5,24 -4,7 -8,13 -14,17 -6,5 -13,8 -21,10 -7,3 -15,4 -23,4 -8,0 -15,-1 -23,-4 -8,-2 -14,-5 -20,-10 -6,-4 -11,-10 -15,-17 -3,-6 -5,-14 -5,-24l0 -60zm63 -31c-4,0 -9,1 -13,2 -5,1 -9,3 -13,5 -3,3 -6,6 -9,10 -2,4 -3,8 -3,13l0 62c0,5 1,9 3,13 3,4 6,7 9,9 4,3 8,5 13,6 4,1 9,2 13,2 5,0 9,-1 14,-2 4,-1 8,-3 12,-6 3,-2 6,-5 9,-9 2,-4 3,-8 3,-13l0 -62c0,-5 -1,-9 -3,-13 -3,-4 -6,-7 -9,-10 -4,-2 -8,-4 -12,-5 -5,-1 -9,-2 -14,-2z"/>
  <path id="15" class="fil4" d="M7062 1166c-5,0 -9,1 -14,2 -4,1 -8,3 -11,6 -4,2 -6,6 -8,9 -2,4 -3,9 -3,14l0 112 -26 0 0 -112c0,-10 2,-18 6,-24 3,-7 8,-13 14,-17 6,-5 13,-8 20,-10 7,-3 14,-4 22,-4 2,0 4,0 7,0 2,1 4,1 7,1l0 24c-3,0 -5,-1 -7,-1 -2,0 -4,0 -7,0z"/>
  <polygon id="16" class="fil4" points="7093,1350 7067,1350 7089,1281 7119,1281 "/>
  <path id="17" class="fil4" d="M4644 1650l-26 0 0 -224 26 0 0 113 115 -113 35 0 -108 108c8,9 17,18 26,28 9,10 18,20 27,30 10,10 19,20 28,30 9,10 17,19 25,28l-34 0 -91 -97 -23 23 0 74z"/>
  <path id="18" class="fil4" d="M4808 1633c0,-5 2,-10 6,-13 3,-4 8,-6 13,-6 5,0 10,2 13,6 4,3 6,8 6,13 0,5 -2,10 -6,13 -3,4 -8,6 -13,6 -5,0 -10,-2 -13,-6 -4,-3 -6,-8 -6,-13z"/>
  <path id="19" class="fil4" d="M5027 1426l0 157c0,12 -2,22 -7,31 -5,8 -11,16 -18,21 -8,6 -17,11 -26,14 -10,2 -20,4 -30,4 -9,0 -18,-1 -27,-4 -9,-2 -17,-6 -24,-11 -7,-5 -14,-12 -19,-19 -5,-8 -9,-17 -11,-27l26 -5c2,6 4,12 8,17 3,5 7,9 12,12 5,4 11,6 17,8 6,2 12,2 18,2 7,0 13,0 20,-2 6,-2 12,-5 17,-8 5,-4 10,-9 13,-14 3,-6 4,-12 4,-19l0 -130 -71 0 0 -27 98 0z"/>
  <path id="20" class="fil4" d="M5058 1633c0,-5 2,-10 5,-13 4,-4 8,-6 14,-6 5,0 9,2 13,6 3,3 5,8 5,13 0,5 -2,10 -5,13 -4,4 -8,6 -13,6 -6,0 -10,-2 -14,-6 -3,-3 -5,-8 -5,-13z"/>
  <path id="21" class="fil4" d="M5217 1487c0,5 2,10 4,13 3,4 7,8 12,10 5,3 11,5 18,7 7,1 14,2 21,4 10,2 19,4 29,6 10,3 18,7 26,11 7,5 13,12 18,21 4,7 6,16 6,28 0,1 0,3 0,5 -1,10 -4,19 -8,27 -5,7 -11,14 -19,19 -8,5 -16,9 -26,11 -9,3 -19,4 -29,4 -8,0 -16,-1 -25,-3 -8,-2 -16,-5 -23,-9 -8,-4 -15,-9 -21,-15 -6,-6 -10,-13 -14,-21l25 -11c2,5 5,10 10,14 4,4 9,8 14,10 5,3 11,5 17,7 6,1 12,2 18,2 7,0 13,-1 19,-2 7,-2 12,-4 17,-7 5,-3 10,-7 13,-12 3,-4 5,-9 5,-16 0,-1 0,-2 0,-4 0,-6 -1,-11 -3,-15 -3,-5 -8,-9 -13,-12 -6,-4 -12,-6 -20,-8 -7,-2 -15,-3 -22,-5 -9,-2 -18,-4 -27,-7 -9,-2 -17,-6 -24,-10 -7,-5 -13,-11 -17,-18 -5,-8 -7,-17 -7,-28 1,-10 3,-18 8,-26 5,-7 11,-13 18,-18 7,-6 15,-9 24,-12 10,-3 19,-4 29,-4 8,0 16,1 25,3 8,2 16,5 23,9 7,3 14,8 20,14 6,6 10,13 14,21l-24 11c-3,-6 -6,-10 -10,-14 -4,-4 -9,-7 -14,-10 -5,-3 -11,-5 -17,-6 -5,-2 -11,-2 -17,-2 -7,0 -13,0 -19,2 -6,1 -12,4 -17,6 -4,3 -8,7 -11,12 -3,4 -5,9 -6,15 0,1 0,2 0,3z"/>
  <path id="22" class="fil4" d="M5379 1538c0,-9 2,-17 5,-24 4,-7 9,-13 15,-17 5,-5 12,-8 20,-10 7,-3 15,-4 23,-4 8,0 16,1 23,4 8,2 15,5 20,10 6,4 11,10 15,17 3,7 5,15 5,24l0 60c0,10 -2,18 -5,24 -4,7 -9,13 -15,17 -5,5 -12,8 -20,10 -7,3 -15,4 -23,4 -8,0 -16,-1 -23,-4 -8,-2 -15,-5 -20,-10 -6,-4 -11,-10 -15,-17 -3,-6 -5,-14 -5,-24l0 -60zm63 -31c-4,0 -9,1 -14,2 -4,1 -8,3 -12,5 -4,3 -7,6 -9,10 -2,4 -3,8 -3,13l0 62c0,5 1,9 3,13 2,4 5,7 9,9 4,3 8,5 12,6 5,1 10,2 14,2 5,0 9,-1 13,-2 5,-1 9,-3 13,-6 3,-2 6,-5 8,-9 3,-4 4,-8 4,-13l0 -62c0,-5 -1,-9 -4,-13 -2,-4 -5,-7 -8,-10 -4,-2 -8,-4 -13,-5 -4,-1 -8,-2 -13,-2z"/>
  <path id="23" class="fil4" d="M5595 1483c9,0 18,2 27,4 9,3 16,8 23,15 6,-7 13,-11 21,-14 9,-3 17,-5 25,-5 8,0 17,1 24,3 8,3 14,6 20,10 5,5 9,10 12,17 3,7 5,15 5,25l0 112 -25 0 0 -114c0,-6 -1,-11 -3,-15 -2,-3 -5,-7 -8,-9 -4,-2 -8,-4 -12,-5 -5,0 -9,-1 -14,-1 -3,0 -7,1 -11,2 -4,1 -8,2 -11,4 -3,2 -6,5 -8,8 -2,3 -3,6 -3,10l0 120 -24 0 0 -118c0,-5 -2,-9 -4,-12 -2,-3 -5,-6 -8,-8 -4,-2 -8,-3 -12,-4 -5,-1 -10,-2 -15,-2 -5,0 -11,1 -16,2 -5,2 -10,3 -13,6l0 136 -25 0 0 -152c7,-4 16,-8 26,-11 10,-3 19,-4 29,-4z"/>
  <path id="24" class="fil4" d="M5882 1536c0,-5 -1,-9 -3,-13 -3,-3 -5,-6 -9,-9 -4,-3 -8,-4 -12,-6 -5,-1 -10,-2 -15,-2 -7,0 -14,2 -22,5 -7,3 -13,7 -18,13l-16 -15c8,-9 17,-15 27,-19 11,-5 21,-7 31,-7 8,0 16,1 23,3 8,3 14,6 20,10 6,4 11,10 14,17 3,6 5,14 5,23l0 106c-11,4 -22,7 -34,8 -10,2 -20,3 -30,3 -1,0 -2,0 -3,0 -9,0 -16,-1 -23,-3 -8,-2 -14,-5 -19,-10 -5,-4 -9,-9 -12,-15 -3,-7 -5,-14 -5,-23 0,-9 2,-17 5,-24 4,-6 9,-11 14,-16 6,-4 12,-7 20,-9 7,-2 15,-3 23,-3 14,0 27,2 39,8l0 -22zm-37 34c-5,0 -10,0 -14,1 -5,1 -9,3 -13,6 -3,2 -6,6 -8,10 -3,4 -4,9 -4,15 0,10 3,18 10,22 7,5 15,7 24,7 3,0 5,0 7,0 5,0 10,0 14,0 7,0 14,-1 21,-3l0 -52c-5,-2 -11,-3 -17,-5 -6,-1 -13,-1 -20,-1z"/>
  <path id="25" class="fil4" d="M5939 1441c0,-6 2,-10 6,-14 3,-3 8,-5 13,-5 5,0 10,2 13,5 4,4 6,8 6,14 0,5 -2,9 -6,13 -3,4 -8,5 -13,5 -5,0 -10,-1 -13,-5 -4,-4 -6,-8 -6,-13zm31 209l-26 0 0 -164 26 0 0 164z"/>
  <path id="26" class="fil4" d="M6073 1686c5,0 10,0 15,-2 5,-1 9,-2 13,-5 4,-2 7,-5 9,-9 2,-4 3,-9 3,-15l0 -12c-5,4 -11,6 -18,8 -7,1 -14,2 -21,2 -8,0 -16,-1 -24,-4 -7,-2 -14,-6 -20,-10 -6,-5 -11,-11 -15,-18 -4,-7 -5,-15 -5,-24l0 -111 25 0 0 111c0,5 2,10 4,14 2,3 5,7 8,9 4,3 8,5 13,6 4,2 9,3 14,3 13,0 26,-3 39,-8l0 -135 26 0 0 169c0,10 -2,18 -6,25 -3,7 -8,13 -14,17 -6,5 -13,8 -20,10 -8,3 -16,4 -24,4 -11,0 -22,-2 -32,-7 -11,-4 -20,-10 -27,-19l17 -15c4,5 10,9 18,12 7,3 15,4 22,4z"/>
  <path id="27" class="fil4" d="M6270 1536c0,-5 -1,-9 -3,-13 -3,-3 -5,-6 -9,-9 -4,-3 -8,-4 -12,-6 -5,-1 -10,-2 -15,-2 -7,0 -14,2 -22,5 -7,3 -13,7 -18,13l-16 -15c8,-9 17,-15 27,-19 11,-5 21,-7 31,-7 8,0 16,1 23,3 8,3 14,6 20,10 6,4 11,10 14,17 4,6 5,14 5,23l0 106c-11,4 -22,7 -34,8 -10,2 -20,3 -30,3 -1,0 -2,0 -3,0 -9,0 -16,-1 -23,-3 -8,-2 -14,-5 -19,-10 -5,-4 -9,-9 -12,-15 -3,-7 -5,-14 -5,-23 0,-9 2,-17 5,-24 4,-6 9,-11 14,-16 6,-4 12,-7 20,-9 7,-2 15,-3 23,-3 14,0 27,2 39,8l0 -22zm-37 34c-5,0 -10,0 -14,1 -5,1 -9,3 -13,6 -3,2 -6,6 -8,10 -3,4 -4,9 -4,15 0,10 3,18 10,22 7,5 15,7 24,7 3,0 5,0 7,0 5,0 10,0 14,0 7,0 14,-1 21,-3l0 -52c-5,-2 -11,-3 -17,-5 -6,-1 -13,-1 -20,-1z"/>
  <path id="28" class="fil4" d="M6396 1494c0,-12 2,-22 7,-31 5,-8 12,-16 20,-22 8,-6 17,-10 27,-13 10,-3 21,-5 31,-5 8,0 16,1 24,3 8,2 15,4 22,8 7,4 14,9 19,14 6,6 11,12 14,20l-24 11c-5,-10 -13,-17 -23,-22 -10,-6 -21,-8 -33,-8 -7,0 -14,1 -21,3 -7,2 -13,4 -18,8 -6,4 -10,8 -13,14 -4,6 -5,12 -5,19l0 90c0,8 1,14 5,19 3,6 7,10 13,14 5,3 11,6 18,8 7,2 14,2 21,2 12,0 23,-2 33,-7 11,-5 18,-13 23,-23l24 11c-3,8 -8,15 -14,20 -6,6 -12,11 -19,15 -7,3 -15,6 -23,8 -8,2 -16,3 -24,3 -10,0 -21,-2 -31,-4 -10,-3 -19,-8 -27,-14 -8,-5 -14,-13 -19,-21 -5,-9 -7,-19 -7,-31l0 -89z"/>
  <path id="29" class="fil4" d="M6582 1538c0,-9 2,-17 6,-24 3,-7 8,-13 14,-17 6,-5 13,-8 20,-10 8,-3 16,-4 24,-4 8,0 15,1 23,4 7,2 14,5 20,10 6,4 11,10 14,17 4,7 6,15 6,24l0 60c0,10 -2,18 -6,24 -3,7 -8,13 -14,17 -6,5 -13,8 -20,10 -8,3 -15,4 -23,4 -8,0 -16,-1 -24,-4 -7,-2 -14,-5 -20,-10 -6,-4 -11,-10 -14,-17 -4,-6 -6,-14 -6,-24l0 -60zm64 -31c-5,0 -9,1 -14,2 -5,1 -9,3 -12,5 -4,3 -7,6 -9,10 -2,4 -3,8 -3,13l0 62c0,5 1,9 3,13 2,4 5,7 9,9 3,3 7,5 12,6 5,1 9,2 14,2 4,0 9,-1 13,-2 4,-1 8,-3 12,-6 4,-2 7,-5 9,-9 2,-4 3,-8 3,-13l0 -62c0,-5 -1,-9 -3,-13 -2,-4 -5,-7 -9,-10 -4,-2 -8,-4 -12,-5 -4,-1 -9,-2 -13,-2z"/>
  <path id="30" class="fil4" d="M6798 1653c-18,0 -31,-5 -41,-14 -10,-9 -14,-23 -14,-39l0 -171 25 0 0 171c0,9 2,16 7,21 5,6 13,8 23,8l0 24z"/>
  <path id="31" class="fil4" d="M6875 1653c-18,0 -32,-5 -42,-14 -9,-9 -14,-23 -14,-39l0 -171 25 0 0 171c0,9 3,16 8,21 4,6 12,8 23,8l0 24z"/>
  <path id="32" class="fil4" d="M6917 1601c0,5 1,9 3,12 3,4 5,7 9,9 4,3 8,5 12,6 5,1 9,2 14,2 8,0 15,-2 22,-6 7,-3 12,-9 15,-17l23 10c-3,6 -7,11 -11,16 -5,4 -9,8 -15,11 -5,3 -10,5 -16,7 -6,1 -12,2 -18,2 -8,0 -16,-1 -23,-3 -8,-3 -15,-6 -20,-10 -6,-5 -11,-11 -15,-18 -3,-6 -5,-14 -5,-23l0 -62c0,-9 2,-17 5,-23 4,-7 9,-13 15,-18 5,-4 12,-7 20,-10 7,-2 15,-3 23,-3 8,0 16,1 23,3 8,3 14,6 20,10 6,5 11,11 14,18 4,6 6,14 6,23l0 44 -101 0 0 20zm77 -65c0,-5 -1,-9 -4,-13 -2,-3 -5,-6 -9,-9 -3,-3 -7,-4 -12,-6 -5,-1 -9,-2 -14,-2 -5,0 -10,1 -15,2 -4,2 -8,3 -12,6 -3,3 -6,6 -8,9 -2,4 -3,9 -3,14l0 22 77 0 0 -23z"/>
  <path id="33" class="fil4" d="M7107 1687c5,0 9,0 14,-1 5,-1 9,-2 13,-5 3,-2 6,-5 9,-9 2,-3 3,-8 3,-14l0 -14c-6,4 -12,6 -19,7 -6,1 -12,2 -18,2 -8,0 -16,-1 -24,-4 -7,-2 -14,-5 -20,-10 -6,-4 -10,-10 -14,-17 -3,-7 -5,-15 -5,-23l0 -62c0,-9 2,-17 5,-24 3,-6 8,-12 14,-17 6,-4 12,-7 20,-10 7,-2 15,-3 22,-3 6,0 11,0 16,1 5,0 10,1 15,2 5,1 10,2 15,4 6,1 11,3 18,6l0 162c0,9 -2,17 -6,24 -3,6 -8,12 -14,16 -5,4 -12,7 -19,10 -8,2 -15,3 -23,3 -11,0 -21,-2 -31,-6 -10,-4 -19,-10 -27,-18l16 -16c2,3 4,5 7,7 3,1 6,3 10,5 4,1 8,2 12,3 3,1 7,1 11,1zm0 -181c-4,0 -9,1 -13,2 -4,2 -8,4 -12,6 -3,3 -6,6 -8,10 -2,4 -3,9 -3,13l0 63c0,9 4,17 11,22 7,6 16,9 26,9 7,0 14,-1 20,-2 5,-1 12,-3 18,-5l0 -111c-7,-3 -13,-5 -19,-5 -6,-1 -12,-2 -20,-2z"/>
  <path id="34" class="fil4" d="M7231 1601c0,5 1,9 3,12 2,4 5,7 9,9 3,3 7,5 12,6 4,1 9,2 14,2 7,0 15,-2 22,-6 7,-3 12,-9 15,-17l22 10c-3,6 -6,11 -11,16 -4,4 -9,8 -14,11 -5,3 -10,5 -16,7 -6,1 -12,2 -18,2 -8,0 -16,-1 -23,-3 -8,-3 -15,-6 -21,-10 -5,-5 -10,-11 -14,-18 -4,-6 -5,-14 -5,-23l0 -62c0,-9 1,-17 5,-23 4,-7 9,-13 14,-18 6,-4 13,-7 21,-10 7,-2 15,-3 23,-3 8,0 15,1 23,3 7,3 14,6 20,10 6,5 11,11 14,18 4,6 6,14 6,23l0 44 -101 0 0 20zm77 -65c0,-5 -2,-9 -4,-13 -2,-3 -5,-6 -9,-9 -3,-3 -7,-4 -12,-6 -5,-1 -9,-2 -14,-2 -5,0 -10,1 -15,2 -4,2 -9,3 -12,6 -3,3 -6,6 -8,9 -2,4 -3,9 -3,14l0 22 77 0 0 -23z"/>
  <path id="35" class="fil4" d="M7426 1538c0,-9 1,-17 5,-24 4,-7 9,-13 15,-17 5,-5 12,-8 20,-10 7,-3 15,-4 23,-4 8,0 16,1 23,4 8,2 14,5 20,10 6,4 11,10 15,17 3,7 5,15 5,24l0 60c0,10 -2,18 -5,24 -4,7 -9,13 -15,17 -6,5 -12,8 -20,10 -7,3 -15,4 -23,4 -8,0 -16,-1 -23,-4 -8,-2 -15,-5 -20,-10 -6,-4 -11,-10 -15,-17 -4,-6 -5,-14 -5,-24l0 -60zm63 -31c-5,0 -9,1 -14,2 -4,1 -8,3 -12,5 -4,3 -7,6 -9,10 -2,4 -3,8 -3,13l0 62c0,5 1,9 3,13 2,4 5,7 9,9 4,3 8,5 12,6 5,1 9,2 14,2 4,0 9,-1 13,-2 5,-1 9,-3 12,-6 4,-2 7,-5 9,-9 3,-4 4,-8 4,-13l0 -62c0,-5 -1,-9 -4,-13 -2,-4 -5,-7 -9,-10 -3,-2 -7,-4 -12,-5 -4,-1 -9,-2 -13,-2z"/>
  <path id="36" class="fil4" d="M7648 1451c-11,0 -20,2 -26,7 -6,6 -9,13 -9,23l0 10 33 0 0 23 -33 0 0 136 -26 0 0 -169c0,-10 2,-17 5,-24 3,-7 7,-13 13,-17 5,-5 12,-8 19,-11 8,-2 16,-3 24,-3l0 25z"/>
  <polygon id="37" class="fil4" points="7763,1525 7870,1525 7870,1551 7763,1551 7763,1623 7879,1623 7879,1650 7736,1650 7736,1426 7879,1426 7879,1453 7763,1453 "/>
  <path id="38" class="fil4" d="M8038 1537l0 113 -25 0 0 -114c0,-5 -1,-10 -3,-13 -3,-4 -5,-7 -9,-9 -3,-3 -7,-5 -12,-6 -4,-1 -8,-2 -13,-2 -7,0 -14,1 -21,3 -7,1 -13,3 -17,5l0 136 -26 0 0 -153c11,-4 22,-7 33,-10 10,-3 21,-4 31,-4 8,0 16,1 23,4 7,2 14,5 20,10 6,4 10,10 14,16 3,7 5,15 5,24z"/>
  <path id="39" class="fil4" d="M8133 1687c5,0 10,0 14,-1 5,-1 9,-2 13,-5 4,-2 7,-5 9,-9 2,-3 3,-8 3,-14l0 -14c-6,4 -12,6 -18,7 -7,1 -13,2 -19,2 -8,0 -16,-1 -23,-4 -8,-2 -15,-5 -20,-10 -6,-4 -11,-10 -15,-17 -3,-7 -5,-15 -5,-23l0 -62c0,-9 2,-17 5,-24 4,-6 8,-12 14,-17 6,-4 12,-7 20,-10 7,-2 15,-3 23,-3 5,0 10,0 15,1 5,0 10,1 15,2 5,1 10,2 16,4 5,1 11,3 17,6l0 162c0,9 -2,17 -5,24 -4,6 -9,12 -14,16 -6,4 -13,7 -20,10 -8,2 -15,3 -23,3 -11,0 -21,-2 -31,-6 -10,-4 -19,-10 -26,-18l15 -16c2,3 4,5 7,7 3,1 7,3 10,5 4,1 8,2 12,3 4,1 7,1 11,1zm1 -181c-5,0 -10,1 -14,2 -4,2 -8,4 -12,6 -3,3 -6,6 -8,10 -2,4 -3,9 -3,13l0 63c0,9 4,17 11,22 7,6 16,9 26,9 7,0 14,-1 20,-2 6,-1 12,-3 18,-5l0 -111c-6,-3 -13,-5 -19,-5 -5,-1 -12,-2 -19,-2z"/>
  <path id="40" class="fil4" d="M8231 1441c0,-6 2,-10 5,-14 4,-3 8,-5 14,-5 5,0 9,2 13,5 4,4 5,8 5,14 0,5 -1,9 -5,13 -4,4 -8,5 -13,5 -6,0 -10,-1 -14,-5 -3,-4 -5,-8 -5,-13zm31 209l-27 0 0 -164 27 0 0 164z"/>
  <path id="41" class="fil4" d="M8427 1537l0 113 -25 0 0 -114c0,-5 -1,-10 -3,-13 -2,-4 -5,-7 -9,-9 -3,-3 -7,-5 -11,-6 -5,-1 -9,-2 -13,-2 -8,0 -15,1 -22,3 -7,1 -12,3 -17,5l0 136 -25 0 0 -153c10,-4 21,-7 32,-10 11,-3 21,-4 32,-4 7,0 15,1 22,4 8,2 14,5 20,10 6,4 10,10 14,16 3,7 5,15 5,24z"/>
  <path id="42" class="fil4" d="M8487 1601c0,5 1,9 3,12 2,4 5,7 9,9 3,3 7,5 12,6 4,1 9,2 14,2 7,0 14,-2 21,-6 7,-3 13,-9 16,-17l22 10c-3,6 -7,11 -11,16 -4,4 -9,8 -14,11 -5,3 -11,5 -17,7 -5,1 -11,2 -17,2 -8,0 -16,-1 -24,-3 -7,-3 -14,-6 -20,-10 -6,-5 -11,-11 -14,-18 -4,-6 -6,-14 -6,-23l0 -62c0,-9 2,-17 6,-23 3,-7 8,-13 14,-18 6,-4 13,-7 20,-10 8,-2 16,-3 24,-3 8,0 15,1 23,3 7,3 14,6 20,10 6,5 10,11 14,18 3,6 5,14 5,23l0 44 -100 0 0 20zm76 -65c0,-5 -1,-9 -3,-13 -3,-3 -6,-6 -9,-9 -4,-3 -8,-4 -12,-6 -5,-1 -10,-2 -14,-2 -6,0 -10,1 -15,2 -5,2 -9,3 -12,6 -4,3 -6,6 -8,9 -2,4 -3,9 -3,14l0 22 76 0 0 -23z"/>
  <path id="43" class="fil4" d="M8641 1601c0,5 1,9 3,12 2,4 5,7 9,9 3,3 7,5 12,6 4,1 9,2 14,2 7,0 14,-2 21,-6 7,-3 13,-9 16,-17l22 10c-3,6 -6,11 -11,16 -4,4 -9,8 -14,11 -5,3 -11,5 -17,7 -5,1 -11,2 -17,2 -8,0 -16,-1 -24,-3 -7,-3 -14,-6 -20,-10 -6,-5 -10,-11 -14,-18 -4,-6 -6,-14 -6,-23l0 -62c0,-9 2,-17 6,-23 4,-7 8,-13 14,-18 6,-4 13,-7 20,-10 8,-2 16,-3 24,-3 8,0 15,1 23,3 7,3 14,6 20,10 6,5 10,11 14,18 4,6 5,14 5,23l0 44 -100 0 0 20zm76 -65c0,-5 -1,-9 -3,-13 -2,-3 -5,-6 -9,-9 -4,-3 -8,-4 -12,-6 -5,-1 -10,-2 -14,-2 -5,0 -10,1 -15,2 -5,2 -9,3 -12,6 -4,3 -6,6 -8,9 -2,4 -3,9 -3,14l0 22 76 0 0 -23z"/>
  <path id="44" class="fil4" d="M8835 1507c-5,0 -9,1 -14,2 -4,1 -8,3 -11,6 -4,2 -7,6 -9,9 -2,4 -3,9 -3,14l0 112 -25 0 0 -112c0,-10 2,-18 6,-24 3,-7 8,-13 14,-17 6,-5 13,-8 20,-10 7,-3 14,-4 21,-4 3,0 5,0 8,0 2,1 4,1 7,1l0 24c-3,0 -5,-1 -7,-1 -2,0 -4,0 -7,0z"/>
  <path id="45" class="fil4" d="M8867 1441c0,-6 2,-10 6,-14 3,-3 8,-5 13,-5 5,0 10,2 13,5 4,4 6,8 6,14 0,5 -2,9 -6,13 -3,4 -8,5 -13,5 -5,0 -10,-1 -13,-5 -4,-4 -6,-8 -6,-13zm31 209l-26 0 0 -164 26 0 0 164z"/>
  <path id="46" class="fil4" d="M9063 1537l0 113 -25 0 0 -114c0,-5 -1,-10 -3,-13 -2,-4 -5,-7 -8,-9 -4,-3 -8,-5 -12,-6 -4,-1 -9,-2 -13,-2 -8,0 -15,1 -22,3 -6,1 -12,3 -17,5l0 136 -25 0 0 -153c11,-4 21,-7 32,-10 11,-3 21,-4 32,-4 8,0 15,1 23,4 7,2 13,5 19,10 6,4 11,10 14,16 4,7 5,15 5,24z"/>
  <path id="47" class="fil4" d="M9158 1687c5,0 10,0 15,-1 5,-1 9,-2 12,-5 4,-2 7,-5 9,-9 2,-3 4,-8 4,-14l0 -14c-7,4 -13,6 -19,7 -6,1 -12,2 -19,2 -8,0 -15,-1 -23,-4 -7,-2 -14,-5 -20,-10 -6,-4 -11,-10 -14,-17 -4,-7 -6,-15 -6,-23l0 -62c0,-9 2,-17 6,-24 3,-6 8,-12 14,-17 5,-4 12,-7 19,-10 8,-2 15,-3 23,-3 6,0 11,0 16,1 5,0 10,1 15,2 5,1 10,2 15,4 5,1 11,3 17,6l0 162c0,9 -1,17 -5,24 -3,6 -8,12 -14,16 -6,4 -12,7 -20,10 -7,2 -15,3 -22,3 -11,0 -22,-2 -32,-6 -10,-4 -18,-10 -26,-18l16 -16c1,3 4,5 7,7 3,1 6,3 10,5 4,1 7,2 11,3 4,1 8,1 11,1zm1 -181c-5,0 -9,1 -13,2 -5,2 -9,4 -12,6 -4,3 -6,6 -8,10 -2,4 -3,9 -3,13l0 63c0,9 3,17 11,22 7,6 16,9 26,9 7,0 13,-1 19,-2 6,-1 12,-3 19,-5l0 -111c-7,-3 -13,-5 -19,-5 -6,-1 -13,-2 -20,-2z"/>
  <polygon id="48" class="fil4" points="9269,1691 9243,1691 9265,1622 9295,1622 "/>
  <polygon id="49" class="fil4" points="4623,1767 4692,1961 4760,1767 4788,1767 4708,1991 4676,1991 4595,1767 "/>
  <path id="50" class="fil4" d="M4804 1782c0,-6 1,-10 5,-14 4,-3 8,-5 13,-5 6,0 10,2 14,5 3,4 5,8 5,14 0,5 -2,9 -5,13 -4,4 -8,5 -14,5 -5,0 -9,-1 -13,-5 -4,-4 -5,-8 -5,-13zm31 209l-27 0 0 -164 27 0 0 164z"/>
  <path id="51" class="fil4" d="M4870 1940l0 -61c0,-9 2,-17 5,-24 4,-6 9,-12 15,-17 6,-4 12,-8 20,-10 7,-2 15,-4 23,-4 7,0 14,1 20,3 6,1 12,4 18,7l0 -64 26 0 0 212c-11,4 -22,7 -33,9 -10,2 -21,3 -31,3 -8,0 -16,-2 -23,-4 -8,-2 -15,-5 -20,-10 -6,-4 -11,-10 -15,-17 -3,-6 -5,-14 -5,-23zm63 31c6,0 12,0 19,0 7,-1 13,-2 19,-4l0 -111c-6,-3 -12,-6 -19,-7 -6,-1 -13,-2 -19,-2 -5,0 -9,0 -14,2 -4,1 -8,3 -12,6 -3,2 -6,6 -8,10 -2,4 -3,9 -3,14l0 60c0,5 1,9 3,13 2,4 5,8 8,10 4,3 8,6 12,7 4,2 9,2 14,2z"/>
  <path id="52" class="fil4" d="M5099 2027c5,0 10,0 14,-2 5,-1 10,-2 13,-5 4,-2 7,-5 10,-9 2,-4 3,-9 3,-15l0 -12c-5,4 -12,6 -19,8 -7,1 -13,2 -20,2 -8,0 -16,-1 -24,-4 -8,-2 -15,-6 -21,-10 -6,-5 -11,-11 -14,-18 -4,-7 -6,-15 -6,-24l0 -111 26 0 0 111c0,5 1,10 3,14 3,3 5,7 9,9 4,3 8,5 12,6 5,2 9,3 14,3 13,0 27,-3 40,-8l0 -135 25 0 0 169c0,10 -2,18 -5,25 -4,7 -8,13 -14,17 -6,5 -13,8 -21,10 -7,3 -15,4 -24,4 -10,0 -21,-2 -32,-7 -10,-4 -19,-10 -27,-19l18 -15c4,5 10,9 17,12 8,3 15,4 23,4z"/>
  <path id="53" class="fil4" d="M5296 1877c0,-5 -1,-9 -4,-13 -2,-3 -5,-6 -8,-9 -4,-3 -8,-4 -13,-6 -4,-1 -9,-2 -14,-2 -7,0 -15,2 -22,5 -7,3 -13,7 -18,13l-16 -15c7,-9 16,-15 27,-19 10,-5 21,-7 31,-7 8,0 15,1 23,3 7,3 14,6 20,10 6,4 10,10 14,17 3,6 5,14 5,23l0 106c-11,4 -23,7 -34,8 -10,2 -20,3 -30,3 -1,0 -3,0 -4,0 -8,0 -16,-1 -23,-3 -7,-2 -13,-6 -18,-10 -5,-4 -9,-9 -13,-16 -3,-6 -4,-13 -4,-22 0,-9 2,-17 5,-24 4,-6 8,-11 14,-16 6,-4 12,-7 19,-9 8,-2 15,-3 23,-3 14,0 27,2 40,8l0 -22zm-37 34c-5,0 -10,0 -15,1 -4,1 -9,3 -12,6 -4,2 -7,6 -9,10 -2,4 -3,9 -3,15 0,10 3,18 10,22 6,5 14,7 24,7 2,0 5,0 7,0 5,0 9,0 14,0 7,0 14,-1 21,-3l0 -52c-5,-2 -11,-3 -17,-5 -7,-1 -13,-1 -20,-1z"/>
  <polygon id="54" class="fil4" points="5426,1922 5459,1827 5484,1827 5427,1991 5397,1991 5339,1827 5365,1827 5398,1923 5412,1968 5412,1968 "/>
  <path id="55" class="fil4" d="M5502 1782c0,-6 2,-10 5,-14 4,-3 8,-5 13,-5 6,0 10,2 14,5 3,4 5,8 5,14 0,5 -2,9 -5,13 -4,4 -8,5 -14,5 -5,0 -9,-1 -13,-5 -3,-4 -5,-8 -5,-13zm31 209l-27 0 0 -164 27 0 0 164z"/>
  <path id="56" class="fil4" d="M5641 1824c7,0 14,1 20,3 8,2 14,5 20,10 5,4 9,10 13,17 3,7 5,15 5,24l0 113 -25 0 0 -113c0,-5 -1,-10 -3,-14 -3,-3 -5,-6 -9,-9 -3,-3 -7,-4 -12,-6 -4,-1 -9,-2 -14,-2 -6,0 -12,1 -18,2 -6,1 -12,3 -20,7l0 135 -25 0 0 -221 25 0 0 64c7,-4 14,-6 21,-8 7,-1 13,-2 20,-2 0,0 1,0 2,0z"/>
  <path id="57" class="fil4" d="M5829 1877c0,-5 -1,-9 -3,-13 -3,-3 -6,-6 -9,-9 -4,-3 -8,-4 -12,-6 -5,-1 -10,-2 -15,-2 -7,0 -14,2 -22,5 -7,3 -13,7 -18,13l-16 -15c8,-9 17,-15 27,-19 11,-5 21,-7 31,-7 8,0 16,1 23,3 8,3 14,6 20,10 6,4 10,10 14,17 3,6 5,14 5,23l0 106c-11,4 -23,7 -34,8 -10,2 -20,3 -30,3 -1,0 -2,0 -3,0 -9,0 -16,-1 -23,-3 -8,-2 -14,-6 -19,-10 -5,-4 -9,-9 -12,-16 -3,-6 -5,-13 -5,-22 0,-9 2,-17 5,-24 4,-6 8,-11 14,-16 6,-4 12,-7 20,-9 7,-2 15,-3 23,-3 13,0 26,2 39,8l0 -22zm-37 34c-5,0 -10,0 -14,1 -5,1 -9,3 -13,6 -3,2 -6,6 -9,10 -2,4 -3,9 -3,15 0,10 3,18 10,22 6,5 15,7 24,7 3,0 5,0 7,0 5,0 9,0 14,0 7,0 14,-1 21,-3l0 -52c-5,-2 -11,-3 -17,-5 -6,-1 -13,-1 -20,-1z"/>
  <path id="58" class="fil4" d="M5953 1848c-5,0 -10,1 -14,2 -5,1 -9,3 -12,6 -3,2 -6,6 -8,9 -2,4 -3,9 -3,14l0 112 -25 0 0 -112c0,-10 2,-18 5,-24 4,-7 9,-13 15,-17 6,-5 12,-8 19,-10 8,-3 15,-4 22,-4 2,0 5,0 7,0 3,1 5,1 7,1l0 24c-2,0 -4,-1 -6,-1 -2,0 -5,0 -7,0z"/>
  <polygon id="59" class="fil4" points="5983,2032 5957,2032 5980,1963 6009,1963 "/>
  <polygon id="60" class="fil4" points="6142,1991 6116,1991 6116,1767 6149,1767 6218,1923 6287,1767 6320,1767 6320,1991 6294,1991 6294,1817 6229,1961 6207,1961 6142,1817 "/>
  <path id="61" class="fil4" d="M6424 1994c-7,0 -15,-1 -22,-4 -8,-2 -14,-5 -20,-10 -6,-4 -11,-10 -14,-17 -4,-6 -5,-14 -5,-23l0 -113 25 0 0 113c0,5 1,9 3,13 2,3 5,6 8,9 4,3 8,4 12,6 4,1 9,2 13,2 8,0 15,-1 21,-1 6,-1 12,-3 18,-4l0 -138 25 0 0 155c-7,3 -14,5 -21,6 -6,2 -12,3 -17,4 -5,1 -10,1 -14,2 -4,0 -8,0 -12,0z"/>
  <path id="62" class="fil4" d="M6583 1824c9,0 18,2 27,4 8,3 16,8 22,15 6,-7 14,-11 22,-14 9,-3 17,-5 24,-5 9,0 17,1 25,3 7,3 14,6 19,10 6,5 10,10 13,17 3,7 4,15 4,25l0 112 -25 0 0 -114c0,-6 -1,-11 -3,-15 -2,-3 -4,-7 -8,-9 -3,-2 -7,-4 -11,-5 -5,0 -9,-1 -14,-1 -4,0 -8,1 -12,2 -3,1 -7,2 -10,4 -3,2 -6,5 -8,8 -2,3 -3,6 -3,10l0 120 -25 0 0 -118c0,-5 -1,-9 -3,-12 -2,-3 -5,-6 -9,-8 -3,-2 -7,-3 -12,-4 -4,-1 -9,-2 -14,-2 -6,0 -11,1 -16,2 -6,2 -10,3 -13,6l0 136 -26 0 0 -152c8,-4 17,-8 26,-11 10,-3 20,-4 30,-4z"/>
  <path id="63" class="fil4" d="M6843 1824c8,0 16,1 23,3 7,3 14,6 20,10 5,5 10,11 13,18 4,6 6,14 6,24l0 61c0,9 -2,17 -6,23 -3,7 -8,13 -14,17 -6,5 -13,8 -20,10 -7,2 -15,4 -23,4 -10,0 -21,-1 -32,-3 -11,-2 -21,-5 -32,-9l0 -212 25 0 0 64c13,-7 26,-10 40,-10zm-1 147c5,0 9,-1 14,-2 4,-2 8,-4 12,-6 3,-3 6,-6 8,-10 2,-4 3,-8 3,-13l0 -62c0,-5 -1,-9 -3,-13 -2,-4 -5,-8 -8,-10 -4,-3 -8,-5 -12,-6 -5,-2 -9,-3 -14,-3 -6,0 -12,1 -19,3 -7,1 -14,3 -20,7l0 110c6,2 13,3 19,4 7,1 14,1 20,1z"/>
  <path id="64" class="fil4" d="M7031 1877c0,-5 -1,-9 -3,-13 -3,-3 -5,-6 -9,-9 -4,-3 -8,-4 -12,-6 -5,-1 -10,-2 -15,-2 -7,0 -14,2 -22,5 -7,3 -13,7 -18,13l-16 -15c8,-9 17,-15 27,-19 11,-5 21,-7 31,-7 8,0 16,1 23,3 8,3 14,6 20,10 6,4 11,10 14,17 3,6 5,14 5,23l0 106c-11,4 -23,7 -34,8 -10,2 -20,3 -30,3 -1,0 -2,0 -3,0 -9,0 -16,-1 -23,-3 -8,-2 -14,-6 -19,-10 -5,-4 -9,-9 -12,-16 -3,-6 -5,-13 -5,-22 0,-9 2,-17 5,-24 4,-6 8,-11 14,-16 6,-4 12,-7 20,-9 7,-2 15,-3 23,-3 13,0 27,2 39,8l0 -22zm-37 34c-5,0 -10,0 -14,1 -5,1 -9,3 -13,6 -3,2 -6,6 -9,10 -2,4 -3,9 -3,15 0,10 3,18 10,22 6,5 15,7 24,7 3,0 5,0 7,0 5,0 9,0 14,0 7,0 14,-1 21,-3l0 -52c-5,-2 -11,-3 -17,-5 -6,-1 -13,-1 -20,-1z"/>
  <path id="65" class="fil4" d="M7088 1782c0,-6 2,-10 6,-14 3,-3 8,-5 13,-5 5,0 10,2 13,5 4,4 6,8 6,14 0,5 -2,9 -6,13 -3,4 -8,5 -13,5 -5,0 -10,-1 -13,-5 -4,-4 -6,-8 -6,-13zm31 209l-26 0 0 -164 26 0 0 164z"/>
  <polygon id="66" class="fil4" points="7307,1910 7224,1910 7224,1884 7307,1884 "/>
  <path id="67" class="fil4" d="M7557 1935l-17 0 0 55 -26 0 0 -55 -102 0 -17 -23 117 -145 28 0 0 144 17 0 0 24zm-43 -24l0 -107 -86 107 86 0z"/>
  <path id="68" class="fil4" d="M7587 1928l0 -98c0,-12 2,-21 7,-30 5,-8 11,-15 19,-20 8,-5 16,-9 26,-12 10,-3 19,-4 29,-4 9,0 19,1 28,4 10,3 19,7 26,12 8,5 14,12 19,20 5,9 7,18 7,30l0 98c0,12 -2,21 -7,30 -5,8 -11,15 -19,20 -7,5 -16,9 -26,12 -9,3 -19,4 -28,4 -10,0 -19,-1 -29,-4 -10,-3 -18,-7 -26,-12 -8,-5 -14,-12 -19,-20 -5,-9 -7,-18 -7,-30zm26 1c0,7 2,13 5,18 4,6 8,10 13,13 5,3 11,5 18,7 6,1 12,2 19,2 6,0 12,-1 19,-2 6,-2 12,-4 17,-7 6,-3 10,-7 13,-13 4,-5 5,-11 5,-18l0 -99c0,-8 -1,-14 -5,-19 -3,-5 -7,-9 -13,-12 -5,-3 -11,-6 -17,-7 -7,-1 -13,-2 -19,-2 -7,0 -13,1 -19,2 -7,1 -13,4 -18,7 -5,3 -9,7 -13,12 -3,5 -5,11 -5,19l0 99z"/>
  <path id="69" class="fil4" d="M7783 1928l0 -98c0,-12 2,-21 7,-30 5,-8 11,-15 19,-20 8,-5 16,-9 26,-12 10,-3 19,-4 29,-4 9,0 19,1 28,4 10,3 19,7 26,12 8,5 14,12 19,20 5,9 7,18 7,30l0 98c0,12 -2,21 -7,30 -5,8 -11,15 -19,20 -7,5 -16,9 -26,12 -9,3 -19,4 -28,4 -10,0 -19,-1 -29,-4 -10,-3 -18,-7 -26,-12 -8,-5 -14,-12 -19,-20 -5,-9 -7,-18 -7,-30zm26 1c0,7 2,13 5,18 4,6 8,10 13,13 5,3 11,5 18,7 6,1 13,2 19,2 6,0 13,-1 19,-2 6,-2 12,-4 17,-7 6,-3 10,-7 13,-13 4,-5 5,-11 5,-18l0 -99c0,-8 -1,-14 -5,-19 -3,-5 -7,-9 -13,-12 -5,-3 -11,-6 -17,-7 -6,-1 -13,-2 -19,-2 -6,0 -13,1 -19,2 -7,1 -13,4 -18,7 -5,3 -9,7 -13,12 -3,5 -5,11 -5,19l0 99z"/>
  <path id="70" class="fil4" d="M8045 1928l0 -98c0,-12 3,-21 8,-30 4,-8 11,-15 18,-20 8,-5 17,-9 26,-12 10,-3 20,-4 29,-4 10,0 19,1 29,4 9,3 18,7 26,12 7,5 14,12 18,20 5,9 8,18 8,30l0 98c0,12 -3,21 -8,30 -4,8 -11,15 -18,20 -8,5 -17,9 -26,12 -10,3 -19,4 -29,4 -9,0 -19,-1 -29,-4 -9,-3 -18,-7 -26,-12 -7,-5 -14,-12 -18,-20 -5,-9 -8,-18 -8,-30zm27 1c0,7 1,13 5,18 3,6 7,10 13,13 5,3 11,5 17,7 7,1 13,2 19,2 7,0 13,-1 19,-2 7,-2 13,-4 18,-7 5,-3 9,-7 13,-13 3,-5 5,-11 5,-18l0 -99c0,-8 -2,-14 -5,-19 -4,-5 -8,-9 -13,-12 -5,-3 -11,-6 -18,-7 -6,-1 -12,-2 -19,-2 -6,0 -12,1 -19,2 -6,1 -12,4 -17,7 -6,3 -10,7 -13,12 -4,5 -5,11 -5,19l0 99z"/>
  <polygon id="71" class="fil4" points="8233,1793 8233,1767 8374,1767 8383,1785 8273,1991 8244,1991 8348,1793 "/>
  <polygon id="72" class="fil4" points="8395,1793 8395,1767 8536,1767 8545,1785 8435,1991 8406,1991 8510,1793 "/>
  <path id="73" class="fil4" d="M8537 1974c0,-5 2,-10 5,-13 4,-4 8,-6 14,-6 5,0 9,2 13,6 3,3 5,8 5,13 0,5 -2,10 -5,13 -4,4 -8,6 -13,6 -6,0 -10,-2 -14,-6 -3,-3 -5,-8 -5,-13z"/>
  <path id="74" class="fil4" d="M4669 2653c4,0 7,-1 11,-2 4,-1 7,-3 10,-5 3,-2 5,-5 7,-8 1,-3 2,-7 2,-11 0,-5 -1,-8 -3,-11 -2,-3 -4,-5 -8,-7 -3,-2 -6,-3 -10,-4 -4,-2 -7,-2 -11,-3 -7,-1 -14,-3 -20,-5 -7,-1 -13,-4 -19,-8 -5,-3 -10,-8 -13,-13 -4,-6 -5,-13 -5,-22 0,-9 1,-16 5,-22 4,-6 8,-11 14,-15 6,-4 12,-7 19,-8 7,-2 14,-3 21,-3 9,0 17,2 26,5 9,3 16,8 23,15l-15 18c-5,-6 -11,-9 -17,-11 -6,-3 -11,-4 -17,-4 -4,0 -7,1 -11,1 -4,1 -8,3 -12,4 -3,2 -6,5 -8,8 -2,3 -4,7 -4,11 0,5 2,9 4,12 3,3 6,5 10,7 3,2 7,3 12,4 4,1 8,2 11,2 7,2 13,3 19,5 7,2 12,5 17,9 5,4 9,8 12,14 4,6 5,13 5,21 0,8 -1,15 -5,21 -3,7 -7,12 -12,16 -5,4 -11,7 -18,9 -6,2 -13,3 -20,3 -13,0 -25,-3 -37,-8 -11,-5 -21,-14 -29,-26l19 -13c6,8 13,14 21,18 9,4 17,6 26,6z"/>
  <path id="75" class="fil4" d="M4810 2676c-8,0 -16,-1 -23,-4 -7,-2 -13,-6 -18,-10 -5,-5 -9,-11 -12,-17 -2,-7 -4,-14 -4,-23l0 -154 25 0 0 41 34 0 0 24 -34 0 0 89c0,5 1,9 3,14 2,4 5,8 8,11 4,3 8,5 13,6 3,1 6,1 9,1 3,0 6,0 9,-1l0 22c-2,0 -3,1 -5,1 -1,0 -3,0 -5,0z"/>
  <path id="76" class="fil4" d="M4905 2676c-8,0 -16,-1 -23,-4 -7,-2 -14,-5 -20,-10 -6,-4 -10,-10 -14,-17 -3,-6 -5,-14 -5,-23l0 -113 25 0 0 113c0,5 1,9 3,13 2,3 5,6 9,9 3,3 7,4 11,6 5,1 9,2 14,2 7,0 14,-1 20,-1 7,-1 13,-3 18,-4l0 -138 26 0 0 155c-8,3 -15,5 -21,6 -7,2 -12,3 -18,4 -5,1 -10,1 -14,2 -4,0 -8,0 -11,0z"/>
  <path id="77" class="fil4" d="M5003 2622l0 -61c0,-9 2,-17 6,-24 3,-6 8,-12 14,-17 6,-4 13,-8 20,-10 8,-2 15,-4 23,-4 7,0 14,1 20,3 7,1 13,4 19,7l0 -64 25 0 0 212c-11,4 -22,7 -32,9 -11,2 -22,3 -32,3 -8,0 -16,-2 -23,-4 -8,-2 -14,-5 -20,-10 -6,-4 -11,-10 -14,-17 -4,-6 -6,-14 -6,-23zm63 31c6,0 13,0 19,0 7,-1 13,-2 20,-4l0 -111c-7,-3 -13,-6 -19,-7 -7,-2 -13,-2 -20,-2 -4,0 -9,0 -13,2 -5,1 -9,3 -12,6 -4,2 -7,6 -9,10 -2,4 -3,9 -3,14l0 60c0,5 1,9 3,13 2,4 5,8 8,10 4,3 8,6 12,7 5,2 9,2 14,2z"/>
  <path id="78" class="fil4" d="M5190 2623c0,6 1,10 3,13 2,4 5,7 9,9 3,3 7,5 12,6 5,1 9,2 14,2 7,0 15,-2 22,-6 7,-3 12,-9 15,-17l22 10c-3,6 -6,11 -10,16 -5,4 -10,8 -15,11 -5,3 -10,5 -16,7 -6,1 -12,2 -18,2 -8,0 -16,-1 -23,-3 -8,-3 -15,-6 -21,-11 -5,-4 -10,-10 -14,-17 -4,-6 -5,-14 -5,-23l0 -62c0,-9 1,-17 5,-24 4,-6 9,-12 14,-17 6,-4 13,-7 21,-10 7,-2 15,-3 23,-3 8,0 15,1 23,3 7,3 14,6 20,10 6,5 11,11 14,17 4,7 6,15 6,24l0 44 -101 0 0 19zm77 -64c0,-5 -2,-9 -4,-13 -2,-3 -5,-7 -9,-9 -3,-3 -7,-5 -12,-6 -5,-1 -9,-2 -14,-2 -5,0 -10,1 -15,2 -4,1 -8,3 -12,6 -3,2 -6,6 -8,9 -2,4 -3,9 -3,14l0 22 77 0 0 -23z"/>
  <path id="79" class="fil4" d="M5448 2560l0 113 -25 0 0 -114c0,-5 -1,-10 -3,-13 -2,-4 -5,-7 -8,-10 -4,-2 -8,-4 -12,-5 -4,-1 -9,-2 -13,-2 -7,0 -15,1 -21,3 -7,1 -13,3 -18,5l0 136 -25 0 0 -153c11,-4 21,-7 32,-10 11,-3 22,-4 32,-4 8,0 15,1 23,4 7,2 14,5 19,10 6,4 11,10 14,16 4,7 5,15 5,24z"/>
  <path id="80" class="fil4" d="M5543 2676c-8,0 -15,-1 -22,-4 -7,-2 -14,-6 -19,-10 -5,-5 -9,-11 -11,-17 -3,-7 -5,-14 -5,-23l0 -154 25 0 0 41 34 0 0 24 -34 0 0 89c0,5 1,9 3,14 2,4 5,8 8,11 4,3 9,5 14,6 2,1 5,1 8,1 3,0 6,0 9,-1l0 22c-1,0 -3,1 -5,1 -1,0 -3,0 -5,0z"/>
  <path id="81" class="fil4" d="M5632 2653c3,0 7,-1 11,-2 3,-1 6,-3 9,-5 3,-2 6,-5 7,-8 2,-3 3,-7 3,-11 0,-5 -1,-8 -3,-11 -2,-3 -5,-5 -8,-7 -3,-2 -6,-3 -10,-4 -4,-2 -8,-2 -11,-3 -7,-1 -14,-3 -21,-5 -7,-1 -13,-4 -18,-8 -6,-3 -10,-8 -14,-13 -3,-6 -5,-13 -5,-22 0,-9 2,-16 6,-22 3,-6 8,-11 14,-15 5,-4 12,-7 19,-8 7,-2 14,-3 21,-3 8,0 17,2 26,5 8,3 16,8 23,15l-16 18c-5,-6 -10,-9 -16,-11 -6,-3 -12,-4 -17,-4 -4,0 -8,1 -12,1 -4,1 -8,3 -11,4 -3,2 -6,5 -9,8 -2,3 -3,7 -3,11 0,5 1,9 4,12 2,3 6,5 9,7 4,2 8,3 12,4 5,1 9,2 12,2 6,2 13,3 19,5 6,2 12,5 17,9 5,4 9,8 12,14 3,6 5,13 5,21 0,8 -2,15 -5,21 -3,7 -7,12 -12,16 -6,4 -11,7 -18,9 -7,2 -13,3 -20,3 -13,0 -25,-3 -37,-8 -11,-5 -21,-14 -29,-26l19 -13c5,8 12,14 21,18 9,4 17,6 26,6z"/>
  <path id="82" class="fil4" d="M5775 2531c-5,0 -10,1 -14,2 -5,1 -9,3 -12,5 -4,3 -6,6 -9,10 -2,3 -3,8 -3,13l0 61c0,5 1,9 3,13 2,4 5,7 9,9 3,3 7,5 12,6 4,2 9,2 14,2 8,0 16,-2 24,-5 7,-4 13,-11 17,-21l20 10c-2,7 -5,12 -10,17 -4,6 -9,10 -14,13 -6,3 -12,6 -18,8 -6,1 -13,2 -19,2 -8,0 -16,-1 -23,-3 -8,-3 -14,-6 -20,-11 -6,-4 -11,-10 -15,-17 -3,-6 -5,-14 -5,-24l0 -60c0,-9 2,-17 5,-24 4,-7 9,-13 15,-17 6,-5 12,-8 20,-11 7,-2 15,-3 23,-3 11,0 22,2 32,7 10,4 19,13 27,26l-20 11c-6,-8 -12,-13 -18,-16 -7,-2 -14,-3 -21,-3z"/>
  <path id="83" class="fil4" d="M5858 2561c0,-9 2,-17 6,-24 3,-7 8,-13 14,-17 6,-5 13,-8 20,-11 8,-2 16,-3 24,-3 8,0 15,1 23,3 7,3 14,6 20,11 6,4 11,10 14,17 4,7 6,15 6,24l0 60c0,10 -2,18 -6,24 -3,7 -8,13 -14,17 -6,5 -13,8 -20,10 -8,3 -15,4 -23,4 -8,0 -16,-1 -24,-4 -7,-2 -14,-5 -20,-10 -6,-4 -11,-10 -14,-17 -4,-6 -6,-14 -6,-24l0 -60zm64 -31c-5,0 -9,1 -14,2 -5,1 -9,3 -12,5 -4,3 -7,6 -9,10 -2,4 -3,8 -3,13l0 62c0,5 1,9 3,13 2,4 5,7 9,9 3,3 7,5 12,6 5,1 9,2 14,2 4,0 9,-1 13,-2 4,-1 8,-3 12,-6 4,-2 7,-5 9,-9 2,-4 3,-8 3,-13l0 -62c0,-5 -1,-9 -3,-13 -2,-4 -5,-7 -9,-10 -4,-2 -8,-4 -12,-5 -4,-1 -9,-2 -13,-2z"/>
  <path id="84" class="fil4" d="M6081 2676c-8,0 -16,-1 -23,-4 -8,-2 -14,-5 -20,-10 -6,-4 -10,-10 -14,-17 -4,-6 -5,-14 -5,-23l0 -113 25 0 0 113c0,5 1,9 3,13 2,3 5,6 8,9 4,3 8,4 12,6 4,1 9,2 14,2 7,0 14,-1 20,-1 7,-1 13,-3 18,-4l0 -138 25 0 0 155c-7,3 -14,5 -21,6 -6,2 -12,3 -17,4 -5,1 -10,1 -14,2 -4,0 -8,0 -11,0z"/>
  <path id="85" class="fil4" d="M6309 2560l0 113 -25 0 0 -114c0,-5 -1,-10 -3,-13 -3,-4 -6,-7 -9,-10 -3,-2 -7,-4 -12,-5 -4,-1 -8,-2 -13,-2 -7,0 -14,1 -21,3 -7,1 -13,3 -17,5l0 136 -26 0 0 -153c11,-4 22,-7 33,-10 10,-3 21,-4 31,-4 8,0 16,1 23,4 7,2 14,5 20,10 5,4 10,10 14,16 3,7 5,15 5,24z"/>
  <path id="86" class="fil4" d="M6406 2531c-5,0 -10,1 -14,2 -5,1 -9,3 -12,5 -4,3 -7,6 -9,10 -2,3 -3,8 -3,13l0 61c0,5 1,9 3,13 2,4 5,7 8,9 4,3 8,5 13,6 4,2 9,2 14,2 8,0 16,-2 24,-5 7,-4 13,-11 17,-21l20 10c-2,7 -6,12 -10,17 -4,6 -9,10 -15,13 -5,3 -11,6 -17,8 -7,1 -13,2 -19,2 -8,0 -16,-1 -23,-3 -8,-3 -15,-6 -21,-11 -5,-4 -10,-10 -14,-17 -4,-6 -5,-14 -5,-24l0 -60c0,-9 1,-17 5,-24 4,-7 9,-13 14,-17 6,-5 13,-8 21,-11 7,-2 15,-3 23,-3 11,0 22,2 32,7 10,4 18,13 26,26l-19 11c-6,-8 -12,-13 -18,-16 -7,-2 -14,-3 -21,-3z"/>
  <path id="87" class="fil4" d="M6489 2464c0,-6 2,-10 5,-14 4,-3 8,-5 13,-5 6,0 10,2 14,5 3,4 5,8 5,14 0,5 -2,9 -5,13 -4,4 -8,5 -14,5 -5,0 -9,-1 -13,-5 -3,-4 -5,-8 -5,-13zm31 209l-27 0 0 -164 27 0 0 164z"/>
  <path id="88" class="fil4" d="M6614 2676c-17,0 -31,-5 -41,-14 -9,-10 -14,-23 -14,-39l0 -171 25 0 0 171c0,9 3,16 7,21 5,6 13,8 23,8l0 24z"/>
  <path id="89" class="fil4" d="M6631 2656c0,-5 2,-10 6,-13 3,-4 8,-6 13,-6 5,0 10,2 13,6 4,3 6,8 6,13 0,5 -2,10 -6,13 -3,4 -8,6 -13,6 -5,0 -10,-2 -13,-6 -4,-3 -6,-8 -6,-13z"/>
  <path id="90" class="fil4" d="M6725 2623c0,6 1,10 3,13 2,4 5,7 8,9 4,3 8,5 12,6 5,1 10,2 15,2 7,0 14,-2 21,-6 7,-3 12,-9 16,-17l22 10c-3,6 -7,11 -11,16 -4,4 -9,8 -14,11 -5,3 -11,5 -17,7 -6,1 -12,2 -17,2 -8,0 -16,-1 -24,-3 -7,-3 -14,-6 -20,-11 -6,-4 -11,-10 -14,-17 -4,-6 -6,-14 -6,-23l0 -62c0,-9 2,-17 6,-24 3,-6 8,-12 14,-17 6,-4 13,-7 20,-10 8,-2 16,-3 24,-3 7,0 15,1 22,3 8,3 15,6 20,10 6,5 11,11 15,17 3,7 5,15 5,24l0 44 -100 0 0 19zm76 -64c0,-5 -1,-9 -3,-13 -3,-3 -6,-7 -9,-9 -4,-3 -8,-5 -13,-6 -4,-1 -9,-2 -13,-2 -6,0 -11,1 -15,2 -5,1 -9,3 -12,6 -4,2 -7,6 -9,9 -1,4 -2,9 -2,14l0 22 76 0 0 -23z"/>
  <path id="91" class="fil4" d="M6983 2560l0 113 -25 0 0 -114c0,-5 -1,-10 -3,-13 -3,-4 -5,-7 -9,-10 -3,-2 -7,-4 -12,-5 -4,-1 -8,-2 -13,-2 -7,0 -14,1 -21,3 -7,1 -13,3 -17,5l0 136 -25 0 0 -153c10,-4 21,-7 32,-10 10,-3 21,-4 31,-4 8,0 16,1 23,4 7,2 14,5 20,10 6,4 10,10 14,16 3,7 5,15 5,24z"/>
  <path id="92" class="fil4" d="M7078 2710c5,0 10,0 14,-1 5,-1 9,-2 13,-5 4,-2 7,-5 9,-9 2,-3 3,-8 3,-14l0 -14c-6,4 -12,6 -18,7 -7,1 -13,2 -19,2 -8,0 -16,-1 -23,-4 -8,-2 -15,-5 -20,-10 -6,-4 -11,-10 -15,-17 -3,-7 -5,-15 -5,-23l0 -62c0,-9 2,-17 5,-24 4,-6 8,-12 14,-17 6,-4 12,-7 20,-10 7,-2 15,-3 23,-3 5,0 10,0 15,1 5,0 10,1 15,2 5,1 10,2 16,4 5,1 11,3 17,6l0 162c0,9 -2,17 -5,24 -4,6 -9,12 -14,16 -6,4 -13,7 -20,10 -7,2 -15,3 -23,3 -11,0 -21,-2 -31,-6 -10,-4 -19,-10 -26,-18l15 -16c2,3 4,5 7,7 3,1 7,3 10,5 4,1 8,2 12,3 4,1 7,1 11,1zm1 -181c-5,0 -10,1 -14,2 -4,2 -8,4 -12,6 -3,3 -6,6 -8,10 -2,4 -3,8 -3,13l0 63c0,9 4,17 11,22 7,6 16,8 26,8 7,0 14,0 20,-1 6,-1 12,-3 18,-5l0 -111c-6,-3 -13,-5 -19,-6 -5,0 -12,-1 -19,-1z"/>
  <path id="93" class="fil4" d="M7238 2710c5,0 9,0 14,-1 5,-1 9,-2 13,-5 3,-2 6,-5 9,-9 2,-3 3,-8 3,-14l0 -14c-6,4 -12,6 -19,7 -6,1 -12,2 -18,2 -8,0 -16,-1 -24,-4 -7,-2 -14,-5 -20,-10 -6,-4 -10,-10 -14,-17 -3,-7 -5,-15 -5,-23l0 -62c0,-9 2,-17 5,-24 3,-6 8,-12 14,-17 6,-4 12,-7 20,-10 7,-2 15,-3 22,-3 6,0 11,0 16,1 5,0 10,1 15,2 5,1 10,2 15,4 6,1 11,3 18,6l0 162c0,9 -2,17 -6,24 -3,6 -8,12 -14,16 -5,4 -12,7 -19,10 -8,2 -15,3 -23,3 -11,0 -21,-2 -31,-6 -10,-4 -19,-10 -27,-18l16 -16c2,3 4,5 7,7 3,1 6,3 10,5 4,1 8,2 11,3 4,1 8,1 12,1zm0 -181c-4,0 -9,1 -13,2 -4,2 -8,4 -12,6 -3,3 -6,6 -8,10 -2,4 -3,8 -3,13l0 63c0,9 4,17 11,22 7,6 16,8 26,8 7,0 14,0 20,-1 5,-1 12,-3 18,-5l0 -111c-7,-3 -13,-5 -19,-6 -6,0 -12,-1 -20,-1z"/>
  <path id="94" class="fil4" d="M7448 2471c-13,0 -24,3 -35,8 -11,5 -20,11 -28,20 -8,8 -15,18 -19,28 -5,11 -7,23 -7,35 0,13 2,26 5,37 4,11 10,21 17,29 7,8 17,14 28,19 11,4 24,6 38,6 5,0 10,0 16,-1 5,-1 11,-3 17,-5l11 20c-9,3 -16,5 -23,7 -7,1 -14,2 -21,2 -19,0 -36,-3 -50,-9 -14,-6 -26,-14 -35,-25 -9,-10 -16,-22 -20,-36 -5,-14 -7,-28 -7,-44 0,-16 3,-31 9,-44 5,-14 13,-26 24,-36 10,-11 22,-19 35,-25 14,-5 29,-8 45,-8 15,0 28,2 41,7 13,4 24,11 33,19 10,9 17,18 22,30 6,11 8,23 8,36 0,13 -2,25 -6,36 -4,11 -10,21 -17,29 -7,8 -15,14 -23,19 -9,5 -18,7 -26,7 -5,0 -10,-1 -14,-4 -4,-3 -6,-8 -7,-16 -4,7 -9,11 -16,14 -6,3 -13,5 -20,5 -6,0 -12,-2 -17,-4 -5,-3 -10,-7 -14,-11 -3,-5 -6,-10 -9,-15 -2,-6 -3,-11 -3,-17 0,-11 2,-21 5,-32 3,-11 8,-20 14,-29 6,-8 14,-15 23,-20 9,-5 19,-8 30,-8 3,0 6,0 10,1 3,1 6,3 9,4 3,2 6,4 8,7 2,3 3,6 4,9l4 -11 25 1 -28 85c0,2 -1,4 -1,6 -1,2 -1,4 -2,5 0,2 1,3 1,4 1,1 2,2 4,2 5,0 10,-2 15,-6 5,-4 9,-10 13,-16 4,-6 8,-14 10,-21 3,-8 4,-16 4,-24 0,-16 -4,-29 -13,-40l0 -1c-8,-10 -17,-17 -29,-21 -12,-5 -24,-8 -38,-8zm-44 112c0,7 2,13 6,17 4,5 9,7 16,7 6,0 12,-2 17,-6 6,-4 11,-10 15,-16 4,-6 7,-13 9,-20 3,-7 4,-14 4,-20 0,-8 -2,-14 -5,-19 -3,-5 -8,-7 -15,-7 0,0 -1,0 -1,0 -7,0 -14,2 -20,6 -6,4 -10,9 -14,16 -4,6 -7,13 -9,21 -2,8 -3,15 -3,21z"/>
  <path id="95" class="fil4" d="M7636 2653c4,0 7,-1 11,-2 3,-1 7,-3 10,-5 3,-2 5,-5 7,-8 1,-3 2,-7 2,-11 0,-5 -1,-8 -3,-11 -2,-3 -4,-5 -8,-7 -3,-2 -6,-3 -10,-4 -4,-2 -7,-2 -11,-3 -7,-1 -14,-3 -20,-5 -7,-1 -13,-4 -19,-8 -5,-3 -10,-8 -13,-13 -4,-6 -6,-13 -6,-22 0,-9 2,-16 6,-22 4,-6 8,-11 14,-15 6,-4 12,-7 19,-8 7,-2 14,-3 21,-3 8,0 17,2 26,5 9,3 16,8 23,15l-15 18c-5,-6 -11,-9 -17,-11 -6,-3 -11,-4 -17,-4 -4,0 -8,1 -12,1 -4,1 -7,3 -11,4 -3,2 -6,5 -8,8 -2,3 -4,7 -4,11 0,5 2,9 4,12 3,3 6,5 10,7 3,2 7,3 12,4 4,1 8,2 11,2 7,2 13,3 19,5 7,2 12,5 17,9 5,4 9,8 12,14 4,6 5,13 5,21 0,8 -1,15 -5,21 -3,7 -7,12 -12,16 -5,4 -11,7 -18,9 -6,2 -13,3 -20,3 -13,0 -25,-3 -37,-8 -11,-5 -21,-14 -29,-26l19 -13c6,8 13,14 21,18 9,4 17,6 26,6z"/>
  <path id="96" class="fil4" d="M7716 2561c0,-9 2,-17 6,-24 3,-7 8,-13 14,-17 6,-5 13,-8 20,-11 8,-2 16,-3 24,-3 7,0 15,1 23,3 7,3 14,6 20,11 6,4 10,10 14,17 4,7 5,15 5,24l0 60c0,10 -1,18 -5,24 -4,7 -8,13 -14,17 -6,5 -13,8 -20,10 -8,3 -16,4 -23,4 -8,0 -16,-1 -24,-4 -7,-2 -14,-5 -20,-10 -6,-4 -11,-10 -14,-17 -4,-6 -6,-14 -6,-24l0 -60zm64 -31c-5,0 -10,1 -14,2 -5,1 -9,3 -13,5 -3,3 -6,6 -8,10 -3,4 -4,8 -4,13l0 62c0,5 1,9 4,13 2,4 5,7 8,9 4,3 8,5 13,6 4,1 9,2 14,2 4,0 8,-1 13,-2 4,-1 8,-3 12,-6 4,-2 7,-5 9,-9 2,-4 3,-8 3,-13l0 -62c0,-5 -1,-9 -3,-13 -2,-4 -5,-7 -9,-10 -4,-2 -8,-4 -12,-5 -5,-1 -9,-2 -13,-2z"/>
  <path id="97" class="fil4" d="M7933 2506c9,0 18,1 26,4 9,3 17,8 23,15 6,-7 13,-11 22,-14 8,-3 16,-5 24,-5 9,0 17,1 24,3 8,3 14,6 20,10 5,5 10,10 13,17 3,7 4,15 4,25l0 112 -25 0 0 -114c0,-6 -1,-11 -3,-15 -2,-4 -5,-7 -8,-9 -3,-2 -7,-4 -12,-5 -4,-1 -9,-1 -13,-1 -4,0 -8,1 -12,2 -4,1 -7,2 -10,4 -4,2 -6,5 -8,8 -2,3 -3,6 -3,10l0 120 -25 0 0 -118c0,-5 -1,-9 -3,-12 -2,-3 -5,-6 -9,-8 -3,-2 -7,-3 -12,-4 -4,-1 -9,-2 -14,-2 -6,0 -11,1 -17,2 -5,1 -9,3 -13,6l0 136 -25 0 0 -152c8,-4 16,-8 26,-11 10,-3 20,-4 30,-4z"/>
  <path id="98" class="fil4" d="M8219 2559c0,-5 -1,-9 -3,-13 -2,-3 -5,-7 -9,-9 -3,-3 -7,-4 -12,-6 -5,-1 -9,-2 -14,-2 -8,0 -15,2 -22,5 -8,2 -14,7 -19,13l-15 -15c7,-9 16,-15 27,-20 10,-4 20,-6 31,-6 7,0 15,1 23,3 7,3 14,6 20,10 5,4 10,10 13,17 4,6 6,14 6,23l0 106c-12,4 -23,7 -34,8 -11,2 -21,3 -31,3 -1,0 -2,0 -3,0 -8,0 -16,-1 -23,-3 -7,-2 -13,-6 -18,-10 -6,-4 -10,-9 -13,-16 -3,-6 -4,-13 -4,-22 0,-9 1,-17 5,-24 3,-6 8,-12 14,-16 5,-4 12,-7 19,-9 8,-2 15,-3 23,-3 14,0 27,2 39,8l0 -22zm-36 34c-5,0 -10,0 -15,1 -5,1 -9,3 -12,6 -4,2 -7,6 -9,10 -2,4 -3,9 -3,15 0,10 3,18 9,22 7,5 15,7 25,7 2,0 4,0 7,0 4,0 9,0 14,0 7,0 14,-1 20,-3l0 -52c-5,-2 -10,-3 -17,-5 -6,-1 -13,-1 -19,-1z"/>
  <path id="99" class="fil4" d="M8277 2464c0,-6 2,-10 5,-14 4,-3 8,-5 13,-5 6,0 10,2 14,5 3,4 5,8 5,14 0,5 -2,9 -5,13 -4,4 -8,5 -14,5 -5,0 -9,-1 -13,-5 -3,-4 -5,-8 -5,-13zm31 209l-27 0 0 -164 27 0 0 164z"/>
  <path id="100" class="fil4" d="M8410 2709c5,0 10,0 15,-2 5,-1 9,-2 13,-5 4,-2 7,-5 9,-9 3,-4 4,-9 4,-15l0 -12c-6,4 -12,6 -19,8 -7,1 -14,2 -20,2 -9,0 -17,-1 -24,-4 -8,-2 -15,-6 -21,-10 -6,-5 -11,-11 -15,-18 -3,-7 -5,-15 -5,-24l0 -111 26 0 0 111c0,5 1,10 3,14 2,3 5,7 9,9 3,3 7,5 12,6 4,2 9,3 14,3 13,0 26,-3 40,-8l0 -135 25 0 0 169c0,10 -2,18 -5,25 -4,7 -9,13 -15,17 -6,5 -12,8 -20,10 -8,3 -16,4 -24,4 -10,0 -21,-2 -32,-7 -11,-4 -20,-10 -27,-19l17 -15c5,5 11,9 18,12 8,3 15,4 22,4z"/>
  <path id="101" class="fil4" d="M8607 2559c0,-5 -1,-9 -3,-13 -2,-3 -5,-7 -9,-9 -3,-3 -7,-4 -12,-6 -5,-1 -9,-2 -14,-2 -8,0 -15,2 -22,5 -8,2 -14,7 -19,13l-15 -15c7,-9 16,-15 27,-20 10,-4 20,-6 31,-6 8,0 15,1 23,3 7,3 14,6 20,10 5,4 10,10 13,17 4,6 6,14 6,23l0 106c-12,4 -23,7 -34,8 -11,2 -21,3 -30,3 -2,0 -3,0 -4,0 -8,0 -16,-1 -23,-3 -7,-2 -13,-6 -18,-10 -6,-4 -10,-9 -13,-16 -3,-6 -4,-13 -4,-22 0,-9 1,-17 5,-24 3,-6 8,-12 14,-16 5,-4 12,-7 19,-9 8,-2 15,-3 23,-3 14,0 27,2 39,8l0 -22zm-36 34c-5,0 -10,0 -15,1 -5,1 -9,3 -12,6 -4,2 -7,6 -9,10 -2,4 -3,9 -3,15 0,10 3,18 9,22 7,5 15,7 25,7 2,0 4,0 7,0 4,0 9,0 14,0 7,0 14,-1 20,-3l0 -52c-5,-2 -10,-3 -17,-5 -6,-1 -13,-1 -19,-1z"/>
  <path id="102" class="fil4" d="M8665 2656c0,-5 2,-10 6,-13 3,-4 8,-6 13,-6 5,0 10,2 13,6 4,3 6,8 6,13 0,5 -2,10 -6,13 -3,4 -8,6 -13,6 -5,0 -10,-2 -13,-6 -4,-3 -6,-8 -6,-13z"/>
  <path id="103" class="fil4" d="M8759 2623c0,6 1,10 3,13 2,4 5,7 8,9 4,3 8,5 12,6 5,1 10,2 15,2 7,0 14,-2 21,-6 7,-3 12,-9 16,-17l22 10c-3,6 -7,11 -11,16 -4,4 -9,8 -14,11 -5,3 -11,5 -17,7 -6,1 -12,2 -17,2 -8,0 -16,-1 -24,-3 -7,-3 -14,-6 -20,-11 -6,-4 -11,-10 -14,-17 -4,-6 -6,-14 -6,-23l0 -62c0,-9 2,-17 6,-24 3,-6 8,-12 14,-17 6,-4 13,-7 20,-10 8,-2 16,-3 24,-3 7,0 15,1 22,3 8,3 15,6 20,10 6,5 11,11 15,17 3,7 5,15 5,24l0 44 -100 0 0 19zm76 -64c0,-5 -1,-9 -3,-13 -3,-3 -6,-7 -9,-9 -4,-3 -8,-5 -13,-6 -4,-1 -9,-2 -13,-2 -6,0 -11,1 -15,2 -5,1 -9,3 -12,6 -4,2 -7,6 -9,9 -1,4 -2,9 -2,14l0 22 76 0 0 -23z"/>
  <path id="104" class="fil4" d="M8887 2622l0 -61c0,-9 2,-17 5,-24 4,-6 9,-12 15,-17 6,-4 13,-8 20,-10 8,-2 15,-4 23,-4 7,0 14,1 20,3 6,1 13,4 18,7l0 -64 26 0 0 212c-11,4 -22,7 -32,9 -11,2 -22,3 -32,3 -8,0 -16,-2 -23,-4 -8,-2 -14,-5 -20,-10 -6,-4 -11,-10 -15,-17 -3,-6 -5,-14 -5,-23zm63 31c6,0 12,0 19,0 7,-1 13,-2 19,-4l0 -111c-6,-3 -12,-6 -19,-7 -6,-2 -13,-2 -19,-2 -5,0 -9,0 -14,2 -4,1 -8,3 -12,6 -3,2 -6,6 -8,10 -2,4 -3,9 -3,14l0 60c0,5 1,9 3,13 2,4 5,8 8,10 4,3 8,6 12,7 4,2 9,2 14,2z"/>
  <path id="105" class="fil4" d="M9114 2676c-8,0 -15,-1 -23,-4 -7,-2 -14,-5 -19,-10 -6,-4 -11,-10 -14,-17 -4,-6 -6,-14 -6,-23l0 -113 26 0 0 113c0,5 1,9 3,13 2,3 5,6 8,9 4,3 7,4 12,6 4,1 9,2 13,2 8,0 14,-1 21,-1 6,-1 12,-3 18,-4l0 -138 25 0 0 155c-8,3 -15,5 -21,6 -6,2 -12,3 -17,4 -6,1 -10,1 -14,2 -5,0 -8,0 -12,0z"/>
  <path id="106" class="fil4" d="M4614 3129l88 0c18,0 33,4 45,12 11,8 20,17 26,29 6,11 9,24 9,37 0,13 -3,25 -9,37 -6,11 -15,21 -27,29 -12,7 -26,11 -44,11l-42 0 0 69 -46 0 0 -224zm88 111c8,0 14,-1 19,-4 5,-4 9,-8 11,-12 3,-5 4,-10 4,-16 0,-5 -1,-10 -4,-15 -2,-5 -6,-9 -11,-12 -5,-3 -11,-5 -19,-5l-42 0 0 64 42 0z"/>
  <path id="107" class="fil4" d="M4874 3356c-9,0 -18,-1 -26,-3 -9,-2 -16,-5 -22,-10 -7,-4 -12,-11 -15,-18 -4,-8 -6,-18 -6,-29l0 -107 44 0 0 104c0,10 3,17 8,21 6,4 12,6 19,6 6,0 11,-1 16,-3l0 -128 44 0 0 155c-9,3 -19,6 -29,9 -11,2 -22,3 -33,3z"/>
  <path id="108" class="fil4" d="M5040 3186c7,0 15,2 22,4 7,3 14,7 19,11 6,5 11,11 14,18 3,7 5,14 5,23l0 58c-1,10 -3,19 -7,26 -4,8 -9,13 -15,18 -6,4 -13,7 -21,9 -8,2 -16,3 -25,3 -10,0 -21,-1 -32,-3 -11,-2 -21,-5 -31,-9l0 -214 44 0 0 62c8,-4 17,-6 27,-6zm-11 138c4,0 8,-1 11,-2 5,-1 8,-3 12,-6 3,-3 4,-7 4,-12l0 -64c0,-5 -2,-9 -6,-12 -3,-2 -7,-4 -11,-6 -3,0 -6,-1 -9,-1 -2,0 -3,0 -5,1 -4,0 -9,2 -12,3l0 95c4,2 8,3 13,3 1,1 2,1 3,1z"/>
  <path id="109" class="fil4" d="M5189 3356c-10,0 -19,-1 -27,-5 -8,-3 -14,-7 -19,-13 -5,-5 -9,-11 -11,-19 -3,-7 -4,-15 -4,-23l0 -167 44 0 0 167c0,6 2,11 6,15 5,5 11,7 20,7l0 38c-1,0 -3,0 -4,0 -2,0 -3,0 -5,0z"/>
  <path id="110" class="fil4" d="M5239 3123c7,0 14,3 19,8 5,6 8,12 8,20 0,7 -3,14 -8,19 -5,5 -12,8 -19,8 -8,0 -14,-3 -19,-8 -5,-5 -8,-12 -8,-19 0,-8 3,-14 8,-20 5,-5 11,-8 19,-8zm23 230l-45 0 0 -163 45 0 0 163z"/>
  <path id="111" class="fil4" d="M5357 3356c-8,0 -16,-1 -24,-3 -8,-3 -15,-6 -21,-11 -6,-5 -11,-11 -15,-18 -4,-7 -6,-16 -6,-26l0 -54c0,-9 2,-18 6,-25 4,-7 9,-13 15,-18 6,-5 13,-9 21,-11 8,-2 16,-4 24,-4 6,0 12,1 18,3 7,1 13,3 18,7 6,3 11,8 16,14 4,5 8,12 10,21l-38 11c-1,-5 -5,-10 -9,-12 -5,-3 -10,-4 -15,-4 -6,0 -11,1 -15,5 -5,3 -7,7 -7,13l0 54c0,6 2,11 7,14 4,3 9,5 15,5 5,0 10,-2 15,-5 5,-2 8,-7 10,-13l39 13c-3,8 -7,15 -12,20 -5,6 -10,11 -16,14 -5,4 -11,6 -18,8 -6,1 -12,2 -18,2z"/>
  <path id="112" class="fil4" d="M5553 3271l0 82 -46 0 0 -224 88 0c11,0 21,2 31,4 9,3 18,7 25,13 7,6 13,13 17,22 4,9 6,20 7,33 0,20 -5,36 -14,47 -9,10 -21,17 -37,20l66 85 -57 0 -63 -82 -17 0zm42 -42c10,0 18,-2 24,-7 6,-4 9,-11 9,-21 0,-9 -3,-16 -9,-20 -6,-3 -13,-5 -22,-5 0,0 -1,0 -2,0l-42 0 0 53 42 0z"/>
  <path id="113" class="fil4" d="M5765 3356c-8,0 -16,-1 -24,-3 -8,-3 -15,-7 -21,-11 -6,-5 -11,-11 -15,-19 -4,-7 -6,-15 -6,-25l0 -54c0,-10 2,-18 6,-26 4,-7 9,-13 15,-18 6,-4 13,-8 21,-10 8,-3 17,-4 25,-4 8,0 16,1 23,3 8,3 14,6 20,10 6,5 11,11 15,18 3,7 5,15 5,25l0 48 -86 0 0 7c0,7 3,12 8,15 5,3 11,5 17,5 5,0 10,-1 15,-3 4,-2 8,-5 11,-10l28 21c-3,6 -7,11 -11,15 -5,4 -10,7 -15,9 -5,3 -10,5 -16,6 -5,1 -10,1 -15,1zm23 -113c0,-6 -3,-10 -7,-13 -4,-3 -9,-4 -15,-4 -6,0 -11,1 -16,4 -4,3 -7,7 -7,13l0 15 45 0 0 -15z"/>
  <path id="114" class="fil4" d="M5916 3356c-11,0 -20,-1 -28,-5 -7,-3 -14,-7 -19,-13 -4,-5 -8,-11 -11,-19 -2,-7 -3,-15 -3,-23l0 -167 44 0 0 167c0,6 2,11 6,15 4,5 11,7 20,7l0 38c-2,0 -3,0 -5,0 -1,0 -3,0 -4,0z"/>
  <path id="115" class="fil4" d="M5936 3304c0,-9 1,-17 5,-24 3,-7 7,-12 12,-16 6,-5 12,-8 19,-10 7,-2 14,-3 22,-3 9,0 19,2 29,5l0 -12c0,-8 -3,-14 -8,-17 -5,-4 -11,-5 -17,-5 -7,0 -13,1 -19,4 -7,3 -12,7 -16,11l-21 -23c8,-10 17,-17 27,-21 10,-4 20,-6 32,-7 8,0 16,1 24,4 7,2 14,6 20,11 6,4 11,10 15,18 3,7 5,16 5,25l0 100c-10,4 -20,7 -30,9 -11,2 -21,3 -31,3 -24,0 -41,-5 -52,-14 -11,-9 -16,-22 -16,-38zm66 -21c-9,0 -15,2 -19,6 -4,3 -6,8 -6,14 0,6 2,11 6,14 5,4 11,5 20,5 7,0 13,0 19,-2l0 -33c-3,-1 -6,-2 -10,-3 -3,0 -7,-1 -10,-1z"/>
  <path id="116" class="fil4" d="M6147 3356c-2,0 -3,0 -4,0 -10,-1 -18,-4 -25,-8 -7,-5 -12,-12 -16,-20 -4,-9 -6,-20 -6,-32l0 -143 40 0 4 36 29 0 0 41 -29 0 0 65c0,10 2,16 8,19 3,2 7,2 12,2 4,0 8,0 13,-1l0 36c-9,3 -18,5 -26,5z"/>
  <path id="117" class="fil4" d="M6219 3123c7,0 14,3 19,8 5,6 8,12 8,20 0,7 -3,14 -8,19 -5,5 -12,8 -19,8 -8,0 -14,-3 -19,-8 -5,-5 -8,-12 -8,-19 0,-8 3,-14 8,-20 5,-5 11,-8 19,-8zm23 230l-45 0 0 -163 45 0 0 163z"/>
  <path id="118" class="fil4" d="M6271 3245c0,-10 2,-18 6,-26 4,-7 9,-13 15,-18 6,-5 13,-8 21,-11 8,-2 16,-4 24,-4 8,0 16,2 24,4 8,3 15,6 21,11 6,5 11,11 15,18 3,8 5,16 5,26l0 53c0,10 -2,19 -5,26 -4,7 -9,13 -15,18 -6,5 -13,8 -21,11 -8,2 -16,3 -24,3 -8,0 -16,-1 -24,-3 -8,-3 -15,-6 -21,-11 -6,-5 -11,-11 -15,-18 -4,-7 -6,-16 -6,-26l0 -53zm66 -19c-5,0 -10,1 -15,4 -5,3 -7,7 -7,12l0 57c0,5 2,10 7,13 5,3 10,5 15,5 5,0 10,-2 14,-5 5,-3 7,-8 7,-13l0 -57c0,-5 -2,-9 -7,-12 -4,-3 -9,-4 -14,-4z"/>
  <path id="119" class="fil4" d="M6490 3186c10,0 19,1 27,4 9,2 16,5 23,10 6,5 12,11 16,19 4,7 6,16 6,27l0 107 -44 0 0 -105c0,-8 -2,-14 -8,-17 -5,-3 -10,-5 -17,-5 -6,0 -12,1 -18,4l0 123 -44 0 0 -152c9,-5 19,-8 29,-11 10,-2 20,-4 30,-4z"/>
  <path id="120" class="fil4" d="M6645 3318c7,0 11,-2 14,-7 1,-2 1,-4 1,-6 0,-3 -1,-5 -2,-7 -3,-4 -8,-7 -15,-8 -9,-1 -17,-4 -24,-7 -7,-4 -12,-8 -17,-13 -4,-5 -7,-10 -9,-16 -3,-5 -4,-11 -4,-17 0,-6 1,-13 4,-19 2,-6 6,-11 11,-16 4,-5 10,-9 17,-11 7,-3 15,-5 24,-5 7,0 16,1 25,4 10,2 19,7 27,13l-22 30c-2,-2 -6,-5 -11,-7 -5,-2 -10,-3 -15,-3 -4,0 -7,1 -10,3 -3,2 -5,6 -5,11 0,2 1,4 2,6 2,2 4,4 6,6 2,1 5,3 7,4 3,1 5,1 7,2 5,1 10,3 16,5 5,2 10,5 15,9 5,4 9,8 11,14 3,5 5,12 5,19 0,9 -2,17 -5,24 -3,7 -8,12 -13,17 -6,4 -12,8 -19,10 -7,2 -15,3 -22,3 -12,0 -22,-2 -32,-6 -10,-4 -19,-11 -27,-22l21 -28c6,6 13,10 20,14 7,3 14,4 19,4z"/>
  <path id="121" class="fil4" d="M4694 3472c10,0 21,1 31,4 10,2 19,6 27,12 8,5 14,12 19,21 5,8 7,19 7,30l0 90c0,12 -2,22 -7,30 -5,9 -11,15 -19,21 -8,5 -17,9 -27,12 -10,2 -21,4 -31,4l-76 0 0 -224 76 0zm0 197c7,0 14,-1 21,-2 7,-1 13,-4 19,-7 5,-3 10,-8 13,-13 3,-5 5,-11 5,-18l0 -90c0,-7 -2,-13 -5,-18 -3,-6 -8,-10 -13,-13 -6,-3 -12,-6 -19,-7 -7,-2 -14,-2 -21,-2l-50 0 0 170 50 0z"/>
  <path id="122" class="fil4" d="M4884 3529c7,0 13,1 20,3 7,2 14,5 19,10 6,4 10,10 14,17 3,7 5,15 5,24l0 113 -25 0 0 -113c0,-5 -1,-10 -4,-14 -2,-3 -5,-7 -8,-9 -4,-3 -8,-4 -12,-6 -5,-1 -9,-2 -14,-2 -6,0 -12,1 -18,2 -6,1 -12,3 -20,7l0 135 -25 0 0 -221 25 0 0 63c7,-3 14,-5 21,-7 6,-1 13,-2 19,-2 1,0 2,0 3,0z"/>
  <path id="123" class="fil4" d="M5072 3582c0,-5 -1,-9 -4,-13 -2,-3 -5,-7 -8,-9 -4,-3 -8,-4 -13,-6 -4,-1 -9,-2 -14,-2 -7,0 -14,2 -22,5 -7,2 -13,7 -18,13l-16 -15c8,-9 17,-15 27,-20 10,-4 21,-6 31,-6 8,0 16,1 23,3 8,3 14,6 20,10 6,4 10,10 14,17 3,6 5,14 5,23l0 106c-11,4 -23,7 -34,8 -10,2 -20,3 -30,3 -1,0 -2,0 -4,0 -8,0 -15,-1 -23,-3 -7,-2 -13,-6 -18,-10 -5,-4 -9,-9 -12,-16 -3,-6 -5,-13 -5,-22 0,-9 2,-17 5,-24 4,-6 8,-12 14,-16 6,-4 12,-7 20,-9 7,-2 15,-3 23,-3 13,0 26,2 39,8l0 -22zm-37 34c-5,0 -10,0 -15,1 -4,1 -8,3 -12,6 -4,2 -6,6 -9,10 -2,4 -3,9 -3,15 0,10 3,18 10,22 6,5 14,7 24,7 2,0 5,0 7,0 5,0 9,0 14,0 7,0 14,-1 21,-3l0 -52c-5,-2 -11,-3 -17,-5 -7,-1 -13,-1 -20,-1z"/>
  <path id="124" class="fil4" d="M5196 3553c-5,0 -10,1 -14,2 -5,1 -9,3 -12,6 -3,2 -6,6 -8,9 -2,4 -3,9 -3,14l0 112 -25 0 0 -112c0,-10 2,-18 5,-25 4,-6 9,-12 15,-16 5,-5 12,-8 19,-11 8,-2 15,-3 22,-3 2,0 5,0 7,0 2,1 5,1 7,1l0 24c-2,0 -4,-1 -7,-1 -2,0 -4,0 -6,0z"/>
  <path id="125" class="fil4" d="M5288 3529c9,0 18,1 27,4 9,3 16,8 23,15 6,-7 13,-11 22,-14 8,-3 16,-5 24,-5 9,0 17,1 24,3 8,3 14,6 20,10 5,5 9,10 12,17 3,7 5,15 5,25l0 112 -25 0 0 -114c0,-6 -1,-11 -3,-15 -2,-4 -5,-7 -8,-9 -4,-2 -8,-4 -12,-5 -4,-1 -9,-1 -14,-1 -3,0 -7,1 -11,2 -4,1 -8,2 -11,4 -3,2 -5,5 -8,8 -2,3 -3,6 -3,10l0 120 -24 0 0 -118c0,-5 -1,-9 -4,-12 -2,-3 -4,-6 -8,-8 -4,-2 -8,-3 -12,-4 -5,-1 -10,-2 -15,-2 -5,0 -11,1 -16,2 -5,1 -10,3 -13,6l0 136 -25 0 0 -152c7,-4 16,-8 26,-11 10,-3 19,-4 29,-4z"/>
  <path id="126" class="fil4" d="M5478 3487c0,-6 2,-10 6,-14 3,-3 8,-5 13,-5 5,0 10,2 13,5 4,4 6,8 6,14 0,5 -2,9 -6,13 -3,4 -8,5 -13,5 -5,0 -10,-1 -13,-5 -4,-4 -6,-8 -6,-13zm31 209l-26 0 0 -164 26 0 0 164z"/>
  <path id="127" class="fil4" d="M5604 3676c4,0 8,-1 11,-2 4,-1 7,-3 10,-5 3,-2 5,-5 7,-8 2,-3 2,-7 2,-11 0,-5 -1,-8 -3,-11 -2,-3 -4,-5 -7,-7 -3,-2 -7,-3 -11,-4 -4,-2 -7,-2 -11,-3 -7,-1 -13,-3 -20,-5 -7,-1 -13,-4 -19,-8 -5,-3 -10,-8 -13,-13 -4,-6 -5,-13 -5,-22 0,-9 2,-16 5,-22 4,-6 9,-11 14,-15 6,-4 12,-7 19,-8 7,-2 14,-3 21,-3 9,0 17,2 26,5 9,3 17,8 23,15l-15 18c-5,-6 -11,-9 -17,-11 -5,-3 -11,-4 -17,-4 -3,0 -7,1 -11,1 -4,1 -8,3 -11,4 -4,2 -7,5 -9,8 -2,3 -3,7 -3,11 0,5 1,9 3,12 3,3 6,5 10,7 3,2 7,3 12,4 4,1 8,2 12,2 6,2 12,3 19,5 6,2 12,5 16,9 5,4 9,8 13,14 3,6 4,13 4,21 0,8 -1,15 -4,21 -4,7 -8,12 -13,16 -5,4 -11,7 -18,9 -6,2 -13,3 -20,3 -13,0 -25,-3 -36,-8 -12,-5 -22,-14 -30,-26l19 -13c6,8 13,14 22,18 8,4 17,6 25,6z"/>
  <path id="128" class="fil4" d="M5757 3529c7,0 14,1 21,3 7,2 14,5 19,10 5,4 10,10 13,17 4,7 5,15 5,24l0 113 -25 0 0 -113c0,-5 -1,-10 -3,-14 -2,-3 -5,-7 -8,-9 -4,-3 -8,-4 -12,-6 -5,-1 -10,-2 -14,-2 -7,0 -13,1 -18,2 -6,1 -13,3 -20,7l0 135 -25 0 0 -221 25 0 0 63c7,-3 13,-5 20,-7 7,-1 14,-2 20,-2 1,0 1,0 2,0z"/>
  <path id="129" class="fil4" d="M6076 3531c0,9 -2,17 -5,25 -3,8 -7,15 -14,20 11,6 18,13 22,23 5,9 7,20 7,33 0,11 -2,21 -6,30 -4,8 -10,14 -16,20 -7,5 -15,8 -24,10 -10,3 -20,4 -30,4l-86 0 0 -224 86 0c9,0 17,1 25,4 8,2 15,6 21,11 6,5 11,11 14,18 4,7 6,16 6,26zm-66 33c11,0 21,-2 28,-7 8,-5 12,-14 12,-26 0,-6 -1,-11 -4,-15 -2,-5 -4,-8 -8,-10 -4,-3 -8,-5 -13,-6 -5,-1 -10,-1 -15,-1l-60 0 0 65 60 0zm3 105c6,0 11,0 17,-1 6,-1 11,-3 16,-6 4,-3 7,-7 10,-12 2,-5 3,-11 3,-19 0,-7 -1,-14 -3,-19 -2,-5 -6,-9 -10,-13 -4,-3 -10,-5 -16,-6 -6,-2 -13,-2 -20,-2l-60 0 0 78 60 0c1,0 2,0 3,0z"/>
  <path id="130" class="fil4" d="M6186 3529c7,0 14,1 21,3 7,2 13,5 19,10 5,4 10,10 13,17 3,7 5,15 5,24l0 113 -25 0 0 -113c0,-5 -1,-10 -3,-14 -2,-3 -5,-7 -9,-9 -3,-3 -7,-4 -12,-6 -4,-1 -9,-2 -13,-2 -7,0 -13,1 -19,2 -5,1 -12,3 -19,7l0 135 -26 0 0 -221 26 0 0 63c6,-3 13,-5 20,-7 7,-1 13,-2 20,-2 0,0 1,0 2,0z"/>
  <path id="131" class="fil4" d="M6374 3582c0,-5 -1,-9 -3,-13 -2,-3 -5,-7 -9,-9 -3,-3 -7,-4 -12,-6 -5,-1 -9,-2 -14,-2 -8,0 -15,2 -22,5 -8,2 -14,7 -19,13l-16 -15c8,-9 17,-15 27,-20 11,-4 21,-6 32,-6 7,0 15,1 22,3 8,3 15,6 20,10 6,4 11,10 14,17 4,6 5,14 5,23l0 106c-11,4 -22,7 -34,8 -10,2 -20,3 -30,3 -1,0 -2,0 -3,0 -8,0 -16,-1 -23,-3 -7,-2 -13,-6 -19,-10 -5,-4 -9,-9 -12,-16 -3,-6 -5,-13 -5,-22 0,-9 2,-17 6,-24 3,-6 8,-12 13,-16 6,-4 13,-7 20,-9 7,-2 15,-3 23,-3 14,0 27,2 39,8l0 -22zm-36 34c-5,0 -10,0 -15,1 -5,1 -9,3 -13,6 -3,2 -6,6 -8,10 -2,4 -4,9 -4,15 0,10 4,18 10,22 7,5 15,7 25,7 2,0 4,0 6,0 5,0 10,0 14,0 8,0 14,-1 21,-3l0 -52c-5,-2 -11,-3 -17,-5 -6,-1 -13,-1 -19,-1z"/>
  <path id="132" class="fil4" d="M6493 3699c-8,0 -16,-1 -23,-4 -7,-2 -13,-6 -18,-10 -5,-5 -9,-11 -12,-17 -2,-7 -4,-14 -4,-23l0 -154 25 0 0 41 33 0 0 24 -33 0 0 89c0,5 1,9 3,14 2,4 5,8 8,11 4,3 8,5 13,6 3,1 6,1 9,1 3,0 6,0 9,-1l0 22c-2,0 -3,1 -5,1 -1,0 -3,0 -5,0z"/>
  <path id="133" class="fil4" d="M6583 3699c-8,0 -16,-1 -23,-4 -7,-2 -13,-6 -18,-10 -5,-5 -9,-11 -12,-17 -3,-7 -4,-14 -4,-23l0 -154 25 0 0 41 33 0 0 24 -33 0 0 89c0,5 1,9 3,14 1,4 4,8 8,11 4,3 8,5 13,6 3,1 6,1 9,1 3,0 6,0 9,-1l0 22c-2,0 -4,1 -5,1 -2,0 -3,0 -5,0z"/>
  <path id="134" class="fil4" d="M6615 3675c0,-6 2,-10 5,-14 4,-3 8,-5 13,-5 6,0 10,2 14,5 3,4 5,8 5,14 0,5 -2,9 -5,13 -4,3 -8,5 -14,5 -5,0 -9,-2 -13,-5 -3,-4 -5,-8 -5,-13zm0 -114c0,-5 2,-9 5,-13 4,-4 8,-5 13,-5 6,0 10,1 14,5 3,4 5,8 5,13 0,5 -2,10 -5,13 -4,4 -8,6 -14,6 -5,0 -9,-2 -13,-6 -3,-3 -5,-8 -5,-13z"/>
  <path id="135" class="fil4" d="M6831 3673c8,0 15,-1 21,-3 7,-2 13,-4 19,-7 5,-4 9,-8 12,-13 4,-5 5,-11 5,-18l0 -41c-3,5 -7,9 -11,12 -5,3 -10,6 -15,7 -5,2 -10,3 -15,4 -5,1 -11,1 -16,1 -10,0 -20,-2 -30,-4 -10,-3 -18,-7 -26,-13 -8,-5 -14,-12 -18,-20 -5,-8 -7,-18 -7,-29l0 -14c0,-11 2,-21 7,-29 4,-8 10,-15 18,-20 8,-6 16,-10 26,-13 10,-3 20,-4 30,-4 11,0 21,1 31,4 10,3 18,7 26,12 8,6 14,13 19,21 4,8 7,18 7,29l0 98c0,11 -2,20 -7,28 -5,9 -11,15 -19,21 -8,6 -16,10 -26,12 -10,3 -20,5 -31,5 -8,0 -16,-1 -23,-3 -8,-2 -15,-5 -22,-8 -7,-4 -13,-9 -19,-14 -5,-6 -10,-12 -13,-19l23 -12c5,10 12,18 22,22 10,5 21,8 32,8zm0 -84c8,0 15,-1 21,-2 7,-2 13,-4 19,-8 5,-3 9,-7 12,-12 4,-5 5,-11 5,-18l0 -14c0,-7 -1,-13 -5,-18 -3,-5 -7,-9 -12,-12 -6,-3 -12,-6 -19,-8 -6,-1 -13,-2 -21,-2 -7,0 -14,1 -20,2 -7,2 -13,5 -18,8 -5,3 -10,8 -13,13 -3,5 -4,11 -4,17l0 14c0,7 1,13 4,18 3,5 8,9 13,12 5,4 11,6 18,8 6,1 13,2 20,2z"/>
  <polygon id="136" class="fil4" points="6985,3696 6985,3510 6954,3544 6934,3528 6987,3472 7011,3472 7011,3696 "/>
  <path id="137" class="fil4" d="M7133 3495c-8,0 -15,1 -22,2 -6,2 -12,5 -18,8 -5,3 -9,8 -12,13 -4,5 -5,11 -5,17l0 44c3,-4 7,-8 12,-11 5,-4 10,-6 15,-8 5,-2 10,-4 15,-4 5,-1 10,-2 15,-2 10,0 20,2 30,5 10,2 18,7 26,12 7,6 13,13 18,21 5,8 7,18 7,29l0 13c0,10 -2,20 -7,28 -5,8 -11,15 -18,20 -8,6 -16,10 -26,12 -10,3 -20,4 -30,4 -11,0 -21,-1 -31,-4 -10,-3 -19,-7 -27,-12 -7,-6 -14,-13 -18,-21 -5,-8 -7,-18 -7,-29l0 -97c0,-11 2,-21 7,-29 4,-8 11,-15 18,-21 8,-5 17,-9 27,-12 10,-3 20,-4 31,-4 8,0 15,1 23,3 8,2 15,4 22,8 7,4 13,8 19,14 5,5 10,11 13,19l-23 11c-6,-11 -13,-18 -23,-23 -9,-4 -20,-6 -31,-6zm55 126c0,-7 -2,-13 -5,-18 -3,-5 -7,-9 -12,-12 -5,-4 -11,-6 -18,-8 -6,-2 -13,-3 -20,-3 -8,0 -15,1 -22,3 -6,2 -12,4 -18,8 -5,3 -9,7 -12,12 -4,5 -5,11 -5,18l0 11c0,7 1,13 5,18 3,5 7,9 12,12 6,4 12,6 18,8 7,2 14,2 22,2 7,0 14,0 20,-2 7,-2 13,-4 18,-8 5,-3 9,-7 12,-12 3,-5 5,-11 5,-18l0 -11z"/>
  <polygon id="138" class="fil4" points="7236,3498 7236,3472 7377,3472 7386,3490 7276,3696 7247,3696 7351,3498 "/>
  <path id="139" class="fil4" d="M7537 3640l-18 0 0 55 -26 0 0 -55 -101 0 -17 -23 117 -145 27 0 0 144 18 0 0 24zm-44 -24l1 -107 -86 107 85 0z"/>
  <path id="140" class="fil4" d="M7716 3495c-7,0 -14,1 -21,2 -7,2 -13,5 -18,8 -6,3 -10,8 -13,13 -3,5 -5,11 -5,17l0 44c4,-4 8,-8 13,-11 4,-4 9,-6 14,-8 5,-2 10,-4 15,-4 6,-1 10,-2 15,-2 10,0 20,2 30,5 10,2 19,7 26,12 8,6 14,13 19,21 4,8 7,18 7,29l0 13c0,10 -3,20 -7,28 -5,8 -11,15 -19,20 -7,6 -16,10 -26,12 -10,3 -20,4 -30,4 -10,0 -21,-1 -31,-4 -9,-3 -18,-7 -26,-12 -8,-6 -14,-13 -19,-21 -5,-8 -7,-18 -7,-29l0 -97c0,-11 2,-21 7,-29 5,-8 11,-15 19,-21 8,-5 17,-9 26,-12 10,-3 21,-4 31,-4 8,0 16,1 24,3 7,2 15,4 21,8 7,4 13,8 19,14 6,5 10,11 14,19l-24 11c-5,-11 -13,-18 -22,-23 -9,-4 -20,-6 -32,-6zm55 126c0,-7 -1,-13 -4,-18 -3,-5 -7,-9 -13,-12 -5,-4 -11,-6 -17,-8 -7,-2 -14,-3 -21,-3 -7,0 -14,1 -21,3 -7,2 -13,4 -18,8 -6,3 -10,7 -13,12 -3,5 -5,11 -5,18l0 11c0,7 2,13 5,18 3,5 7,9 13,12 5,4 11,6 18,8 7,2 14,2 21,2 7,0 14,0 21,-2 6,-2 12,-4 17,-8 6,-3 10,-7 13,-12 3,-5 4,-11 4,-18l0 -11z"/>
  <polygon id="141" class="fil4" points="7864,3696 7864,3510 7833,3544 7813,3528 7866,3472 7890,3472 7890,3696 "/>
  <polygon id="142" class="fil4" points="7920,3498 7920,3472 8062,3472 8070,3490 7960,3696 7931,3696 8035,3498 "/>
  <polygon id="143" class="fil4" points="8082,3498 8082,3472 8223,3472 8232,3490 8122,3696 8093,3696 8197,3498 "/>
  <path id="144" class="fil4" d="M8330 3673c7,0 14,-1 21,-3 7,-2 13,-4 18,-7 6,-4 10,-8 13,-13 3,-5 5,-11 5,-18l0 -41c-3,5 -7,9 -12,12 -4,3 -9,6 -14,7 -5,2 -10,3 -16,4 -5,1 -10,1 -15,1 -10,0 -20,-2 -30,-4 -10,-3 -19,-7 -26,-13 -8,-5 -14,-12 -19,-20 -5,-8 -7,-18 -7,-29l0 -14c0,-11 2,-21 7,-29 5,-8 11,-15 19,-20 7,-6 16,-10 26,-13 10,-3 20,-4 30,-4 10,0 20,1 30,4 10,3 19,7 27,12 7,6 13,13 18,21 5,8 7,18 8,29l0 98c0,11 -3,20 -7,28 -5,9 -11,15 -19,21 -8,6 -17,10 -27,12 -10,3 -20,5 -30,5 -8,0 -16,-1 -24,-3 -8,-2 -15,-5 -22,-8 -7,-4 -13,-9 -18,-14 -6,-6 -10,-12 -14,-19l24 -12c5,10 12,18 22,22 10,5 20,8 32,8zm0 -84c7,0 14,-1 21,-2 7,-2 13,-4 18,-8 6,-3 10,-7 13,-12 3,-5 5,-11 5,-18l0 -14c0,-7 -2,-13 -5,-18 -3,-5 -7,-9 -13,-12 -5,-3 -11,-6 -18,-8 -7,-1 -14,-2 -21,-2 -7,0 -14,1 -21,2 -7,2 -13,5 -18,8 -5,3 -9,8 -12,13 -3,5 -5,11 -5,17l0 14c0,7 2,13 5,18 3,5 7,9 12,12 5,4 11,6 18,8 7,1 14,2 21,2z"/>
  <polygon id="145" class="fil4" points="4660,4035 4614,4035 4614,3811 4663,3811 4717,3940 4772,3811 4820,3811 4820,4035 4774,4035 4774,3946 4780,3903 4776,3903 4766,3934 4735,4006 4700,4006 4669,3934 4658,3903 4655,3903 4660,3946 "/>
  <path id="146" class="fil4" d="M4849 3986c0,-9 1,-17 4,-24 4,-7 8,-12 13,-17 6,-4 12,-7 19,-9 7,-2 14,-3 22,-3 9,0 19,2 29,5l0 -12c0,-8 -3,-14 -8,-17 -5,-4 -11,-5 -18,-5 -6,0 -12,1 -18,4 -7,3 -12,7 -16,11l-21 -23c8,-10 17,-17 27,-21 10,-4 20,-6 32,-7 8,0 16,1 23,4 8,2 15,6 21,11 6,4 11,10 14,18 4,7 6,15 6,25l0 100c-10,4 -20,7 -30,9 -11,2 -21,3 -32,3 -23,0 -40,-5 -51,-14 -11,-9 -16,-22 -16,-38zm66 -21c-9,0 -15,2 -19,6 -4,3 -6,8 -6,14 0,6 2,11 6,14 4,4 11,5 20,5 7,0 13,0 18,-2l0 -33c-2,-1 -5,-2 -9,-3 -3,0 -7,-1 -10,-1z"/>
  <path id="147" class="fil4" d="M5072 3868c7,0 14,1 23,3l0 36c-4,-1 -8,-2 -12,-2 -1,0 -1,0 -2,0 -5,0 -10,1 -14,3 -4,2 -8,4 -11,7 -2,3 -4,7 -4,12l0 108 -44 0 0 -109c0,-9 2,-18 6,-25 4,-8 9,-14 15,-18 6,-5 13,-9 21,-11 8,-2 15,-4 22,-4z"/>
  <path id="148" class="fil4" d="M5161 4035l-44 0 0 -223 44 0 0 121 47 -62 52 0 -65 79c10,14 21,28 32,43 12,15 23,29 33,42l-51 0 -45 -60 -3 3 0 57z"/>
  <path id="149" class="fil4" d="M5330 4038c-8,0 -16,-1 -24,-3 -8,-3 -15,-7 -21,-11 -6,-5 -11,-11 -15,-19 -4,-7 -6,-15 -6,-25l0 -54c0,-10 2,-18 6,-26 4,-7 9,-13 15,-18 6,-4 13,-8 21,-10 8,-3 16,-4 25,-4 8,0 15,1 23,3 8,3 14,6 20,10 6,5 11,11 14,18 4,7 6,15 6,25l0 48 -86 0 0 7c0,7 3,12 8,15 5,3 11,5 17,5 5,0 10,-1 15,-3 4,-2 8,-5 10,-10l29 21c-3,6 -7,11 -11,15 -5,4 -10,7 -15,9 -5,3 -10,5 -16,6 -5,1 -10,1 -15,1zm22 -113c0,-6 -2,-10 -6,-13 -5,-3 -10,-4 -15,-4 -6,0 -11,1 -16,4 -4,3 -7,7 -7,13l0 15 44 0 0 -15z"/>
  <path id="150" class="fil4" d="M5471 4038c-1,0 -3,0 -4,0 -9,-1 -18,-4 -25,-8 -6,-5 -12,-12 -16,-20 -4,-9 -6,-20 -6,-32l0 -143 41 0 3 36 29 0 0 41 -29 0 0 65c0,10 3,16 8,19 3,2 7,2 12,2 4,0 8,0 14,-1l0 36c-10,3 -19,5 -27,5z"/>
  <path id="151" class="fil4" d="M5543 3805c8,0 14,3 19,8 6,6 8,12 8,20 0,7 -2,14 -8,19 -5,5 -11,8 -19,8 -7,0 -14,-3 -19,-8 -5,-5 -8,-12 -8,-19 0,-8 3,-14 8,-20 5,-5 12,-8 19,-8zm23 230l-45 0 0 -163 45 0 0 163z"/>
  <path id="152" class="fil4" d="M5659 3868c9,0 18,1 26,4 9,2 17,5 23,10 7,5 12,11 16,18 4,8 6,17 6,28l0 107 -43 0 0 -105c0,-8 -3,-14 -8,-17 -5,-4 -11,-5 -17,-5 -7,0 -13,1 -18,4l0 123 -44 0 0 -152c9,-5 18,-8 28,-11 11,-2 21,-4 31,-4z"/>
  <path id="153" class="fil4" d="M5818 4063c9,0 15,-3 20,-8 5,-5 7,-13 7,-24 -4,3 -8,5 -13,6 -4,1 -9,1 -13,1 -8,0 -15,-1 -23,-3 -7,-2 -13,-6 -19,-10 -5,-5 -10,-10 -13,-17 -3,-6 -5,-14 -5,-23l0 -62c0,-10 2,-18 5,-25 4,-7 9,-13 15,-17 6,-5 14,-8 22,-10 8,-2 16,-3 25,-3 11,0 22,2 33,4 11,3 21,6 30,10l0 153c0,11 -2,20 -5,28 -4,8 -9,15 -15,20 -6,6 -13,10 -21,12 -9,3 -17,4 -27,4 -10,0 -20,-1 -30,-5 -10,-4 -19,-9 -26,-17l20 -26c4,4 9,7 15,9 6,2 12,3 18,3zm8 -161c-6,0 -12,2 -17,5 -5,3 -8,9 -8,15l0 62c1,7 4,11 9,14 6,3 11,5 17,5 7,0 13,-2 18,-4l0 -93c-3,-1 -6,-2 -9,-3 -4,-1 -7,-1 -10,-1z"/>
  <path id="154" class="fil4" d="M4644 4378l-26 0 0 -224 26 0 0 113 115 -113 35 0 -108 108c8,9 17,18 26,28 9,10 18,20 27,30 10,10 19,20 28,30 9,10 17,19 25,28l-34 0 -91 -97 -23 23 0 74z"/>
  <path id="155" class="fil4" d="M4901 4264c0,-5 -1,-9 -3,-13 -3,-3 -5,-7 -9,-9 -4,-3 -8,-4 -12,-6 -5,-1 -10,-2 -15,-2 -7,0 -14,2 -22,5 -7,2 -13,7 -18,13l-16 -15c8,-9 17,-15 27,-20 11,-4 21,-6 31,-6 8,0 16,1 23,3 8,3 14,6 20,10 6,4 11,10 14,17 3,6 5,14 5,23l0 106c-11,4 -23,7 -34,8 -10,2 -20,3 -30,3 -1,0 -2,0 -3,0 -9,0 -16,-1 -23,-3 -8,-2 -14,-6 -19,-10 -5,-4 -9,-9 -12,-16 -3,-6 -5,-13 -5,-22 0,-9 2,-17 5,-24 4,-6 8,-12 14,-16 6,-4 12,-7 20,-9 7,-2 15,-3 23,-3 13,0 27,2 39,8l0 -22zm-37 34c-5,0 -10,0 -14,1 -5,1 -9,3 -13,6 -3,2 -6,6 -9,10 -2,4 -3,9 -3,15 0,10 3,18 10,22 6,5 15,7 24,7 3,0 5,0 7,0 5,0 9,0 14,0 7,0 14,-1 21,-3l0 -52c-5,-2 -11,-3 -17,-5 -6,-1 -13,-1 -20,-1z"/>
  <polygon id="156" class="fil4" points="5031,4309 5064,4214 5090,4214 5032,4378 5002,4378 4944,4214 4970,4214 5003,4310 5017,4355 5018,4355 "/>
  <path id="157" class="fil4" d="M5175 4414c5,0 10,-1 15,-2 5,-1 9,-2 13,-5 4,-2 7,-5 9,-9 2,-4 3,-9 3,-15l0 -12c-5,4 -11,6 -18,7 -7,2 -14,3 -21,3 -8,0 -16,-1 -24,-4 -7,-2 -14,-6 -20,-11 -6,-4 -11,-10 -15,-17 -4,-7 -5,-15 -5,-24l0 -111 25 0 0 111c0,5 2,10 4,14 2,3 5,7 8,9 4,3 8,5 13,6 4,2 9,3 14,3 13,0 26,-3 39,-8l0 -135 26 0 0 169c0,10 -2,18 -6,25 -3,7 -8,13 -14,17 -6,5 -13,8 -20,10 -8,3 -16,4 -24,4 -11,0 -22,-3 -32,-7 -11,-4 -20,-10 -27,-19l17 -15c4,5 10,9 18,12 7,3 15,4 22,4z"/>
  <path id="158" class="fil4" d="M5372 4264c0,-5 -1,-9 -3,-13 -2,-3 -5,-7 -9,-9 -4,-3 -8,-4 -12,-6 -5,-1 -10,-2 -14,-2 -8,0 -15,2 -23,5 -7,2 -13,7 -18,13l-16 -15c8,-9 17,-15 27,-20 11,-4 21,-6 31,-6 8,0 16,1 23,3 8,3 14,6 20,10 6,4 11,10 14,17 4,6 5,14 5,23l0 106c-11,4 -22,7 -34,8 -10,2 -20,3 -30,3 -1,0 -2,0 -3,0 -8,0 -16,-1 -23,-3 -7,-2 -14,-6 -19,-10 -5,-4 -9,-9 -12,-16 -3,-6 -5,-13 -5,-22 0,-9 2,-17 6,-24 3,-6 8,-12 13,-16 6,-4 12,-7 20,-9 7,-2 15,-3 23,-3 14,0 27,2 39,8l0 -22zm-37 34c-5,0 -10,0 -14,1 -5,1 -9,3 -13,6 -3,2 -6,6 -8,10 -3,4 -4,9 -4,15 0,10 4,18 10,22 7,5 15,7 24,7 3,0 5,0 7,0 5,0 10,0 14,0 7,0 14,-1 21,-3l0 -52c-5,-2 -11,-3 -17,-5 -6,-1 -13,-1 -20,-1z"/>
  <path id="159" class="fil4" d="M5505 4154l85 0c13,0 24,2 33,6 9,4 17,10 23,17 7,6 11,14 15,23 3,8 4,17 4,26 0,9 -1,18 -4,26 -4,9 -8,16 -15,23 -6,7 -14,12 -23,16 -9,4 -20,6 -33,6l-59 0 0 81 -26 0 0 -224zm85 117c8,0 15,-2 22,-4 6,-3 11,-6 15,-10 4,-4 7,-9 9,-15 2,-5 3,-10 3,-16 0,-6 -1,-11 -3,-17 -2,-5 -5,-10 -9,-14 -4,-5 -10,-8 -16,-11 -6,-2 -13,-3 -21,-3l-59 0 0 90 59 0z"/>
  <path id="160" class="fil4" d="M5755 4381c-8,0 -15,-1 -23,-4 -7,-2 -14,-5 -19,-10 -6,-4 -11,-10 -14,-17 -4,-7 -6,-14 -6,-23l0 -113 25 0 0 113c0,5 1,9 4,13 2,3 4,6 8,9 3,2 7,4 12,6 4,1 8,2 13,2 7,0 14,-1 21,-1 6,-1 12,-3 18,-5l0 -137 25 0 0 155c-8,3 -15,5 -21,6 -6,2 -12,3 -17,4 -6,1 -10,1 -15,2 -4,0 -8,0 -11,0z"/>
  <path id="161" class="fil4" d="M5920 4235c-6,0 -10,1 -15,2 -4,1 -8,3 -11,6 -4,2 -6,6 -8,9 -2,4 -3,9 -3,14l0 112 -26 0 0 -112c0,-10 2,-18 6,-25 4,-6 8,-12 14,-16 6,-5 13,-8 20,-11 7,-2 14,-3 22,-3 2,0 4,0 7,0 2,1 4,1 7,1l0 24c-3,0 -5,-1 -7,-1 -2,0 -4,0 -6,0z"/>
  <path id="162" class="fil4" d="M6018 4381c-8,0 -16,-1 -23,-4 -7,-2 -14,-5 -20,-10 -6,-4 -10,-10 -14,-17 -3,-7 -5,-14 -5,-23l0 -113 25 0 0 113c0,5 1,9 3,13 2,3 5,6 9,9 3,2 7,4 11,6 5,1 9,2 14,2 7,0 14,-1 20,-1 7,-1 13,-3 18,-5l0 -137 26 0 0 155c-8,3 -15,5 -21,6 -7,2 -12,3 -18,4 -5,1 -10,1 -14,2 -4,0 -8,0 -11,0z"/>
  <path id="163" class="fil4" d="M6176 4357c3,0 7,0 11,-1 3,-1 6,-3 9,-5 3,-3 6,-5 7,-8 2,-3 3,-7 3,-11 0,-5 -1,-8 -3,-11 -2,-3 -5,-5 -8,-7 -3,-2 -6,-3 -10,-4 -4,-2 -8,-2 -11,-3 -7,-1 -14,-3 -21,-5 -7,-1 -13,-4 -18,-8 -6,-3 -10,-8 -14,-13 -3,-6 -5,-13 -5,-22 0,-9 2,-16 6,-22 3,-6 8,-11 14,-15 5,-4 12,-7 19,-8 7,-2 14,-3 21,-3 8,0 17,2 26,5 8,3 16,8 23,15l-16 18c-5,-6 -10,-9 -16,-11 -6,-3 -12,-4 -17,-4 -4,0 -8,1 -12,1 -4,1 -8,3 -11,4 -3,2 -6,5 -9,8 -2,3 -3,7 -3,11 0,5 1,9 4,12 2,3 6,5 9,7 4,2 8,3 12,4 5,1 9,2 12,2 6,2 13,3 19,5 6,2 12,5 17,9 5,4 9,8 12,14 3,6 5,13 5,21 0,8 -2,15 -5,21 -3,6 -7,12 -12,16 -6,4 -11,7 -18,9 -7,2 -13,3 -20,3 -13,0 -25,-3 -37,-8 -11,-5 -21,-14 -29,-26l19 -13c5,8 12,14 21,18 9,4 17,5 26,5z"/>
  <path id="164" class="fil4" d="M6329 4211c7,0 14,1 20,3 8,2 14,5 20,10 5,4 9,10 13,17 3,7 5,15 5,24l0 113 -25 0 0 -113c0,-5 -1,-10 -3,-14 -3,-3 -5,-7 -9,-9 -3,-3 -7,-4 -12,-6 -4,-1 -9,-2 -14,-2 -6,0 -12,1 -18,2 -6,1 -12,3 -20,7l0 135 -25 0 0 -221 25 0 0 63c7,-3 14,-5 21,-7 7,-1 13,-2 20,-2 0,0 1,0 2,0z"/>
  <path id="165" class="fil4" d="M6421 4266c0,-9 1,-17 5,-24 4,-7 9,-13 14,-17 6,-5 13,-8 21,-11 7,-2 15,-3 23,-3 8,0 16,1 23,3 8,3 14,6 20,11 6,4 11,10 15,17 3,7 5,15 5,24l0 60c0,10 -2,17 -5,24 -4,7 -9,13 -15,17 -6,5 -12,8 -20,10 -7,3 -15,4 -23,4 -8,0 -16,-1 -23,-4 -8,-2 -15,-5 -21,-10 -5,-4 -10,-10 -14,-17 -4,-7 -5,-14 -5,-24l0 -60zm63 -31c-5,0 -9,1 -14,2 -4,1 -8,3 -12,5 -4,3 -7,6 -9,10 -2,4 -3,8 -3,13l0 62c0,5 1,9 3,13 2,4 5,7 9,9 4,3 8,5 12,6 5,1 9,2 14,2 4,0 9,-1 13,-2 5,-1 9,-3 12,-6 4,-2 7,-5 9,-9 3,-4 4,-8 4,-13l0 -62c0,-5 -1,-9 -4,-13 -2,-4 -5,-7 -9,-10 -3,-2 -7,-4 -12,-5 -4,-1 -9,-2 -13,-2z"/>
  <path id="166" class="fil4" d="M6638 4381c-8,0 -16,-1 -23,-4 -7,-2 -13,-6 -18,-10 -5,-5 -9,-11 -12,-17 -3,-7 -4,-14 -4,-23l0 -154 25 0 0 41 33 0 0 24 -33 0 0 89c0,5 1,9 3,14 2,4 4,8 8,11 4,3 8,5 13,6 3,1 6,1 9,1 3,0 6,0 9,-1l0 22c-2,0 -3,1 -5,1 -2,0 -3,0 -5,0z"/>
  <path id="167" class="fil4" d="M6740 4211c6,0 13,1 20,3 7,2 14,5 19,10 6,4 10,10 14,17 3,7 5,15 5,24l0 113 -25 0 0 -113c0,-5 -1,-10 -4,-14 -2,-3 -5,-7 -8,-9 -4,-3 -8,-4 -12,-6 -5,-1 -9,-2 -14,-2 -6,0 -13,1 -18,2 -6,1 -12,3 -20,7l0 135 -25 0 0 -221 25 0 0 63c7,-3 14,-5 21,-7 6,-1 13,-2 19,-2 1,0 2,0 3,0z"/>
  <path id="168" class="fil4" d="M6928 4264c0,-5 -1,-9 -4,-13 -2,-3 -5,-7 -8,-9 -4,-3 -8,-4 -13,-6 -4,-1 -9,-2 -14,-2 -7,0 -15,2 -22,5 -7,2 -13,7 -18,13l-16 -15c8,-9 17,-15 27,-20 10,-4 21,-6 31,-6 8,0 15,1 23,3 7,3 14,6 20,10 6,4 10,10 14,17 3,6 5,14 5,23l0 106c-11,4 -23,7 -34,8 -10,2 -20,3 -30,3 -1,0 -3,0 -4,0 -8,0 -16,-1 -23,-3 -7,-2 -13,-6 -18,-10 -5,-4 -9,-9 -12,-16 -3,-6 -5,-13 -5,-22 0,-9 2,-17 5,-24 4,-6 8,-12 14,-16 6,-4 12,-7 19,-9 8,-2 16,-3 24,-3 13,0 26,2 39,8l0 -22zm-37 34c-5,0 -10,0 -15,1 -4,1 -9,3 -12,6 -4,2 -7,6 -9,10 -2,4 -3,9 -3,15 0,10 3,18 10,22 6,5 14,7 24,7 2,0 5,0 7,0 5,0 9,0 14,0 7,0 14,-1 21,-3l0 -52c-5,-2 -11,-3 -17,-5 -7,-1 -13,-1 -20,-1z"/>
  <path id="169" class="fil4" d="M7046 4211c9,0 18,1 26,4 9,3 17,8 23,15 6,-7 13,-11 22,-14 8,-3 17,-5 24,-5 9,0 17,1 25,3 7,3 14,6 19,10 5,5 10,10 13,17 3,7 4,15 4,25l0 112 -25 0 0 -114c0,-6 -1,-11 -3,-15 -2,-4 -5,-7 -8,-9 -3,-2 -7,-4 -12,-5 -4,-1 -9,-1 -13,-1 -4,0 -8,1 -12,2 -4,1 -7,2 -10,4 -3,2 -6,5 -8,8 -2,3 -3,6 -3,10l0 120 -25 0 0 -118c0,-5 -1,-9 -3,-12 -2,-3 -5,-6 -9,-8 -3,-2 -7,-3 -12,-4 -4,-1 -9,-2 -14,-2 -6,0 -11,1 -17,2 -5,1 -9,3 -13,6l0 136 -25 0 0 -152c8,-4 16,-8 26,-11 10,-3 20,-4 30,-4z"/>
  <path id="170" class="fil4" d="M7332 4264c0,-5 -1,-9 -3,-13 -2,-3 -5,-7 -9,-9 -3,-3 -7,-4 -12,-6 -4,-1 -9,-2 -14,-2 -7,0 -15,2 -22,5 -8,2 -14,7 -18,13l-16 -15c7,-9 16,-15 27,-20 10,-4 21,-6 31,-6 8,0 15,1 23,3 7,3 14,6 20,10 5,4 10,10 14,17 3,6 5,14 5,23l0 106c-12,4 -23,7 -34,8 -10,2 -20,3 -30,3 -2,0 -3,0 -4,0 -8,0 -16,-1 -23,-3 -7,-2 -13,-6 -18,-10 -6,-4 -10,-9 -13,-16 -3,-6 -4,-13 -4,-22 0,-9 1,-17 5,-24 3,-6 8,-12 14,-16 5,-4 12,-7 19,-9 8,-2 15,-3 23,-3 14,0 27,2 39,8l0 -22zm-36 34c-5,0 -10,0 -15,1 -5,1 -9,3 -12,6 -4,2 -7,6 -9,10 -2,4 -3,9 -3,15 0,10 3,18 9,22 7,5 15,7 25,7 2,0 4,0 7,0 4,0 9,0 14,0 7,0 14,-1 20,-3l0 -52c-5,-2 -10,-3 -17,-5 -6,-1 -12,-1 -19,-1z"/>
  <path id="171" class="fil4" d="M7520 4265l0 113 -25 0 0 -114c0,-5 -1,-10 -3,-13 -2,-4 -5,-7 -8,-10 -4,-2 -8,-4 -12,-5 -4,-1 -9,-2 -13,-2 -8,0 -15,1 -22,3 -6,1 -12,3 -17,5l0 136 -25 0 0 -153c11,-4 21,-7 32,-10 11,-3 21,-4 32,-4 8,0 15,1 22,4 8,2 14,5 20,10 6,4 11,10 14,16 4,7 5,15 5,24z"/>
  <path id="172" class="fil4" d="M7558 4357c0,-6 1,-10 5,-14 4,-3 8,-5 13,-5 5,0 10,2 13,5 4,4 6,8 6,14 0,5 -2,9 -6,13 -3,3 -8,5 -13,5 -5,0 -9,-2 -13,-5 -4,-4 -5,-8 -5,-13zm0 -114c0,-5 1,-9 5,-13 4,-4 8,-5 13,-5 5,0 10,1 13,5 4,4 6,8 6,13 0,5 -2,10 -6,13 -3,4 -8,6 -13,6 -5,0 -9,-2 -13,-6 -4,-3 -5,-8 -5,-13z"/>
  <path id="173" class="fil4" d="M7774 4355c7,0 14,-1 21,-3 7,-2 13,-4 18,-7 6,-4 10,-8 13,-13 3,-5 5,-11 5,-18l0 -41c-3,5 -7,9 -12,12 -4,3 -9,6 -14,7 -5,2 -10,3 -15,4 -6,1 -11,1 -16,1 -10,0 -20,-2 -30,-4 -10,-3 -18,-7 -26,-13 -8,-5 -14,-12 -19,-20 -4,-8 -7,-18 -7,-29l0 -14c0,-11 3,-21 7,-29 5,-8 11,-15 19,-20 8,-6 16,-10 26,-13 10,-3 20,-4 30,-4 11,0 21,1 30,4 10,3 19,7 27,12 8,6 14,13 18,21 5,8 8,18 8,29l0 98c0,11 -2,20 -7,28 -5,8 -11,15 -19,21 -8,6 -17,10 -27,12 -9,3 -19,5 -30,5 -8,0 -16,-1 -23,-3 -8,-2 -16,-5 -22,-9 -7,-3 -13,-8 -19,-13 -5,-6 -10,-12 -13,-19l23 -12c5,10 12,18 22,22 10,5 21,8 32,8zm0 -84c7,0 14,-1 21,-2 7,-2 13,-4 18,-8 6,-3 10,-7 13,-12 3,-5 5,-11 5,-18l0 -14c0,-7 -2,-13 -5,-18 -3,-5 -7,-9 -13,-12 -5,-3 -11,-6 -18,-8 -7,-1 -14,-2 -21,-2 -7,0 -14,1 -21,2 -6,2 -12,5 -17,8 -6,3 -10,8 -13,13 -3,5 -4,11 -4,17l0 14c0,7 1,13 4,18 3,5 7,9 13,12 5,4 11,6 17,8 7,1 14,2 21,2z"/>
  <path id="174" class="fil4" d="M7969 4355c7,0 14,-1 21,-3 7,-2 13,-4 18,-7 6,-4 10,-8 13,-13 3,-5 5,-11 5,-18l0 -41c-3,5 -7,9 -12,12 -4,3 -9,6 -14,7 -5,2 -10,3 -16,4 -5,1 -10,1 -15,1 -10,0 -20,-2 -30,-4 -10,-3 -19,-7 -26,-13 -8,-5 -14,-12 -19,-20 -4,-8 -7,-18 -7,-29l0 -14c0,-11 3,-21 7,-29 5,-8 11,-15 19,-20 7,-6 16,-10 26,-13 10,-3 20,-4 30,-4 10,0 20,1 30,4 10,3 19,7 27,12 7,6 14,13 18,21 5,8 8,18 8,29l0 98c0,11 -3,20 -7,28 -5,8 -11,15 -19,21 -8,6 -17,10 -27,12 -10,3 -20,5 -30,5 -8,0 -16,-1 -24,-3 -7,-2 -15,-5 -22,-9 -6,-3 -13,-8 -18,-13 -6,-6 -10,-12 -14,-19l24 -12c5,10 12,18 22,22 10,5 20,8 32,8zm0 -84c7,0 14,-1 21,-2 7,-2 13,-4 18,-8 6,-3 10,-7 13,-12 3,-5 5,-11 5,-18l0 -14c0,-7 -2,-13 -5,-18 -3,-5 -7,-9 -13,-12 -5,-3 -11,-6 -18,-8 -7,-1 -14,-2 -21,-2 -7,0 -14,1 -21,2 -7,2 -13,5 -18,8 -5,3 -9,8 -12,13 -3,5 -5,11 -5,17l0 14c0,7 2,13 5,18 3,5 7,9 12,12 5,4 11,6 18,8 7,1 14,2 21,2z"/>
  <path id="175" class="fil4" d="M8169 4177c-7,0 -14,1 -21,2 -6,2 -12,5 -18,8 -5,3 -9,8 -13,13 -3,5 -4,11 -4,17l0 44c3,-4 7,-8 12,-11 5,-4 9,-6 14,-8 6,-2 11,-4 16,-4 5,-1 10,-2 14,-2 11,0 21,2 31,5 9,2 18,7 26,12 7,6 13,13 18,21 5,8 7,18 7,29l0 13c0,10 -2,20 -7,28 -5,8 -11,15 -18,20 -8,6 -17,10 -26,12 -10,3 -20,4 -31,4 -10,0 -20,-1 -30,-4 -10,-3 -19,-7 -27,-12 -7,-6 -14,-13 -18,-21 -5,-8 -8,-18 -8,-29l0 -97c0,-11 3,-21 8,-29 4,-8 11,-15 18,-21 8,-5 17,-9 27,-12 10,-3 20,-4 30,-4 8,0 16,1 24,3 8,2 15,4 22,8 7,4 13,8 18,14 6,5 11,11 14,19l-24 11c-5,-11 -12,-18 -22,-23 -9,-4 -20,-6 -32,-6zm56 126c0,-7 -2,-13 -5,-18 -3,-5 -7,-9 -12,-12 -5,-4 -11,-6 -18,-8 -6,-2 -13,-3 -21,-3 -7,0 -14,1 -21,3 -6,2 -12,4 -18,8 -5,3 -9,7 -13,12 -3,5 -4,11 -4,18l0 11c0,7 1,13 4,18 4,5 8,9 13,12 6,4 12,6 18,8 7,1 14,2 21,2 8,0 15,-1 21,-2 7,-2 13,-4 18,-8 5,-3 9,-7 12,-12 3,-5 5,-11 5,-18l0 -11z"/>
  <path id="176" class="fil4" d="M8359 4355c7,0 14,-1 21,-3 6,-2 13,-4 18,-7 5,-4 10,-8 13,-13 3,-5 4,-11 4,-18l0 -41c-3,5 -7,9 -11,12 -5,3 -9,6 -14,7 -5,2 -11,3 -16,4 -5,1 -10,1 -15,1 -11,0 -21,-2 -31,-4 -9,-3 -18,-7 -26,-13 -7,-5 -14,-12 -18,-20 -5,-8 -7,-18 -7,-29l0 -14c0,-11 2,-21 7,-29 4,-8 11,-15 18,-20 8,-6 17,-10 26,-13 10,-3 20,-4 31,-4 10,0 20,1 30,4 10,3 19,7 26,12 8,6 14,13 19,21 5,8 7,18 7,29l0 98c0,11 -2,20 -7,28 -4,8 -11,15 -19,21 -7,6 -16,10 -26,12 -10,3 -20,5 -30,5 -8,0 -16,-1 -24,-3 -8,-2 -15,-5 -22,-9 -7,-3 -13,-8 -18,-13 -6,-6 -10,-12 -14,-19l24 -12c4,10 12,18 21,22 10,5 21,8 33,8zm0 -84c7,0 14,-1 21,-2 6,-2 13,-4 18,-8 5,-3 10,-7 13,-12 3,-5 4,-11 4,-18l0 -14c0,-7 -1,-13 -4,-18 -3,-5 -8,-9 -13,-12 -5,-3 -12,-6 -18,-8 -7,-1 -14,-2 -21,-2 -8,0 -14,1 -21,2 -7,2 -13,5 -18,8 -5,3 -9,8 -12,13 -3,5 -5,11 -5,17l0 14c0,7 2,13 5,18 3,5 7,9 12,12 5,4 11,6 18,8 7,1 13,2 21,2z"/>
  <polygon id="177" class="fil4" points="8512,4378 8512,4192 8481,4226 8461,4210 8514,4154 8538,4154 8538,4378 "/>
  <path id="178" class="fil4" d="M8643 4315l0 -98c0,-12 3,-21 7,-30 5,-8 11,-15 19,-20 8,-5 17,-9 26,-12 10,-3 19,-4 29,-4 9,0 19,1 29,4 9,3 18,7 25,12 8,5 14,12 19,20 5,9 7,18 7,30l0 98c0,12 -2,21 -7,30 -5,8 -11,15 -19,20 -7,5 -16,9 -25,12 -10,3 -20,4 -29,4 -10,0 -19,-1 -29,-4 -9,-3 -18,-7 -26,-12 -8,-5 -14,-12 -19,-20 -4,-9 -7,-18 -7,-30zm26 1c0,7 2,13 5,18 4,6 8,10 13,13 6,3 11,5 18,7 6,1 13,2 19,2 6,0 13,-1 19,-2 6,-2 12,-4 18,-7 5,-3 9,-7 13,-13 3,-5 5,-11 5,-18l0 -99c0,-8 -2,-14 -5,-19 -4,-5 -8,-9 -13,-12 -6,-3 -12,-6 -18,-7 -6,-1 -13,-2 -19,-2 -6,0 -13,1 -19,2 -7,1 -12,4 -18,7 -5,3 -9,7 -13,12 -3,5 -5,11 -5,19l0 99z"/>
  <path id="179" class="fil4" d="M8913 4177c-13,0 -24,3 -34,8 -10,6 -17,14 -22,24l-23 -10c7,-16 17,-28 32,-36 14,-8 30,-12 47,-12 12,0 22,2 31,5 9,4 17,8 23,14 7,6 12,13 15,20 4,8 5,16 5,24 0,9 -2,19 -7,29 -5,10 -12,19 -20,28l-81 80 108 0 0 26 -146 0 -8 -19 108 -105c7,-6 12,-13 15,-20 3,-6 5,-13 5,-19 0,-5 -1,-10 -3,-14 -3,-5 -6,-9 -10,-12 -4,-3 -9,-6 -15,-8 -6,-2 -13,-3 -20,-3z"/>
  <path id="180" class="fil4" d="M9091 4356c7,0 14,-1 21,-3 6,-2 12,-5 17,-8 5,-4 9,-8 12,-13 3,-5 5,-11 5,-18 0,-16 -4,-27 -13,-34 -8,-7 -20,-10 -34,-10 -1,0 -1,0 -2,0l-21 0 0 -23 21 0c12,0 21,-3 28,-9 8,-6 11,-15 11,-26 0,-6 -1,-12 -3,-16 -3,-5 -6,-8 -11,-11 -4,-3 -9,-5 -14,-7 -5,-1 -11,-2 -17,-2 -10,0 -19,2 -28,7 -9,4 -16,11 -21,20l-22 -12c3,-6 7,-12 12,-17 6,-5 11,-10 18,-13 6,-3 13,-6 20,-7 7,-2 14,-3 21,-3 10,0 18,1 27,4 8,2 16,6 22,11 7,5 12,12 16,19 4,8 6,17 6,27 0,4 -1,9 -2,13 -1,5 -2,9 -4,13 -2,4 -5,8 -8,11 -3,3 -7,6 -12,8 13,4 22,12 27,22 6,11 9,23 9,35 0,11 -3,21 -7,29 -5,9 -11,16 -18,21 -8,6 -16,10 -26,13 -10,2 -19,4 -30,4 -8,0 -16,-1 -24,-3 -8,-2 -15,-5 -22,-9 -7,-3 -14,-8 -20,-14 -6,-5 -10,-12 -14,-20l24 -11c2,5 5,10 9,13 4,4 9,8 14,10 5,3 10,5 16,6 6,2 12,3 17,3z"/>
  <path id="181" class="fil4" d="M9279 4381c-10,0 -20,-2 -30,-4 -9,-3 -18,-7 -25,-13 -8,-6 -14,-13 -18,-21 -5,-8 -7,-18 -8,-29 0,-12 3,-23 9,-33 6,-10 15,-18 27,-23 -4,-2 -8,-4 -11,-7 -3,-3 -6,-7 -8,-11 -2,-4 -4,-8 -5,-12 -1,-4 -2,-9 -2,-13 0,-10 2,-19 6,-27 5,-7 10,-14 16,-19 7,-5 14,-9 23,-11 8,-3 17,-4 26,-4l6 0c9,0 17,1 26,4 8,2 16,6 22,11 7,5 12,12 16,19 4,8 6,17 6,27 0,5 0,9 -1,13 -1,5 -3,9 -5,12 -2,4 -4,8 -7,11 -3,3 -7,5 -11,7 6,2 11,5 15,9 4,4 8,8 11,13 3,5 5,10 6,16 2,6 3,12 3,18 -1,11 -3,20 -8,29 -4,8 -10,15 -18,20 -8,6 -16,10 -26,13 -9,2 -19,4 -29,5l-6 0zm0 -202c-6,0 -11,1 -17,2 -5,2 -10,4 -14,7 -4,3 -8,7 -10,11 -3,5 -4,10 -4,16 0,7 1,13 4,17 2,4 6,7 10,10 4,2 9,3 15,4 5,1 11,1 16,1l6 0c5,0 11,0 16,-1 5,-1 10,-2 14,-4 5,-3 8,-6 11,-10 3,-4 4,-10 4,-17 0,-6 -1,-11 -4,-16 -2,-4 -6,-8 -10,-11 -4,-3 -9,-5 -15,-7 -5,-1 -11,-2 -16,-2l-6 0zm6 176c6,0 12,-1 19,-2 6,-2 12,-4 17,-8 6,-3 10,-7 14,-12 3,-6 5,-12 5,-20 0,-8 -2,-15 -5,-21 -3,-6 -7,-10 -12,-14 -5,-3 -11,-5 -18,-6 -6,-2 -13,-2 -20,-2l-6 0c-7,0 -14,0 -21,2 -6,1 -12,3 -17,6 -5,4 -9,8 -12,14 -3,6 -5,13 -5,21 0,8 2,14 5,20 3,5 8,9 13,12 6,4 11,6 18,8 6,1 13,2 19,2l6 0z"/>
  <path id="182" class="fil4" d="M9469 4354c7,0 14,-1 21,-3 6,-2 12,-5 17,-9 6,-3 10,-8 13,-14 3,-6 5,-12 5,-19l0 -10c0,-7 -2,-14 -5,-19 -3,-5 -7,-10 -12,-13 -5,-4 -10,-7 -17,-8 -6,-2 -13,-3 -20,-3 -11,0 -20,1 -29,3 -8,2 -18,5 -28,10l-14 1 0 -116 139 0 0 27 -113 0 0 57c7,-3 15,-5 22,-7 6,-1 13,-2 20,-2 1,0 2,0 3,0 10,0 19,2 29,5 9,3 18,7 25,13 8,5 14,13 18,21 5,9 7,19 8,30l0 11c0,11 -3,21 -8,30 -4,9 -11,17 -18,23 -8,6 -17,11 -26,14 -10,3 -20,5 -30,5 -8,0 -16,-1 -23,-3 -8,-2 -15,-5 -22,-9 -7,-3 -13,-8 -19,-14 -6,-5 -10,-12 -14,-19l24 -11c5,10 12,17 22,22 11,5 21,7 32,7z"/>
 </g>
</svg>
