<?xml version="1.0" encoding="UTF-8"?>
<!DOCTYPE svg PUBLIC "-//W3C//DTD SVG 1.1//EN" "http://www.w3.org/Graphics/SVG/1.1/DTD/svg11.dtd">
<!-- Creator: CorelDRAW 2018 -->
<svg xmlns="http://www.w3.org/2000/svg" xml:space="preserve" width="297mm" height="210mm" version="1.1" style="shape-rendering:geometricPrecision; text-rendering:geometricPrecision; image-rendering:optimizeQuality; fill-rule:evenodd; clip-rule:evenodd"
viewBox="0 0 29700 21000"
 xmlns:xlink="http://www.w3.org/1999/xlink">
 <defs>
  <style type="text/css">
   <![CDATA[
    .fil2 {fill:none;fill-rule:nonzero}
    .fil6 {fill:#434242}
    .fil8 {fill:#76B94A}
    .fil9 {fill:#4D6F91}
    .fil12 {fill:#1F1B20}
    .fil10 {fill:#00A0E3}
    .fil7 {fill:#009846}
    .fil5 {fill:#434242;fill-rule:nonzero}
    .fil1 {fill:#76B94A;fill-rule:nonzero}
    .fil3 {fill:#4D6F91;fill-rule:nonzero}
    .fil11 {fill:#252422;fill-rule:nonzero}
    .fil4 {fill:#00A0E3;fill-rule:nonzero}
    .fil0 {fill:#009846;fill-rule:nonzero}
   ]]>
  </style>
      <clipPath id="id0" style="clip-rule:nonzero">
       <path d="M16369.21 9632.39c0,-769.08 156.84,-1360.93 471.8,-1778.12 314.93,-417.2 758.76,-625.13 1333.93,-625.13 144.1,0 280.05,13.14 407.82,39.43 -598.89,388.49 -1009.72,1186.63 -1009.72,2108.28l0 0.64 0 0.3c0,478.08 -12.49,952.27 -12.49,1431.3 0,390.79 48.28,682.29 144.84,875.78 96.58,192.22 249.85,288.96 459.89,288.96 194.43,0 337.91,-80.02 431.49,-241.09 -160.01,488.59 -460.07,900.03 -844.88,1171.66 -375.49,-76.23 -679.71,-263.18 -913.14,-561.42 -312.62,-400.97 -469.53,-966.17 -469.53,-1698.1 0,-337.51 -0.01,-674.98 -0.01,-1012.49z"/>
      </clipPath>
      <clipPath id="id1" style="clip-rule:nonzero">
       <path d="M20067.55 10672.09c0,769.08 -164.83,1360.92 -495.82,1778.12 -330.97,417.2 -797.41,625.13 -1401.86,625.13 -151.43,0 -294.31,-13.14 -428.59,-39.44 629.39,-388.48 1061.15,-1186.62 1061.15,-2108.27l0 -0.64 0 -0.31c0,-478.82 8.72,-951.9 8.72,-1431.29 0,-390.79 -50.93,-682.29 -152.76,-875.78 -101.83,-192.22 -263.49,-288.96 -484.98,-288.96 -205.06,0 -356.37,80.02 -455.07,241.09 168.74,-488.59 485.21,-900.03 891.03,-1171.66 395.99,76.23 716.83,263.18 962.99,561.42 329.69,400.97 495.18,966.16 495.18,1698.1 0,337.51 0.01,674.98 0.01,1012.49z"/>
      </clipPath>
 </defs>
 <g id="Layer_x0020_1">
  <metadata id="CorelCorpID_0Corel-Layer"/>
  <g id="_-1514319136">
   <g>
    <g>
     <path class="fil0" d="M16369.21 9632.39c0,-769.08 156.84,-1360.93 471.8,-1778.12 314.93,-417.2 758.76,-625.13 1333.93,-625.13 144.1,0 280.05,13.14 407.82,39.43 -598.89,388.49 -1009.72,1186.63 -1009.72,2108.28l0 0.64 0 0.3c0,478.08 -12.49,952.27 -12.49,1431.3 0,390.79 48.28,682.29 144.84,875.78 96.58,192.22 249.85,288.96 459.89,288.96 194.43,0 337.91,-80.02 431.49,-241.09 -160.01,488.59 -460.07,900.03 -844.88,1171.66 -375.49,-76.23 -679.71,-263.18 -913.14,-561.42 -312.62,-400.97 -469.53,-966.17 -469.53,-1698.1 0,-337.51 -0.01,-674.98 -0.01,-1012.49z"/>
     <g style="clip-path:url(#id0)">
      <g>
       <path id="1" class="fil1" d="M16223.05 9799.29c0,-851.69 156.84,-1507.1 471.8,-1969.1 314.93,-462.02 758.77,-692.28 1333.93,-692.28 144.1,0 280.05,14.55 407.82,43.67 -598.89,430.21 -1009.72,1314.09 -1009.72,2334.73l0 0.7 0 0.34c0,529.43 -12.49,1054.54 -12.49,1585.03 0,432.77 48.28,755.57 144.85,969.84 96.57,212.87 249.84,320 459.88,320 194.43,0 337.91,-88.61 431.49,-266.98 -160,541.07 -460.07,996.7 -844.88,1297.51 -375.49,-84.42 -679.71,-291.45 -913.14,-621.72 -312.61,-444.04 -469.53,-1069.94 -469.53,-1880.49 0,-373.77 -0.01,-747.48 -0.01,-1121.25z"/>
      </g>
     </g>
     <path class="fil2" d="M16369.21 9632.39c0,-769.08 156.84,-1360.93 471.8,-1778.12 314.93,-417.2 758.76,-625.13 1333.93,-625.13 144.1,0 280.05,13.14 407.82,39.43 -598.89,388.49 -1009.72,1186.63 -1009.72,2108.28l0 0.64 0 0.3c0,478.08 -12.49,952.27 -12.49,1431.3 0,390.79 48.28,682.29 144.84,875.78 96.58,192.22 249.85,288.96 459.89,288.96 194.43,0 337.91,-80.02 431.49,-241.09 -160.01,488.59 -460.07,900.03 -844.88,1171.66 -375.49,-76.23 -679.71,-263.18 -913.14,-561.42 -312.62,-400.97 -469.53,-966.17 -469.53,-1698.1 0,-337.51 -0.01,-674.98 -0.01,-1012.49z"/>
     <path class="fil3" d="M20067.55 10672.09c0,769.08 -164.83,1360.92 -495.82,1778.12 -330.97,417.2 -797.41,625.13 -1401.86,625.13 -151.43,0 -294.31,-13.14 -428.59,-39.44 629.39,-388.48 1061.15,-1186.62 1061.15,-2108.27l0 -0.64 0 -0.31c0,-478.82 8.72,-951.9 8.72,-1431.29 0,-390.79 -50.93,-682.29 -152.76,-875.78 -101.83,-192.22 -263.49,-288.96 -484.98,-288.96 -205.06,0 -356.37,80.02 -455.07,241.09 168.74,-488.59 485.21,-900.03 891.03,-1171.66 395.99,76.23 716.83,263.18 962.99,561.42 329.69,400.97 495.18,966.16 495.18,1698.1 0,337.51 0.01,674.98 0.01,1012.49z"/>
     <g style="clip-path:url(#id1)">
      <g>
       <path id="1" class="fil4" d="M20528.15 10633.7c0,788.35 -198.1,1395.01 -595.87,1822.65 -397.76,427.66 -958.31,640.79 -1684.73,640.79 -181.99,0 -353.69,-13.47 -515.07,-40.42 756.38,-398.21 1275.27,-1216.35 1275.27,-2161.08l0 -0.65 0 -0.32c0,-490.82 10.48,-975.75 10.48,-1467.14 0,-400.58 -61.2,-699.37 -183.59,-897.71 -122.38,-197.04 -316.65,-296.2 -582.84,-296.2 -246.43,0 -428.28,82.02 -546.89,247.13 202.79,-500.83 583.11,-922.57 1070.82,-1201.01 475.9,78.14 861.47,269.77 1157.31,575.48 396.22,411.02 595.1,990.37 595.1,1740.63 0,345.97 0.01,691.89 0.01,1037.85z"/>
      </g>
     </g>
     <path class="fil2" d="M20067.55 10672.09c0,769.08 -164.83,1360.92 -495.82,1778.12 -330.97,417.2 -797.41,625.13 -1401.86,625.13 -151.43,0 -294.31,-13.14 -428.59,-39.44 629.39,-388.48 1061.15,-1186.62 1061.15,-2108.27l0 -0.64 0 -0.31c0,-478.82 8.72,-951.9 8.72,-1431.29 0,-390.79 -50.93,-682.29 -152.76,-875.78 -101.83,-192.22 -263.49,-288.96 -484.98,-288.96 -205.06,0 -356.37,80.02 -455.07,241.09 168.74,-488.59 485.21,-900.03 891.03,-1171.66 395.99,76.23 716.83,263.18 962.99,561.42 329.69,400.97 495.18,966.16 495.18,1698.1 0,337.51 0.01,674.98 0.01,1012.49z"/>
    </g>
    <g>
     <path class="fil5" d="M21602.03 9698.45l-197.36 703.79 -195.97 -703.79 -207.36 1.39 -194.58 702.4 -195.99 -703.79 -207.36 0 306.04 1044.89 194.6 0 201.77 -690.79 203.18 690.79 194.35 0 306.26 -1044.89 -207.58 0zm-843.06 -435.29l734.25 -933.48 0 -257.52 -1086.38 0 0 255.58 734.22 0 -734.22 935.42 0 257.52 1086.38 0 0 -257.52 -734.25 0zm1231.26 -211.16l798.63 0c1.91,-24.14 4.17,-50.53 4.17,-74.69 0,-144.85 -42.47,-283.59 -132.94,-392.05 -100.42,-120.72 -255.58,-181.24 -416.54,-181.24 -160.93,0 -315.77,62.46 -416.19,181.24 -90.79,108.46 -128.77,241.41 -132.94,392.05 -3.88,142.94 40.24,279.74 132.94,392.4 100.42,120.72 255.26,173.19 416.19,181.22 160.96,8.05 318.04,-54.39 426.53,-175.1 24.13,-28.33 46.35,-58.26 64.37,-88.53l-271.36 -118.78c-8.05,9.99 -12.23,22.22 -20.28,34.12 -46.35,60.52 -118.78,92.71 -199.26,92.71 -78.22,0 -152.88,-32.19 -197,-92.71 -32.18,-42.15 -48.26,-94.3 -56.32,-150.64zm253.32 -392.38c80.48,0 152.91,30.25 199.26,92.39 18.02,26.39 32.19,56.32 42.18,88.5l-482.85 0c10.31,-32.18 24.14,-62.11 44.41,-88.5 44.12,-62.14 118.78,-92.39 197,-92.39zm1318.17 -253.66c-64.39,4.17 -131.02,20.28 -189.28,56.32 -50.21,30.27 -88.51,72.43 -116.52,120.72l0 -148.71 -241.42 0 0 1086.39 275.54 0 0 -579.41c0,-80.48 22.22,-152.9 70.49,-205.37 37.98,-40.24 94.32,-68.25 172.86,-74.36 78.54,-6.12 152.91,6.11 209.23,28.33l0 -253.66c-60.2,-24.14 -122.64,-34.11 -180.9,-30.25zm830.79 1144.97c163.22,0 313.86,-60.5 416.53,-181.22 92.71,-114.6 134.89,-237.23 134.89,-392.4 0,-146.76 -38.3,-277.45 -134.89,-392.05 -100.41,-120.72 -255.57,-181.24 -416.53,-181.24 -158.67,0 -315.78,62.46 -416.19,181.24 -86.59,104.61 -132.95,239.17 -132.95,392.05 0,149.05 40.24,279.74 132.95,392.4 100.41,118.78 255.26,181.22 416.19,181.22zm199.26 -348.29c-44.1,60.52 -118.78,92.71 -199.26,92.71 -80.45,0 -154.82,-32.19 -198.91,-92.71 -46.36,-60.2 -60.52,-142.59 -60.52,-225.33 0,-82.39 14.16,-166.72 60.52,-227.24 44.09,-60.2 118.46,-90.45 198.91,-90.45 80.48,0 155.16,30.25 199.26,90.45 46.35,60.52 62.45,144.85 62.45,227.24 0,82.74 -16.1,165.13 -62.45,225.33zm-3762.06 2092.23c-5.57,18.09 -14.28,35.57 -25.3,50.62 -28.47,37.96 -75.94,57.71 -124.14,56.94 -49.11,0.77 -96.56,-18.98 -124.27,-56.94 -29.22,-37.96 -37.96,-88.57 -38.71,-138.44 0.75,-49.87 9.49,-101.24 38.71,-138.44 27.71,-37.96 75.16,-57.71 124.27,-57.71 48.2,0 95.67,19.75 124.14,57.71 12.66,15.83 20.51,34.81 26.83,54.54l110.72 -18.98c-10.24,-33.92 -26.82,-69.6 -52.14,-101.24 -50.62,-61.63 -127.29,-92.5 -209.55,-92.5 -82.25,0 -159.83,30.12 -209.68,92.5 -46.58,56.19 -67.2,125.79 -67.2,204.12 0,75.16 19.73,145.54 67.2,203.23 47.45,59.35 125.78,93.39 209.68,93.39 79.09,0 157.29,-30.12 209.55,-93.39 21.39,-26.05 36.34,-55.3 46.69,-84.66l-106.8 -30.75zm391.42 208.8c64.14,0 123.38,-23.77 163.74,-71.24 36.45,-45.06 53.03,-93.26 53.03,-154.25 0,-57.72 -15.05,-109.09 -53.03,-154.14 -39.47,-47.45 -100.46,-71.24 -163.74,-71.24 -62.39,0 -124.14,24.55 -163.63,71.24 -34.03,41.13 -52.26,94.03 -52.26,154.14 0,58.58 15.81,109.97 52.26,154.25 39.49,46.69 100.35,71.24 163.63,71.24zm78.33 -136.92c-17.33,23.79 -46.69,36.45 -78.33,36.45 -31.64,0 -60.86,-12.66 -78.2,-36.45 -18.22,-23.65 -23.79,-56.05 -23.79,-88.57 0,-32.4 5.57,-65.56 23.79,-89.36 17.34,-23.65 46.56,-35.56 78.2,-35.56 31.64,0 61,11.91 78.33,35.56 18.23,23.8 24.55,56.96 24.55,89.36 0,32.52 -6.32,64.92 -24.55,88.57zm804.46 -272.07c-27.71,-24.43 -66.44,-40.24 -102.12,-40.24 -52.9,0 -103.52,25.3 -132.88,68.71 -6.32,-10.24 -14.16,-19.73 -23.65,-28.47 -27.72,-24.43 -66.45,-40.24 -102.01,-40.24 -47.45,0 -93.39,20.51 -123.39,56.05l0 -45.8 -94.9 0 0 427.09 108.31 0 0 -258.66c0,-21.39 3.17,-40.37 19.76,-59.35 13.41,-14.92 34.03,-23.66 54.54,-23.66 20.62,0 41.13,7.85 54.65,22.91 14.95,16.58 20.51,30.86 20.51,58.58l0 260.18 109.22 0 0 -258.66c0,-21.39 3.15,-40.37 19.73,-59.35 13.42,-14.92 34.04,-23.66 54.55,-23.66 20.62,0 41.12,7.85 54.54,22.91 15.05,16.58 20.62,30.86 20.62,58.58l0 260.18 109.08 0 0 -260.18c0,-54.66 -9.49,-103.64 -46.56,-136.92zm720.54 0c-27.71,-24.43 -66.45,-40.24 -102.12,-40.24 -52.9,0 -103.52,25.3 -132.88,68.71 -6.32,-10.24 -14.16,-19.73 -23.65,-28.47 -27.72,-24.43 -66.45,-40.24 -102.01,-40.24 -47.45,0 -93.39,20.51 -123.39,56.05l0 -45.8 -94.9 0 0 427.09 108.31 0 0 -258.66c0,-21.39 3.17,-40.37 19.76,-59.35 13.41,-14.92 34.03,-23.66 54.54,-23.66 20.62,0 41.13,7.85 54.65,22.91 14.95,16.58 20.51,30.86 20.51,58.58l0 260.18 109.22 0 0 -258.66c0,-21.39 3.15,-40.37 19.73,-59.35 13.42,-14.92 34.04,-23.66 54.55,-23.66 20.62,0 41.12,7.85 54.54,22.91 15.05,16.58 20.62,30.86 20.62,58.58l0 260.18 109.08 0 0 -260.18c0,-54.66 -9.49,-103.64 -46.56,-136.92zm417.59 -29.99l0 185.88c0,29.25 -0.76,58.47 -4.82,77.47 -4.67,23.77 -15.8,42.77 -31.64,54.54 -14.16,10.36 -30.74,15.81 -50.61,16.7 -29.22,0 -52.13,-7.98 -67.18,-23.79 -22.15,-22.15 -28.49,-58.47 -28.49,-97.31l0 -213.49 -109.09 0 0 213.49c0,74.41 7.1,131.34 57.72,178.04 34.03,30.75 84.65,48.97 132.12,47.45 38.71,-1.65 81.37,-14.28 115.4,-41.11l0 29.22 94.92 0 0 -427.09 -108.33 0zm561.59 35.56c-34.04,-30.89 -84.65,-48.98 -132.1,-47.45 -38.74,1.64 -81.51,14.3 -115.43,41.13l0 -29.24 -94.89 0 0 427.09 108.31 0 0 -185.89c0,-29.24 0.77,-58.46 4.69,-77.44 4.82,-23.79 15.81,-42.77 31.64,-54.68 14.28,-10.24 30.87,-15.81 50.62,-16.59 29.36,0 52.26,7.99 67.32,23.8 22.15,22.15 28.47,58.46 28.47,97.2l0 213.6 109.08 0 0 -213.6c0,-74.3 -7.09,-131.24 -57.71,-177.93zm160.59 -189.82l0 94.9 107.55 0 0 -94.9 -107.55 0zm0 154.26l0 427.09 107.55 0 0 -427.09 -107.55 0zm498.33 83.01l0 -83.01 -123.38 0 0 -118.69 -107.56 0 0 118.69 -88.6 0 0 83.01 88.6 0 0 163c0,46.56 2.28,87.69 20.49,121.73 16.58,31.64 46.69,50.61 85.43,61.75 31.63,8.73 90.99,7.09 125.02,-2.4l0 -92.5c-23.04,3.15 -49.09,3.92 -69.59,2.28 -16.7,-1.53 -34.04,-11.02 -43.55,-26.07 -9.49,-15.06 -10.24,-39.49 -10.24,-72.77l0 -155.02 123.38 0zm378.01 -83.01l-109.08 302.95 -106.05 -302.95 -107.58 0 164.51 439.75c-13.41,37.96 -29.22,64.92 -41.13,71.99 -7.84,4.7 -27.71,6.35 -40.35,4.7l-11.77 -1.53 0 101.99 5.43 0c38.85,0 72.02,-3.14 102.88,-26.82 30,-22.15 51.39,-61 67.95,-105.28l181.99 -484.8 -106.8 0zm-2798.74 -874.23c4.41,-7.41 10.2,-14.62 16.02,-20.41 30.4,-36.23 72.44,-47.84 123.29,-47.84 40.63,-1.39 79.89,5.8 111.68,24.62 29.04,16.01 50.85,42.01 58.06,72.67l-126.08 17.41c-111.93,17.43 -172.77,18.82 -259.84,65.26 -74.07,43.41 -126.31,126.31 -126.31,210.37 0,68.27 20.44,107.51 61.07,163.92 42.02,49.48 121.9,87.32 198.75,87.32 59.45,0 127.72,-14.64 182.74,-48.06 34.84,-20.21 82.9,-63.87 97.29,-105.89l0 133.51 172.78 0 0 -492.04c0,-47.83 -11.61,-105.87 -42.04,-156.73 -63.85,-107.26 -179.96,-155.33 -323.7,-155.33 -129.09,0 -236.6,42.25 -307.65,142.32 -5.8,7.21 -11.61,17.43 -16.02,23.23l179.96 85.67zm313.45 187.17c0,7.19 -1.39,36.23 -10.19,68.25 -24.62,94.28 -124.71,134.93 -207.36,137.71 -63.87,3.02 -106.12,-37.61 -103.11,-84.06 2.79,-62.45 91.5,-78.49 175.54,-94.27l145.12 -27.63zm1010.08 -210.39c-30.4,-82.87 -89.85,-150.92 -166.72,-190.15 -53.86,-27.65 -113.31,-39.26 -166.94,-39.26 -53.65,-1.39 -110.31,4.42 -171.38,30.43 -82.64,36.45 -143.48,114.69 -143.48,213.4 0,55.25 27.4,119.12 81.25,159.75 40.65,31.8 84.06,50.62 155.12,69.66 43.66,11.61 84.29,21.58 126.31,33.19 26.25,7.44 62.48,19.05 81.27,37.85 10.22,10.22 13.01,20.21 13.01,34.83 -2.79,14.39 -5.8,23.22 -20.19,36.22 -23.22,18.82 -74.09,26.26 -110.32,26.26 -47.81,0 -95.9,-7.44 -130.71,-45.05 -21.6,-21.83 -36.22,-65.27 -36.22,-88.49l-187.17 46.45c2.79,40.65 46.45,127.72 82.67,168.34 72.68,76.88 163.95,104.5 271.43,104.5 79.89,0 155.35,-11.61 217.58,-50.84 65.49,-42.05 106.11,-105.89 111.93,-179.96 5.8,-79.89 -27.65,-146.52 -91.49,-195.97 -50.85,-42.05 -88.47,-50.87 -153.96,-71.06 -39.01,-10.22 -84.06,-21.83 -123.29,-33.44 -39.24,-11.61 -71.06,-24.62 -82.67,-39.24 -1.39,-4.2 -4.4,-9.99 -4.4,-17.43 0,-8.57 4.4,-21.58 26.23,-36.22 20.21,-11.61 50.62,-17.41 85.45,-17.41 32.05,0 61.07,7.19 84.29,20.44 26,13.01 52.26,42.02 60.84,69.65l191.56 -46.45zm659 -55.25l0 -152.33 -226.4 0 0 -217.8 -197.37 0 0 217.8 -162.55 0 0 152.33 162.55 0 0 299.08c0,85.45 4.18,160.91 37.62,223.37 30.41,58.06 85.68,92.89 156.74,113.3 58.03,16.04 166.93,13.01 229.41,-4.4l0 -169.74c-42.27,5.82 -90.11,7.21 -127.72,4.18 -30.66,-2.79 -62.46,-20.19 -79.86,-47.84 -17.43,-27.62 -18.82,-72.45 -18.82,-133.51l0 -284.44 226.4 0zm343.88 293.27l576.1 0c1.39,-17.41 3.01,-36.46 3.01,-53.86 0,-104.5 -30.64,-204.57 -95.9,-282.84 -72.45,-87.07 -184.36,-130.73 -300.47,-130.73 -116.09,0 -227.77,45.05 -300.22,130.73 -65.49,78.27 -92.89,174.17 -95.9,282.84 -2.78,103.08 29.02,201.76 95.9,283.04 72.45,87.07 184.13,124.92 300.22,130.73 116.11,5.8 229.41,-39.23 307.68,-126.33 17.4,-20.41 33.44,-42.01 46.44,-63.85l-195.74 -85.67c-5.82,7.2 -8.83,16.01 -14.65,24.61 -33.41,43.66 -85.67,66.88 -143.73,66.88 -56.41,0 -110.29,-23.22 -142.09,-66.88 -23.22,-30.41 -34.83,-68.05 -40.65,-108.67zm182.74 -283.05c58.06,0 110.32,21.83 143.73,66.63 13.01,19.05 23.23,40.65 30.43,63.85l-348.3 0c7.44,-23.2 17.43,-44.8 32.05,-63.85 31.8,-44.8 85.68,-66.63 142.09,-66.63z"/>
     <path class="fil6" d="M20580.8 12226.42l31.26 0 -90.15 -265.03 -40.49 0 -90.21 265.03 31.32 0 17.25 -50.83 123.71 0 17.31 50.83zm-131.4 -79.16l51.87 -153.14 52.32 153.14 -104.19 0zm369.62 -46.35l79.87 125.51 36.06 0 -89.43 -138.06 82.46 -126.97 -36.11 0 -72.85 114.48 -63.32 0 0 -114.48 -30.19 0 0 265.03 30.19 0 0 -125.51 63.32 0zm259.12 -139.52l0 182.57c0,22.8 0,35.69 -9.56,53 -13.25,22.8 -34.2,34.65 -62.19,34.65 -13.25,0 -26.5,-2.96 -37.58,-9.62 -16.89,-9.58 -29.1,-26.5 -33.86,-45.27l29.8 -7.02c2.25,10.71 9.24,20.27 18.43,26.5 6.6,4.42 14.72,7.02 22.81,7.02 14.72,0 29.43,-7.73 36.45,-21.74 5.19,-10.32 4.77,-18.01 4.77,-37.52l0 -182.57 30.93 0zm243.72 66.61c-9.2,-25.4 -25.04,-46.01 -46.35,-58.55 -16.21,-9.53 -36.48,-13.62 -55.26,-13.62 -16.91,0 -34.93,2.26 -52.24,11.08 -21.73,10.66 -38.28,33.86 -38.28,58.5 0,16.18 6.23,34.62 19.48,46.74 14.04,12.55 31.69,19.14 49.36,24.7l48.6 14.38c13.59,3.63 24.62,9.16 33.1,17.64 7.7,7.36 11.79,16.92 11.79,27.24 0,12.12 -4.8,25.37 -16.55,33.86 -12.15,8.82 -32.4,13.58 -49.73,13.58 -23.21,0 -47.11,-7.69 -61.07,-27.2 -8.12,-10.29 -12.91,-23.91 -15.5,-37.92l-30.14 8.12c3.64,16.55 10.29,33.86 21.68,48.6 19.54,26.08 49.7,36.79 83.93,36.79 25.43,0 50.04,-4.06 68.48,-17.31 18.8,-12.88 30.58,-35.69 30.58,-57.42 0.34,-19.15 -8.14,-37.16 -21.39,-50.07 -12.89,-12.12 -28.68,-19.91 -47.82,-25.38l-47.53 -14.01c-14.32,-4.42 -28.7,-9.95 -36.4,-18.04 -5.89,-5.86 -9.24,-14.35 -9.24,-23.2 0,-13.25 8.12,-26.5 20.61,-33.49 10.71,-5.9 24.33,-8.86 38.28,-8.43 14.38,0 29.1,4.42 40.17,11.02 15.43,9.16 24.62,23.54 31.64,40.51l29.8 -8.12zm235.99 111.19c-3.35,11.36 -8.49,22.78 -15.14,32.39 -16.21,20.98 -43.05,31.97 -70.28,31.64 -26.9,0 -53.76,-10.66 -69.61,-31.64 -16.18,-21.73 -21.31,-50.06 -21.31,-77.69 0,-27.6 5.13,-56.3 21.31,-77.33 15.85,-21.32 42.71,-32.4 69.61,-31.97 27.23,0.34 54.07,10.65 70.28,31.97 7.78,10.32 12.89,22.49 15.85,35.35l30.92 -5.13c-4.09,-16.97 -11.44,-33.52 -23.2,-48.6 -21.68,-28.31 -56.67,-42.35 -93.85,-42.35 -37.21,0 -71.44,13.62 -93.51,42.35 -21.74,27.23 -29.1,61.09 -29.46,95.71 -0.34,33.88 7.72,68.08 29.46,95.71 22.07,27.99 55.96,42.34 93.51,42.34 36.82,0 71.41,-13.64 93.85,-42.34 9.95,-12.88 16.94,-27.26 21.37,-41.98l-29.8 -8.43zm240.37 -148.01l0 -29.79 -164.56 0 0 265.03 164.56 0 0 -29.8 -134.76 0 0 -87.65 112.65 0 0 -30.14 -112.65 0 0 -87.65 134.76 0zm306.67 -2.17c-8.85,-10.32 -20.64,-18.43 -33.52,-22.86 -8.85,-2.93 -18.44,-4.76 -28,-4.76l-111.52 0 0 265.03 29.79 0 0 -99.44 81.73 0c25.04,0 48.97,-11.75 64.03,-30.13 11.78,-14.38 19.56,-33.52 19.56,-52.66 -0.42,-20.28 -8.12,-40.46 -22.07,-55.18zm-21.03 89.4c-9.9,12.55 -25.74,19.9 -40.49,19.9l-81.73 0 0 -108.25 81.73 0c13.62,0 28,6.65 37.19,16.6 9.95,9.9 15.08,23.57 15.48,37.53 0.36,12.54 -4.43,24.66 -12.18,34.22zm103.83 -0.7c1.46,-2.26 2.93,-4.43 4.76,-6.66 10.32,-13.95 27.63,-20.21 46.01,-20.21 15.08,0 30.22,3.3 40.88,12.15 9.53,7.36 15.08,18.35 16.89,30.9l-41.22 5.55c-30.93,4.77 -52.61,6.6 -74.34,18.38 -18.02,11.05 -29.1,29.44 -29.1,50.41 0,14.01 4.06,24.67 11.79,36.45 10.66,15.51 31.26,25.8 51.2,26.5 17.64,1.13 34.98,-2.93 51.16,-10.99 13.62,-6.68 27.58,-18.81 34.93,-33.18l0 39.41 26.5 0 0 -124.44c0,-11.39 -2.17,-23.94 -7.72,-35.35 -14.35,-30.93 -44.15,-44.18 -80.63,-44.18 -29.8,0 -55.54,10.32 -72.85,33.52 -2.22,2.59 -4.42,6.23 -5.89,8.82l27.63 12.92zm109.67 41.58c0,16.55 0,29.43 -7.73,45.64 -11.78,26.14 -44.94,41.22 -71.01,38.62 -21.04,-1.8 -37.25,-18.35 -36.82,-36.79 0.36,-29.03 35.35,-34.93 67.32,-39.78 20.27,-3.29 33.52,-5.46 48.24,-7.69zm166.75 -97.18c-15.84,0.34 -32.39,5.19 -45.3,15.84 -7.36,5.9 -12.83,12.13 -16.89,19.15l0 -29.46 -26.87 0 0 198.78 30.17 0 0 -96.05c0,-26.93 0.76,-48.61 18.44,-65.21 9.19,-9.19 22.77,-14.32 38.28,-14.72 11,-0.73 21.31,1.1 29.8,4.06l0 -28.33c-8.85,-2.96 -18.04,-4.06 -27.63,-4.06zm187.37 5.53l-57.01 160.16 -57.43 -160.16 -30.22 0 72.15 198.78 30.56 0 72.51 -198.78 -30.56 0zm87.28 50.07c1.46,-2.26 2.93,-4.43 4.76,-6.66 10.32,-13.95 27.63,-20.21 46.01,-20.21 15.08,0 30.22,3.3 40.88,12.15 9.53,7.36 15.08,18.35 16.89,30.9l-41.22 5.55c-30.93,4.77 -52.61,6.6 -74.34,18.38 -18.02,11.05 -29.1,29.44 -29.1,50.41 0,14.01 4.06,24.67 11.79,36.45 10.65,15.51 31.26,25.8 51.19,26.5 17.65,1.13 34.99,-2.93 51.17,-10.99 13.62,-6.68 27.58,-18.81 34.93,-33.18l0 39.41 26.5 0 0 -124.44c0,-11.39 -2.17,-23.94 -7.72,-35.35 -14.35,-30.93 -44.15,-44.18 -80.63,-44.18 -29.8,0 -55.54,10.32 -72.85,33.52 -2.23,2.59 -4.42,6.23 -5.89,8.82l27.63 12.92zm109.66 41.58c0,16.55 0,29.43 -7.72,45.64 -11.78,26.14 -44.94,41.22 -71.02,38.62 -21.03,-1.8 -37.24,-18.35 -36.81,-36.79 0.36,-29.03 35.35,-34.93 67.32,-39.78 20.27,-3.29 33.52,-5.46 48.23,-7.69zm102.74 -41.58c1.46,-2.26 2.93,-4.43 4.76,-6.66 10.32,-13.95 27.63,-20.21 46.01,-20.21 15.08,0 30.22,3.3 40.88,12.15 9.53,7.36 15.08,18.35 16.89,30.9l-41.22 5.55c-30.93,4.77 -52.61,6.6 -74.34,18.38 -18.02,11.05 -29.1,29.44 -29.1,50.41 0,14.01 4.06,24.67 11.79,36.45 10.65,15.51 31.26,25.8 51.19,26.5 17.65,1.13 34.99,-2.93 51.17,-10.99 13.62,-6.68 27.57,-18.81 34.93,-33.18l0 39.41 26.5 0 0 -124.44c0,-11.39 -2.17,-23.94 -7.72,-35.35 -14.35,-30.93 -44.15,-44.18 -80.63,-44.18 -29.8,0 -55.54,10.32 -72.85,33.52 -2.23,2.59 -4.43,6.23 -5.89,8.82l27.63 12.92zm109.66 41.58c0,16.55 0,29.43 -7.72,45.64 -11.79,26.14 -44.94,41.22 -71.02,38.62 -21.03,-1.8 -37.24,-18.35 -36.82,-36.79 0.37,-29.03 35.36,-34.93 67.33,-39.78 20.27,-3.29 33.52,-5.46 48.23,-7.69zm218.63 -79.87c-15.76,-11.78 -36.03,-17.68 -55.54,-16.55 -18.07,0.71 -37.58,7.36 -52.29,20.61 -2.17,2.17 -4.43,4.43 -6.23,6.6l0 -88.69 -26.87 0 0 265.03 30.17 0 0 -101.94c0,-9.62 0.33,-19.15 2.22,-27.29 2.54,-13.25 8.43,-25.04 17.68,-33.1 8.82,-7.78 20.61,-11.79 32.73,-12.18 14.75,-0.71 27.63,2.93 37.52,10.29 19.15,14.38 22.11,37.95 22.11,66.28l0 97.94 30.19 0 0 -97.94c0.37,-36.4 -4.4,-68.08 -31.69,-89.06zm292.3 50.77l0 25.43 66.98 0c-2.17,20.22 -8.06,39.36 -19.51,55.2 -16.18,21.37 -42.68,32.4 -69.91,32.4 -27.27,0 -54.1,-11.03 -69.95,-32.4 -16.57,-20.6 -20.97,-49.7 -21.73,-76.93 0.76,-27.26 5.16,-56.3 21.73,-76.91 15.85,-21.37 42.68,-32.39 69.95,-32.39 27.23,0 53.73,11.02 69.91,32.39 2.96,4 5.89,9.19 8.86,14.32l27.62 -12.49c-3.72,-7.36 -8.14,-14.38 -12.91,-20.27 -22.44,-28.33 -55.59,-42.71 -93.48,-42.71 -37.92,0 -72.91,14.04 -93.52,42.71 -22.1,27.63 -29.09,61.15 -29.46,95.35 0.37,33.52 7.36,68.08 29.46,95.37 20.61,29.04 56.3,42.68 93.52,42.68 36.42,0 70.28,-13.25 93.48,-42.68 20.27,-25.79 27.97,-57.85 29.46,-90.58l0 -8.49 -100.5 0zm224.94 141.75c29.04,0 54.84,-10.29 72.14,-32.39 16.92,-21.37 22.81,-46.04 22.81,-72.9 0,-25.38 -5.55,-51.2 -22.81,-72.15 -16.94,-21.73 -43.81,-32.39 -72.14,-32.39 -28.73,0 -55.59,11.42 -72.56,32.39 -16.19,20.25 -22.45,46.41 -22.45,72.15 0,26.16 5.9,51.9 22.45,72.9 17.31,21.68 43.83,32.39 72.56,32.39zm48.6 -50.83c-11.07,14.75 -29.46,22.44 -48.6,22.44 -19.14,0 -37.58,-7.69 -48.24,-22.44 -11.41,-14.71 -15.08,-34.56 -15.08,-54.46 0,-19.15 3.67,-39.42 15.08,-54.13 10.66,-14.72 29.1,-22.08 48.24,-22.08 19.14,0 37.53,7.36 48.6,22.08 11,14.71 14.72,34.98 14.72,54.13 0,19.9 -3.72,39.75 -14.72,54.46zm111.9 -103.4c1.46,-2.26 2.93,-4.43 4.76,-6.66 10.32,-13.95 27.63,-20.21 46.01,-20.21 15.09,0 30.22,3.3 40.88,12.15 9.53,7.36 15.08,18.35 16.89,30.9l-41.22 5.55c-30.93,4.77 -52.61,6.6 -74.34,18.38 -18.02,11.05 -29.1,29.44 -29.1,50.41 0,14.01 4.06,24.67 11.79,36.45 10.66,15.51 31.26,25.8 51.2,26.5 17.64,1.13 34.98,-2.93 51.16,-10.99 13.62,-6.68 27.58,-18.81 34.93,-33.18l0 39.41 26.5 0 0 -124.44c0,-11.39 -2.17,-23.94 -7.72,-35.35 -14.35,-30.93 -44.15,-44.18 -80.63,-44.18 -29.8,0 -55.54,10.32 -72.85,33.52 -2.22,2.59 -4.42,6.23 -5.89,8.82l27.63 12.92zm109.67 41.58c0,16.55 0,29.43 -7.73,45.64 -11.78,26.14 -44.94,41.22 -71.01,38.62 -21.04,-1.8 -37.25,-18.35 -36.82,-36.79 0.36,-29.03 35.35,-34.93 67.32,-39.78 20.27,-3.29 33.52,-5.46 48.24,-7.69zm77.69 107.13l0 -270.59 29.8 0 0 270.59 -29.8 0z"/>
    </g>
   </g>
   <g>
    <path class="fil7" d="M12987.86 7917.06c-739.75,-1084.03 -1967.35,-1732.5 -3279.73,-1732.5 -1834.88,0 -3429.05,1255.73 -3858.57,3039.63 750.72,-801.68 1793.88,-1252.7 2892.19,-1252.7 568.15,0 1128.91,118.29 1645.88,353.9 308.88,134.5 642.18,203.91 979.08,203.91 596.89,0 1173.28,-217.68 1621.15,-612.24z"/>
    <path class="fil8" d="M6323.39 9010.32c-43.29,117.13 -259.36,556.28 -402.23,556.28 -64.5,0 -116.79,-52.29 -116.79,-116.78 0,-7.59 0.73,-15.18 2.22,-22.64 347.94,-1882.74 1986.92,-3242.62 3901.54,-3242.62 1312.38,0 2539.98,648.47 3279.73,1732.5l-39.69 34.22 -23.95 19.95c-463.22,-489.78 -1107.11,-766.75 -1781.24,-766.75 -225.97,0 -450.86,31.23 -668.28,92.81 -930.04,454.07 -1735.95,1127.45 -2350.32,1960.36 -63.08,106.53 -179.01,170.22 -302.8,170.22 -193.5,0 -350.35,-156.84 -350.35,-350.34 0,-79.47 27.01,-156.58 76.61,-218.67 434.35,-802.64 1129.58,-1431.16 1973,-1779.77 -1186.21,304.39 -2164.25,1138.46 -2652.77,2261.45 -35.15,89.31 -121.36,148.02 -217.33,148.02 -129,0 -233.56,-104.56 -233.56,-233.56 0,-28.6 5.25,-56.96 15.49,-83.67 341.27,-1144.28 1179.98,-2074.81 2282.76,-2532.78 -1109.83,396.61 -1986.36,1265.23 -2392.04,2371.77z"/>
    <path class="fil9" d="M4752.61 10447.82c739.75,1084.02 1967.35,1732.5 3279.73,1732.5 1834.89,0 3429.06,-1255.73 3858.58,-3039.63 -750.72,801.68 -1793.89,1252.69 -2892.2,1252.69 -568.14,0 -1128.91,-118.28 -1645.88,-353.89 -308.88,-134.51 -642.18,-203.92 -979.08,-203.92 -596.88,0 -1173.28,217.69 -1621.15,612.25z"/>
    <path class="fil10" d="M11417.08 9354.55c43.29,-117.13 259.36,-556.28 402.24,-556.28 64.5,0 116.78,52.29 116.78,116.79 0,7.59 -0.73,15.17 -2.22,22.63 -347.94,1882.74 -1986.91,3242.63 -3901.54,3242.63 -1312.38,0 -2539.98,-648.48 -3279.73,-1732.5l30.11 -26.1 33.53 -28.07c463.22,489.77 1107.11,766.74 1781.24,766.74 225.98,0 450.87,-31.22 668.28,-92.8 930.04,-454.07 1735.95,-1127.46 2350.32,-1960.36 63.08,-106.53 179.01,-170.23 302.8,-170.23 193.5,0 350.35,156.85 350.35,350.35 0,79.47 -27.01,156.57 -76.61,218.66 -434.35,802.64 -1129.57,1431.16 -1972.99,1779.77 1186.2,-304.38 2164.24,-1138.46 2652.76,-2261.45 35.15,-89.3 121.36,-148.02 217.33,-148.02 129,0 233.57,104.57 233.57,233.57 0,28.6 -5.26,56.95 -15.5,83.66 -341.27,1144.29 -1179.98,2074.81 -2282.76,2532.78 1109.84,-396.61 1986.36,-1265.22 2392.04,-2371.77z"/>
    <path class="fil11" d="M6151.03 12549.12c-65.03,0 -120.31,35.77 -182.09,42.27 -22.76,0 -45.52,-6.5 -65.03,-16.25 -19.51,-13.01 -32.51,-26.02 -55.27,-22.77 -6.51,0 -16.26,3.26 -22.76,6.51 -19.52,13 -26.02,26.01 -35.77,48.77 -65.04,146.32 -130.06,292.64 -198.35,438.96l-247.12 552.77c-6.5,-3.26 -6.5,0 -6.5,3.24l-16.26 32.52c-22.76,55.28 -48.77,107.3 -68.28,159.33 0,9.75 -6.5,19.51 -9.76,26.01 -6.5,16.26 9.76,42.27 39.02,35.77 6.5,-3.26 9.76,-3.26 13.01,-6.5 52.03,-32.52 74.79,-91.05 97.55,-139.82 42.27,-100.8 87.79,-201.6 133.31,-302.4 9.76,-13 13.01,-32.52 22.76,-42.27 39.02,-26.01 94.3,-39.01 133.32,-13.01 68.28,39.02 146.31,45.53 224.35,35.78 204.85,-22.77 399.94,-146.32 494.24,-331.67 45.52,-84.54 58.52,-182.08 52.02,-276.38 -3.25,-48.77 -16.26,-97.55 -48.77,-136.56 -45.52,-55.28 -120.31,-91.05 -191.84,-91.05 -22.76,-3.25 -42.27,-3.25 -61.78,-3.25zm6.5 87.79c65.04,0 133.32,19.52 169.08,74.79 35.77,52.03 32.52,117.06 26.02,175.58 -22.77,143.08 -120.32,269.88 -250.38,338.17 -74.78,45.52 -162.57,74.78 -253.61,65.03 -71.54,-13.01 -136.57,-65.03 -152.83,-136.57 -9.76,-42.27 -3.25,-84.54 13.01,-123.55 42.27,-143.08 136.56,-276.39 269.88,-347.93 39.02,-19.5 78.03,-26 120.31,-39.01 19.5,-3.25 39.02,-6.51 58.52,-6.51zm920.73 -81.28c-176.67,6.5 -339.78,100.8 -444.37,237.36 -86.72,110.55 -144.7,253.62 -134.95,393.44 3.26,74.78 35.23,149.57 95.93,191.84 74.78,45.52 169.62,45.52 248.2,13 39.02,-15.71 74.78,-41.72 111.09,-57.98 48.77,-29.26 98.09,-61.78 146.86,-87.8 13.01,78.04 81.29,139.82 156.08,159.33 71.53,19.51 152.82,9.76 211.35,-39.01 52.02,-29.27 97.54,-74.79 100.8,-136.57 0,-16.26 0,-42.27 -16.26,-52.03 -26.02,-9.75 -52.02,9.76 -55.28,35.77 -48.77,61.78 -126.8,104.05 -208.1,91.05 -26.01,-3.26 -58.53,-16.26 -71.53,-42.28 -29.26,-61.78 -19.51,-133.31 6.5,-191.84l58.53 -136.56c45.52,-101.34 100.8,-198.89 139.82,-299.68 9.75,-26.02 9.75,-52.03 -16.26,-58.53 -9.76,-3.26 -19.51,-3.26 -29.26,3.25l-52.03 22.76c-22.76,3.25 -35.77,-3.25 -58.53,-6.5 -58.53,-9.76 -117.05,-29.27 -175.58,-35.77l-13.01 -3.25zm29.26 97.54c52.03,0 97.55,45.52 107.31,94.3 13,45.52 0,97.54 -19.51,139.81 -58.53,149.58 -156.62,286.14 -293.73,370.68 -45.52,26.01 -98.09,52.03 -150.11,55.28 -65.57,3.25 -127.35,-39.02 -143.61,-100.8 -16.26,-48.77 -6.5,-104.05 3.25,-156.08 32.51,-139.81 133.86,-256.87 254.71,-331.65 61.78,-42.28 133.85,-68.28 209.18,-71.54l32.51 0zm1062.72 -78.03c-35.77,0 -71.53,0 -104.05,9.75 -42.27,13.01 -81.29,39.02 -120.31,61.78 -16.25,6.5 -26.01,22.76 -42.26,29.26 -16.26,0 -16.26,-22.76 -22.76,-29.26 -13.02,-26.01 -45.53,-35.77 -65.04,-16.26 -52.02,35.77 -71.53,100.8 -97.54,152.82 -91.05,191.85 -201.6,373.93 -295.89,565.78 -9.76,19.5 -16.26,39.02 -3.26,58.52 13.01,13.01 39.02,22.76 58.53,19.51 19.51,0 35.77,-13.01 42.27,-32.51 68.28,-117.06 117.06,-250.37 188.59,-367.43 55.28,-104.05 117.06,-208.1 214.6,-279.63 55.28,-39.02 117.06,-78.04 185.35,-81.29 39.01,-3.25 81.28,0 107.29,29.27 39.02,35.76 45.53,87.78 39.02,133.31l-6.5 35.76c3.25,0 3.25,3.26 0,9.76 -3.25,9.75 19.51,26.01 19.51,26.01 19.51,0 32.51,3.25 55.27,3.25 9.76,0 19.52,-3.25 26.02,-13 13,-29.27 9.75,-61.78 9.75,-94.3 0,-68.28 -29.26,-136.57 -84.54,-178.83 -29.26,-26.02 -65.03,-42.27 -104.05,-42.27zm542.47 0c-45.53,3.25 -78.04,45.52 -100.8,81.29 -42.27,68.28 -74.79,143.06 -110.55,214.6 -57.99,117.05 -106.76,247.66 -93.76,380.97 9.76,78.04 67.74,146.86 139.28,172.88 78.04,32.51 169.08,26 243.87,-6.51 126.8,-55.82 230.86,-153.36 305.64,-270.42 39.02,-68.28 74.79,-140.36 113.81,-211.89l3.25 -6.5c48.77,45.52 120.31,65.02 182.08,42.26 78.04,-19.5 136.57,-78.03 191.84,-130.06 19.52,-16.25 39.02,-32.51 52.03,-52.02 6.5,-6.51 16.26,-13.01 9.75,-22.77 6.51,-13 3.26,-32.51 -6.5,-42.26 -9.75,-9.76 -22.76,-16.26 -35.76,-16.26 -26.02,3.25 -32.52,32.52 -48.78,48.77 -48.77,55.28 -107.3,117.06 -185.34,130.06 -32.51,6.51 -71.53,3.26 -97.55,-22.76 -6.5,-6.5 -13,-13 -19.5,-22.76 32.51,-65.03 61.78,-126.81 87.79,-191.84 13.01,-26.01 9.75,-52.02 -16.26,-65.03 -16.25,-6.5 -32.51,-9.75 -48.77,-6.5 -19.51,3.25 -32.52,16.26 -42.27,35.76 -6.51,13.01 -9.75,26.02 -19.51,39.02 -87.79,175.59 -152.82,367.43 -279.63,520.8 -65.04,74.78 -143.07,143.06 -240.62,162.57 -52.03,9.75 -113.81,-3.25 -146.32,-48.77 -39.02,-55.28 -32.51,-130.06 -16.26,-195.1 35.77,-156.61 126.81,-293.18 191.85,-442.75 6.5,-19.51 19.5,-39.02 16.25,-61.78 -3.25,-13 -13.01,-13 -26.01,-13l-3.25 0zm1249.68 -19.51c-176.67,6.5 -339.79,100.8 -444.38,237.36 -86.71,110.55 -144.7,253.62 -134.94,393.44 3.25,74.78 35.22,149.57 95.92,191.84 74.79,45.52 169.62,45.52 248.21,13 39.02,-15.71 74.78,-41.72 111.09,-57.98 48.77,-29.26 98.08,-61.78 146.86,-87.8 13,78.04 81.29,139.82 156.07,159.33 71.54,19.51 152.83,9.76 211.36,-39.01 52.02,-29.27 97.54,-74.79 100.79,-136.57 0,-16.26 0,-42.27 -16.26,-52.03 -26.01,-9.75 -52.02,9.76 -55.27,35.77 -48.77,61.78 -126.81,104.05 -208.1,91.05 -26.01,-3.26 -58.53,-16.26 -71.53,-42.28 -29.27,-61.78 -19.51,-133.31 6.5,-191.84l58.53 -136.56c45.52,-101.34 100.8,-198.89 139.81,-299.68 9.76,-26.02 9.76,-52.03 -16.25,-58.53 -9.76,-3.26 -19.52,-3.26 -29.27,3.25l-52.03 22.76c-22.76,3.25 -35.76,-3.25 -58.52,-6.5 -58.53,-9.76 -117.06,-29.27 -175.59,-35.77l-13 -3.25zm29.26 97.54c52.03,0 97.55,45.52 107.31,94.3 13,45.52 0,97.54 -19.52,139.81 -58.52,149.58 -156.61,286.14 -293.72,370.68 -45.52,26.01 -98.09,52.03 -150.11,55.28 -65.58,3.25 -127.35,-39.02 -143.61,-100.8 -16.26,-48.77 -6.5,-104.05 3.25,-156.08 32.51,-139.81 133.86,-256.87 254.71,-331.65 61.78,-42.28 133.85,-68.28 209.17,-71.54l32.52 0zm929.95 -97.54c-176.67,6.5 -339.79,100.8 -444.38,237.36 -86.71,110.55 -144.7,253.62 -134.94,393.44 3.25,74.78 35.22,149.57 95.92,191.84 74.78,45.52 169.62,45.52 248.2,13 39.02,-15.71 74.79,-41.72 111.1,-57.98 48.77,-29.26 98.08,-61.78 146.86,-87.8 13,78.04 81.29,139.82 156.07,159.33 71.54,19.51 152.83,9.76 211.35,-39.01 52.03,-29.27 97.55,-74.79 100.8,-136.57 0,-16.26 0,-42.27 -16.26,-52.03 -26.01,-9.75 -52.02,9.76 -55.27,35.77 -48.77,61.78 -126.81,104.05 -208.1,91.05 -26.02,-3.26 -58.53,-16.26 -71.54,-42.28 -29.26,-61.78 -19.5,-133.31 6.51,-191.84l58.53 -136.56c45.52,-101.34 100.79,-198.89 139.81,-299.68 9.76,-26.02 9.76,-52.03 -16.26,-58.53 -9.75,-3.26 -19.51,-3.26 -29.26,3.25l-52.03 22.76c-22.76,3.25 -35.76,-3.25 -58.52,-6.5 -58.53,-9.76 -117.06,-29.27 -175.59,-35.77l-13 -3.25zm29.26 97.54c52.03,0 97.55,45.52 107.31,94.3 13,45.52 0,97.54 -19.52,139.81 -58.52,149.58 -156.61,286.14 -293.72,370.68 -45.52,26.01 -98.09,52.03 -150.11,55.28 -65.58,3.25 -127.36,-39.02 -143.61,-100.8 -16.26,-48.77 -6.51,-104.05 3.25,-156.08 32.51,-139.81 133.85,-256.87 254.71,-331.65 61.77,-42.28 133.85,-68.28 209.17,-71.54l32.52 0zm922.9 -490.98c-45.52,6.5 -74.79,48.77 -94.29,84.54 -78.04,165.83 -152.83,331.66 -230.87,494.24 -42.26,91.04 -87.78,175.58 -133.31,263.37 -52.02,97.55 -107.3,198.35 -156.08,299.15 -9.75,19.5 -19.5,35.76 -6.5,55.27 9.76,13.01 29.27,22.76 45.52,19.51 22.77,3.25 48.78,-3.26 58.53,-29.26 78.04,-139.82 133.32,-292.65 221.11,-429.21 45.52,-81.29 94.29,-162.58 172.33,-214.6 68.29,-45.53 143.07,-91.05 224.36,-87.79 55.28,0 100.8,45.52 110.55,97.54 16.26,61.78 -9.75,123.56 -29.26,182.09 -13.01,39.02 -26.01,78.04 -42.27,117.06 -26.01,65.57 -42.27,140.35 -29.27,208.63 9.76,78.04 58.53,152.83 136.57,175.59 97.54,26.01 198.34,-9.75 276.38,-68.28 22.76,-19.51 48.77,-42.27 71.53,-65.03 13.01,-19.52 19.52,-32.52 26.02,-52.03 3.25,-16.25 3.25,-32.51 3.25,-48.77 -3.25,-35.77 -32.51,-32.52 -65.03,3.25l-29.26 29.27c-55.28,52.02 -126.82,91.04 -201.61,87.78 -35.76,0 -71.52,-19.5 -87.78,-52.02 -19.52,-35.76 -26.02,-78.04 -16.26,-117.06 3.25,-19.5 9.76,-32.51 13,-55.81 22.76,-91.04 68.28,-178.84 84.54,-273.13 3.26,-78.04 -19.5,-162.58 -81.28,-214.61 -39.02,-32.51 -94.3,-48.77 -146.32,-42.27 -58.53,0 -113.81,26.02 -162.58,55.28 -26.01,9.76 -45.52,29.26 -68.29,42.27 -16.25,3.25 -16.25,-16.26 -22.76,-22.76 58.54,-126.81 120.31,-253.62 172.34,-383.68 13,-35.77 -13.01,-58.53 -13.01,-58.53z"/>
    <path class="fil11" d="M6445.5 13872.95l93.09 -224.34 93.21 224.34 -186.3 0zm77.31 -266.91c-2.08,0 -3.67,0.98 -4.65,2.81l-209.3 504.22c-0.73,1.72 -0.61,3.3 0.37,4.65 1.22,1.47 2.69,2.2 4.28,2.2l25.81 0c2.2,0 3.79,-1.1 4.65,-3.18l87.46 -210.03 214.32 0 87.09 210.03c0.98,2.08 2.57,3.18 4.65,3.18l25.81 0c1.96,0 3.42,-0.73 4.28,-2.2 0.98,-1.35 1.1,-2.93 0.37,-4.65l-209.3 -504.22c-0.98,-1.83 -2.45,-2.81 -4.65,-2.81l-31.19 0zm546.91 256.27l248.44 -248.08c1.59,-1.46 1.96,-3.18 0.98,-5.38 -0.86,-1.83 -2.45,-2.81 -4.65,-2.81l-33.64 0c-1.46,0 -2.69,0.49 -3.67,1.34l-228.99 228.38 0 -223.97c0,-3.43 -1.59,-5.02 -5.01,-5.02l-23.61 0c-3.3,0 -5.02,1.59 -5.02,5.02l0 503.12c0,3.3 1.72,5.01 5.02,5.01l23.61 0c3.42,0 5.01,-1.71 5.01,-5.01l0 -226.55 244.77 229.36c0.98,0.98 2.2,1.47 3.67,1.47l34.74 0c2.33,0 3.92,-1.1 4.65,-3.18 0.73,-1.96 0.37,-3.79 -1.1,-5.38l-265.2 -248.32zm466.3 257.61c-27.03,0 -52.23,-6.6 -75.59,-19.69 -23.61,-13.21 -42.57,-31.07 -56.64,-53.82 -1.84,-2.82 -1.35,-5.14 1.83,-6.73l20.43 -12.23c2.82,-1.47 5.14,-0.86 6.73,1.83 14.19,22.38 33.52,38.53 58.1,48.32 25.08,10.03 50.77,11.5 77.07,4.28 26.54,-7.1 48.07,-22.14 64.83,-45.14 16.51,-22.14 24.71,-47.34 24.71,-75.59l0 -349.73c0,-3.42 1.71,-5.01 5.02,-5.01l24.09 0c3.31,0 5.02,1.59 5.02,5.01l0 352.91c0,42.81 -15.29,79.51 -45.87,110.09 -30.34,30.33 -66.91,45.5 -109.73,45.5zm524.65 -439.75c-2.2,2.2 -4.28,2.32 -6.48,0.36 -1.84,-1.46 -3.67,-2.81 -5.39,-4.28 -2.57,-1.71 -5.13,-3.42 -7.46,-5.38 -6.48,-4.53 -12.72,-8.56 -18.59,-12.23 -15.17,-7.83 -30.71,-13.58 -46.97,-17.13 -12.24,-2.44 -22.51,-3.67 -30.83,-3.91l-8.32 0 -8.56 0c-2.81,0 -5.99,0.24 -9.3,0.61l-4.28 0.37 -4.28 0.36c-13.95,1.96 -25.57,4.77 -35.11,8.69 -12.47,4.77 -22.63,11.25 -30.46,19.69 -8.68,8.56 -14.8,19.33 -18.34,32.17l-1.1 5.02c-0.49,1.96 -0.74,3.67 -0.74,5.14 -0.61,4.28 -0.98,7.58 -0.98,10.03l-0.37 5.26 0 0.36c0,0.25 0,0.37 0,0.37l0 -0.98 0 0.61 0 1.84 0.37 2.81 0.37 6.12 0.61 4.28 0.37 2.2 0.73 2.45 1.47 4.77c0.24,1.1 0.86,2.69 1.83,4.65l0.98 2.08 1.1 2.57 2.57 4.28 2.45 4.28 1.83 2.2 1.47 2.08c1.1,1.71 2.2,3.06 3.18,3.91 8.81,9.91 20.8,19.21 35.84,28.02 11.26,6.48 26.06,13.7 44.41,21.89l6.11 2.45 6.12 2.94 11.74 5.38 23.37 10.76c19.08,8.56 35.1,16.88 47.95,25.08 17.73,11.13 32.05,23.12 43.06,35.84 13.08,15.41 21.65,32.78 25.44,51.87l1.47 7.21c0.49,2.81 0.73,5.26 0.73,7.1l0.37 7.21 0.24 3.55 0 1.1 0 0.37 0 0.73 0 1.84 -0.24 5.99 -0.37 2.94c0,1.46 0,2.57 0,3.54l-1.1 7.22 -1.1 7.1c-3.79,18.96 -11.38,35.47 -22.63,49.9 -10.64,13.83 -24.22,24.96 -40.49,33.28 -12.84,6.72 -27.89,11.99 -45.14,15.78l-5.38 1.1 -5.75 0.73c-4.28,0.86 -7.83,1.35 -10.64,1.35l-10.77 1.1 -10.39 0.37 -5.02 0.36 -2.57 0 -1.83 0 -1.35 0 -9.3 -0.36c-2.69,0 -5.74,-0.25 -9.41,-0.74l-5.02 -0.37 -5.01 -0.73c-10.89,-1.1 -22.76,-3.43 -35.48,-6.73 -18.84,-5.26 -36.82,-12.84 -54.06,-22.63 -6.49,-3.79 -12.61,-7.7 -18.23,-11.74 -4.65,-3.18 -8.93,-6.36 -12.97,-9.79 -2.57,-2.08 -5.01,-4.16 -7.09,-5.99 -2.45,-2.45 -2.45,-4.77 0,-7.22l17.49 -16.51c2.2,-2.08 4.4,-2.08 6.85,0 1.34,1.22 2.81,2.44 4.28,3.67 3.3,2.81 6.97,5.5 10.77,8.19 5.01,3.55 10.27,6.98 15.77,10.03 14.81,8.57 30.22,15.05 46.24,19.33 10.89,3.18 21.04,5.26 30.46,6.48l3.92 0.37 3.91 0.37c3.18,0.49 6.12,0.73 8.93,0.73l9.3 0.37 1.1 0 0 0 0.73 0 2.2 -0.37 4.65 0 8.93 -0.36 9.3 -0.74c2.69,-0.24 5.75,-0.61 9.3,-1.1l4.77 -1.1 4.89 -0.73c14.19,-3.06 26.18,-7.22 36.21,-12.48 11.99,-5.99 21.89,-13.95 29.84,-23.98 8.08,-10.52 13.58,-22.75 16.4,-36.57l0.73 -4.65 0.73 -5.02c0.25,-0.73 0.37,-1.71 0.37,-2.93l0 -2.81 0.37 -6.12 0 -1.83 0 -0.74 0 -0.24c0,0.36 0,0.61 0,0.61l0 -0.37 0 -2.45 -0.37 -5.38c0,-1.47 -0.12,-3.18 -0.37,-5.38l-0.73 -2.45 -0.37 -2.57c-2.81,-13.82 -9.05,-26.42 -18.59,-37.67 -15.05,-17.62 -41.47,-35.23 -79.27,-52.6l-23.97 -10.77 -11.5 -5.74 -5.38 -2.57 -6 -2.45c-19.57,-8.56 -35.47,-16.51 -47.7,-23.61 -17.86,-10.76 -32.42,-22.26 -43.31,-34.49 -1.46,-1.35 -3.05,-3.18 -4.77,-5.39l-2.08 -2.81 -2.2 -2.81c-3.3,-5.26 -5.87,-9.54 -7.46,-12.6l-1.47 -3.55 -1.47 -3.3c-1.1,-2.57 -1.95,-4.89 -2.44,-6.73l-2.2 -6.85 -0.74 -3.92 -0.61 -3.66 -1.47 -7.47 0 -6.11 -0.36 -2.82 0 -1.83 0 -0.73 0 -1.11c0,-0.24 0,-0.24 0,0l0 -0.36 0 -6.73c0.24,-3.55 0.73,-8.2 1.46,-13.7 0.25,-1.83 0.49,-4.04 0.98,-6.36l1.84 -6.48c4.77,-18.6 13.45,-34.13 26.17,-46.61 11.26,-11.25 25.08,-20.18 41.59,-26.91 12.12,-4.77 26.55,-8.2 42.94,-10.4l5.38 -0.37 5.39 -0.24c3.79,-0.49 7.09,-0.73 9.66,-0.73l9.66 0 9.79 0.36c10.15,0.25 22.14,1.59 35.84,4.28 19.08,4.29 37.31,11.14 54.8,20.43 6.61,3.55 12.84,7.34 18.59,11.5 4.53,2.81 8.93,5.87 13.21,9.3 1.47,1.34 3.8,3.42 6.85,6.11 2.45,2.33 2.45,4.77 0,7.1l-15.04 14.68zm370.52 439.75c-35.35,0 -69.11,-6.97 -101.41,-20.79 -31.07,-13.34 -58.35,-32.17 -82.08,-56.27 -23.85,-24.34 -42.2,-52.36 -55.17,-83.79 -13.08,-32.54 -19.32,-66.43 -18.59,-101.78 1.47,-65.81 24.83,-122.69 70.22,-171.01 45.62,-48.19 101.03,-74.98 166.36,-80.24 58.22,-4.53 111.8,8.93 160.48,40.49 2.7,1.95 2.94,4.16 1.11,6.72l-13.34 20.19c-1.59,2.57 -3.91,3.06 -6.73,1.34 -42.07,-27.15 -88.19,-38.89 -138.34,-35.1 -57.37,4.52 -105.81,28.13 -145.57,70.58 -39.63,42.32 -59.82,92.11 -60.55,149.48 -0.24,30.58 5.38,59.82 16.88,87.83 11.25,27.15 27.28,51.25 48.07,72.05 20.55,21.04 44.28,37.18 71.32,48.68 27.64,11.99 56.76,17.98 87.34,17.98 44.03,0 84.4,-11.98 121.22,-35.84 2.81,-1.95 5.14,-1.47 6.73,1.35l13.7 19.69c1.83,2.94 1.34,5.14 -1.47,6.85 -42.57,27.77 -89.3,41.59 -140.18,41.59zm549.36 -479.14c3.42,0 5.01,-1.71 5.01,-5.02l0 -23.97c0,-3.43 -1.59,-5.02 -5.01,-5.02l-320.37 0c-3.3,0 -5.02,1.59 -5.02,5.02l0 503.12c0,3.3 1.72,5.01 5.02,5.01l320.37 0c3.42,0 5.01,-1.71 5.01,-5.01l0 -23.61c0,-3.43 -1.59,-5.02 -5.01,-5.02l-291.75 0 0 -206.11 194.25 0c3.43,0 5.02,-1.72 5.02,-5.02l0 -23.61c0,-3.42 -1.59,-5.01 -5.02,-5.01l-194.25 0 0 -205.75 291.75 0zm259.08 479.14c-3.3,0 -5.02,-1.71 -5.02,-5.01l0 -503.49c0,-3.42 1.72,-5.01 5.02,-5.01l23.97 0c3.43,0 5.02,1.59 5.02,5.01l0 503.49c0,3.3 -1.59,5.01 -5.02,5.01l-23.97 0zm385.69 -16.88c0,-21.04 -0.12,-47.22 -0.37,-78.78 0,-5.25 0,-11.49 0,-18.71l0 -9.67 0 -10.02c0,-8.57 0,-15.54 0,-20.8 0,-7.83 0,-15.05 0,-21.41l0 -11.5c-0.24,-4.52 -0.61,-8.8 -1.1,-12.96 -0.98,-8.81 -2.94,-17.37 -5.75,-25.81 -5.75,-17.37 -15.04,-32.66 -28.01,-45.87 -12.6,-13.09 -27.65,-22.88 -45.14,-29.36 -8.07,-3.06 -16.51,-5.26 -25.44,-6.49l-3.18 -0.24 -3.55 -0.37 -3.3 -0.36c-1.35,0 -2.45,0 -3.18,0l-2.82 0 -3.3 0 -3.18 0 -3.3 0.36c-16.39,1.1 -32.05,5.51 -46.85,12.85 -12.97,6.97 -24.47,15.78 -34.5,26.54l-2.08 2.82 0 -40.86c0,-3.3 -1.71,-5.02 -5.01,-5.02l-23.98 0c-3.18,0 -4.77,1.72 -4.77,5.02l0 302.51c0,3.3 1.59,5.01 4.77,5.01l23.98 0c3.3,0 5.01,-1.71 5.01,-5.01l0 -174.19 0.37 -7.83c0,-1.22 0,-3.06 0,-5.38l0.37 -2.57 0.36 -3.18c0.25,-2.69 0.49,-5.26 0.98,-7.95 1.71,-6.61 4.16,-13.34 7.22,-20.06 4.04,-8.32 9.17,-15.91 15.41,-22.51 7.34,-8.2 16.15,-14.68 26.18,-19.7 10.76,-5.5 22.26,-8.68 34.74,-9.42l2.2 0 2.45 0 1.1 0 1.1 0 2.81 0c0.74,0 1.59,0 2.57,0l2.08 0.37 2.2 0.37 2.45 0.37c6.73,0.97 13.09,2.56 19.08,4.64 12.85,5.02 23.86,12.36 32.91,21.9 9.29,9.79 16.14,21.16 20.43,34 2.2,6.24 3.54,12.61 4.28,19.09 0.24,2.81 0.36,5.99 0.36,9.66l0 11.13c0,12.85 -0.12,26.91 -0.36,42.21 0,6.23 0,12.84 0,19.69l0 9.79 0 8.92c0,31.56 -0.13,57.74 -0.37,78.78l0 11.87c0,3.3 1.71,5.01 5.02,5.01l24.09 0c3.31,0 5.02,-1.71 5.02,-5.01l0 -11.87zm106.67 16.88c-3.06,0 -4.65,-1.71 -4.65,-5.01l0 -300.68c0,-3.3 1.59,-5.01 4.65,-5.01l23.97 0c3.43,0 5.01,1.71 5.01,5.01l0 300.68c0,3.3 -1.58,5.01 -5.01,5.01l-23.97 0zm36.57 -410.27c0,6.6 -2.32,12.35 -7.22,17.12 -4.77,4.77 -10.39,7.22 -17.12,7.22 -6.98,0 -12.73,-2.45 -17.25,-7.22 -4.77,-4.77 -7.1,-10.52 -7.1,-17.12 0,-6.73 2.33,-12.48 7.1,-17.25 4.52,-4.77 10.27,-7.22 17.25,-7.22 6.73,0 12.35,2.45 17.12,7.22 4.9,4.77 7.22,10.52 7.22,17.25zm250.4 368.32c-1.59,-2.33 -3.92,-2.7 -6.73,-1.11 -16.03,10.52 -30.83,12.36 -44.4,5.39 -15.05,-7.59 -22.63,-22.51 -22.63,-44.77l0 -194.99 49.05 0c3.42,0 5.01,-1.59 5.01,-5.01l0 -23.98c0,-3.3 -1.59,-5.02 -5.01,-5.02l-49.05 0 0 -88.56c0,-3.3 -1.72,-5.01 -5.02,-5.01l-23.97 0c-3.43,0 -5.02,1.71 -5.02,5.01l0.37 88.56 -43.43 0c-3.3,0 -5.01,1.72 -5.01,5.02l0 23.98c0,3.42 1.71,5.01 5.01,5.01l43.43 0 0 194.99c0,17 3.54,32.17 10.64,45.5 7.46,13.21 17.61,23 30.46,29.36 9.91,5.01 20.3,7.58 31.56,7.58 16.51,0 32.54,-5.26 48.07,-15.78 2.81,-1.71 3.18,-3.91 1.1,-6.85l-14.43 -19.32zm80.61 41.95c-3.06,0 -4.65,-1.71 -4.65,-5.01l0 -300.68c0,-3.3 1.59,-5.01 4.65,-5.01l23.97 0c3.43,0 5.02,1.71 5.02,5.01l0 300.68c0,3.3 -1.59,5.01 -5.02,5.01l-23.97 0zm36.57 -410.27c0,6.6 -2.32,12.35 -7.21,17.12 -4.77,4.77 -10.4,7.22 -17.13,7.22 -6.97,0 -12.72,-2.45 -17.25,-7.22 -4.77,-4.77 -7.09,-10.52 -7.09,-17.12 0,-6.73 2.32,-12.48 7.09,-17.25 4.53,-4.77 10.28,-7.22 17.25,-7.22 6.73,0 12.36,2.45 17.13,7.22 4.89,4.77 7.21,10.52 7.21,17.25zm268.75 327.83c-6.73,11.98 -14.8,21.65 -24.34,28.99 -11.01,8.44 -23.73,14.31 -38.05,17.61 -14.06,3.06 -29.23,3.18 -45.5,0.37 -16.51,-3.06 -28.26,-9.67 -35.48,-19.7 -7.46,-10.03 -10.88,-23.73 -10.39,-40.85 0.73,-14.31 6.48,-25.93 17.24,-34.74 9.06,-7.46 21.66,-13.21 37.93,-17.25 11.98,-2.81 25.56,-4.77 40.85,-5.75 11.75,-0.73 23.86,-0.98 36.21,-0.73 8.56,0.24 17.98,0.85 28.01,1.83 2.33,0.25 4.89,0.49 7.46,0.74l0 10.39 -0.36 10.4 0.36 10.76 -1.83 6.73c-3.06,11.75 -7.1,22.14 -12.11,31.2zm51.99 82.44c3.79,0 5.5,-1.96 5.01,-5.75 -2.69,-20.55 -4.65,-40.12 -6.11,-58.71 -2.21,-25.57 -3.31,-47.83 -3.31,-66.67 0,-6.24 0.12,-13.45 0.37,-21.53l0 -17.25 0 -17.86c-0.25,-13.21 -1.1,-24.71 -2.81,-34.73 -4.04,-25.82 -13.09,-46 -27.28,-60.68 -18.6,-19.08 -45.99,-28.62 -82.08,-28.62 -25.32,0 -48.69,4.89 -70.21,14.68 -7.59,3.67 -14.81,7.7 -21.53,12.23 -2.57,1.83 -5.14,3.79 -7.47,5.75 -1.95,1.34 -3.67,2.81 -5.38,4.28 -2.69,2.32 -2.69,4.89 0,7.46l17.86 16.15c2.2,1.95 4.41,1.95 6.48,0 1.23,-0.98 2.57,-1.96 3.92,-3.18 1.96,-1.47 3.91,-2.82 5.75,-3.92 5.26,-3.42 10.89,-6.36 16.88,-9.05 16.27,-6.85 34.13,-10.4 53.7,-10.4 26.54,0 45.75,6.12 57.74,18.35 13.33,13.58 20.3,38.66 20.79,75.23l0 0 -5.38 -0.36c-5.51,-0.49 -10.03,-0.74 -13.58,-0.74 -5.5,-0.49 -10.89,-0.73 -16.15,-0.73 -13.21,-0.37 -26.05,-0.25 -38.77,0.36 -17.37,1.23 -32.91,3.55 -46.49,6.85 -20.79,5.26 -37.67,13.22 -50.52,23.61 -9.17,7.22 -16.02,15.54 -20.79,25.08 -5.02,9.66 -8.07,20.3 -9.05,31.93 -1.35,25.32 3.79,46.23 15.41,62.75 6.97,9.29 15.66,16.88 26.18,22.63 8.93,4.77 19.08,8.19 30.82,10.27 20.8,3.43 40.49,2.94 59.21,-1.34 19.33,-4.77 36.08,-13.09 50.15,-24.71 8.32,-6.73 15.9,-14.8 22.51,-24.1 1.22,15.05 2.93,31.19 5.01,48.44 0.49,2.81 2.21,4.28 5.02,4.28l24.1 0zm210.27 -41.95c-1.59,-2.33 -3.91,-2.7 -6.73,-1.11 -16.02,10.52 -30.82,12.36 -44.4,5.39 -15.05,-7.59 -22.63,-22.51 -22.63,-44.77l0 -194.99 49.05 0c3.43,0 5.02,-1.59 5.02,-5.01l0 -23.98c0,-3.3 -1.59,-5.02 -5.02,-5.02l-49.05 0 0 -88.56c0,-3.3 -1.71,-5.01 -5.02,-5.01l-23.97 0c-3.43,0 -5.02,1.71 -5.02,5.01l0.37 88.56 -43.42 0c-3.31,0 -5.02,1.72 -5.02,5.02l0 23.98c0,3.42 1.71,5.01 5.02,5.01l43.42 0 0 194.99c0,17 3.55,32.17 10.64,45.5 7.46,13.21 17.62,23 30.46,29.36 9.91,5.01 20.31,7.58 31.56,7.58 16.52,0 32.54,-5.26 48.07,-15.78 2.82,-1.71 3.18,-3.91 1.11,-6.85l-14.44 -19.32zm80.61 41.95c-3.05,0 -4.65,-1.71 -4.65,-5.01l0 -300.68c0,-3.3 1.6,-5.01 4.65,-5.01l23.98 0c3.42,0 5.01,1.71 5.01,5.01l0 300.68c0,3.3 -1.59,5.01 -5.01,5.01l-23.98 0zm36.58 -410.27c0,6.6 -2.33,12.35 -7.22,17.12 -4.77,4.77 -10.4,7.22 -17.12,7.22 -6.98,0 -12.73,-2.45 -17.25,-7.22 -4.77,-4.77 -7.1,-10.52 -7.1,-17.12 0,-6.73 2.33,-12.48 7.1,-17.25 4.52,-4.77 10.27,-7.22 17.25,-7.22 6.72,0 12.35,2.45 17.12,7.22 4.89,4.77 7.22,10.52 7.22,17.25zm208.56 407.09c-0.98,2.08 -2.57,3.18 -4.65,3.18l-21.89 0c-2.21,0 -3.67,-1.1 -4.65,-3.18l-111.44 -301.41c-0.73,-1.71 -0.61,-3.3 0.37,-4.64 1.1,-1.47 2.57,-2.21 4.28,-2.21l25.44 0c2.08,0 3.55,1.11 4.28,3.18l92.85 249.79 92.35 -249.79c0.74,-2.07 2.33,-3.18 4.77,-3.18l25.08 0c1.83,0 3.3,0.74 4.28,2.21 0.98,1.34 1.1,2.93 0.37,4.64l-111.44 301.41zm289.54 -274.62c-33.03,0 -60.43,11.5 -82.45,34.5 -22.14,23.12 -33.39,51.86 -33.64,86.36l231.08 -20.06c-3.31,-29.73 -15.54,-53.82 -36.82,-72.42 -21.29,-18.84 -47.34,-28.38 -78.17,-28.38zm5.75 277.8c-43.06,0 -79.63,-15.17 -110.09,-45.5 -30.58,-30.58 -45.87,-67.4 -45.87,-110.34 0,-43.79 14.8,-80.73 44.16,-110.82 29.11,-30.1 64.83,-45.02 107.15,-44.78 41.1,0.25 76.21,15.42 105.32,45.51 28.87,29.85 43.43,65.69 43.43,107.52l0 7.95c0,2.82 -1.47,4.41 -4.41,4.65l-257.24 22.51c7.21,26.06 21.53,47.46 43.05,64.22 21.9,16.88 46.73,25.44 74.5,25.44 21.04,0 40.73,-5.13 59.08,-15.41 18.23,-10.03 32.91,-23.98 44.16,-41.59 1.59,-2.94 3.92,-3.55 6.73,-1.83l20.8 11.86c2.93,1.84 3.54,4.28 1.83,7.1 -14.31,22.75 -33.4,40.61 -57,53.82 -23.37,13.09 -48.57,19.69 -75.6,19.69z"/>
   </g>
   <rect class="fil12" x="14654.57" y="5582.85" width="47.94" height="9138.78"/>
  </g>
 </g>
</svg>
