<?xml version="1.0" encoding="UTF-8"?>
<!DOCTYPE svg PUBLIC "-//W3C//DTD SVG 1.1//EN" "http://www.w3.org/Graphics/SVG/1.1/DTD/svg11.dtd">
<!-- Creator: CorelDRAW X7 -->
<svg xmlns="http://www.w3.org/2000/svg" xml:space="preserve" width="5.166in" height="3.333in" version="1.1" style="shape-rendering:geometricPrecision; text-rendering:geometricPrecision; image-rendering:optimizeQuality; fill-rule:evenodd; clip-rule:evenodd"
viewBox="0 0 5166 3333"
 xmlns:xlink="http://www.w3.org/1999/xlink">
 <defs>
  <style type="text/css">
   <![CDATA[
    .str0 {stroke:#FEFEFE;stroke-width:27.7795}
    .fil15 {fill:none}
    .fil14 {fill:#2B2A29}
    .fil16 {fill:#E31E24}
    .fil17 {fill:#211917}
    .fil0 {fill:#3C5486}
    .fil6 {fill:#3D5486}
    .fil19 {fill:#4E160E}
    .fil2 {fill:#516BA5}
    .fil7 {fill:#90A7D1}
    .fil8 {fill:#ACC1E3}
    .fil18 {fill:#DA251C}
    .fil4 {fill:#DC6A34}
    .fil1 {fill:#E98536}
    .fil3 {fill:#FAA631}
    .fil5 {fill:#FFCE2E}
    .fil13 {fill:#2B2A29;fill-rule:nonzero}
    .fil12 {fill:#2B2A29;fill-rule:nonzero}
    .fil10 {fill:#00A0E3;fill-rule:nonzero}
    .fil9 {fill:#3C5486;fill-rule:nonzero}
    .fil11 {fill:#FFC22B;fill-rule:nonzero}
   ]]>
  </style>
 </defs>
 <g id="Layer_x0020_1_0">
  <metadata id="CorelCorpID_0Corel-Layer"/>
  <g id="_2397817581616">
   <g>
    <g id="_2155334432816">
     <path class="fil0" d="M3665 608c4,5 1,7 4,13 2,-1 10,-11 13,-16 2,-2 3,-2 8,-2 2,4 3,7 8,8 4,-4 2,-8 8,-11 9,-2 9,7 14,10 5,-5 5,-17 13,-19 12,3 3,56 7,81 4,16 9,16 6,24 -7,4 -27,-4 -24,-26 1,-16 5,-33 7,-48 -5,2 -4,7 -12,6 -5,-3 -5,-7 -9,-8 -2,2 -2,2 -3,4 -1,3 -3,4 -5,5 -9,0 -5,-5 -12,-7 -5,1 -7,8 -13,10 -9,5 -13,-1 -17,-3 -23,21 -26,9 -30,10 -5,4 -8,6 -14,0 -4,-3 -7,-9 -11,-10 -5,5 -1,15 -10,19 -9,-3 -5,-16 -11,-18 -7,9 1,26 -14,24 -4,-4 -4,-7 -4,-15 0,-7 -1,-12 -5,-14 0,11 2,17 -4,26 -3,5 -13,14 -21,11 -15,-7 -22,-58 -12,-75 4,-7 13,-12 23,-7 7,3 10,11 11,20 3,15 5,4 14,17 5,-3 3,-10 12,-12 7,3 6,8 11,10 4,-2 3,-6 7,-8 11,-11 13,18 22,21 5,-5 6,-26 16,-37 14,-12 36,-1 32,11 -1,2 -5,5 -9,3 -3,0 -13,-12 -21,11 -5,14 5,9 10,5 4,-6 6,-13 15,-13zm24 -37c9,-3 16,3 19,8 12,24 -33,25 -25,0 1,-5 2,-6 6,-8zm54 33c0,-14 8,-23 16,-29 18,-15 32,0 21,8 -3,3 -12,4 -16,7 -12,8 -11,20 -4,19 3,-1 5,-4 6,-6 2,-6 5,-12 10,-13 10,-2 7,10 10,13 5,6 11,-1 13,-5 2,-5 5,-10 9,-14 5,-4 13,-3 16,3 4,11 -12,24 -18,28 -25,20 -26,1 -30,2 -6,4 -12,12 -24,8 -7,-1 -9,-11 -9,-21zm-263 -33c-1,-1 0,2 -1,-2 -1,-3 0,-8 1,-10 2,-4 5,-7 4,-12 -6,-1 -9,2 -13,9 -30,38 20,39 40,65 29,38 -20,74 -65,61 -14,-5 -25,-12 -15,-27 3,-4 9,-8 15,-10 8,0 14,7 9,13 -4,7 3,8 12,8 18,-1 49,-12 31,-31 -9,-7 -17,-14 -27,-21 -13,-6 -21,-10 -26,-24 -8,-26 15,-57 32,-63 16,-7 29,-1 25,19 -1,9 -11,31 -22,25zm-89 173l469 0 0 -266 -469 0 0 266z"/>
     <path class="fil0" d="M3522 771c5,0 13,0 18,0 6,0 8,3 8,9 0,11 -15,8 -26,7l0 -16zm-7 43l7 1 0 -21c30,-2 25,1 26,20l9 1c-7,-11 0,-17 -5,-23l-3 -1c10,-10 7,-20 -1,-24 -6,-3 -25,-2 -33,-2l0 49z"/>
     <path class="fil0" d="M3710 799l-7 0c2,23 31,19 37,10 6,-8 2,-17 -4,-19 -9,-5 -17,-3 -24,-9 -2,-16 17,-11 20,-9 2,3 2,5 4,8l6 0c0,-13 -13,-20 -26,-15 -12,3 -17,19 -4,25 7,3 31,3 24,16 -4,6 -26,8 -26,-7z"/>
     <path class="fil0" d="M3601 765c0,9 -1,26 0,36 2,21 37,20 39,-1 1,-10 1,-25 0,-35l-6 0c-2,9 0,20 0,29 0,11 -4,17 -13,17 -18,0 -13,-23 -13,-46l-7 0z"/>
     <polygon class="fil0" points="3413,771 3431,771 3431,815 3438,814 3438,771 3454,771 3454,765 3413,765 "/>
     <path class="fil0" d="M3528 617c0,38 19,32 21,17 1,-12 -9,-9 -14,-17 -6,-13 6,-20 6,-22 -12,-6 -13,14 -13,22z"/>
     <polygon class="fil0" points="3798,771 3815,771 3815,815 3821,815 3821,771 3839,771 3839,765 3798,765 "/>
     <path class="fil0" d="M3697 586c-1,-3 -4,-3 -5,0 3,1 4,1 5,0z"/>
     <path class="fil0" d="M3545 611c0,0 1,-1 1,-1 0,0 1,0 1,0l-1 -1c0,0 0,0 0,-1 -3,2 -1,0 -1,3z"/>
    </g>
    <g id="_2155153123280">
     <path class="fil0" d="M4338 582c0,12 -7,22 -14,31l-7 9c-7,12 -5,27 4,37 3,5 10,12 16,13 0,20 -34,44 -57,44 -20,0 -33,-3 -47,-16 -12,-12 -17,-29 -21,-35 0,21 4,32 13,47 3,7 8,12 11,19 13,16 33,29 52,39 26,14 60,16 89,8 7,-3 15,-5 21,-8 11,-5 11,-5 20,-12l16 -13c4,-4 6,-6 9,-8l10 -13c10,-13 17,-33 19,-49 1,-2 1,-6 1,-7 0,-4 1,-3 1,-7 -3,2 -2,7 -3,11 -3,12 -10,19 -18,26 -3,4 -12,9 -16,12 -14,6 -18,6 -33,6 -12,0 -28,-7 -38,-14 -10,-9 -17,-18 -21,-31 5,-6 5,-5 10,-9 10,-12 18,-19 18,-38 0,-15 -4,-29 -11,-38 -6,-9 -14,-16 -23,-22 -1,-1 -1,-2 -3,-2 0,9 2,17 2,20z"/>
     <path class="fil0" d="M4388 542l-2 1 2 -1zm0 0c0,-3 1,-5 1,-8l6 0c2,7 15,6 21,15 -3,3 -4,3 -5,6l-7 0c0,-1 0,-2 -1,-3 4,0 6,0 8,0 0,-7 0,-5 -8,-5 -1,2 -4,2 -3,7 0,3 3,5 6,6 -1,3 -2,3 -2,4 -1,2 -1,0 0,3 0,2 0,2 0,3 6,-1 10,-14 18,-18l7 7c2,2 3,3 7,5 1,-1 2,-2 3,-4 -3,-1 -8,-6 -12,-8 -1,-2 -2,-3 -4,-4l-13 -11c-4,-2 -4,0 -5,-1 0,0 0,-1 -1,-1l-6 -3c-2,0 -1,-2 -3,1 0,-6 -2,-3 -3,-8 -2,-10 -1,-18 -12,-20 0,7 4,7 5,13 -3,-3 -3,-5 -9,-5 0,5 1,6 4,8 4,1 5,1 8,5 -4,1 0,1 -4,0 -6,-3 -6,-3 -13,-3 0,2 0,3 0,5l13 4c-1,7 -2,8 -5,8l-1 1c-2,0 -5,-1 -5,-4 6,-2 7,3 7,-5 -3,0 -10,0 -10,7 -1,4 3,7 8,7 0,3 0,3 0,8l2 2c4,-2 4,-7 6,-11 0,0 0,1 5,1l0 4c-2,0 -1,2 -5,2 0,15 20,-9 3,-12l-1 2z"/>
     <path class="fil0" d="M4225 591l0 2c2,1 2,1 3,1 1,0 2,-1 2,-1 9,0 18,16 24,5l-14 -8c-3,-1 -3,-1 -6,-2 0,-2 1,-4 2,-6 5,1 12,8 18,12 2,0 3,-1 6,-3 -3,-2 -17,-11 -19,-14 1,-6 1,-3 5,-8 4,-5 2,-3 8,-7l2 2c-4,7 -8,7 -8,15l12 0c-1,-5 0,0 -4,-6l5 -4c6,4 3,7 13,7 -1,-3 -5,-7 -7,-9l-3 -3c-2,-3 -4,-3 -5,-7 1,-2 1,-2 4,-3 4,2 10,12 12,14 2,2 3,1 7,1 -1,-3 -13,-19 -14,-19 2,-3 2,-2 0,-7 -8,5 -5,4 -9,6 -3,1 -3,3 -4,4l-8 7c-3,2 -3,2 -4,3 0,1 -1,3 -2,4l-2 3c0,1 -2,1 -2,1 -1,2 0,2 -1,2 -1,1 -1,2 -2,4 -2,3 -9,12 -9,14z"/>
     <path class="fil0" d="M4446 576c-1,3 0,3 -1,5 0,0 -2,1 -2,1l-3 2c-3,-1 0,0 -3,-2 -3,-1 -4,-1 -5,-3 7,0 7,0 11,-5 1,1 1,1 3,2zm0 0l0 0zm6 29l1 0c-1,-2 -2,-5 -2,-7l5 -2 3 2c1,0 2,0 4,-1 -4,-7 -4,-9 -11,-18 -4,-5 -6,-11 -9,-13 -2,-3 -3,-3 -5,-2 -1,4 1,3 1,7 -5,3 -5,0 -7,-3 -3,-4 -3,0 -6,-5 0,-1 0,-1 -1,-2 -8,0 -11,5 -11,12 0,3 0,4 3,6 1,-11 2,-13 7,-13 0,4 -1,3 -2,5 0,3 0,2 1,4 4,-1 1,-4 7,-4 0,8 -6,10 3,16 1,1 0,0 1,1 -4,1 -5,3 -5,9 3,-1 15,-9 21,-13 1,3 2,5 3,6 -5,1 -2,4 -9,1 -3,4 -4,5 -4,11 11,0 4,3 8,5 2,0 2,-2 4,-2z"/>
     <path class="fil0" d="M4329 521l0 4c2,0 1,0 5,0 4,0 4,-2 10,0l0 4c-1,-1 0,-1 -3,-1 -4,0 -7,0 -9,2 -3,4 -1,9 2,12 1,4 2,5 7,5 -4,-6 -5,-4 -5,-12l8 -1c0,3 0,5 0,8 0,4 1,3 1,6 -2,1 -2,1 -4,2 1,3 1,3 1,4 4,0 2,-1 7,-1 0,8 -7,3 -10,0 -2,-3 -3,-4 -7,-5 2,5 7,13 17,13 2,0 5,-2 5,-7 0,-4 -4,-5 -4,-8l0 -21c4,0 5,1 5,-3 0,-2 -3,-2 -5,-2l-20 0c-1,0 -1,0 -1,1z"/>
     <path class="fil0" d="M4198 763c0,2 0,0 1,3 7,-1 11,-13 17,-13 5,0 11,5 0,13 -3,2 -6,5 -8,7 1,2 1,2 2,5 11,-6 10,-13 19,-13 3,0 5,2 5,5 0,5 -14,10 -15,17 2,1 1,1 3,3 3,-2 17,-15 17,-20 0,-5 -5,-9 -11,-9 0,-5 -2,-11 -9,-11 0,-4 0,-3 0,-5 -4,0 -5,1 -7,2l-14 16z"/>
     <path class="fil0" d="M4175 711c0,-8 9,-5 4,-12 -10,1 -11,16 -4,24 6,8 19,6 19,-4 0,-10 -2,-20 4,-20 3,0 7,5 7,10 0,8 -6,4 -3,11 7,-1 10,-9 5,-18 0,-3 -1,-3 -2,-4l-2 -1c0,-1 -1,-1 -1,-1 -3,-3 -6,-3 -9,-1 -1,0 -2,1 -2,2 -6,8 2,25 -6,26l-4 0c-3,-1 -6,-8 -6,-12z"/>
     <path class="fil0" d="M4377 813c0,-9 12,-11 14,1 4,15 -14,14 -14,-1zm8 -23c0,8 1,7 3,12 -6,0 -9,-1 -11,2 -13,7 0,32 13,24 3,-2 2,-2 5,-3 0,2 1,1 3,1 0,-8 -5,-21 -7,-31 -1,-4 -1,-7 -6,-5z"/>
     <path class="fil0" d="M4264 529c9,5 7,-1 14,3 2,0 3,1 4,2 -5,2 -11,5 -13,8l1 1c0,0 0,0 0,0 4,4 6,-1 10,-2 3,-1 2,0 2,1 1,1 1,0 0,1 0,2 -1,2 -2,2 -3,2 -3,1 -3,5 0,4 1,5 4,6 5,5 9,3 12,3 3,0 1,0 4,1 1,-1 1,0 3,-1 0,-5 -2,0 -4,-5 -3,-8 -1,-6 -7,-5 -1,4 -1,1 0,6l-6 0c0,-2 -1,-3 -1,-6 2,0 6,-2 8,-3l-4 -9c7,-3 3,-5 -5,-8 -5,-2 -12,-7 -17,0z"/>
     <path class="fil0" d="M4242 798c-9,0 -8,-10 -5,-10 5,0 9,3 12,5 -1,2 -2,5 -7,5zm-3 -21c1,2 0,3 3,3 4,0 4,-2 7,0 5,3 5,10 1,8l-8 -3c-7,-4 -14,1 -14,7 0,5 8,9 14,9 0,3 0,3 1,4l3 2c2,-2 13,-19 13,-21 0,-6 -7,-12 -13,-12 -3,0 -5,1 -7,3z"/>
     <path class="fil0" d="M4294 825c-1,-10 1,-7 14,-7 0,4 -4,8 -10,8l-4 -1zm-1 -17c4,0 2,1 5,-1 5,-3 11,-2 11,6 -13,0 -21,-2 -21,8 0,11 16,7 16,7 3,0 0,0 3,1 2,2 1,2 3,3 1,-10 10,-25 0,-28 -7,-4 -17,-4 -17,4z"/>
     <path class="fil0" d="M4497 738c-6,0 -2,-12 -2,-15 11,1 7,15 2,15zm-18 -11c0,4 1,6 2,7 4,0 3,0 4,-1 -7,-11 7,-17 7,-10 0,4 -4,6 -4,11 0,9 12,12 16,4 2,-4 2,-6 2,-11 3,0 3,-1 3,-3 -1,-2 -17,-9 -22,-9 -5,0 -8,8 -8,12z"/>
     <path class="fil0" d="M4433 806c-7,0 -2,-8 0,-9 1,-2 1,-2 3,-3 2,-1 0,-1 3,-2 4,8 0,14 -6,14zm-14 -9c1,-2 5,-2 5,-4 0,0 -2,-3 3,-7 3,-2 6,-1 9,0 -2,8 -18,12 -10,21 5,7 15,1 18,-7 4,2 1,1 6,0 0,-2 -5,-6 -7,-10 -5,-7 -5,-10 -11,-10 -10,0 -13,7 -13,17z"/>
     <path class="fil0" d="M4355 797l-10 27c0,1 0,2 -1,2l0 2c-2,-8 -12,-28 -12,-31l-5 0c0,4 2,7 3,10l12 27 6 0 11 -39c-1,2 -1,2 -4,2z"/>
     <path class="fil0" d="M4458 744c-2,0 -4,1 -5,1 1,4 1,2 4,5l24 16c3,2 3,2 5,0 0,-7 -16,-8 -16,-17 0,-3 2,-6 5,-6 4,0 13,9 19,10 1,-1 1,-1 1,-3 -8,-6 -24,-23 -29,-3 -1,6 -6,-3 -8,-3z"/>
     <path class="fil0" d="M4196 747c-11,0 -9,-16 6,-16 10,0 7,16 -6,16zm-12 -7c0,4 2,6 3,9 14,15 38,-12 19,-22 0,-1 -3,-1 -3,-1 -1,-1 -3,-1 -4,-1 -7,1 -15,7 -15,15z"/>
     <path class="fil0" d="M4289 532c1,1 1,2 1,3 3,-1 12,-5 14,-5 3,9 4,9 1,12 -2,3 -4,3 -4,0 0,-3 2,-3 4,-6 0,0 -1,-3 -5,-1 -9,4 -2,18 9,11 1,4 2,6 7,6l-6 -23c1,-1 1,-1 4,-1l-2 -5c-8,0 -18,5 -23,9z"/>
     <path class="fil0" d="M4412 812l0 0zm0 0c-2,-1 -7,-6 -9,-10 -5,-7 -6,-4 -10,-3 0,2 2,2 3,3 3,4 16,16 17,19 1,6 -3,5 -4,10 3,2 7,2 8,-3 2,-4 0,-31 -3,-38 -7,0 -2,4 -2,22z"/>
     <path class="fil0" d="M4264 822l-4 0c0,3 0,4 0,4 2,3 6,2 8,1l22 -23c3,-3 3,-3 4,-5 -3,0 -1,0 -4,0 -1,0 -12,13 -15,14 0,-5 0,-9 0,-14 1,-5 3,-8 -4,-8l-1 27c-1,3 -2,4 -6,4z"/>
     <path class="fil0" d="M4178 580c0,4 3,7 4,11 -3,-1 -4,-2 -9,-2 0,1 -1,2 -1,5l21 7c1,-1 1,-3 1,-4 -5,-3 -6,-2 -7,-7 9,-1 13,-1 13,-8 -1,1 -13,2 -16,2 0,-2 -3,-4 -4,-9 0,1 -2,2 -2,5z"/>
     <path class="fil0" d="M4458 783l0 0zm0 0c-4,0 -14,-8 -19,-9l-3 3c2,2 23,15 27,11 2,-3 -7,-23 -9,-27 -3,2 -1,2 -3,2 0,7 5,14 7,20z"/>
     <path class="fil0" d="M4277 496c0,-3 0,-3 3,-4 7,4 4,7 3,8 -1,1 -6,3 -6,-4zm10 6c0,10 -4,3 -10,7 4,6 12,0 14,-2 0,-8 -4,-14 -5,-20 -2,0 -9,2 -10,2 -7,4 -3,14 1,17 5,1 6,-3 10,-4z"/>
     <path class="fil0" d="M4327 479c2,1 2,3 3,6l-5 0c0,-3 0,-4 2,-6zm-11 16l6 0c1,-7 3,-6 10,-6l2 4 4 0c0,-1 -1,-4 -2,-5l-1 -3c-3,-5 -5,-13 -8,-13 -3,0 -4,1 -5,3 0,3 -1,5 -1,7l-5 13z"/>
     <path class="fil0" d="M4223 525c0,5 3,3 4,8 -2,-1 -6,-4 -9,-4 -2,5 -2,4 2,11 -2,-1 -10,-7 -11,0 4,1 18,10 18,3 0,-2 -2,-4 -4,-7 4,0 5,3 9,4 3,-5 2,-4 -3,-12 -1,-2 -1,-5 -4,-6 -2,1 -2,1 -2,3z"/>
     <path class="fil0" d="M4443 526c-2,-4 0,-7 4,-8 1,0 3,1 4,2 -1,5 -4,6 -8,6zm-7 -1c7,3 2,2 7,4 4,5 11,-1 11,-8 0,-5 -2,-5 -6,-7 2,-2 4,-3 4,-7 -4,0 -4,-1 -7,4 -1,1 -2,2 -4,3 -1,2 -5,8 -5,11z"/>
     <path class="fil0" d="M4260 502c14,0 3,14 0,5 -1,-2 -1,-2 0,-5zm0 -11c0,3 0,4 1,7 -5,2 -7,2 -7,8 0,3 3,8 9,8 4,0 3,-1 7,-3 1,0 1,0 3,-2 0,-3 -6,-14 -9,-16 -1,-2 -2,-4 -4,-2z"/>
     <path class="fil0" d="M4241 607c-1,4 -4,2 -5,7 5,7 6,1 11,-3 2,-1 0,2 2,-1 -1,-3 -1,0 -5,-3 -4,-4 -2,-7 -11,-2 0,-2 2,-4 2,-8 -1,0 -2,-1 -5,-1 -1,2 -1,4 -2,7 -1,4 -3,6 -1,8 1,3 5,2 7,0 2,-3 1,-4 7,-4z"/>
     <path class="fil0" d="M4452 605l-8 5c-5,1 -5,1 -5,7 5,-1 17,-7 21,-8 3,1 1,2 5,2 5,0 1,-4 0,-8 0,-1 -1,-2 -1,-5 -3,0 -3,2 -5,2l0 4c-3,0 -3,1 -7,1z"/>
     <path class="fil0" d="M4490 700c0,4 0,3 1,4 -3,1 -4,1 -4,5 4,0 10,3 13,4 4,2 9,4 13,4l1 -5 -6 -2c0,0 0,0 0,0 -16,-4 -13,-4 -13,-13 -2,-1 0,-1 -3,-2 -1,1 -2,2 -2,5z"/>
     <path class="fil0" d="M4296 491c0,-3 0,-3 0,-4 4,0 5,-1 5,2 -4,0 -3,0 -5,2zm-6 0c0,11 15,12 17,2 -7,0 -3,2 -9,3 -1,-2 -1,-1 -1,-3 4,-1 10,-1 10,-2 0,-11 -17,-11 -17,0z"/>
     <path class="fil0" d="M4395 491c3,-2 4,-2 4,2 -2,0 -2,0 -4,-1l0 -1zm-7 4c0,6 9,12 14,5 -5,-2 -3,-1 -7,-1 -2,-1 -3,-1 -3,-4 3,0 8,3 11,3 0,-2 3,-12 -7,-12 -6,0 -8,6 -8,9z"/>
     <path class="fil0" d="M4248 512c-1,3 0,1 -2,2 -3,2 -4,1 -3,-1 1,-2 1,-1 5,-1zm-9 2c0,13 16,13 16,2 0,-1 -2,-1 -3,0 -3,3 -2,6 -6,4 2,-5 4,-4 7,-7 -3,-8 -14,-6 -14,1z"/>
     <path class="fil0" d="M4358 491c-6,0 -4,-5 -3,-10 3,0 3,0 6,1 1,2 1,3 1,5 0,1 -1,4 -4,4zm-9 -6c0,15 17,11 17,3 0,-16 -17,-10 -17,-3z"/>
     <path class="fil0" d="M4494 581c3,0 4,0 4,1 1,2 -1,4 -3,4 0,-2 -1,-3 -1,-5zm-9 3c0,3 1,5 2,6 3,3 4,1 6,3 0,-9 -7,-5 -2,-11 1,1 3,7 4,9 12,-5 6,-15 -1,-15 -4,0 -9,5 -9,8z"/>
     <path class="fil0" d="M4475 557c5,2 6,5 3,5l-1 0c-4,0 -3,-2 -2,-5zm0 -3c-3,0 -5,1 -5,5 0,2 3,4 3,5 2,2 1,-1 2,3 0,1 0,1 2,2l9 -6c1,-2 2,-1 2,-4 0,-6 -3,-9 -9,-9 1,6 7,6 5,9 -3,1 -6,-5 -9,-5z"/>
     <path class="fil0" d="M4459 532c1,-2 1,-2 2,-2 4,0 3,3 3,5l-5 -3zm-7 3c0,8 7,11 11,7 -2,-2 -4,-3 -7,-3l0 -5c5,1 4,5 8,7 8,-5 2,-15 -3,-15 -4,0 -9,3 -9,9z"/>
     <path class="fil0" d="M4205 553c0,-1 0,-1 0,-3 8,-2 8,0 8,7 -4,0 -8,0 -8,-4zm-5 1c0,5 3,8 9,8 11,0 11,-16 -1,-16 -3,0 -8,2 -8,8z"/>
     <path class="fil0" d="M4187 571c1,3 13,11 15,9 4,-7 -8,-4 -8,-12 0,-6 7,2 14,3 0,-2 1,-2 -3,-7 -3,-1 -5,-2 -7,-3 -6,-1 -6,5 -10,9 0,1 0,0 -1,1z"/>
     <path class="fil0" d="M4369 495c10,0 2,-8 9,-10 5,2 1,8 0,13 1,1 2,1 4,1 3,-5 3,-7 3,-14 0,-3 -3,-4 -5,-4 -3,0 0,0 -2,0 0,0 -1,1 -1,1l-2 -1c-2,-1 -2,-1 -3,-1 -1,1 -3,13 -3,15z"/>
     <path class="fil0" d="M4498 604c-5,-1 -3,-3 -3,-7l-2 -2c-5,8 1,14 5,14 6,0 4,-6 4,-12l3 0c0,7 -1,7 2,8 5,-10 -7,-18 -9,-8 0,3 0,6 0,7z"/>
     <path class="fil0" d="M4412 511c8,1 11,8 15,4 -1,-3 -5,-6 -9,-6 1,-6 7,-11 8,-17 -3,-3 -4,-1 -8,6 -2,2 -6,8 -6,13z"/>
     <path class="fil0" d="M4253 812c4,1 4,0 6,-3 3,-4 10,-16 11,-21 -2,0 -2,0 -3,-1 -4,5 -14,19 -14,25z"/>
     <path class="fil0" d="M4456 758c3,5 16,16 19,19l3 -3c-4,-4 -15,-16 -20,-18l-2 2z"/>
     <path class="fil0" d="M4362 806c0,8 3,18 3,27 7,0 5,1 3,-21 -2,-5 0,-8 -6,-6z"/>
     <path class="fil0" d="M4480 574c0,5 1,3 4,6 2,-4 1,-3 1,-4 0,-2 0,-2 2,-3 6,-4 4,-2 8,0 2,-3 0,-3 2,-5l1 -1c1,-1 1,0 1,-3 -8,-4 -11,3 -13,4 -2,2 -6,2 -6,6z"/>
     <path class="fil0" d="M4341 478l0 15 4 0c3,-11 0,-13 0,-22l-3 0c0,3 -1,3 -1,7z"/>
     <path class="fil0" d="M4225 515c2,1 10,12 14,17l3 -3c0,-2 -12,-15 -14,-16l-3 2z"/>
     <path class="fil0" d="M4463 548c0,1 0,2 1,4 3,-2 6,-6 10,-6 0,0 1,1 1,1 3,1 0,0 3,1 1,-1 1,-1 2,-1l0 -4c-2,-1 -2,-1 -3,-1 0,-2 -2,-2 -2,-3 -4,1 -10,6 -12,9z"/>
     <path class="fil0" d="M4216 610l5 3c1,-5 6,-12 6,-17 -2,0 -1,-1 -4,-1 -2,5 -4,10 -7,15z"/>
     <path class="fil0" d="M4429 518c0,2 0,1 1,3 4,0 2,-1 7,-7 1,-2 6,-8 0,-8 -3,0 -4,3 -5,6 0,1 -3,4 -3,6z"/>
     <path class="fil0" d="M4430 613c1,1 3,2 3,4 0,4 -3,4 -4,8 3,-1 8,-4 8,-10 0,-4 -1,-4 -3,-6 -2,1 -2,2 -4,4z"/>
     <path class="fil0" d="M4361 795l0 4c0,3 2,1 5,1l-1 -5c-2,0 -2,0 -4,0z"/>
     <path class="fil0" d="M4269 784c2,1 2,1 5,1 0,-1 3,-6 -1,-6 -3,0 -4,2 -4,5z"/>
     <path class="fil0" d="M4447 752l4 4c6,-5 3,-4 0,-7l-4 3z"/>
     <path class="fil0" d="M4438 505c3,0 3,0 6,-2 -1,-2 -1,-2 -4,-3 -1,2 -1,2 -2,5z"/>
    </g>
    <g id="_2155146148656">
     <path class="fil0" d="M4968 774l0 26 -5 0 0 -22c0,-5 0,-5 5,-4zm-5 -8c3,0 5,0 5,1 3,5 -6,7 -5,1l0 -2zm8 4c-1,-5 5,-4 12,-4 4,0 5,0 5,2 1,5 -4,3 -7,3 -3,0 -4,0 -6,0 -2,0 -4,1 -4,-1zm-59 -11c1,-6 12,-5 15,-3 2,0 3,2 6,4l4 6 19 0c5,0 5,0 5,5 -5,1 -14,1 -18,1 -8,0 -6,0 -9,3 -5,6 -5,8 -8,8 -9,0 -13,1 -13,-5l8 1c6,0 6,-1 8,-5 1,-3 4,-4 1,-8 -6,-10 -2,-7 -18,-7zm56 -12c0,9 2,17 -2,17 -4,0 -3,-4 -3,-7 0,-13 1,-10 -8,-18 -5,-2 -4,-3 -4,-15 3,-1 2,-1 5,-2l0 14c1,1 8,4 10,4 2,0 8,-3 10,-4l0 -13c5,1 1,1 5,2 0,4 -1,5 -1,7 0,9 -2,4 -12,15zm19 -74l1 0c0,0 4,0 7,-1 3,0 5,-1 7,-3 5,0 7,3 10,4 4,3 6,3 12,4 2,8 0,4 -10,8 -5,3 -10,5 -17,5 3,-2 3,-1 4,-2 3,-4 -4,1 6,-5 1,-1 1,-1 1,-4 -3,-2 -7,-1 -12,-1l-8 -2c-3,-1 -1,0 -1,-3zm-44 0c4,-1 24,-5 21,2 0,1 -1,1 -1,3 -1,4 0,10 -6,10 -2,0 -2,0 -3,-2l-4 2c0,3 3,2 7,2 6,0 5,-5 11,-2 1,1 1,1 2,1 6,2 11,3 17,3 8,0 9,4 23,-2 5,-2 7,-6 14,-5 4,6 0,6 10,6 3,0 2,0 3,-1l-5 -1c-3,0 -3,0 -4,-1l0 -18c7,0 9,5 16,5 7,0 14,0 21,0 7,0 15,0 22,0 2,0 20,0 22,1 1,3 1,26 1,33 0,32 -1,52 -28,74 -6,4 -20,11 -27,14l-6 2c-5,2 -10,3 -13,5 -2,1 -4,2 -6,2 -2,1 -4,2 -6,3l-22 11c-4,1 -10,5 -13,5 0,-3 1,-4 1,-6 1,-19 0,-39 0,-58 0,-8 0,-64 -1,-66l-2 0 1 69 -12 0c-3,0 -3,0 -5,-1 0,0 0,0 0,0 0,0 0,0 0,0l0 -9c0,-3 -1,-5 2,-8 12,-12 10,-2 10,-22 -2,-2 -12,-9 -13,-9 0,3 3,4 3,8 1,2 1,8 1,11 0,0 -7,4 -8,4 -2,0 -8,-4 -8,-5 -2,-2 0,-10 2,-14 1,-2 1,-1 1,-3 -3,0 -12,6 -12,8l-1 14c1,2 8,6 10,8 3,1 2,14 2,18 -4,0 -18,0 -20,0 -3,-1 -3,-1 -4,-3l-7 -9c-2,0 -6,0 -9,0 -5,0 -7,0 -10,5l-5 6c-2,1 0,1 0,2 1,0 5,-1 8,-2 2,-2 9,-3 11,0 0,0 2,0 2,0 1,1 3,4 3,5 -1,3 -3,7 -5,9 -3,0 -7,0 -10,-2 -1,0 -7,-2 -8,-2 0,4 1,2 2,5 2,2 4,7 6,8 2,0 6,0 8,0 11,0 8,-3 17,-12l21 0c1,7 0,16 0,23 0,5 0,8 10,5 1,-7 1,-16 1,-24l0 -3c0,-1 0,-1 2,-1 1,0 2,0 2,0l8 0c1,0 2,0 2,0 3,0 2,0 3,0 1,1 1,34 0,39 0,2 -1,5 -1,6 0,1 0,2 0,3l0 3c0,0 0,0 0,0 -2,1 -2,1 -3,1 -1,0 -2,-1 -4,-2 -2,-2 -4,-2 -6,-3 0,0 -1,-1 -3,-1l-9 -5c-1,-1 -4,-1 -6,-2 -2,-1 -3,-1 -6,-2l-30 -13c-3,0 -5,-1 -6,-3 -15,-4 -32,-14 -41,-28 -5,-7 -7,-15 -9,-24 -3,-5 -2,-11 -2,-16 -1,-5 0,-45 0,-52 11,-3 55,1 72,1 5,-1 6,-1 9,-3l0 0zm38 0c1,4 6,4 9,6 5,2 6,2 11,2l2 0c0,1 0,1 -2,2 -10,1 -18,-5 -25,-5 4,4 13,6 18,7l2 1c-5,3 -15,-4 -22,-4 2,2 3,2 7,3l7 5c-10,0 -14,-2 -22,-6 0,-3 1,-8 2,-11 2,-3 3,-3 8,-5 4,-2 8,0 12,-2 4,0 8,-1 12,-1 0,3 0,4 -3,4 -8,3 -13,0 -16,4zm55 -38c-1,-3 0,-4 2,-6 3,0 4,5 4,5 0,1 -4,1 -6,1zm-29 -5c2,1 3,1 3,5l-6 0c0,-3 0,-1 1,-4 2,-1 0,0 2,-1zm-6 1l0 -7c6,1 4,7 0,7zm8 -3c1,-5 3,-4 5,-4l0 7c-3,0 -4,-1 -5,-3zm32 -4c2,-2 0,-1 3,-2l0 7c-3,0 -3,-1 -3,-5zm-7 5l0 -7c2,1 3,2 3,5 -1,1 -1,2 -3,2zm-31 -9l8 0c0,3 0,2 -2,3 -2,2 -1,4 -5,0 -1,-1 -2,0 -1,-3zm32 -3l7 -1c0,5 -1,2 -3,6 -2,0 -4,-1 -4,-5zm-170 1c8,-1 -6,-3 21,-3l21 0c0,0 0,2 0,2 0,3 0,1 1,3 2,-2 1,0 1,-2 0,0 0,-2 0,-2 6,-1 7,1 10,5l3 6c1,4 -8,2 -17,2 -3,0 -41,1 -43,0 -1,-2 0,-5 2,-7l-3 -1 0 -24c3,-1 5,-2 8,-2 2,6 -1,10 2,14 2,1 2,0 3,2 -1,2 -1,0 -2,2 -1,0 -7,0 -7,5zm37 -8l-22 0c-8,0 -7,-3 -7,-10 0,-6 0,-12 0,-18 0,-13 -1,-12 21,-12 21,0 18,-3 18,30 0,8 -2,10 -10,10zm-41 -16l0 -8c0,-4 -1,-4 3,-5 2,0 3,-1 5,-1l0 11c-3,2 -3,3 -8,3zm244 17l-16 18c-2,2 0,2 -3,2 -1,-14 0,-29 0,-43 0,-6 1,-6 8,-13l9 -8c1,-3 1,-3 3,-3l-1 47zm-154 -42c3,1 7,6 7,8l-12 0c0,-2 1,-2 2,-3 1,-1 2,-4 3,-5zm125 -16c2,-1 2,-1 4,-1 2,1 0,1 2,1l0 18c-2,0 -4,3 -6,2 -1,-2 0,-18 0,-20zm-81 36c-1,-6 -1,-8 2,-10l15 -13c3,-2 6,-5 9,-6 0,1 0,4 1,6 0,3 0,3 1,5 5,0 9,-1 13,-2 2,0 5,0 7,0 3,0 3,-1 7,-1 0,2 0,2 -2,3 -10,10 -3,5 -23,11 -4,1 -10,2 -15,4 -5,1 -10,3 -15,3zm-39 -19c0,0 -1,-2 -2,-2 -1,-2 2,-5 4,-5 0,3 2,7 2,10 -3,-2 -2,-2 -4,-3zm-12 3c0,0 2,-10 2,-10 2,0 5,3 3,5 -1,2 -2,5 -5,5zm120 -12l0 8c4,1 5,0 8,0l0 6c4,1 5,1 10,0 3,-1 3,-2 3,-9 6,0 12,-3 17,-3 -2,3 -10,11 -12,13 -1,3 -1,1 -3,3 -3,3 -2,4 -14,5l-28 4c-2,0 -1,-4 -1,-6 0,-5 2,-6 7,-9 1,-2 1,-3 4,-5 2,-2 1,-1 5,-6 2,-1 0,-1 4,-1zm-103 -1c1,1 1,2 1,4 1,3 4,11 2,13 -2,0 -1,-1 -2,-8l-2 -6c0,-1 0,-1 0,-2 0,-1 0,0 1,-1zm-20 19c-2,0 -4,-2 -5,1 1,2 5,0 7,0 4,0 7,0 11,0l15 0c2,0 2,1 4,-1 -3,-2 -4,0 -5,-3 -1,-1 -2,-7 -2,-9 0,-4 -2,-4 -2,-6 5,0 2,1 10,7 2,1 3,1 6,2 0,0 2,1 2,1l2 3 0 68 4 0c2,-5 -1,-56 0,-68l9 0c-1,2 -1,2 -3,5 -2,1 -3,1 -3,3 0,0 0,6 0,6 1,2 3,2 4,3 7,2 20,-4 29,-5l18 -5 -1 8c4,2 5,1 10,1 8,-1 15,-2 24,-3 2,-1 5,-1 9,-1l0 48 -38 1c-1,-6 2,-17 -1,-20 -2,-1 -10,-1 -13,0 -3,2 2,16 -1,19 -1,1 0,1 -1,1 -4,0 -11,0 -14,0 -1,-5 1,-11 0,-15 0,-2 -1,-3 -2,-3 -4,0 -7,0 -12,0 -4,0 -4,1 -4,5l0 13c-4,0 -7,-3 -7,2 7,1 77,0 88,0 8,0 7,-1 12,-6 5,-4 9,-11 14,-16 1,-1 1,-1 4,-2 0,18 1,41 -2,58 -8,1 -62,2 -68,-1 -3,-1 -5,-2 -9,-2 -7,0 -6,0 -6,5 -7,0 -13,-3 -19,-5 -8,-4 3,-5 -13,-4 -7,1 -17,0 -24,4 -4,2 -2,1 -7,1 -17,0 -15,2 -26,3 -14,1 -39,0 -55,0l-15 -1c-5,0 -4,-2 -4,-9 0,-4 0,-7 0,-11 0,-6 0,-12 0,-17 1,-5 5,-3 7,-3 15,0 38,1 52,0 3,0 4,-1 6,-2 1,-4 -4,-8 -6,-11 0,-1 -3,-3 -4,-4 -1,0 -1,0 -1,0 0,0 -1,0 -1,0l-1 0c-1,-1 -3,-1 -4,-1 3,-8 5,1 5,-16 0,-26 -4,-14 14,-28 7,-5 9,-9 15,-9 0,3 -2,15 -2,19zm15 -19c-1,4 -7,6 -7,0 1,0 6,0 7,0zm-7 -8c0,-3 0,-5 0,-7 1,-3 1,-5 2,-8 2,3 2,3 2,5 2,10 3,10 -4,10zm39 -54c2,1 1,1 3,2 5,5 17,13 21,15 10,5 7,3 14,6 10,5 26,7 36,7 7,0 15,-1 21,-3l4 -2c3,-1 3,-1 5,-1l11 -4c7,-4 3,-4 7,-4 0,5 2,42 0,42 -1,1 -1,1 -1,1 -5,2 1,-1 -3,2 -2,1 -17,3 -21,3 -1,-13 1,-12 -5,-13l0 -4c3,-2 4,0 4,-5l-8 1c-3,1 -3,1 -4,5 3,2 3,0 4,3 -1,1 -1,0 -3,1l0 14c-2,2 -2,2 -5,2l-3 -11c-2,0 -6,4 -7,6 -3,3 -3,3 -9,5l-25 2c0,-1 0,-11 -1,-12 -2,-1 -4,1 -8,5 -4,2 -10,9 -14,9 -4,1 -10,1 -13,0l0 -72zm-83 69c1,-3 0,0 2,-1l10 -7c7,-4 20,-16 26,-22 4,-3 3,-4 6,-4 0,3 -1,3 -1,6 -2,7 0,13 -5,13 -2,1 4,0 0,1 -4,0 -3,-1 -4,1 1,1 0,1 2,1l20 -1c5,1 7,1 7,-1 -2,-1 -4,-1 -6,-1 -2,-4 -2,-10 -4,-13 -1,-5 0,-4 0,-4 2,0 3,1 4,2 9,11 19,13 22,17 0,2 0,5 0,7 0,6 1,9 -2,8 -2,0 -8,-3 -9,-6l-4 -4c-3,-3 -20,-2 -23,-2 -6,0 -7,-1 -10,3 -3,4 -17,14 -22,15l-1 -4c-3,-3 -6,-3 -7,-4 -1,0 0,0 -1,0zm79 -18c-4,0 -9,-3 -11,-6 -4,-2 -9,-4 -10,-9 4,0 6,2 10,2 4,0 8,0 11,0l0 13zm-126 -37c1,4 0,2 3,3 1,0 3,1 4,1l1 2c1,1 1,1 2,1l11 4c3,2 9,4 13,4 11,1 24,1 35,-1 6,0 10,-3 16,-5 6,-1 11,-3 15,-6 5,-3 9,-6 13,-9 3,-3 10,-8 12,-10 0,7 0,13 0,19 0,3 1,17 0,18 -3,2 -15,0 -17,-1 -3,-2 -6,-3 -8,-4 -5,-5 -3,-6 -10,-1l-13 7c-6,3 -12,7 -19,8l-6 3c-8,2 -21,3 -29,4 -3,0 -10,-1 -13,1 5,3 38,-1 42,-3 2,-1 4,-1 5,-1l13 -5c4,-1 13,-7 15,-7 -1,3 -11,12 -15,14 -6,5 -11,8 -16,12 -4,2 -7,3 -11,4 -8,6 -20,0 -26,4 -6,2 -4,6 -6,8 -2,1 -5,3 -9,1 0,-4 0,-10 0,-15 0,-6 -1,-8 1,-13 -1,-3 -1,-10 -1,-15 -1,-4 0,-8 0,-12l-2 24c0,9 0,18 0,28 0,17 1,36 1,55 0,18 0,36 0,55 0,18 -1,39 1,55 0,4 1,7 2,11 2,8 5,14 10,20 1,2 4,4 6,7 8,8 21,16 34,21l30 11c2,2 6,4 8,5 4,1 7,3 11,5 1,0 2,1 5,2 1,0 3,0 4,1 4,2 7,4 10,5 5,1 4,4 10,1 13,-4 26,-11 38,-17l20 -9c2,-1 3,-1 4,-2l16 -6c22,-10 38,-29 43,-54l1 -11c0,-5 1,-10 0,-14 -1,-8 0,-33 0,-42 0,-5 0,-49 0,-55 1,-10 0,-41 1,-55 0,-14 0,-42 -1,-55 -2,0 -3,3 -5,4 -7,3 -18,9 -25,10 -9,3 -20,3 -31,1 -9,-1 -17,-2 -27,-5 -14,-6 -24,-15 -36,-25 -3,-1 0,0 -3,-2 -2,0 -3,2 -5,4 -13,13 -31,24 -50,27 -13,3 -27,4 -40,1 -9,-2 -10,-3 -17,-5 -2,0 -12,-6 -13,-6 -1,-1 -1,0 -2,0z"/>
     <path class="fil0" d="M4912 518c5,0 9,0 14,0 3,-2 2,-2 6,-3 5,-1 15,-4 19,-7 6,-5 13,-8 20,-15 2,-1 12,-14 13,-14 3,1 3,1 5,3 14,16 8,10 26,24 9,7 30,13 43,13 7,0 13,-1 19,-4 14,-2 25,-10 36,-17 3,-2 3,-4 7,-5l0 209c0,15 1,37 -4,51 -3,6 -4,11 -7,17l-12 14c-4,3 -12,9 -17,11l-8 5c-2,1 -3,1 -6,2 -2,2 -3,2 -6,3 -5,2 -7,2 -11,4 -8,3 -13,5 -19,8l-38 18c-5,5 -4,5 -15,-3 -2,-1 -3,-1 -6,-3 -1,-1 -3,-1 -4,-2 -5,-1 -9,-3 -12,-5l-11 -4c-11,-4 -24,-9 -35,-13 -2,-1 -2,0 -3,-1l-5 -3c-6,-2 -1,0 -8,-4 -1,0 -1,-2 -4,-2 -3,-1 -8,-5 -11,-8 -2,-1 -4,-2 -5,-3 -1,-1 -2,-3 -4,-4 -9,-9 -10,-14 -15,-26l-2 -13c0,-4 -1,-3 -1,-7 -2,-18 0,-45 0,-64l0 -176c3,0 10,7 13,8l12 9c4,1 4,1 9,2 3,1 5,2 9,2 7,3 9,3 18,3zm72 -44c-2,1 -3,5 -7,8 -4,4 -4,7 -8,5 -2,-2 -3,-5 -5,-8 0,-2 -1,-4 -1,-7 1,-14 18,-22 29,-18 23,8 11,33 8,34 -3,0 -10,-9 -11,-10 -2,-3 -2,-3 -5,-4zm-20 -15c0,7 -7,6 -1,23 3,7 8,7 0,13 -6,5 -13,10 -20,13 -29,13 -60,7 -84,-12l-8 -7c-3,-1 -3,-2 -4,-3 0,2 1,3 1,7 -1,81 0,161 -1,241 0,4 1,5 1,7l1 8c4,10 9,22 16,30 1,0 1,1 2,1 1,1 1,1 1,3 4,3 7,5 10,8 3,3 11,8 16,9 1,1 1,1 2,1l45 18c1,1 1,1 2,1 13,5 25,9 35,16l10 7c1,-2 4,-4 10,-8l12 -7c5,-2 11,-6 16,-7l10 -4c7,-3 14,-5 21,-8 6,-2 13,-5 19,-9l11 -6c17,-10 27,-26 32,-44 1,-3 1,-5 2,-7 0,-4 0,-5 0,-10 0,-3 2,-4 2,-8l0 -202c0,-9 0,-18 0,-28 0,-4 -2,-6 -2,-9 0,0 0,0 0,0 0,0 0,0 0,0l-4 6c-1,1 -1,1 -4,1l-9 7c-1,1 -2,2 -4,2 -6,4 -11,7 -18,10 -18,6 -41,3 -58,-5l-12 -7c-1,-1 -1,-1 -3,-2 -2,-2 -5,-5 -8,-6 6,-11 8,-8 8,-23 0,-4 -6,-11 -9,-14 -8,-4 -10,-4 -17,-5 -5,0 -2,0 -7,2 -3,1 -7,6 -12,7z"/>
     <path class="fil0" d="M4896 695c12,-3 21,5 24,15 2,12 -6,21 -15,23 -19,4 -32,-17 -20,-31 3,-5 7,-5 11,-7zm-16 -10c0,6 3,4 3,11 -9,0 -5,-11 -14,1 -1,1 -4,5 -3,6 0,2 13,8 2,12 -2,0 -3,1 -4,2 0,1 2,7 3,7 4,7 1,3 4,7 3,1 4,-1 7,-1 1,0 2,0 2,2l0 1c-1,1 -4,4 -2,5 0,1 11,9 12,9 4,-1 5,-11 9,-7l4 7c3,0 14,-3 16,-4 0,-6 -3,-4 -3,-9 8,-1 8,7 12,3 2,-3 9,-11 9,-13 -3,-4 -9,-2 -8,-8 4,-3 6,-1 7,-3 0,0 0,-1 0,-1 0,0 0,0 0,0 0,0 0,0 0,-3 -1,-2 -1,-3 -2,-4 0,-2 -1,-5 -1,-7 -5,0 -6,2 -11,2 0,-3 0,-2 4,-5 1,-3 2,-3 -3,-5 -3,-2 -9,-7 -14,-7 0,1 -1,2 -1,3 -3,7 -6,3 -7,0 0,-2 -1,-3 -2,-4 -3,0 -6,1 -10,1 -2,1 -6,2 -9,2z"/>
     <path class="fil0" d="M5072 692c6,-1 5,3 11,4 6,0 6,-4 9,-4 2,1 2,4 4,5 1,3 3,3 6,5 1,5 -2,3 -6,4 -3,3 -2,3 -3,7 -1,2 -6,3 -7,-1 -1,-3 0,-6 -4,-5 -3,3 -3,4 -4,6 -8,2 -2,-3 -8,-9 -2,-2 -4,-4 -1,-6 1,-2 2,-3 3,-6zm8 -11c-8,2 -8,1 -14,7 -2,2 -1,1 -2,3 -2,4 -4,6 -4,14 3,18 29,24 42,10 7,-9 7,-23 -5,-31 -4,-2 -11,-5 -17,-3z"/>
     <path class="fil0" d="M5051 720c1,3 1,5 1,7 0,4 1,5 -2,5 -2,-2 -2,-3 -2,-7 0,-3 0,-6 3,-5zm-17 -1l3 1c0,3 0,5 0,7 0,3 1,4 -2,4 -3,-2 -3,-8 -1,-12zm-12 11l0 -10 2 0c0,0 2,11 -2,10zm-19 -14c2,0 2,-1 2,2 0,0 0,2 0,2 -1,3 -1,2 -1,3 -1,0 -2,0 -2,-6 1,-1 0,-1 1,-1zm18 -3c8,0 27,-1 32,0l0 5 -38 0c-3,-6 1,-5 6,-5zm-16 -6c7,6 6,5 6,9 -3,0 -2,0 -7,-4 -2,-1 -4,-2 -7,-5l0 -4c3,0 4,1 8,4zm9 -8c8,0 17,0 24,-1 3,0 4,0 5,1 2,3 8,8 8,11l-30 0c-9,0 -9,1 -13,-4 -5,-4 -7,-3 -7,-7l13 0zm-9 -2c-3,0 -7,0 -9,1 -1,11 -2,9 2,14 3,1 0,6 2,10l2 4c1,1 0,0 1,1 2,-1 1,0 2,-2 2,-1 2,-1 3,-1l0 -5c4,-1 1,1 6,1 3,0 4,-1 4,3 0,1 0,4 0,6 1,2 1,2 3,3 2,2 1,2 2,5 2,-1 1,-1 1,-4 2,-6 2,5 2,-13 4,0 5,0 5,4 0,2 0,5 0,8 1,0 3,1 3,2 1,3 0,3 3,3 0,-1 0,-1 0,-4 1,-1 2,0 2,-3 2,-3 -1,-6 0,-10 2,0 4,-1 5,0 4,2 1,5 2,12 6,5 3,4 5,5l4 -6c0,-2 0,-7 0,-9l2 -3c1,-8 -1,-9 -5,-14 -1,-1 -9,-8 -9,-8 -2,-1 -33,0 -38,0z"/>
     <path class="fil0" d="M4940 611c0,-2 1,-2 2,-3 2,-3 8,-10 11,-10 1,0 8,7 10,10 3,2 3,0 3,3l-26 0zm27 -4c-3,0 -1,0 -4,-3 -12,-11 -12,-6 -3,-15 1,-1 1,-1 3,-1 1,2 4,15 4,19zm-28 -2c0,-2 1,-4 1,-8 1,-3 0,-6 2,-8 4,1 4,2 6,5 3,3 2,2 -4,8 -3,3 -2,3 -5,3zm30 -14c1,3 5,18 5,19 -5,1 -4,-1 -4,-5l-3 -12c0,-3 -1,-5 -1,-7 3,1 2,2 3,5zm-18 3c-1,-1 -2,-3 -3,-4 -2,-1 -4,-1 -4,-4l14 0c-1,3 -4,7 -7,8zm-15 -10c0,3 -1,0 4,3l-3 10c-1,5 -1,8 -2,13 0,0 0,0 0,1l-5 2 0 1c3,1 44,0 48,0 2,-5 -1,-1 -2,-5l-5 -20c-1,-5 0,-2 0,-6l-31 0c-3,0 -3,0 -4,1z"/>
     <path class="fil0" d="M5029 800c2,0 1,0 3,-1 5,-7 9,-14 17,-18 11,-3 34,3 44,-14 4,-4 9,-14 10,-20 0,-6 0,-7 -5,-6 -6,0 -12,2 -16,3 -2,15 7,9 10,15 1,1 1,4 0,6 -2,5 -5,5 -8,8 -13,8 -27,0 -41,10 -4,2 -5,4 -8,8l-3 2c0,0 0,0 0,0l-1 2c-1,3 -2,3 -2,5z"/>
     <path class="fil0" d="M5030 766c2,0 9,0 12,1 -1,1 -1,1 -3,3 -1,0 -9,2 -9,-4zm6 -7c0,0 1,-1 5,0 1,0 5,2 5,4 2,3 -5,1 -5,1 -5,0 -12,1 -5,-5zm13 2c-3,-1 0,0 -3,-2 0,0 -1,-1 -1,-1 -2,0 -3,0 -4,-1 0,-4 2,-5 5,-4 3,1 5,3 6,5 0,2 -1,2 -3,3zm-1 -9c1,-7 9,-5 9,-1 0,2 0,5 -2,5 -3,0 -2,-2 -4,-3 -1,0 -2,-1 -3,-1zm-7 29c0,-6 -6,-2 -5,-8 2,-1 3,0 8,-3 2,-3 5,-5 7,-7 13,-12 8,-12 8,-16 6,0 5,3 10,2 -1,-6 -12,-3 -13,-4 -3,0 -3,-1 -5,0 -2,0 -5,4 -7,5 -5,3 -2,0 -7,6 -7,7 -14,10 -6,16 3,1 1,0 3,3 1,4 3,6 7,6z"/>
     <path class="fil0" d="M5007 771c-2,-3 -2,-4 1,-4 8,-1 6,4 3,6 -2,0 -3,0 -4,-2zm-2 -11c3,0 9,-1 9,3 0,3 -6,2 -10,1l1 -4zm0 -2c-1,-2 -1,-4 2,-4 9,-1 7,4 4,4 -1,0 -4,0 -6,0zm2 -7c0,-4 2,-5 4,-5 1,1 1,3 1,5l-5 0zm7 -6c2,-2 7,-1 9,0 1,0 0,0 1,0 1,-1 1,0 1,-1 0,-3 0,-1 -3,-3 -5,0 -7,-1 -13,3 -7,3 -7,7 -7,13 1,11 0,14 6,18 8,6 2,5 18,5l0 -1c-4,-2 -10,1 -14,-2 0,-4 3,-3 4,-7l0 -18c-1,-5 -2,-5 -2,-7z"/>
     <path class="fil0" d="M4879 582c0,-7 1,-6 17,-6 7,0 6,0 9,3l0 23c-3,1 -2,1 -6,1l-14 0c-4,0 -4,0 -6,-1l0 -20zm-3 0c0,4 -1,19 0,20 3,5 10,3 16,3 3,0 10,2 13,0 3,-2 2,-8 2,-11 0,-3 1,-14 0,-17 -1,-1 -1,-2 -2,-3l-20 0c-7,0 -9,2 -9,8z"/>
     <path class="fil0" d="M4981 636c1,-1 0,-2 0,-5 0,-2 0,-3 -1,-6 0,-1 -2,-4 -2,-4 0,-4 2,-1 2,-5l-40 1c-3,0 -10,-1 -8,1 0,4 2,-1 1,7 -1,3 -1,5 -3,9 0,2 -2,5 3,5 1,-3 2,-17 3,-21l34 2c1,2 1,4 3,8 1,8 0,8 3,8 0,-6 -3,-12 -3,-18 7,0 3,16 8,18z"/>
     <path class="fil0" d="M5075 598c1,7 -2,7 -6,7 -3,0 -3,0 -3,-3 0,-2 -1,-5 9,-4zm-12 7l-7 0c-1,-4 -1,-7 3,-7 5,0 5,2 4,7zm-11 0c-2,0 -6,0 -8,-1 -1,-7 1,-7 8,-6 1,3 1,5 0,7zm-7 3l32 0c1,-3 1,-7 1,-11 -5,-2 -14,-1 -20,-1 -17,0 -16,-2 -16,8 0,4 0,4 3,4z"/>
     <path class="fil0" d="M5029 598c1,3 1,4 1,7 -2,0 -4,0 -6,0 -2,0 -3,0 -3,-3 0,-2 0,-4 2,-4 2,0 5,0 6,0zm-11 0l0 4c0,3 -1,3 -2,3 -6,2 -6,0 -6,-3 0,-2 0,-5 7,-4 0,0 0,0 1,0zm-10 0c2,7 -1,7 -6,7 -2,0 -2,0 -2,-3 0,-5 2,-4 8,-4zm-11 3l0 7c7,0 31,1 34,-1 1,0 1,-2 1,-4 0,-9 2,-7 -18,-7l-13 0c-5,0 -4,0 -4,5z"/>
     <path class="fil0" d="M4887 715c0,-2 0,-4 0,-5 2,-7 14,-13 22,-6 1,1 3,2 4,3 8,20 -23,29 -26,8zm9 -16c-3,1 -7,3 -9,6 -8,12 2,27 18,24 14,-3 16,-20 4,-29 -2,-1 -8,-3 -13,-1z"/>
     <path class="fil0" d="M5071 621c0,-3 2,-4 5,-3 1,2 1,4 0,6 -4,0 -5,1 -5,-3zm-8 0c0,-4 6,-4 6,0 1,4 -3,3 -6,3l0 -3zm-7 -1c3,-4 7,1 4,3 -2,4 -7,-1 -4,-3zm-3 -4c0,2 -1,7 0,9 0,2 5,2 7,2l17 0c3,-2 1,-10 1,-11 -2,-1 -22,-1 -25,0z"/>
     <path class="fil0" d="M5084 650c5,-3 2,-1 7,0 0,-7 -8,-6 -9,1 0,5 3,11 8,7 1,0 1,0 1,-1l1 -1c2,1 1,0 2,1 3,4 3,2 8,1 0,-2 1,-2 0,-6l-4 0c1,4 2,2 1,5 -2,0 -2,0 -3,-1 0,-1 -2,-2 -2,-4 2,-5 5,-3 8,-2 0,-5 -5,-8 -9,0l-1 2 -3 0c0,3 0,3 0,5 -5,0 -5,-3 -5,-7z"/>
     <path class="fil0" d="M5044 657c-1,-1 -1,0 -2,-2 0,-1 -3,-7 3,-6 0,1 1,2 1,3 0,5 -1,4 -2,5zm8 -7c3,-3 5,0 5,-5l-6 0 -2 4c-1,-1 -1,-1 -3,-2 -3,-4 -7,1 -7,5 0,3 0,6 3,7 2,0 3,0 4,-1l2 -1c1,-2 0,1 1,-1l1 1c0,0 0,0 0,0 1,1 -1,0 1,1l1 -1c1,-6 1,-1 4,-5 0,0 -1,0 -1,0 0,0 0,0 0,0 0,0 0,-1 0,-1 -2,0 -2,0 -2,0 -1,-1 -1,0 -1,-1z"/>
     <path class="fil0" d="M4901 655c0,3 1,4 4,4 2,0 2,-1 3,-2l1 -1c3,0 1,1 3,3 4,0 7,-1 7,-4 -4,0 -2,0 -3,1 -3,2 -4,-1 -4,-2 0,-2 0,-3 0,-4 3,-3 2,-1 5,0 0,-5 -3,-7 -7,-2 -1,2 -1,1 -1,3 0,1 0,1 -1,3 -1,-2 0,-2 -2,-3 -3,-1 -3,0 -3,-2l5 0c-1,-6 -7,-2 -7,1 0,4 5,1 5,6 -4,2 -1,0 -5,-1z"/>
     <path class="fil0" d="M4980 655c0,-3 -2,-7 3,-6 2,0 1,5 1,7 -2,1 -2,1 -4,-1zm5 4c0,-1 0,-3 3,-4l0 1c1,1 0,1 1,2 1,3 5,1 5,1 1,-1 1,0 1,-2 -3,-1 -5,1 -5,-2 0,-4 1,-6 0,-8 -2,1 0,0 -2,1l-1 1c0,-1 0,0 0,-1 -4,-5 -9,-1 -10,2 0,2 0,5 1,7 3,2 3,2 7,2z"/>
     <path class="fil0" d="M5080 736l0 5c4,0 18,-2 22,-3l-2 -4c-4,-1 -1,0 -9,2 -4,0 -7,0 -11,0z"/>
     <path class="fil0" d="M4929 657c5,6 6,-7 11,1l3 0 0 -9c0,-4 1,-1 0,-2 -1,1 -2,-2 -1,4 0,3 0,4 -1,5 -1,0 -1,1 -2,-5 -2,-3 1,-4 -4,-4 -1,2 -2,5 -2,9l-4 1z"/>
     <path class="fil0" d="M5075 697c-3,1 -4,3 -3,6 6,10 13,-7 5,-7 -2,0 -2,1 -2,1z"/>
     <path class="fil0" d="M4929 654c0,-2 1,-3 1,-4 0,-2 0,-2 -1,-3 -2,0 -2,0 -2,5 -6,0 0,-5 -5,-5 -1,0 -1,0 -1,0l0 7 2 1 0 3c6,0 3,-1 6,-3l0 -1z"/>
     <path class="fil0" d="M5075 655c0,0 0,0 1,0 3,1 -1,3 4,3 0,-2 0,-4 0,-6 0,-7 0,-5 -1,-5 -1,2 0,2 -1,5 -5,-1 0,-4 -6,-5 0,2 1,4 1,7 -1,2 -2,4 2,4l0 -3z"/>
     <path class="fil0" d="M5065 649c1,-1 4,0 5,-1 0,-3 0,-3 -2,-3 -5,0 -5,2 -5,4 0,2 0,8 0,9 2,1 6,3 8,0 -2,-2 -2,0 -6,-2 0,-2 0,-1 3,-2 1,-2 1,1 2,-2 -4,-2 -4,0 -5,-3z"/>
     <path class="fil0" d="M5085 699c0,4 0,5 1,7 4,0 6,-1 6,-3 1,-4 0,-5 -1,-6 -5,-1 -4,0 -6,2z"/>
     <path class="fil0" d="M5008 649c2,-1 6,0 4,-4 -3,-1 -5,0 -7,2 0,2 0,5 0,8 0,3 0,4 4,4 3,0 2,-1 3,-1l-1 -1c-2,0 -3,1 -3,-3 2,0 2,1 3,-2 -1,-3 -2,2 -3,-3z"/>
     <path class="fil0" d="M4883 625c3,2 17,2 19,0 0,-3 -1,-2 -9,-2 -7,0 -10,-1 -10,2z"/>
     <path class="fil0" d="M4874 658c0,-4 -6,-4 -2,-9 3,-2 1,-2 1,-2 -4,1 -1,2 -5,3 -1,-2 0,-2 -2,-3l0 9c0,3 0,2 1,2 0,0 0,1 0,-1 1,0 0,0 1,-1 0,0 0,-1 0,-1 6,-1 0,3 6,3z"/>
     <path class="fil0" d="M4949 649c-3,-1 1,-2 -3,-2 1,5 2,0 2,11l2 0c0,-2 0,-3 1,-6 2,-4 3,-3 2,-5 -4,1 0,1 -4,2z"/>
     <path class="fil0" d="M4888 659c1,-1 1,-1 1,-1 3,-2 1,-1 1,-6 0,-4 2,-5 -1,-5 -2,2 -1,7 -1,10l-5 -1c2,2 3,3 5,3z"/>
     <path class="fil0" d="M5028 650c1,-3 2,-1 4,-2 -1,-4 -2,-3 -7,-1l0 7c3,0 4,0 5,0 2,0 2,0 2,-2 -2,-2 -2,0 -4,-2z"/>
     <path class="fil0" d="M5087 733c-1,-2 -1,-4 -1,-6 -1,-2 -1,-2 -4,-2 0,7 1,8 5,8z"/>
     <path class="fil0" d="M5022 659c2,-2 2,-4 0,-7l-3 0c0,4 2,-1 2,4 -5,1 -2,0 -6,-1 1,3 2,6 7,4z"/>
     <path class="fil0" d="M5092 724c-1,2 -1,7 1,8 4,2 4,-8 0,-8 -2,0 -1,0 -1,0z"/>
     <path class="fil0" d="M4998 647c-1,1 -1,8 -1,9 0,5 6,3 6,2 0,-2 -1,-1 -2,-1 -3,-1 -1,-1 -3,-3 0,-6 3,-6 0,-7z"/>
     <path class="fil0" d="M4954 658c4,-1 1,-3 4,-2 2,0 0,0 3,1l0 -5c-3,0 -1,2 -4,2 -1,0 0,-2 -2,-2l-1 6z"/>
     <path class="fil0" d="M5097 532c0,-4 -4,-6 -8,-6 1,2 1,2 3,3 4,1 2,1 5,3z"/>
     <path class="fil0" d="M4976 655c-5,1 -1,3 -7,0l0 3c1,0 1,1 5,1 1,-1 2,-2 2,-4z"/>
     <path class="fil0" d="M5015 650c4,-1 1,-2 6,-1 1,0 0,0 2,0 -1,-5 -7,-5 -8,1z"/>
     <path class="fil0" d="M4969 650c1,0 0,0 1,-1 3,-2 1,0 5,0 0,-6 -6,-4 -6,1z"/>
     <path class="fil0" d="M5089 529c-2,-1 -2,-1 -4,-1 0,2 2,6 5,5 1,-1 0,-3 -1,-4z"/>
     <path class="fil0" d="M5029 657c-3,-1 -1,-1 -4,-1l0 2c5,1 6,3 7,0l-1 -1c-3,-1 3,1 -1,0 -1,0 0,0 -1,0z"/>
     <path class="fil0" d="M5085 539c1,-2 0,-4 0,-6l-3 0c0,2 1,4 3,6z"/>
     <path class="fil0" d="M4958 647c-2,0 -2,1 -2,4l4 0 -2 -4z"/>
     <path class="fil0" d="M4913 625c9,3 0,-8 0,0z"/>
     <path class="fil0" d="M5093 609l4 0 0 -4c-3,2 -4,2 -4,4z"/>
     <path class="fil0" d="M5093 534c-2,0 -2,0 -2,2l2 0 0 -2z"/>
     <path class="fil0" d="M5094 617c4,-1 4,-1 4,-3 -4,0 -2,0 -4,3z"/>
     <path class="fil0" d="M5094 597c4,0 4,0 4,-3 -2,0 -2,0 -4,3z"/>
     <path class="fil0" d="M5102 536c2,0 3,0 3,-2 -3,0 -3,0 -3,2z"/>
     <path class="fil0" d="M4888 620l4 0 -2 -3c-2,0 -2,-1 -2,3z"/>
     <path class="fil0" d="M4882 620c3,0 3,0 4,-2 0,-1 -1,-1 -3,-1l-1 3z"/>
     <path class="fil0" d="M5099 603l3 1 0 -2c-4,0 -2,-1 -3,1z"/>
     <path class="fil0" d="M5078 536c0,4 2,3 2,0 -1,-1 -1,-1 -2,0z"/>
    </g>
    <g>
     <path class="fil1" d="M1104 1111l-83 147c-30,-14 -174,-78 -211,-95 -25,-11 -47,-20 -68,-30l73 -185c12,-2 178,101 289,163z"/>
     <polygon class="fil2" points="1116,983 1132,1072 1120,1078 1352,1107 1390,1103 "/>
     <polygon class="fil1" points="653,1758 0,1447 774,1588 "/>
     <path class="fil3" d="M1078 729c72,0 130,-58 130,-130 0,-72 -58,-131 -130,-131 -72,0 -131,59 -131,131 0,72 59,130 131,130z"/>
     <polygon class="fil4" points="1104,1111 623,866 683,756 1324,798 1248,910 "/>
     <path class="fil3" d="M1191 1334c-9,15 -79,129 -91,136l-437 -84c1,-18 71,-240 81,-258 4,11 -6,3 13,12l53 23c127,57 254,113 381,171z"/>
     <polygon class="fil4" points="888,1426 653,1758 521,1694 663,1386 "/>
     <polygon class="fil1" points="1419,2027 999,1451 1191,1334 "/>
     <polygon class="fil3" points="1166,1024 1324,798 1677,903 "/>
     <polygon class="fil5" points="1677,903 1473,842 1443,393 "/>
     <polygon class="fil6" points="1132,1072 745,1178 1390,1103 "/>
     <polygon class="fil2" points="623,1067 745,1178 1132,1072 "/>
     <polygon class="fil7" points="623,1067 313,924 221,896 745,1178 "/>
     <polygon class="fil8" points="221,896 201,793 313,924 "/>
     <polygon class="fil3" points="404,1317 488,740 683,756 "/>
    </g>
    <path class="fil9" d="M2285 1509c-28,0 -57,-3 -91,-11 -33,-8 -60,-18 -80,-30l46 -105c14,8 33,15 57,22 24,7 46,11 64,11 21,0 37,-4 49,-13 13,-8 19,-18 19,-27 0,-7 -5,-14 -14,-20 -9,-7 -24,-15 -44,-27l-23 -14c-34,-21 -62,-38 -81,-52 -20,-13 -36,-30 -52,-51 -16,-23 -23,-46 -23,-73 0,-29 8,-55 24,-77 16,-23 39,-40 67,-53 30,-13 64,-20 102,-20 27,0 54,5 82,12 27,8 52,18 72,31l-41 94c-28,-9 -48,-15 -63,-17 -15,-4 -31,-5 -49,-5 -15,0 -27,3 -36,10 -9,7 -14,16 -14,26 0,8 4,14 12,20 8,6 21,14 38,24l29 15c31,19 58,35 80,51 22,16 39,34 54,56 16,21 24,44 24,71 0,29 -10,55 -26,79 -16,23 -41,41 -73,54 -31,14 -68,19 -109,19zm424 -165l0 156 -140 0 0 -521 140 0 0 181 208 -192 108 78 -177 166 211 288 -177 0 -134 -195 -39 39zm419 156l0 -521 218 0c63,0 114,15 155,45 40,29 60,74 60,133 0,30 -6,57 -19,80 -12,24 -29,43 -51,58l115 205 -162 0 -85 -164 -92 0 0 164 -139 0zm289 -343c0,-23 -6,-39 -19,-51 -13,-12 -32,-17 -56,-17l-75 0 0 138 77 0c21,0 39,-7 53,-20 14,-13 20,-29 20,-50zm626 234l13 109 -381 0 0 -521 368 0 13 110 -242 0 0 94 160 0 13 111 -173 0 0 97 229 0zm36 109l195 -521 139 0 195 515 -137 13 -38 -110 -179 0 -36 103 -139 0zm212 -212l102 0 -51 -142 -51 142zm735 -40l-70 95 -56 8 -83 -103 0 252 -140 0 0 -521 95 0 157 199 144 -199 93 0 0 521 -140 0 0 -252z"/>
    <path class="fil9" d="M2121 695l0 97 -40 0 0 -280 40 0 0 129 128 -136 28 23 -100 106 120 158 -48 0 -98 -129 -30 32zm185 110c10,-4 17,-7 22,-10 4,-3 8,-7 9,-11 2,-6 2,-13 2,-23l0 -249 40 0 0 256c0,13 -1,23 -5,31 -3,8 -9,14 -17,20 -8,5 -20,10 -35,15l-16 -29zm207 -8c-13,0 -27,-3 -45,-6 -17,-5 -29,-10 -34,-14l8 -32c10,5 20,8 33,12 13,4 26,6 37,6 20,0 35,-4 45,-11 11,-7 17,-18 17,-29 0,-10 -4,-18 -8,-24 -6,-7 -13,-13 -24,-18 -9,-6 -23,-13 -41,-20 -18,-9 -30,-16 -41,-23 -11,-8 -19,-16 -23,-25 -5,-10 -9,-22 -9,-36 0,-14 4,-25 12,-37 7,-11 18,-20 32,-26 14,-6 30,-9 49,-9 13,0 26,1 39,4 13,5 24,9 35,14l-13 31c-9,-5 -19,-8 -28,-11 -8,-2 -19,-3 -31,-3 -16,0 -29,2 -40,9 -10,6 -15,15 -15,27 0,10 3,18 8,24 5,7 13,13 23,18 9,6 23,13 42,21 25,12 43,23 55,36 12,11 18,27 18,47 0,15 -5,28 -12,38 -8,12 -20,21 -35,27 -16,7 -33,10 -54,10zm262 -291c11,0 23,1 37,3 14,4 26,7 35,13l-13 28c-12,-3 -22,-7 -29,-8 -8,-2 -18,-3 -31,-3 -16,0 -31,4 -45,15 -15,9 -25,22 -33,40 -9,17 -12,36 -12,58 0,21 3,39 11,57 7,16 16,30 30,40 13,10 28,15 47,15 22,0 43,-5 61,-13l15 30c-9,5 -21,9 -35,12 -15,2 -28,5 -40,5 -28,0 -52,-7 -71,-20 -19,-13 -34,-29 -45,-52 -9,-22 -15,-47 -15,-72 0,-29 6,-54 16,-77 12,-22 27,-40 47,-52 20,-13 43,-19 70,-19zm291 254l6 32 -178 0 0 -280 172 0 6 30 -139 0 0 92 96 0 4 30 -100 0 0 96 133 0z"/>
    <polygon class="fil2" points="1890,1998 1917,1998 1917,423 1890,423 "/>
    <path class="fil9" d="M2210 1813c-9,0 -16,2 -23,6 -7,3 -12,8 -16,12l-33 0 6 -131 132 0 -4 30 -96 0 -3 64c11,-7 23,-10 35,-10 27,0 47,7 61,22 14,14 20,33 21,55 0,16 -4,30 -11,42 -7,12 -18,22 -31,29 -14,7 -30,10 -49,10 -12,0 -25,-2 -39,-6 -13,-4 -25,-9 -37,-15l18 -26c10,6 20,10 28,13 9,3 20,4 32,4 16,0 29,-5 39,-14 10,-9 15,-21 15,-37 0,-15 -4,-27 -12,-35 -9,-9 -20,-13 -33,-13z"/>
    <polygon id="1" class="fil9" points="2568,1796 2664,1796 2667,1825 2571,1825 "/>
    <path id="2" class="fil9" d="M2787 1734c0,-11 3,-21 9,-31 6,-10 15,-18 27,-24 11,-5 25,-8 40,-8 16,0 29,3 41,8 11,6 20,14 26,24 6,10 9,20 9,31 0,11 -3,21 -11,30 -7,10 -15,17 -26,21 8,3 16,7 23,13 7,6 13,13 17,22 5,8 7,17 7,27 0,13 -4,25 -10,36 -7,11 -17,19 -30,26 -13,6 -28,9 -46,9 -18,0 -33,-3 -46,-9 -13,-7 -23,-15 -30,-26 -7,-11 -10,-23 -10,-36 0,-9 2,-18 7,-26 4,-9 10,-16 17,-23 7,-6 15,-11 23,-13 -11,-4 -20,-11 -27,-20 -6,-9 -10,-19 -10,-31zm118 1c0,-10 -4,-18 -11,-25 -8,-7 -19,-10 -32,-10 -12,0 -22,3 -30,10 -7,7 -11,15 -11,25 0,9 4,18 11,25 7,6 18,11 31,13 13,-2 24,-7 31,-13 7,-7 11,-16 11,-25zm10 112c0,-12 -5,-22 -14,-31 -8,-9 -21,-14 -38,-17 -17,3 -30,8 -39,17 -9,9 -13,19 -13,31 0,13 5,23 15,31 10,7 23,11 37,11 14,0 26,-4 37,-12 10,-7 15,-17 15,-30z"/>
    <path id="3" class="fil9" d="M3219 1926c9,-3 16,-6 20,-9 4,-3 7,-7 9,-11 1,-5 2,-11 2,-20l0 -229 37 0 0 236c0,11 -2,20 -5,27 -3,7 -9,13 -16,18 -8,5 -18,10 -32,14l-15 -26z"/>
    <path id="4" class="fil9" d="M3321 1913l96 -256 33 0 99 254 -36 6 -27 -72 -104 0 -26 68 -35 0zm71 -97l83 0 -42 -111 -41 111z"/>
    <polygon id="5" class="fil9" points="3623,1722 3623,1913 3587,1913 3587,1657 3619,1657 3752,1847 3752,1657 3789,1657 3789,1913 3756,1913 "/>
    <path id="6" class="fil9" d="M3924 1714c10,-5 20,-10 31,-14 10,-3 23,-5 38,-5 24,0 44,5 58,16 14,10 21,25 21,45 0,15 -4,29 -12,42 -8,14 -23,30 -44,48l-48 40 109 0 7 27 -165 0 0 -23 80 -70c14,-12 24,-23 30,-32 7,-9 10,-18 10,-27 0,-13 -4,-22 -12,-28 -9,-6 -20,-9 -35,-9 -12,0 -22,2 -30,5 -9,4 -18,8 -29,15l-9 -30z"/>
    <path id="7" class="fil9" d="M4204 1918c-19,0 -36,-4 -52,-14 -15,-10 -27,-23 -36,-41 -9,-17 -13,-36 -13,-58 0,-21 4,-40 13,-57 9,-16 21,-30 36,-39 16,-9 33,-14 52,-14 20,0 37,5 53,14 15,9 27,22 36,39 8,17 13,36 13,57 0,21 -5,41 -13,58 -9,18 -21,31 -36,41 -16,10 -33,14 -53,14zm0 -192c-12,0 -24,3 -34,10 -10,6 -18,16 -24,28 -6,12 -8,25 -8,40 0,16 2,30 8,43 6,13 14,22 24,30 10,7 22,10 34,10 13,0 25,-3 35,-10 10,-7 18,-17 24,-29 5,-12 8,-26 8,-42 0,-15 -3,-29 -8,-41 -6,-12 -14,-22 -24,-29 -10,-7 -22,-10 -35,-10z"/>
    <polygon id="8" class="fil9" points="4413,1700 4413,1913 4377,1913 4377,1740 4337,1762 4321,1733 4389,1700 "/>
    <polygon id="9" class="fil9" points="4603,1715 4522,1940 4488,1929 4561,1730 4448,1730 4444,1700 4591,1700 "/>
    <path id="10" class="fil9" d="M2335 1634l17 0 5 14 -22 0 0 48c0,5 1,9 3,12 2,3 6,4 10,4 2,0 5,-1 9,-2l5 14c-2,1 -5,2 -8,3 -3,0 -5,1 -8,1 -9,0 -16,-3 -21,-8 -5,-5 -8,-12 -8,-21l0 -51 -13 0 0 -14 13 0 0 -23 18 -4 0 27z"/>
    <path id="11" class="fil9" d="M2459 1664l0 61 -18 0 0 -59c0,-7 -1,-12 -3,-15 -3,-4 -7,-6 -12,-6 -5,0 -9,2 -14,5 -5,2 -10,6 -15,10l0 65 -18 0 0 -132 18 -2 0 52c5,-4 10,-7 16,-9 5,-3 11,-4 17,-4 9,0 17,3 22,9 5,6 7,15 7,25z"/>
    <path id="12" class="fil9" d="M2994 1634l17 0 5 14 -22 0 0 48c0,5 1,9 3,12 3,3 6,4 10,4 2,0 5,-1 9,-2l5 14c-2,1 -4,2 -7,3 -3,0 -6,1 -9,1 -9,0 -16,-3 -21,-8 -5,-5 -8,-12 -8,-21l0 -51 -13 0 0 -14 13 0 0 -23 18 -4 0 27z"/>
    <path id="13" class="fil9" d="M3118 1664l0 61 -18 0 0 -59c0,-7 -1,-12 -3,-15 -3,-4 -6,-6 -12,-6 -4,0 -9,2 -14,5 -5,2 -10,6 -15,10l0 65 -18 0 0 -132 18 -2 0 52c5,-4 10,-7 16,-9 5,-3 11,-4 17,-4 10,0 17,3 22,9 5,6 7,15 7,25z"/>
   </g>
   <g>
    <g>
     <path class="fil10" d="M2873 2637l-6 0c-3,12 -5,22 -8,30 -2,8 -5,14 -8,18 -3,5 -6,8 -11,10 -3,1 -8,2 -14,2 -15,0 -26,-7 -33,-20 -4,-7 -6,-15 -8,-24 -1,-9 -2,-21 -2,-36 0,-30 3,-51 11,-65 7,-14 18,-20 33,-20 5,0 10,0 13,1 3,2 6,4 9,7 3,4 5,8 8,15 2,6 5,14 8,24 0,1 1,1 1,2 0,1 0,2 1,3l6 0 0 -48c-14,-7 -28,-10 -43,-10 -11,0 -22,2 -32,6 -9,4 -18,10 -24,18 -7,8 -12,17 -16,28 -4,11 -6,24 -6,38 0,13 2,25 6,36 4,10 9,20 15,27 7,8 15,14 25,18 9,4 20,6 32,6 14,0 29,-3 43,-10l0 -56z"/>
     <path class="fil10" d="M2963 2700l33 0 0 -6 -12 0 0 -82c0,-13 -3,-23 -11,-30 -7,-7 -17,-10 -31,-10 -14,0 -28,3 -40,10l0 39 6 0c2,-6 4,-11 6,-15 1,-5 3,-9 5,-13 3,-6 5,-10 8,-12 3,-2 8,-3 14,-3 15,0 22,9 22,27l0 18c-3,1 -6,2 -9,4 -2,1 -5,1 -7,2 -2,1 -5,2 -8,2 -2,1 -5,1 -9,2 -8,2 -14,4 -18,5 -4,2 -7,4 -10,6 -4,3 -7,7 -9,11 -2,5 -3,10 -3,15 0,10 3,18 9,24 7,6 15,9 26,9 19,0 31,-9 38,-26l0 23zm0 -54c0,15 -3,27 -9,36 -5,8 -13,13 -22,13 -12,0 -18,-9 -18,-27 0,-8 1,-15 5,-19 3,-4 9,-8 17,-10 4,-1 7,-2 9,-2 2,-1 5,-2 6,-3 2,0 4,-1 6,-2 2,0 4,-1 6,-2l0 16z"/>
     <path class="fil10" d="M3044 2575l-33 0 0 6 12 0 0 113 -12 0 0 6 49 0 0 -6 -16 0 0 -73c0,-12 3,-22 8,-30 5,-7 11,-11 20,-11 5,0 9,2 12,6 3,3 5,9 5,16l0 92 -16 0 0 6 49 0 0 -6 -12 0 0 -94c0,-9 -3,-16 -8,-21 -6,-5 -14,-7 -25,-7 -8,0 -14,2 -19,5 -6,4 -10,10 -14,19l0 -21z"/>
     <path class="fil10" d="M3207 2700l33 0 0 -6 -12 0 0 -82c0,-13 -3,-23 -10,-30 -7,-7 -18,-10 -31,-10 -15,0 -28,3 -41,10l0 39 7 0c2,-6 3,-11 5,-15 1,-5 3,-9 5,-13 3,-6 6,-10 9,-12 3,-2 7,-3 13,-3 15,0 22,9 22,27l0 18c-3,1 -6,2 -9,4 -2,1 -4,1 -7,2 -2,1 -5,2 -7,2 -3,1 -6,1 -10,2 -7,2 -13,4 -18,5 -3,2 -7,4 -10,6 -4,3 -7,7 -9,11 -2,5 -3,10 -3,15 0,10 3,18 10,24 6,6 15,9 25,9 19,0 32,-9 38,-26l0 23zm0 -54c0,15 -3,27 -8,36 -6,8 -13,13 -23,13 -12,0 -18,-9 -18,-27 0,-8 2,-15 5,-19 3,-4 9,-8 17,-10 4,-1 7,-2 9,-2 3,-1 5,-2 7,-3 2,0 4,-1 5,-2 2,0 4,-1 6,-2l0 16z"/>
     <path class="fil10" d="M3336 2623l0 -47c-3,-1 -6,-3 -8,-3 -3,-1 -5,-1 -8,-1 -7,0 -13,2 -18,5 -5,4 -9,10 -13,19l0 -21 -34 0 0 6 12 0 0 113 -12 0 0 6 52 0 0 -6 -17 0 0 -60c0,-5 0,-10 1,-14 0,-4 0,-7 1,-10 0,-3 1,-6 2,-9 1,-2 2,-5 3,-7 2,-4 4,-7 7,-9 2,-3 5,-4 7,-4 1,0 2,0 2,0 1,1 2,1 2,2 1,1 1,2 2,4 1,2 2,4 3,7 2,5 3,9 5,14 1,4 2,9 4,15l7 0z"/>
     <path class="fil10" d="M3418 2700l34 0 0 -6 -12 0 0 -82c0,-13 -4,-23 -11,-30 -7,-7 -17,-10 -31,-10 -15,0 -28,3 -41,10l0 39 7 0c2,-6 3,-11 5,-15 2,-5 3,-9 5,-13 3,-6 6,-10 9,-12 3,-2 7,-3 13,-3 15,0 22,9 22,27l0 18c-3,1 -6,2 -8,4 -3,1 -5,1 -7,2 -3,1 -5,2 -8,2 -3,1 -6,1 -9,2 -8,2 -14,4 -18,5 -4,2 -8,4 -11,6 -4,3 -6,7 -8,11 -3,5 -4,10 -4,15 0,10 4,18 10,24 6,6 15,9 25,9 19,0 32,-9 38,-26l0 23zm0 -54c0,15 -2,27 -8,36 -6,8 -13,13 -23,13 -12,0 -18,-9 -18,-27 0,-8 2,-15 5,-19 3,-4 9,-8 18,-10 3,-1 6,-2 8,-2 3,-1 5,-2 7,-3 2,0 4,-1 6,-2 1,0 3,-1 5,-2l0 16z"/>
     <path class="fil10" d="M3525 2529l0 6 16 0 0 159 -16 0 0 6 55 0c10,0 19,-1 27,-2 7,-1 14,-3 20,-6 8,-4 15,-9 20,-17 5,-7 7,-15 7,-24 0,-7 -2,-13 -5,-19 -4,-6 -8,-11 -15,-15 -4,-2 -8,-4 -13,-5 -5,-1 -12,-2 -20,-3 13,-2 23,-6 31,-13 7,-8 11,-17 11,-27 0,-6 -2,-12 -5,-17 -3,-6 -7,-10 -12,-14 -5,-3 -10,-6 -16,-7 -6,-1 -14,-2 -24,-2l-61 0zm41 78l0 -72 19 0c11,0 18,3 23,9 5,5 8,14 8,26 0,14 -4,23 -10,29 -6,6 -16,8 -30,8l-10 0zm0 87l0 -81 19 0c8,0 14,1 19,3 5,1 10,3 13,6 3,3 6,7 7,12 2,5 2,11 2,18 0,15 -3,26 -10,32 -7,7 -19,10 -36,10l-14 0z"/>
     <path class="fil10" d="M3741 2700l34 0 0 -6 -12 0 0 -82c0,-13 -4,-23 -11,-30 -7,-7 -17,-10 -31,-10 -15,0 -28,3 -41,10l0 39 7 0c2,-6 3,-11 5,-15 2,-5 3,-9 5,-13 3,-6 6,-10 9,-12 3,-2 7,-3 13,-3 15,0 22,9 22,27l0 18c-3,1 -6,2 -8,4 -3,1 -5,1 -7,2 -3,1 -5,2 -8,2 -3,1 -6,1 -9,2 -8,2 -14,4 -18,5 -4,2 -8,4 -11,6 -4,3 -6,7 -8,11 -3,5 -4,10 -4,15 0,10 4,18 10,24 6,6 15,9 25,9 19,0 32,-9 38,-26l0 23zm0 -54c0,15 -2,27 -8,36 -6,8 -13,13 -23,13 -12,0 -18,-9 -18,-27 0,-8 2,-15 5,-19 3,-4 9,-8 18,-10 3,-1 6,-2 8,-2 3,-1 5,-2 7,-3 2,0 4,-1 6,-2 1,0 3,-1 5,-2l0 16z"/>
     <path class="fil10" d="M3823 2575l-33 0 0 6 12 0 0 113 -12 0 0 6 48 0 0 -6 -15 0 0 -73c0,-12 2,-22 7,-30 5,-7 12,-11 20,-11 6,0 10,2 13,6 2,3 4,9 4,16l0 92 -16 0 0 6 49 0 0 -6 -12 0 0 -94c0,-9 -3,-16 -8,-21 -5,-5 -14,-7 -24,-7 -8,0 -15,2 -20,5 -5,4 -9,10 -13,19l0 -21z"/>
     <path class="fil10" d="M3947 2529l-33 0 0 6 12 0 0 159 -12 0 0 6 48 0 0 -6 -15 0 0 -165zm1 105l45 66 32 0 0 -6 -10 0 -50 -71 36 -42 11 0 0 -6 -35 0 0 6 16 0 -45 53z"/>
     <path class="fil10" d="M2508 2327l197 364c24,40 -1,80 -46,73 -14,-2 -106,-15 -222,-31l33 -44 157 17c13,2 19,-2 12,-16 0,0 -148,-298 -149,-301 -5,-9 -11,-6 -15,2 0,0 -145,263 -147,267 -6,10 -4,15 12,17l57 6 -33 40 -74 -11c-19,-3 -25,-15 -15,-34 8,-14 181,-330 181,-330 4,-6 6,-11 10,-17 10,-18 29,-23 42,-2z"/>
     <path class="fil11" d="M2079 2607l259 -46 -22 40 -179 30c-9,2 -8,6 -2,10 0,0 156,108 171,118 12,8 19,11 29,-2 0,0 127,-155 133,-166 10,-13 14,-18 -1,-15l-88 15 22 -41 118 -21c27,-5 38,14 25,34 -12,16 -199,268 -199,268 -12,17 -21,17 -35,4 -18,-14 -239,-198 -239,-198 -14,-12 -10,-27 8,-30z"/>
     <path class="fil10" d="M1920 2616l-1 -2c-4,-6 -11,-11 -17,-12 -1,0 -1,0 -2,0 -4,0 -8,3 -11,10 -4,6 -5,15 -5,27 0,14 2,22 5,28 4,7 7,10 14,10 8,0 13,-4 17,-11l0 -50zm-79 -35l0 113 11 0 0 6 -44 0 0 -6 12 0 0 -24c-2,2 -3,4 -5,6 -5,5 -12,8 -22,8 -5,0 -10,-1 -15,-4 -5,-2 -9,-5 -12,-8 -4,-4 -6,-9 -8,-14 -2,-5 -3,-11 -3,-17l0 -1c0,-6 1,-11 3,-17 2,-5 4,-9 8,-13 3,-4 7,-7 12,-9 5,-2 10,-3 15,-3 10,0 17,3 22,8 2,2 3,4 5,6l0 -31 -61 0 0 -6 242 0 0 6 -61 0 0 28c1,-1 2,-2 3,-3 5,-6 12,-8 21,-8 5,0 10,1 15,3 5,2 9,5 12,9 3,4 6,8 8,13 2,6 3,11 3,17 0,7 -1,12 -3,18 -3,5 -5,10 -9,13 -4,4 -13,12 -22,12 -7,0 -9,-2 -14,-3 -1,-1 -1,-1 -2,-1l0 -29 4 0c2,6 2,7 3,12 1,4 2,6 3,9 1,3 3,6 6,6 3,0 6,-4 8,-9 3,-6 4,-14 4,-26 0,-13 -1,-23 -5,-30 -4,-6 -8,-9 -16,-9 -7,0 -12,3 -16,10 -1,2 -2,4 -3,6l0 75 11 0 0 6 -41 0 0 -6 10 0 0 -18c-5,5 -12,7 -21,7 -6,0 -11,-1 -15,-3 -5,-2 -9,-5 -12,-9 -3,-4 -6,-8 -8,-13 -2,-5 -3,-11 -3,-17 0,-6 1,-12 3,-17 2,-6 5,-10 9,-14 3,-4 8,-7 13,-9 5,-2 10,-3 16,-3 8,0 13,3 18,8l0 -25 -79 0zm-23 79l-41 -32c-1,4 -1,9 -1,14 0,13 2,22 5,28 4,7 10,8 16,8 8,0 14,-4 18,-11 1,-1 2,-2 3,-5 0,0 0,-1 0,-2zm-39 -40l41 33 0 -24c-1,-3 -2,-6 -2,-8 -1,-2 -2,-4 -3,-6 -4,-7 -10,-12 -16,-12 -8,0 -14,4 -18,10 -1,2 -2,5 -2,7zm-322 -11l-1 0 -1 0 -1 0c-3,0 -6,1 -8,3 -3,1 -4,4 -6,7 0,3 -1,5 -1,8 -1,3 -1,7 -1,12 0,6 0,11 1,15 0,3 1,6 3,8 1,2 2,3 4,4 2,2 4,2 7,2 3,0 5,0 7,-2 2,-1 4,-2 5,-5 2,-2 2,-5 3,-9 1,-4 1,-9 1,-15 0,-5 0,-9 -1,-13 0,-3 -1,-6 -2,-8 -2,-3 -3,-4 -5,-5 -1,-1 -2,-1 -4,-2zm-139 7l-1 -2c-4,-6 -11,-11 -17,-12 -1,0 -2,0 -2,0 -5,0 -8,3 -12,10 -3,6 -5,15 -5,27 0,14 2,22 6,28 3,7 6,10 14,10 7,0 12,-4 16,-11l1 -50zm-1 -41l20 0 364 0 0 6 -17 0 0 113 12 0 0 6 -43 0 0 -6 10 0 0 -113 -13 0 -31 1c9,1 27,4 27,23 0,7 -3,14 -7,18 -4,4 -13,8 -20,8l-24 0 0 46c0,13 3,18 13,18 5,0 8,0 10,-2 2,-1 5,-4 7,-9 1,-3 2,-4 3,-8 1,-3 2,-7 3,-11l5 0 0 28c-9,5 -19,8 -30,8 -9,0 -18,-3 -23,-8 -5,-5 -9,-12 -9,-22l0 -40 -16 0 0 -6 6 0 42 0c12,0 16,-13 16,-21 0,-7 -2,-18 -10,-22 -2,0 -5,0 -7,-1l-17 0 -11 0 -41 0 0 113 10 0 0 6 -42 0 0 -6 11 0 0 -84 -42 0c3,1 6,1 8,4 3,2 6,6 8,10 2,4 3,8 3,13 0,5 -1,10 -3,15 -2,4 -5,8 -8,11 -4,3 -8,6 -12,8 -5,2 -10,3 -15,3 -5,0 -10,-1 -15,-3 -5,-2 -9,-5 -13,-8 -3,-3 -5,-7 -7,-11 -1,-4 -2,-8 -2,-13 0,-5 1,-10 3,-14 2,-4 4,-8 8,-11 3,-3 7,-6 12,-7 4,-2 10,-3 15,-3l1 0 59 0 0 -23 -177 0 0 28c0,-1 1,-2 2,-3 5,-6 12,-8 22,-8 5,0 10,1 15,3 4,2 8,5 11,9 4,4 6,8 8,13 2,6 3,11 3,17 0,7 -1,12 -3,18 -2,5 -5,10 -8,13 -4,4 -13,12 -23,12 -6,0 -9,-2 -14,-3 0,-1 -1,-1 -1,-1l0 -29 4 0c1,6 1,7 3,12 1,4 2,6 3,9 1,3 3,6 5,6 4,0 7,-4 9,-9 3,-6 4,-14 4,-26 0,-13 -2,-23 -5,-30 -4,-6 -9,-9 -17,-9 -7,0 -11,3 -16,10 -1,2 -2,4 -2,6l0 75 10 0 0 6 -41 0 0 -6 11 0 0 -18c-5,5 -12,7 -22,7 -5,0 -10,-1 -15,-3 -4,-2 -8,-5 -12,-9 -3,-4 -5,-8 -7,-13 -2,-5 -3,-11 -3,-17 0,-6 1,-12 3,-17 2,-6 5,-10 8,-14 4,-4 8,-7 13,-9 5,-2 10,-3 16,-3 9,0 14,3 18,8l1 -25 -53 0 0 -6 52 0z"/>
     <path class="fil10" d="M1307 2560c-6,-3 -11,-7 -15,-12 -4,-5 -8,-11 -10,-17 -1,-3 -2,-5 -2,-8l-10 0 0 -5 42 0 0 5 -11 0c2,24 11,37 25,37l5 0c13,0 22,-13 24,-37l-9 0 0 -5 40 0 0 5 -9 0c-1,3 -1,5 -2,8 -3,6 -6,12 -10,17 -5,5 -10,9 -16,12 -5,3 -14,4 -21,4 -6,0 -15,-1 -21,-4z"/>
     <path class="fil10" d="M1812 2560c-6,-3 -11,-7 -15,-12 -4,-5 -8,-11 -10,-17 -1,-3 -2,-5 -2,-8l-10 0 0 -5 42 0 0 5 -11 0c2,24 11,37 25,37l5 0c13,0 23,-13 24,-37l-9 0 0 -5 40 0 0 5 -9 0c0,3 -1,5 -2,8 -3,6 -6,12 -10,17 -5,5 -10,9 -15,12 -6,3 -15,4 -22,4 -6,0 -15,-1 -21,-4z"/>
     <path class="fil10" d="M1833 2525c-3,0 -5,2 -8,4 -2,2 -3,5 -3,8 0,3 1,6 3,8 3,3 6,4 9,4 3,0 6,-1 8,-4 2,-2 3,-5 3,-8 0,-3 -1,-6 -3,-8 -2,-2 -5,-4 -9,-4z"/>
     <path class="fil12" d="M3297 2855l0 64 -10 0 0 -64 -23 0 0 -9 57 0 0 9 -24 0zm16 37c0,-8 2,-15 6,-20 5,-5 11,-8 18,-8 7,0 13,3 17,8 5,5 7,11 7,20 0,9 -3,15 -7,20 -4,5 -10,8 -17,8 -8,0 -14,-3 -18,-8 -4,-5 -6,-11 -6,-20zm10 0c0,13 4,20 14,20 4,0 8,-2 10,-5 2,-4 4,-9 4,-15 0,-13 -5,-20 -14,-20 -5,0 -8,2 -11,5 -2,4 -3,9 -3,15zm46 41l5 -7c5,4 10,5 15,5 4,0 7,0 10,-2 2,-1 3,-3 3,-5 0,-5 -3,-7 -9,-7 -1,0 -3,0 -6,1 -2,1 -4,1 -6,1 -8,0 -11,-3 -11,-9 0,-2 1,-3 2,-5 2,-1 4,-2 7,-3 -8,-3 -11,-9 -11,-18 0,-6 2,-10 6,-14 3,-4 8,-6 14,-6 5,0 9,1 12,4l5 -6 6 6 -6 4c3,3 4,7 4,12 0,6 -2,10 -5,14 -4,4 -8,6 -13,6l-8 1c-1,0 -2,1 -4,1 -1,1 -2,2 -2,3 0,1 2,2 5,2 1,0 3,-1 6,-1 3,-1 6,-1 7,-1 5,0 9,1 12,4 3,2 5,6 5,10 0,5 -3,9 -7,12 -4,3 -10,5 -16,5 -4,0 -8,-1 -11,-2 -4,-1 -7,-3 -9,-5zm19 -61c-3,0 -5,1 -8,4 -2,2 -3,5 -3,8 0,4 1,7 3,9 2,3 5,4 8,4 4,0 6,-1 8,-4 2,-2 3,-5 3,-9 0,-3 -1,-6 -3,-8 -2,-3 -5,-4 -8,-4zm78 21l-38 0c0,6 1,11 5,14 3,3 7,5 11,5 6,0 10,-2 14,-5l4 7c-2,1 -4,3 -7,4 -4,1 -8,2 -13,2 -6,0 -12,-2 -16,-7 -6,-5 -8,-12 -8,-20 0,-9 2,-16 8,-21 4,-5 10,-8 17,-8 7,0 13,3 17,7 4,4 7,9 7,16 0,2 -1,4 -1,6zm-23 -21c-4,0 -8,2 -11,4 -2,3 -4,6 -4,10l29 0c0,-4 -1,-7 -3,-9 -3,-3 -7,-5 -11,-5zm37 1l-6 0 0 -8 6 0 0 -11 9 -3 0 14 15 0 0 8 -15 0 0 26c0,5 1,8 2,10 2,2 4,3 8,3 2,0 5,-1 7,-2l1 8c-3,1 -8,2 -12,2 -5,0 -8,-2 -11,-5 -3,-3 -4,-7 -4,-12l0 -30zm69 46l0 -34c0,-4 -1,-7 -3,-9 -2,-2 -5,-4 -8,-4 -2,0 -5,1 -7,2 -2,2 -4,3 -5,5l0 40 -9 0 0 -75 9 0 0 27c1,-2 3,-3 6,-5 3,-1 6,-2 9,-2 5,0 10,2 13,6 3,4 4,9 4,15l0 34 -9 0zm67 -26l-38 0c0,6 2,11 5,14 3,3 7,5 12,5 5,0 10,-2 13,-5l4 7c-1,1 -3,3 -6,4 -4,1 -8,2 -13,2 -7,0 -12,-2 -17,-7 -5,-5 -8,-12 -8,-20 0,-9 3,-16 8,-21 5,-5 11,-8 17,-8 8,0 14,3 18,7 4,4 6,9 6,16 0,2 0,4 -1,6zm-22 -21c-5,0 -8,2 -11,4 -3,3 -4,6 -5,10l30 0c0,-4 -1,-7 -4,-9 -2,-3 -6,-5 -10,-5zm62 3c-2,-2 -4,-3 -7,-3 -3,0 -6,2 -8,5 -3,3 -4,7 -4,11l0 31 -9 0 0 -54 9 0 0 9c3,-6 9,-10 15,-10 2,0 4,1 8,1l-4 10zm97 45l-3 0 -17 -51 -16 51 -4 0 -22 -74 10 0 14 51 16 -51 4 0 15 51 15 -51 11 0 -23 74zm70 -27l-38 0c0,6 1,11 5,14 3,3 7,5 11,5 6,0 10,-2 14,-5l4 7c-2,1 -4,3 -7,4 -4,1 -8,2 -13,2 -6,0 -12,-2 -17,-7 -5,-5 -7,-12 -7,-20 0,-9 2,-16 8,-21 4,-5 10,-8 17,-8 7,0 13,3 17,7 4,4 6,9 6,16 0,2 0,4 0,6zm-23 -21c-4,0 -8,2 -11,4 -2,3 -4,6 -4,10l29 0c0,-4 -1,-7 -3,-9 -3,-3 -7,-5 -11,-5zm111 -24l-4 9c-3,-2 -8,-4 -14,-4 -7,0 -12,3 -16,9 -4,5 -6,12 -6,21 0,8 2,15 6,20 4,6 9,8 16,8 6,0 12,-2 15,-7l6 7c-6,6 -13,9 -22,9 -10,0 -17,-3 -23,-10 -5,-7 -8,-16 -8,-27 0,-11 3,-20 9,-28 6,-7 13,-10 22,-10 8,0 14,1 19,3zm43 65c-4,4 -9,7 -17,7 -4,0 -8,-2 -11,-5 -3,-3 -4,-7 -4,-11 0,-5 2,-10 7,-14 4,-4 10,-5 18,-5 2,0 4,0 6,1 0,-9 -4,-13 -11,-13 -6,0 -11,1 -14,5l-4 -8c2,-2 5,-3 8,-4 3,-1 6,-2 9,-2 7,0 13,2 16,6 4,3 6,9 6,17l0 19c0,4 1,8 4,9l0 5c-4,0 -7,-1 -9,-2 -2,-1 -3,-3 -4,-5zm-1 -20c-3,-1 -5,-1 -6,-1 -5,0 -9,1 -12,3 -3,3 -4,6 -4,9 0,6 3,8 10,8 4,0 9,-2 12,-6l0 -13zm57 26l0 -31c0,-6 -1,-10 -3,-12 -1,-2 -4,-4 -8,-4 -2,0 -4,1 -7,2 -2,2 -4,3 -5,5l0 40 -10 0 0 -54 7 0 3 7c3,-5 8,-8 15,-8 12,0 17,8 17,22l0 33 -9 0z"/>
     <path class="fil12" d="M3054 2794c0,0 0,0 0,1 0,0 0,0 0,0 0,1 0,1 -1,1 0,0 -1,0 -2,0 0,0 -1,0 -1,0 -1,0 -1,0 -1,0 0,0 -1,-1 -1,-1 0,0 0,0 0,0l-4 -11 -18 0 -4 11c0,0 0,0 0,0 0,0 0,0 -1,1 0,0 0,0 -1,0 0,0 0,0 -1,0 -1,0 -1,0 -2,0 0,0 0,0 -1,-1 0,0 0,0 0,0 0,-1 0,-1 0,-1l15 -42c0,0 1,0 1,0 0,0 0,0 0,-1 1,0 1,0 1,0 1,0 1,0 2,0 1,0 1,0 2,0 0,0 1,0 1,0 0,1 1,1 1,1 0,0 0,0 0,0l15 42zm886 1c0,0 0,0 0,0 0,0 -1,0 -1,1 0,0 0,0 -1,0 0,0 -1,0 -1,0 -1,0 -1,0 -2,0 0,0 0,0 -1,0 0,0 0,-1 0,-1 -1,0 -1,0 -1,0l-13 -17 0 17c0,0 0,0 0,0 0,0 0,0 0,1 -1,0 -1,0 -1,0 -1,0 -1,0 -2,0 0,0 -1,0 -1,0 0,0 -1,0 -1,0 0,-1 0,-1 0,-1 0,0 -1,0 -1,0l0 -46c0,0 1,0 1,0 0,0 0,-1 0,-1 0,0 1,0 1,0 0,0 1,0 1,0 1,0 1,0 2,0 0,0 0,0 1,0 0,0 0,1 0,1 0,0 0,0 0,0l0 28 12 -13c0,0 0,0 0,0 1,-1 1,-1 1,-1 0,0 1,0 1,0 0,0 1,0 1,0 1,0 1,0 2,0 0,0 1,0 1,0 0,0 0,0 0,0 0,1 0,1 0,1 0,0 0,1 0,1 0,0 0,0 0,1l-12 11 13 16c0,1 0,1 1,1 0,0 0,1 0,1zm12 0c0,0 0,0 0,0 0,0 0,0 -1,1 0,0 0,0 0,0 -1,0 -1,0 -2,0 0,0 -1,0 -1,0 -1,0 -1,0 -1,0 0,-1 -1,-1 -1,-1 0,0 0,0 0,0l0 -31c0,0 0,0 0,0 0,-1 1,-1 1,-1 0,0 0,0 1,0 0,0 1,0 1,0 1,0 1,0 2,0 0,0 0,0 0,0 1,0 1,0 1,1 0,0 0,0 0,0l0 31zm1 -41c0,1 -1,2 -1,2 -1,1 -2,1 -3,1 -1,0 -2,0 -3,-1 0,0 0,-1 0,-2 0,-2 0,-3 0,-3 1,0 2,-1 3,-1 1,0 2,1 3,1 0,0 1,1 1,3zm36 41c0,0 0,0 0,0 0,0 -1,0 -1,1 0,0 0,0 -1,0 0,0 0,0 -1,0 -1,0 -1,0 -1,0 -1,0 -1,0 -1,0 0,-1 -1,-1 -1,-1 0,0 0,0 0,0l0 -18c0,-2 0,-3 0,-4 -1,-2 -1,-2 -1,-3 -1,-1 -2,-2 -2,-2 -1,0 -2,-1 -3,-1 -2,0 -3,1 -5,2 -1,1 -2,2 -4,4l0 22c0,0 0,0 0,0 0,0 0,0 -1,1 0,0 0,0 0,0 -1,0 -1,0 -2,0 0,0 -1,0 -1,0 -1,0 -1,0 -1,0 0,-1 0,-1 -1,-1 0,0 0,0 0,0l0 -31c0,0 0,0 0,0 1,-1 1,-1 1,-1 0,0 0,0 1,0 0,0 0,0 1,0 0,0 1,0 1,0 1,0 1,0 1,0 0,0 0,0 0,1 0,0 0,0 0,0l0 4c2,-2 4,-3 6,-4 1,-1 3,-2 5,-2 2,0 4,1 5,2 1,0 3,1 3,2 1,1 2,3 2,4 1,2 1,4 1,6l0 19zm36 -30c0,1 0,2 -1,2 0,1 0,1 0,1l-5 0c1,1 2,1 2,2 0,1 0,2 0,3 0,2 0,4 0,5 -1,2 -2,3 -3,4 -1,1 -2,1 -4,2 -1,0 -3,1 -5,1 -1,0 -2,-1 -3,-1 -1,0 -2,-1 -3,-1 0,0 0,1 -1,1 0,1 0,1 0,2 0,1 0,2 1,2 1,1 2,1 3,1l8 0c1,0 3,1 4,1 1,0 3,1 3,2 1,0 2,1 3,2 0,1 0,2 0,4 0,1 0,2 0,4 -1,1 -2,2 -3,3 -1,1 -3,2 -5,2 -2,1 -4,1 -7,1 -2,0 -4,0 -6,-1 -2,0 -3,-1 -4,-1 -1,-1 -2,-2 -3,-3 0,-1 0,-2 0,-3 0,-1 0,-2 0,-2 0,-1 0,-2 1,-2 0,-1 1,-2 1,-2 1,-1 1,-1 2,-2 -1,0 -2,-1 -2,-2 -1,-1 -1,-2 -1,-3 0,-1 0,-3 1,-4 0,-1 1,-2 2,-3 -1,0 -1,-1 -2,-2 0,-1 -1,-3 -1,-4 0,-2 1,-4 1,-5 1,-1 2,-3 3,-3 1,-1 2,-2 4,-3 1,0 3,0 4,0 1,0 2,0 3,0 1,0 2,0 2,0l10 0c0,0 0,0 0,1 1,0 1,1 1,1zm-9 9c0,-3 -1,-4 -2,-5 -1,-2 -3,-2 -5,-2 -1,0 -2,0 -3,0 0,1 -1,1 -2,2 0,1 0,1 -1,2 0,1 0,2 0,3 0,2 0,3 2,5 1,1 2,1 4,1 2,0 3,0 3,0 1,-1 2,-1 2,-2 1,0 1,-1 2,-2 0,-1 0,-2 0,-2zm3 24c0,-1 -1,-2 -2,-3 -1,-1 -2,-1 -4,-1l-8 -1c-1,1 -2,2 -2,2 0,1 -1,1 -1,1 0,1 -1,1 -1,2 0,0 0,1 0,1 0,2 1,3 2,4 2,0 4,1 7,1 1,0 3,0 4,-1 1,0 2,0 3,-1 0,-1 1,-1 1,-2 1,-1 1,-1 1,-2zm-515 -47c0,1 0,1 0,1 0,1 0,1 0,1 0,0 0,0 0,0 -1,0 -1,0 -1,0 0,0 0,0 0,0 -1,0 -1,0 -1,0 -1,0 -1,0 -2,0 0,0 -1,-1 -1,-1 -1,0 -2,1 -2,1 -1,0 -1,1 -2,1 0,1 0,1 -1,2 0,1 0,2 0,4l0 3 7 0c0,0 0,0 1,0 0,0 0,1 0,1 0,0 0,0 0,0 0,1 0,1 0,2 0,0 0,1 0,1 0,1 -1,1 -1,1l-7 0 0 27c0,0 0,0 0,0 0,0 0,0 0,1 -1,0 -1,0 -1,0 -1,0 -1,0 -2,0 0,0 -1,0 -1,0 0,0 -1,0 -1,0 0,-1 0,-1 0,-1 0,0 0,0 0,0l0 -27 -5 0c0,0 0,0 -1,-1 0,0 0,-1 0,-1 0,-1 0,-1 0,-2 0,0 0,0 0,0 0,0 1,-1 1,-1 0,0 0,0 0,0l5 0 0 -3c0,-2 0,-4 0,-6 1,-1 1,-2 2,-3 1,-1 2,-2 3,-3 1,0 3,0 4,0 1,0 2,0 3,0 1,0 1,0 2,0 0,1 0,1 0,1 1,0 1,0 1,0 0,1 0,1 0,1 0,1 0,1 0,1zm27 44c0,0 0,0 0,0 0,0 -1,0 -1,1 0,0 0,0 -1,0 0,0 -1,0 -1,0 -1,0 -1,0 -2,0 0,0 0,0 -1,0 0,-1 0,-1 0,-1 0,0 0,0 0,0l0 -43c0,0 0,0 0,0 0,0 0,0 1,-1 0,0 0,0 0,0 1,0 1,0 2,0 0,0 1,0 1,0 1,0 1,0 1,0 0,1 1,1 1,1 0,0 0,0 0,0l0 43zm37 0c0,0 0,0 0,0 0,0 0,0 0,1 0,0 -1,0 -1,0 0,0 -1,0 -1,0 -1,0 -2,0 -2,0 0,0 -1,0 -1,0 0,-1 0,-1 0,-1 0,0 0,0 0,0l0 -18c0,-2 0,-3 -1,-4 0,-2 0,-2 -1,-3 0,-1 -1,-2 -2,-2 -1,0 -2,-1 -3,-1 -1,0 -3,1 -4,2 -1,1 -3,2 -4,4l0 22c0,0 0,0 -1,0 0,0 0,0 0,1 0,0 -1,0 -1,0 0,0 -1,0 -1,0 -1,0 -1,0 -2,0 0,0 0,0 -1,0 0,-1 0,-1 0,-1 0,0 0,0 0,0l0 -31c0,0 0,0 0,0 0,-1 0,-1 0,-1 1,0 1,0 1,0 0,0 1,0 1,0 1,0 1,0 2,0 0,0 0,0 0,0 1,0 1,0 1,1 0,0 0,0 0,0l0 4c2,-2 3,-3 5,-4 2,-1 4,-2 5,-2 2,0 4,1 6,2 1,0 2,1 3,2 1,1 1,3 2,4 0,2 0,4 0,6l0 19zm37 0c0,0 0,0 0,0 0,0 0,1 -1,1 0,0 0,0 0,0 -1,0 -1,0 -2,0 0,0 0,0 -1,0 0,0 0,0 -1,0 0,0 0,-1 0,-1 0,0 0,0 0,0l0 -4c-2,1 -3,3 -5,4 -2,1 -4,1 -6,1 -2,0 -4,0 -6,-1 -1,-1 -2,-2 -3,-4 -1,-1 -2,-3 -3,-5 0,-2 0,-4 0,-6 0,-3 0,-5 1,-7 0,-3 1,-4 2,-6 1,-1 3,-3 4,-3 2,-1 4,-2 6,-2 2,0 3,1 5,2 1,0 3,2 4,3l0 -18c0,0 0,0 0,0 0,0 1,0 1,-1 0,0 0,0 1,0 0,0 1,0 1,0 1,0 1,0 1,0 1,0 1,0 1,0 1,1 1,1 1,1 0,0 0,0 0,0l0 46zm-6 -22c-1,-2 -3,-3 -4,-4 -2,-1 -3,-2 -5,-2 -1,0 -2,1 -3,1 -1,1 -2,2 -3,3 0,1 -1,2 -1,4 0,1 0,3 0,4 0,2 0,3 0,5 0,1 1,2 1,4 1,1 2,2 3,2 0,1 2,1 3,1 1,0 2,0 2,0 1,0 2,0 2,-1 1,0 2,-1 3,-2 1,-1 1,-1 2,-3l0 -12zm22 22c0,0 0,0 0,0 0,0 0,0 -1,1 0,0 0,0 0,0 -1,0 -1,0 -2,0 0,0 -1,0 -1,0 -1,0 -1,0 -1,0 0,-1 0,-1 0,-1 -1,0 -1,0 -1,0l0 -31c0,0 0,0 1,0 0,-1 0,-1 0,-1 0,0 0,0 1,0 0,0 1,0 1,0 1,0 1,0 2,0 0,0 0,0 0,0 1,0 1,0 1,1 0,0 0,0 0,0l0 31zm1 -41c0,1 -1,2 -1,2 -1,1 -1,1 -3,1 -1,0 -2,0 -3,-1 0,0 0,-1 0,-2 0,-2 0,-3 0,-3 1,0 2,-1 3,-1 2,0 2,1 3,1 0,0 1,1 1,3zm33 41c0,0 0,0 -1,0 0,1 0,1 0,1 -1,0 -1,0 -2,0 0,0 -1,0 -1,0 -1,0 -1,0 -1,-1 0,0 0,0 0,0l0 -3c-2,1 -3,2 -5,3 -1,1 -3,1 -5,1 -2,0 -3,0 -4,0 -2,-1 -3,-1 -4,-2 -1,-1 -1,-2 -2,-3 0,-1 -1,-3 -1,-4 0,-2 1,-3 1,-5 1,-1 2,-2 3,-3 2,-1 3,-1 5,-2 2,0 4,0 7,0l4 0 0 -3c0,-1 0,-2 0,-3 -1,-1 -1,-2 -2,-2 0,-1 -1,-1 -2,-2 -1,0 -2,0 -3,0 -1,0 -3,0 -4,1 -1,0 -2,0 -3,1 0,0 -1,0 -2,1 0,0 -1,0 -1,0 0,0 0,0 0,0 -1,0 -1,0 -1,0 0,0 0,-1 0,-1 0,0 0,-1 0,-1 0,-1 0,-1 0,-1 0,-1 0,-1 1,-1 0,-1 0,-1 1,-1 1,-1 2,-1 3,-1 1,-1 2,-1 3,-1 1,0 2,-1 3,-1 3,0 5,1 6,1 2,1 3,1 4,2 1,1 2,3 2,4 0,1 1,3 1,5l0 21zm-6 -14l-5 0c-1,0 -3,0 -4,0 -1,0 -2,1 -3,1 0,1 -1,1 -1,2 -1,1 -1,2 -1,3 0,1 1,2 2,3 1,1 2,2 4,2 1,0 3,-1 4,-1 1,-1 3,-2 4,-4l0 -6zm66 -2c0,3 -1,5 -2,7 0,3 -1,4 -3,6 -1,1 -3,2 -5,3 -2,1 -5,1 -7,1 -3,0 -5,0 -7,-1 -2,0 -4,-2 -5,-3 -2,-1 -3,-3 -4,-5 0,-2 -1,-5 -1,-7l0 -28c0,0 0,0 0,0 1,0 1,0 1,-1 0,0 0,0 1,0 0,0 1,0 1,0 1,0 1,0 2,0 0,0 0,0 1,0 0,1 0,1 0,1 0,0 0,0 0,0l0 27c0,2 0,4 1,5 0,2 1,3 2,4 1,1 2,2 4,2 1,1 2,1 4,1 2,0 3,0 5,-1 1,0 2,-1 3,-2 1,-1 2,-2 2,-3 1,-2 1,-4 1,-6l0 -27c0,0 0,0 0,0 0,0 0,0 0,-1 1,0 1,0 1,0 1,0 1,0 2,0 0,0 1,0 1,0 0,0 1,0 1,0 0,1 0,1 0,1 1,0 1,0 1,0l0 27zm37 16c0,0 0,0 0,0 0,0 0,0 0,1 -1,0 -1,0 -1,0 -1,0 -1,0 -2,0 0,0 -1,0 -1,0 0,0 -1,0 -1,0 0,-1 0,-1 0,-1 -1,0 -1,0 -1,0l0 -18c0,-2 0,-3 0,-4 0,-2 -1,-2 -1,-3 -1,-1 -1,-2 -2,-2 -1,0 -2,-1 -3,-1 -1,0 -3,1 -4,2 -2,1 -3,2 -5,4l0 22c0,0 0,0 0,0 0,0 0,0 0,1 0,0 -1,0 -1,0 0,0 -1,0 -2,0 0,0 -1,0 -1,0 0,0 -1,0 -1,0 0,-1 0,-1 0,-1 0,0 0,0 0,0l0 -31c0,0 0,0 0,0 0,-1 0,-1 0,-1 0,0 1,0 1,0 0,0 1,0 1,0 1,0 1,0 1,0 1,0 1,0 1,0 0,0 1,0 1,1 0,0 0,0 0,0l0 4c2,-2 3,-3 5,-4 2,-1 3,-2 5,-2 2,0 4,1 5,2 2,0 3,1 4,2 1,1 1,3 2,4 0,2 0,4 0,6l0 19zm37 0c0,0 0,0 0,0 0,0 -1,1 -1,1 0,0 0,0 -1,0 0,0 0,0 -1,0 0,0 -1,0 -1,0 0,0 -1,0 -1,0 0,0 0,-1 0,-1 0,0 0,0 0,0l0 -4c-2,1 -4,3 -5,4 -2,1 -4,1 -6,1 -2,0 -4,0 -6,-1 -1,-1 -3,-2 -4,-4 -1,-1 -1,-3 -2,-5 0,-2 -1,-4 -1,-6 0,-3 1,-5 1,-7 1,-3 2,-4 3,-6 1,-1 2,-3 4,-3 2,-1 4,-2 6,-2 2,0 3,1 5,2 1,0 3,2 4,3l0 -18c0,0 0,0 0,0 0,0 0,0 1,-1 0,0 0,0 1,0 0,0 0,0 1,0 0,0 1,0 1,0 1,0 1,0 1,0 0,1 0,1 1,1 0,0 0,0 0,0l0 46zm-6 -22c-1,-2 -3,-3 -4,-4 -2,-1 -3,-2 -5,-2 -1,0 -2,1 -3,1 -1,1 -2,2 -3,3 0,1 -1,2 -1,4 -1,1 -1,3 -1,4 0,2 0,3 1,5 0,1 0,2 1,4 1,1 1,2 2,2 1,1 2,1 4,1 1,0 1,0 2,0 1,0 2,0 2,-1 1,0 2,-1 3,-2 0,-1 1,-1 2,-3l0 -12zm42 5c0,1 0,2 0,2 -1,0 -1,1 -2,1l-20 0c0,1 0,3 0,4 1,2 1,3 2,4 1,1 2,1 3,2 2,0 3,1 5,1 1,0 3,0 4,-1 1,0 2,0 3,0 1,-1 1,-1 2,-1 0,0 1,-1 1,-1 0,0 0,0 1,1 0,0 0,0 0,0 0,0 0,0 0,1 0,0 0,0 0,1 0,0 0,0 0,0 0,1 0,1 0,1 0,0 0,0 0,0 0,1 0,1 -1,1 0,0 0,0 -1,0 0,1 -1,1 -2,1 -1,0 -2,1 -3,1 -2,0 -3,0 -5,0 -2,0 -4,0 -6,-1 -2,0 -4,-2 -5,-3 -1,-1 -2,-3 -3,-5 -1,-2 -1,-5 -1,-7 0,-3 0,-5 1,-8 1,-2 2,-3 3,-5 1,-1 3,-3 5,-3 2,-1 4,-2 6,-2 2,0 4,1 6,2 2,0 3,1 4,3 1,1 2,3 3,4 0,2 0,4 0,6l0 1zm-5 -2c0,-3 -1,-5 -2,-7 -2,-1 -4,-2 -6,-2 -2,0 -3,0 -4,1 -1,0 -2,1 -3,2 0,1 -1,2 -1,3 -1,1 -1,2 -1,3l17 0zm32 -10c0,1 0,1 0,1 0,1 0,1 0,1 0,0 0,0 0,1 -1,0 -1,0 -1,0 0,0 0,0 -1,0 0,-1 0,-1 0,-1 -1,0 -1,0 -2,0 0,0 0,0 -1,0 0,0 -1,0 -2,0 0,0 -1,1 -1,1 -1,1 -2,1 -2,2 -1,1 -2,2 -2,4l0 20c0,0 0,0 0,0 -1,0 -1,0 -1,1 0,0 0,0 -1,0 0,0 -1,0 -1,0 -1,0 -1,0 -2,0 0,0 0,0 0,0 -1,-1 -1,-1 -1,-1 0,0 0,0 0,0l0 -31c0,0 0,0 0,0 0,-1 0,-1 0,-1 1,0 1,0 1,0 1,0 1,0 2,0 0,0 0,0 1,0 0,0 0,0 1,0 0,0 0,0 0,1 0,0 0,0 0,0l0 5c1,-2 2,-3 2,-4 1,0 2,-1 3,-1 0,-1 1,-1 2,-1 0,0 1,-1 2,-1 0,0 0,0 1,1 0,0 0,0 1,0 0,0 0,0 1,0 0,0 0,0 0,0 1,0 1,1 1,1 0,0 0,0 0,0 0,0 0,0 0,1 0,0 0,0 0,1zm22 27c0,0 0,1 0,1 0,0 0,1 0,1 0,0 -1,0 -1,0 0,1 -1,1 -1,1 -1,0 -1,0 -2,0 0,0 -1,0 -1,0 -2,0 -3,0 -4,0 -2,-1 -2,-1 -3,-2 -1,-1 -1,-2 -2,-4 0,-1 0,-2 0,-4l0 -18 -5 0c0,0 0,0 0,-1 -1,0 -1,-1 -1,-1 0,-1 0,-1 0,-2 0,0 0,0 1,0 0,0 0,-1 0,-1 0,0 0,0 0,0l5 0 0 -7c0,0 0,0 0,-1 0,0 0,0 0,0 0,0 1,0 1,0 1,0 1,0 2,0 0,0 1,0 1,0 0,0 1,0 1,0 0,0 0,0 0,0 0,1 0,1 0,1l0 7 8 0c0,0 1,0 1,0 0,0 0,1 0,1 0,0 0,0 0,0 0,1 0,1 0,2 0,0 0,1 0,1 0,1 0,1 -1,1l-8 0 0 17c0,2 1,4 1,5 1,1 2,1 4,1 0,0 1,0 1,0 0,0 1,0 1,0 0,0 1,0 1,0 0,-1 0,-1 1,-1 0,0 0,0 0,1 0,0 0,0 0,0 0,0 0,0 0,0 0,1 0,1 0,2zm30 2c0,0 0,0 0,0 0,1 -1,1 -1,1 0,0 -1,0 -1,0 -1,0 -1,0 -2,0 0,0 0,0 0,-1 -1,0 -1,0 -1,0l0 -3c-1,1 -3,2 -4,3 -2,1 -4,1 -5,1 -2,0 -4,0 -5,0 -1,-1 -2,-1 -3,-2 -1,-1 -2,-2 -2,-3 -1,-1 -1,-3 -1,-4 0,-2 0,-3 1,-5 1,-1 2,-2 3,-3 1,-1 3,-1 5,-2 2,0 4,0 6,0l5 0 0 -3c0,-1 -1,-2 -1,-3 0,-1 0,-2 -1,-2 -1,-1 -1,-1 -2,-2 -1,0 -2,0 -4,0 -1,0 -2,0 -3,1 -1,0 -2,0 -3,1 -1,0 -2,0 -2,1 -1,0 -1,0 -1,0 -1,0 -1,0 -1,0 0,0 0,0 0,0 0,0 0,-1 -1,-1 0,0 0,-1 0,-1 0,-1 0,-1 1,-1 0,-1 0,-1 0,-1 0,-1 1,-1 2,-1 0,-1 1,-1 2,-1 1,-1 2,-1 4,-1 1,0 2,-1 3,-1 2,0 4,1 6,1 1,1 2,1 3,2 1,1 2,3 2,4 1,1 1,3 1,5l0 21zm-5 -14l-5 0c-2,0 -3,0 -4,0 -1,0 -2,1 -3,1 -1,1 -1,1 -2,2 0,1 0,2 0,3 0,1 0,2 1,3 1,1 3,2 4,2 2,0 3,-1 5,-1 1,-1 2,-2 4,-4l0 -6zm-864 -24l0 0 -8 22 16 0 -8 -22zm75 0c0,1 0,1 0,2 0,0 0,0 0,0 0,1 0,1 0,1 0,0 -1,0 -1,0 0,0 0,0 -1,-1 -1,0 -2,-1 -3,-1 -1,-1 -2,-1 -4,-2 -1,0 -3,0 -5,0 -2,0 -4,0 -6,1 -2,1 -4,2 -5,4 -2,1 -3,3 -3,5 -1,3 -1,5 -1,8 0,2 0,5 1,7 0,2 2,4 3,6 1,1 3,2 5,3 2,1 4,1 6,1 2,0 3,0 4,0 2,-1 3,-1 4,-2l0 -13 -10 0c0,0 -1,0 -1,0 0,-1 0,-1 0,-2 0,-1 0,-1 0,-1 0,-1 0,-1 0,-1 0,0 0,0 1,0 0,-1 0,-1 0,-1l14 0c0,0 1,0 1,1 0,0 0,0 1,0 0,0 0,0 0,1 0,0 0,0 0,1l0 17c0,0 0,1 0,1 0,1 -1,1 -1,1 -1,1 -2,1 -3,1 -1,1 -2,1 -3,1 -1,1 -2,1 -4,1 -1,0 -2,0 -3,0 -3,0 -6,0 -9,-1 -3,-1 -5,-3 -7,-5 -2,-2 -3,-4 -4,-7 -1,-3 -2,-6 -2,-9 0,-4 1,-7 2,-10 1,-2 2,-5 4,-7 2,-2 5,-3 7,-5 3,-1 6,-1 9,-1 2,0 4,0 5,0 2,1 3,1 4,1 1,1 2,1 3,2 1,0 1,0 2,1 0,0 0,0 0,1 0,0 0,1 0,1zm39 22c0,3 0,5 -1,7 0,2 -1,4 -3,5 -1,2 -3,3 -5,4 -2,1 -4,1 -6,1 -3,0 -5,0 -7,-1 -2,-1 -4,-2 -5,-3 -1,-2 -2,-3 -3,-5 0,-2 -1,-5 -1,-7 0,-3 1,-5 1,-7 1,-2 2,-4 3,-6 2,-1 3,-2 5,-3 2,-1 5,-2 7,-2 3,0 5,1 7,2 2,0 3,1 4,3 2,1 3,3 3,5 1,2 1,4 1,7zm-6 0c0,-1 0,-3 0,-4 0,-2 -1,-3 -2,-4 0,-1 -1,-2 -3,-3 -1,-1 -2,-1 -4,-1 -2,0 -3,0 -4,1 -2,1 -3,1 -3,3 -1,1 -2,2 -2,3 0,2 -1,4 -1,5 0,2 1,4 1,5 0,2 1,3 1,4 1,1 2,2 3,3 1,0 3,1 5,1 1,0 3,-1 4,-1 1,-1 2,-2 3,-3 1,-1 1,-2 2,-4 0,-1 0,-3 0,-5zm39 -15c0,0 0,0 0,0 0,0 0,0 0,1 0,0 0,0 0,0 0,0 0,0 0,0l-10 30c0,0 -1,0 -1,0 0,0 0,1 0,1 -1,0 -1,0 -1,0 -1,0 -1,0 -2,0 -1,0 -1,0 -2,0 0,0 -1,0 -1,0 0,-1 -1,-1 -1,-1 0,0 0,0 0,0l-10 -30c-1,0 -1,0 -1,0 0,-1 0,-1 0,-1 0,0 0,0 0,0 0,0 0,0 0,-1 0,0 1,0 1,0 0,0 0,0 1,0 0,0 0,0 1,0 1,0 1,0 2,0 0,0 0,0 0,0 1,0 1,0 1,1 0,0 0,0 0,0l9 25 0 1 0 -1 9 -25c0,0 0,0 0,0 0,-1 0,-1 0,-1 1,0 1,0 1,0 1,0 1,0 2,0 0,0 1,0 1,0 0,0 1,0 1,0 0,0 0,0 0,0 0,1 0,1 0,1zm32 14c0,1 0,2 0,2 -1,0 -1,1 -2,1l-20 0c0,1 0,3 0,4 1,2 1,3 2,4 1,1 2,1 3,2 2,0 3,1 5,1 1,0 3,0 4,-1 1,0 2,0 3,0 1,-1 1,-1 2,-1 0,0 1,-1 1,-1 0,0 0,0 1,1 0,0 0,0 0,0 0,0 0,0 0,1 0,0 0,0 0,1 0,0 0,0 0,0 0,1 0,1 0,1 0,0 0,0 0,0 0,1 0,1 -1,1 0,0 0,0 -1,0 0,1 -1,1 -2,1 -1,0 -2,1 -3,1 -2,0 -3,0 -5,0 -2,0 -4,0 -6,-1 -2,0 -4,-2 -5,-3 -1,-1 -2,-3 -3,-5 -1,-2 -1,-5 -1,-7 0,-3 0,-5 1,-8 1,-2 2,-3 3,-5 1,-1 3,-3 5,-3 2,-1 4,-2 6,-2 2,0 4,1 6,2 2,0 3,1 4,3 1,1 2,3 3,4 0,2 0,4 0,6l0 1zm-5 -2c0,-3 -1,-5 -2,-7 -2,-1 -4,-2 -6,-2 -2,0 -3,0 -4,1 -1,0 -2,1 -3,2 0,1 -1,2 -1,3 -1,1 -1,2 -1,3l17 0zm32 -10c0,1 0,1 0,1 0,1 0,1 0,1 0,0 0,0 0,1 -1,0 -1,0 -1,0 0,0 0,0 -1,0 0,-1 0,-1 0,-1 -1,0 -1,0 -2,0 0,0 0,0 -1,0 0,0 -1,0 -2,0 0,0 -1,1 -1,1 -1,1 -2,1 -2,2 -1,1 -2,2 -2,4l0 20c0,0 0,0 0,0 -1,0 -1,0 -1,1 0,0 0,0 -1,0 0,0 -1,0 -1,0 -1,0 -1,0 -2,0 0,0 0,0 0,0 -1,-1 -1,-1 -1,-1 0,0 0,0 0,0l0 -31c0,0 0,0 0,0 0,-1 0,-1 0,-1 1,0 1,0 1,0 1,0 1,0 2,0 0,0 0,0 1,0 0,0 0,0 1,0 0,0 0,0 0,1 0,0 0,0 0,0l0 5c1,-2 2,-3 2,-4 1,0 2,-1 3,-1 0,-1 1,-1 2,-1 0,0 1,-1 1,-1 1,0 1,0 1,1 1,0 1,0 2,0 0,0 0,0 1,0 0,0 0,0 0,0 1,0 1,1 1,1 0,0 0,0 0,0 0,0 0,0 0,1 0,0 0,0 0,1zm33 29c0,0 0,0 0,0 0,0 -1,0 -1,1 0,0 0,0 -1,0 0,0 0,0 -1,0 -1,0 -1,0 -1,0 -1,0 -1,0 -1,0 0,-1 -1,-1 -1,-1 0,0 0,0 0,0l0 -18c0,-2 0,-3 0,-4 -1,-2 -1,-2 -1,-3 -1,-1 -2,-2 -2,-2 -1,0 -2,-1 -3,-1 -2,0 -3,1 -5,2 -1,1 -2,2 -4,4l0 22c0,0 0,0 0,0 0,0 0,0 -1,1 0,0 0,0 0,0 -1,0 -1,0 -2,0 0,0 -1,0 -1,0 -1,0 -1,0 -1,0 0,-1 0,-1 -1,-1 0,0 0,0 0,0l0 -31c0,0 0,0 0,0 1,-1 1,-1 1,-1 0,0 0,0 1,0 0,0 0,0 1,0 0,0 1,0 1,0 1,0 1,0 1,0 0,0 0,0 0,1 0,0 0,0 0,0l0 4c2,-2 4,-3 6,-4 1,-1 3,-2 5,-2 2,0 4,1 5,2 1,0 3,1 3,2 1,1 2,3 2,4 1,2 1,4 1,6l0 19zm56 0c0,0 0,0 0,0 0,0 -1,0 -1,1 0,0 0,0 -1,0 0,0 -1,0 -1,0 -1,0 -1,0 -1,0 -1,0 -1,0 -1,0 -1,-1 -1,-1 -1,-1 0,0 0,0 0,0l0 -19c0,-1 0,-2 0,-3 0,-2 -1,-2 -1,-3 -1,-1 -1,-2 -2,-2 -1,0 -2,-1 -3,-1 -1,0 -3,1 -4,2 -1,1 -3,2 -4,4l0 22c0,0 0,0 0,0 0,0 -1,0 -1,1 0,0 0,0 -1,0 0,0 0,0 -1,0 -1,0 -1,0 -1,0 -1,0 -1,0 -1,0 -1,-1 -1,-1 -1,-1 0,0 0,0 0,0l0 -19c0,-1 0,-2 0,-3 0,-2 -1,-2 -1,-3 -1,-1 -2,-2 -2,-2 -1,0 -2,-1 -3,-1 -1,0 -3,1 -4,2 -1,1 -3,2 -4,4l0 22c0,0 0,0 0,0 0,0 -1,0 -1,1 0,0 0,0 -1,0 0,0 0,0 -1,0 -1,0 -1,0 -1,0 -1,0 -1,0 -1,0 -1,-1 -1,-1 -1,-1 0,0 0,0 0,0l0 -31c0,0 0,0 0,0 0,-1 0,-1 1,-1 0,0 0,0 0,0 1,0 1,0 2,0 0,0 1,0 1,0 0,0 1,0 1,0 0,0 0,0 0,1 0,0 0,0 0,0l0 4c2,-2 4,-3 5,-4 2,-1 4,-2 5,-2 2,0 3,1 4,1 1,0 2,1 2,1 1,1 2,1 2,2 1,1 1,2 2,3 1,-2 2,-2 3,-3 1,-1 1,-2 2,-2 1,-1 2,-1 3,-1 1,0 1,-1 2,-1 2,0 4,1 5,2 2,0 3,1 3,2 1,1 2,3 2,4 1,2 1,4 1,5l0 20zm36 -17c0,1 0,2 0,2 -1,0 -1,1 -2,1l-20 0c0,1 0,3 0,4 1,2 1,3 2,4 1,1 2,1 3,2 1,0 3,1 5,1 1,0 3,0 4,-1 1,0 2,0 3,0 0,-1 1,-1 2,-1 0,0 1,-1 1,-1 0,0 0,0 0,1 0,0 1,0 1,0 0,0 0,0 0,1 0,0 0,0 0,1 0,0 0,0 0,0 0,1 0,1 0,1 0,0 0,0 0,0 -1,1 -1,1 -1,1 0,0 0,0 -1,0 0,1 -1,1 -2,1 -1,0 -2,1 -4,1 -1,0 -2,0 -4,0 -2,0 -4,0 -6,-1 -2,0 -4,-2 -5,-3 -1,-1 -2,-3 -3,-5 -1,-2 -1,-5 -1,-7 0,-3 0,-5 1,-8 1,-2 2,-3 3,-5 1,-1 3,-3 5,-3 1,-1 3,-2 6,-2 2,0 4,1 6,2 2,0 3,1 4,3 1,1 2,3 2,4 1,2 1,4 1,6l0 1zm-5 -2c0,-3 -1,-5 -2,-7 -2,-1 -4,-2 -7,-2 -1,0 -2,0 -3,1 -1,0 -2,1 -3,2 -1,1 -1,2 -2,3 0,1 0,2 0,3l17 0zm40 19c0,0 0,0 0,0 0,0 0,0 0,1 -1,0 -1,0 -1,0 -1,0 -1,0 -2,0 0,0 -1,0 -1,0 0,0 -1,0 -1,0 0,-1 0,-1 0,-1 0,0 0,0 0,0l0 -18c0,-2 -1,-3 -1,-4 0,-2 0,-2 -1,-3 -1,-1 -1,-2 -2,-2 -1,0 -2,-1 -3,-1 -1,0 -3,1 -4,2 -1,1 -3,2 -5,4l0 22c0,0 0,0 0,0 0,0 0,0 0,1 0,0 -1,0 -1,0 0,0 -1,0 -1,0 -1,0 -1,0 -2,0 0,0 0,0 -1,0 0,-1 0,-1 0,-1 0,0 0,0 0,0l0 -31c0,0 0,0 0,0 0,-1 0,-1 0,-1 1,0 1,0 1,0 0,0 1,0 1,0 1,0 1,0 2,0 0,0 0,0 0,0 1,0 1,0 1,1 0,0 0,0 0,0l0 4c2,-2 3,-3 5,-4 2,-1 4,-2 5,-2 2,0 4,1 5,2 2,0 3,1 4,2 1,1 1,3 2,4 0,2 0,4 0,6l0 19zm26 -2c0,0 0,1 0,1 0,0 0,1 -1,1 0,0 0,0 0,0 -1,1 -1,1 -2,1 0,0 -1,0 -1,0 -1,0 -1,0 -2,0 -1,0 -3,0 -4,0 -1,-1 -2,-1 -3,-2 0,-1 -1,-2 -1,-4 -1,-1 -1,-2 -1,-4l0 -18 -4 0c0,0 -1,0 -1,-1 0,0 0,-1 0,-1 0,-1 0,-1 0,-2 0,0 0,0 0,0 0,0 0,-1 0,-1 1,0 1,0 1,0l4 0 0 -7c0,0 0,0 0,-1 0,0 1,0 1,0 0,0 0,0 1,0 0,0 1,0 1,0 1,0 1,0 1,0 1,0 1,0 1,0 1,0 1,0 1,0 0,1 0,1 0,1l0 7 8 0c0,0 0,0 0,0 0,0 1,1 1,1 0,0 0,0 0,0 0,1 0,1 0,2 0,0 0,1 0,1 -1,1 -1,1 -1,1l-8 0 0 17c0,2 0,4 1,5 0,1 2,1 3,1 1,0 1,0 2,0 0,0 0,0 1,0 0,0 0,0 1,0 0,-1 0,-1 0,-1 0,0 0,0 0,1 1,0 1,0 1,0 0,0 0,0 0,0 0,1 0,1 0,2zm52 -14c0,3 -1,5 -1,7 -1,2 -2,4 -3,5 -2,2 -3,3 -5,4 -2,1 -4,1 -7,1 -2,0 -5,0 -7,-1 -1,-1 -3,-2 -4,-3 -2,-2 -2,-3 -3,-5 -1,-2 -1,-5 -1,-7 0,-3 0,-5 1,-7 1,-2 2,-4 3,-6 1,-1 3,-2 5,-3 2,-1 4,-2 7,-2 2,0 4,1 6,2 2,0 4,1 5,3 1,1 2,3 3,5 0,2 1,4 1,7zm-6 0c0,-1 0,-3 -1,-4 0,-2 0,-3 -1,-4 -1,-1 -2,-2 -3,-3 -1,-1 -3,-1 -5,-1 -1,0 -3,0 -4,1 -1,1 -2,1 -3,3 -1,1 -1,2 -2,3 0,2 0,4 0,5 0,2 0,4 0,5 1,2 1,3 2,4 1,1 2,2 3,3 1,0 3,1 4,1 2,0 3,-1 5,-1 1,-1 2,-2 3,-3 0,-1 1,-2 1,-4 1,-1 1,-3 1,-5z"/>
     <path class="fil12" d="M1259 2747c0,-3 1,-5 3,-6 2,-2 4,-3 7,-3 3,0 5,1 7,3 1,2 2,4 2,6l0 18 17 0 0 -18 -13 0 0 -4 27 0 0 4 -9 0 0 43 -5 0 0 -21 -17 0 0 4c0,1 0,1 0,1 -1,1 -1,1 -2,1 -1,0 -3,-1 -5,-3 -3,-3 -4,-4 -4,-5 0,-1 0,-1 1,-2 0,0 1,0 1,0l4 0 0 -18c0,-1 0,-2 -1,-3 -1,-1 -2,-1 -3,-1 -1,0 -2,0 -3,1 -1,1 -2,2 -2,3 0,1 1,2 2,2 1,1 2,2 3,2l0 3c-3,0 -5,0 -7,-2 -2,-1 -2,-3 -3,-5zm48 0l0 -4 22 0 0 4 -9 0 0 43 -5 0 0 -43 -8 0zm20 0l0 -4 34 0 0 4 -6 0 0 11c0,2 -1,5 -3,7 -2,2 -5,3 -8,3 -1,0 -2,0 -4,-1 5,7 10,14 18,19l-3 4c-12,-9 -20,-20 -26,-32l5 -2c0,2 2,4 4,5 2,2 4,2 6,2 2,0 3,0 4,-1 1,-2 2,-3 2,-4l0 -11 -23 0zm32 0l0 -4 48 0 0 4 -8 0 0 43 -5 0 0 -30 -20 0c-1,0 -3,1 -4,2 -1,1 -1,3 -1,5 0,3 1,6 3,10 2,3 6,7 10,10l-3 3c-5,-4 -9,-8 -11,-12 -3,-4 -4,-8 -4,-11 0,-3 1,-6 3,-8 2,-2 4,-3 7,-3l20 0 0 -9 -35 0zm76 0l0 -4 56 0 0 4 -9 0 0 43 -5 0 0 -23 -13 0 -4 -5 17 0 0 -15 -17 0 0 13c0,2 -1,4 -3,6 -1,1 -3,2 -6,2 0,0 -1,0 -1,0 0,0 -1,0 -1,0l15 20 -4 2 -22 -30 4 -3c1,2 2,4 3,5 2,1 3,2 5,2 1,0 2,-1 3,-1 1,-1 2,-2 2,-3l0 -13 -20 0zm54 0l0 -4 35 0 0 4 -7 0 0 11c0,2 -1,5 -3,7 -2,2 -5,3 -8,3 -1,0 -2,0 -4,-1 5,7 11,14 18,19l-3 4c-11,-9 -20,-20 -26,-32l5 -2c1,2 2,4 4,5 2,2 4,2 6,2 2,0 3,0 4,-1 1,-2 2,-3 2,-4l0 -11 -23 0zm33 0l0 -4 59 0 0 4 -26 0 0 13c1,-2 2,-4 4,-5 2,-1 4,-1 6,-1 3,0 6,1 8,4 3,2 4,5 4,9 0,3 -1,6 -3,9 -1,2 -4,5 -7,8l-4 -3c3,-2 5,-4 6,-7 2,-2 3,-5 3,-7 0,-3 -1,-5 -2,-6 -2,-2 -3,-2 -5,-2 -2,0 -4,0 -6,2 -2,2 -4,4 -4,7l0 22 -5 0 0 -14c-2,1 -3,2 -5,3 -2,0 -3,1 -5,1 -4,0 -8,-1 -10,-4 -3,-3 -4,-6 -4,-9 0,-4 1,-7 4,-9 2,-3 6,-4 10,-4 1,0 3,0 6,1l-2 5c-1,-1 -3,-1 -4,-1 -3,0 -5,0 -7,2 -2,2 -2,4 -2,6 0,2 0,4 2,6 2,1 4,2 7,2 1,0 3,0 5,-2 2,-1 4,-2 5,-4l0 -22 -28 0zm57 0l0 -4 22 0 0 4 -8 0 0 43 -5 0 0 -43 -9 0zm20 0l0 -4 35 0 0 4 -7 0 0 11c0,2 -1,5 -3,7 -2,2 -4,3 -7,3 -1,0 -2,0 -4,-1 4,7 10,14 17,19l-3 4c-11,-9 -20,-20 -25,-32l4 -2c1,2 2,4 4,5 2,2 4,2 7,2 1,0 3,0 4,-1 1,-2 1,-3 1,-4l0 -11 -23 0zm33 0l0 -4 50 0 0 4 -8 0 0 43 -5 0 0 -14c-2,1 -4,3 -6,4 -2,1 -4,1 -6,1 -4,0 -8,-1 -10,-3 -3,-2 -4,-5 -4,-8 0,-2 0,-4 1,-6 2,-2 3,-4 4,-4l-14 0 0 -5 30 0 0 5 -7 0c-3,0 -5,2 -7,4 -1,2 -2,4 -2,6 0,2 1,3 2,5 2,1 4,1 7,1 2,0 4,0 6,-2 2,-1 4,-3 6,-6l0 -21 -37 0zm48 0l0 -4 22 0 0 4 -8 0 0 43 -5 0 0 -43 -9 0zm50 0l0 -4 39 0 0 4 -6 0 0 14c0,2 -1,4 -2,6 -1,2 -2,3 -4,4l-3 -3c1,-1 2,-2 3,-3 1,-1 1,-3 1,-5l0 -13 -17 0 0 18c0,1 0,2 0,3 1,1 1,2 2,3l18 15c1,1 2,2 2,3 1,1 1,2 1,3 0,1 0,3 -1,4 -1,1 -2,2 -4,3l-4 -4c1,0 2,0 3,-1 1,-1 1,-1 1,-2 0,0 0,-1 0,-1 -1,-1 -1,-2 -2,-2l-18 -16c-1,-1 -2,-2 -2,-4 -1,-1 -1,-3 -1,-4l0 -18 -6 0zm37 0l0 -4 59 0 0 4 -26 0 0 13c1,-2 2,-4 4,-5 2,-1 4,-1 6,-1 3,0 6,1 8,4 3,2 4,5 4,9 0,3 -1,6 -3,9 -1,2 -4,5 -7,8l-4 -3c3,-2 5,-4 6,-7 2,-2 3,-5 3,-7 0,-3 -1,-5 -2,-6 -2,-2 -3,-2 -5,-2 -2,0 -4,0 -6,2 -2,2 -4,4 -4,7l0 22 -5 0 0 -14c-2,1 -3,2 -5,3 -2,0 -3,1 -5,1 -4,0 -8,-1 -10,-4 -3,-3 -4,-6 -4,-9 0,-4 1,-7 4,-9 2,-3 6,-4 10,-4 1,0 3,0 6,1l-2 5c-1,-1 -2,-1 -4,-1 -3,0 -5,0 -7,2 -2,2 -2,4 -2,6 0,2 1,4 2,6 2,1 4,2 7,2 2,0 3,0 5,-2 2,-1 4,-2 5,-4l0 -22 -28 0zm87 0l0 -4 50 0 0 4 -11 0c2,2 3,4 3,7 0,2 0,4 -1,6 -1,1 -2,2 -4,3 2,1 4,2 5,5 1,2 2,4 2,7 0,4 -1,7 -4,9 -2,3 -6,4 -10,4 -5,0 -10,-2 -15,-7 -4,-6 -9,-13 -12,-22l4 -2c3,9 7,15 11,20 4,4 8,7 12,7 3,0 5,-1 7,-3 1,-2 2,-4 2,-6 0,-2 -1,-5 -2,-7 -2,-1 -4,-2 -6,-2l-10 0 0 -5 9 0c2,0 4,-1 5,-2 1,-1 2,-3 2,-5 0,-1 0,-2 -1,-4 -1,-1 -2,-2 -4,-3l-32 0zm48 0l0 -4 56 0 0 4 -9 0 0 43 -5 0 0 -13c-3,3 -6,5 -10,7 -3,1 -6,2 -10,2 -4,0 -7,-1 -10,-3 -2,-2 -4,-5 -4,-8 0,-1 0,-3 1,-4 0,-1 1,-2 2,-2 -2,-1 -4,-2 -5,-3 -2,-2 -2,-3 -2,-5 0,-2 1,-4 2,-6 2,-2 5,-3 8,-3l10 0 0 -5 -24 0zm22 34c4,0 7,-1 10,-3 4,-1 7,-4 10,-7l0 -24 -13 0 0 10 -15 0c-2,0 -3,1 -4,1 -1,1 -1,2 -1,3 0,1 0,2 1,2 2,1 3,2 5,2 0,0 1,0 2,-1 1,0 2,0 4,0l4 0 3 5 -7 0c-2,0 -4,1 -6,2 -1,1 -2,2 -2,4 0,2 1,3 3,4 2,2 4,2 6,2zm32 -34l0 -4 45 0 0 4 -8 0 0 43 -5 0 0 -21 -18 0 0 4c0,1 0,1 -1,2 0,0 -1,1 -1,1 -1,0 -3,-2 -6,-4 -2,-2 -4,-4 -4,-5 0,-1 1,-1 1,-2 1,0 1,0 2,0l4 0 0 -18 -9 0zm14 18l18 0 0 -18 -18 0 0 18z"/>
    </g>
    <path class="fil13" d="M2370 2256c0,6 -1,12 -4,16 -2,5 -5,8 -10,11 -4,3 -9,4 -15,4 -2,0 -4,0 -6,-1 -2,-1 -4,-1 -6,-3l0 30 -12 0 0 -86 7 0 3 4c2,-2 4,-3 7,-4 3,-1 5,-2 7,-2 6,0 11,2 16,4 4,3 7,6 10,11 2,5 3,10 3,16zm-12 1c0,-7 -1,-12 -4,-16 -3,-4 -7,-6 -13,-6 -5,0 -9,2 -12,4l0 34c3,3 7,4 12,4 5,0 10,-2 13,-6 3,-4 4,-8 4,-14z"/>
    <path id="1" class="fil13" d="M2413 2236c-3,0 -6,1 -10,3 -4,2 -8,5 -11,8l0 38 -11 0 0 -58 6 0 4 9c3,-2 6,-4 10,-6 3,-2 7,-3 10,-3l2 9z"/>
    <path id="2" class="fil13" d="M2446 2225c8,0 15,3 19,9 4,5 6,13 6,22l0 3 -41 0c0,5 2,10 5,13 4,3 8,5 14,5 4,0 6,0 8,-1 3,-1 6,-2 10,-4l4 8c-7,5 -14,7 -22,7 -10,0 -17,-3 -23,-9 -5,-5 -8,-13 -8,-22 0,-6 1,-11 3,-16 2,-5 6,-8 10,-11 4,-2 9,-4 15,-4zm-1 10c-4,0 -8,2 -10,4 -3,3 -4,7 -5,12l30 0c-1,-11 -6,-16 -15,-16z"/>
    <path id="3" class="fil13" d="M2498 2287c-3,0 -6,-1 -10,-2 -4,-1 -7,-2 -9,-4l4 -8c5,3 10,4 15,4 4,0 7,0 9,-2 3,-1 4,-3 4,-5 0,-4 -5,-7 -13,-10 -13,-4 -19,-10 -19,-18 0,-5 2,-9 6,-12 4,-3 9,-5 16,-5 3,0 6,1 10,2 3,1 6,2 9,4l-4 8c-3,-2 -5,-3 -8,-3 -2,-1 -5,-1 -7,-1 -3,0 -6,0 -8,2 -2,1 -3,3 -3,5 0,2 1,3 3,5 2,1 5,2 9,3 13,5 20,11 20,19 0,6 -2,10 -6,13 -4,3 -10,5 -18,5z"/>
    <path id="4" class="fil13" d="M2557 2225c8,0 15,3 19,9 4,5 6,13 6,22l0 3 -41 0c1,5 2,10 6,13 3,3 7,5 14,5 3,0 5,0 8,-1 2,-1 5,-2 9,-4l4 8c-7,5 -14,7 -21,7 -10,0 -18,-3 -24,-9 -5,-5 -8,-13 -8,-22 0,-6 1,-11 3,-16 3,-5 6,-8 10,-11 4,-2 9,-4 15,-4zm0 10c-5,0 -8,2 -11,4 -3,3 -4,7 -5,12l30 0c-1,-11 -6,-16 -14,-16z"/>
    <path id="5" class="fil13" d="M2623 2235c-3,0 -5,1 -9,2 -3,2 -6,4 -9,7l0 41 -12 0 0 -58 8 0 2 8c4,-3 7,-6 11,-7 4,-2 8,-3 12,-3 6,0 11,2 14,6 3,4 4,9 4,16l0 38 -11 0 0 -37c0,-4 -1,-8 -2,-10 -2,-2 -4,-3 -8,-3z"/>
    <path id="6" class="fil13" d="M2673 2228l10 0 4 8 -14 0 0 31c0,3 0,6 2,8 1,1 3,2 6,2 1,0 3,0 6,-1l3 9c-2,0 -3,1 -5,1 -2,1 -4,1 -5,1 -6,0 -10,-1 -14,-4 -3,-4 -5,-8 -5,-14l0 -33 -8 0 0 -8 8 0 0 -15 12 -3 0 18z"/>
    <path id="7" class="fil13" d="M2724 2225c8,0 14,3 19,9 4,5 6,13 6,22l0 3 -41 0c0,5 2,10 5,13 3,3 8,5 14,5 3,0 6,0 8,-1 3,-1 6,-2 10,-4l3 8c-7,5 -14,7 -21,7 -10,0 -18,-3 -23,-9 -6,-5 -8,-13 -8,-22 0,-6 1,-11 3,-16 2,-5 6,-8 10,-11 4,-2 9,-4 15,-4zm-1 10c-4,0 -8,2 -10,4 -3,3 -4,7 -5,12l30 0c-2,-11 -7,-16 -15,-16z"/>
    <path id="8" class="fil13" d="M2810 2285l-7 0 -2 -4c-3,2 -5,3 -8,4 -3,1 -6,2 -8,2 -6,0 -11,-2 -15,-4 -5,-3 -8,-6 -10,-11 -3,-5 -4,-10 -4,-16 0,-6 1,-12 4,-16 2,-5 6,-8 10,-11 5,-2 10,-4 15,-4 2,0 4,1 6,1 3,1 5,2 7,3l0 -27 12 -2 0 85zm-25 -8c3,0 5,0 7,-1 2,-1 4,-2 6,-4l0 -32c-2,-2 -4,-3 -6,-4 -2,0 -4,-1 -7,-1 -5,0 -9,2 -12,6 -3,4 -5,9 -5,15 0,6 2,11 5,15 3,4 7,6 12,6z"/>
    <path id="9" class="fil13" d="M2907 2256c0,6 -2,12 -4,16 -2,5 -6,8 -10,11 -5,3 -10,4 -15,4 -2,0 -5,-1 -7,-1 -3,-1 -6,-3 -8,-4l-2 3 -7 0 0 -83 12 -2 0 29c2,-1 4,-2 6,-3 2,0 4,-1 6,-1 6,0 11,2 15,4 5,3 8,6 10,11 3,5 4,10 4,16zm-12 1c0,-7 -2,-12 -5,-16 -3,-4 -7,-6 -12,-6 -5,0 -9,2 -12,4l0 34c3,3 7,4 12,4 5,0 9,-2 12,-6 3,-4 5,-8 5,-14z"/>
    <polygon id="10" class="fil13" points="2966,2227 2944,2285 2944,2313 2933,2313 2933,2285 2911,2229 2923,2225 2939,2269 2954,2227 "/>
    <g>
     <path class="fil14" d="M1077 2485c0,5 -1,10 -5,14 -4,3 -9,5 -14,5 -6,0 -10,-2 -14,-5 -4,-4 -6,-9 -6,-14 0,-6 2,-10 6,-14 4,-4 8,-6 14,-6 5,0 10,2 14,6 4,4 5,8 5,14zm-2 0c0,-5 -1,-9 -5,-13 -3,-3 -7,-5 -12,-5 -5,0 -9,2 -13,5 -3,4 -5,8 -5,13 0,4 2,9 5,12 4,3 8,5 13,5 5,0 9,-2 12,-5 4,-3 5,-8 5,-12zm-25 -12l9 0c3,0 5,1 6,2 1,1 2,2 2,4 0,2 -1,3 -2,4 -1,1 -2,2 -4,2 1,0 1,1 2,1 0,0 0,1 1,2 1,1 1,2 2,3l2 4 -3 0 -2 -4c-2,-3 -3,-4 -4,-5 -1,0 -2,-1 -4,-1l-2 0 0 10 -3 0 0 -22zm3 3l0 7 3 0c3,0 5,0 6,0 0,-1 1,-1 2,-2 0,0 0,-1 0,-2 0,-1 0,-2 -1,-2 -1,-1 -3,-1 -6,-1l-4 0z"/>
     <path class="fil14" d="M1005 2621l72 0 0 117c-40,0 -80,0 -121,0 -55,-6 -94,-40 -108,-81 -12,-34 -7,-72 13,-101 24,-35 67,-59 116,-59 38,0 72,14 97,37l-49 50 -1 -2c-11,-12 -29,-18 -47,-18 -34,0 -57,24 -57,55 0,30 23,49 57,49l28 0 0 -47zm-1005 111l0 -70 94 0c14,0 22,-1 22,-7 0,-6 -9,-14 -17,-22 -16,-14 -28,-29 -37,-46 -11,-23 -14,-42 -2,-65 16,-30 49,-25 84,-25l335 0 0 70 -102 0 0 169 -75 0 0 -169 -129 0c-25,0 -27,4 -12,21 15,17 38,29 51,73 11,41 -11,71 -51,71l-161 0zm0 30l486 0 92 -297 54 0 33 0 55 0 81 297 276 0 0 26 -343 0 0 0 -29 0 -58 -255 -67 255 -67 0 0 0 -513 0 0 -26z"/>
     <g>
      <path class="fil15 str0" d="M650 2608l-6 -1 -6 -1 -6 0 -6 -1 -5 0 -6 -1 -5 0 -6 0 -5 -1 -6 0 -5 0 -5 1 -6 0 -5 0 -5 0 -6 1 -5 1 -5 0 -5 1 -5 1 -6 1 -5 1 -5 2 -5 1 -6 2 -5 1 -5 2 -5 2 -6 2 -5 2 -6 3 -5 2 -2 0 -1 -1 -1 0 -1 -1 -2 0 -1 -1 -1 -1 -1 0 -2 -1 -1 -2 -2 -1 -1 -1 -2 -3 -2 -1 -1 -1 -1 0 0 0 -1 -1 0 1 -1 0 0 0 0 0 -1 0 0 0 0 1 0 0 -1 1 0 0 0 1 0 1 -1 2 0 1 0 2 1 2 0 2 0 2 1 2 0 3 1 2 1 3 0 1 0 1 0 1 0 0 0 1 0 1 0 1 0 0 -1 1 0 1 0 1 -1 0 0 1 -1 1 0 0 -1 1 -2 3 -2 2 -2 2 -2 2 -2 2 -2 2 -2 2 -2 2 -2 1 -2 2 -2 2 -3 1 -2 1 -2 1 -2 2 -3 1 -2 1 -2 1 -3 0 -2 1 -2 1 -3 0 -2 1 -3 0 -2 1 -3 0 -3 0 -2 1 -3 0 -2 0 -3 0 -3 0 -4 0 -4 -1 -4 0 -4 1 -3 0 -4 0 -4 0 -3 1 -4 0 -3 1 -3 1 -3 1 -3 1 -3 1 -4 1 -2 1 -3 2 -3 1 -3 2 -2 1 -3 2 -3 2 -2 2 -3 2 -2 2 -3 2 -2 2 -2 3 -3 2 -2 3 -2 2 -2 3 0 1 1 0 0 1 1 0 1 1 1 0 1 1 1 0 1 0 1 1 1 0 1 0 2 0 1 0 2 0 1 0 2 -2 2 -2 2 -2 2 -2 2 -3 2 -1 2 -2 2 -2 2 -2 2 -2 2 -2 3 -1 2 -2 2 -1 3 -2 2 -2 1 0 1 0 1 0 0 0 1 0 1 1 0 0 0 0 1 0 0 1 0 0 0 0 0 1 0 1 -1 1 0 1 -1 1 -1 1 -1 2 -2 2 -1 1 -1 2 -2 2 -1 2 -2 2 -2 1 -3 4 -4 4 -3 3 -4 4 0 0 1 1 0 0 1 0 0 1 0 0 1 1 1 0 0 0 1 0 0 1 1 0 1 0 2 0 1 0 0 0 1 0 1 0 0 0 1 0 1 0 1 -1 1 0 0 0 1 -1 1 0 0 -1 1 0 1 -1 0 0 3 -5 3 -3 3 -4 3 -3 3 -3 4 -2 3 -3 3 -2 4 -2 3 -1 4 -2 4 -1 4 -1 3 -1 4 -1 4 -1 4 -1 4 0 4 -1 4 0 8 -1 7 -1 4 0 4 0 4 -1 4 -1 3 0 4 -1 4 -1 3 -1 4 0 4 -1 3 -1 4 0 4 -1 4 -1 3 -1 4 -2 4 -1 4 -1 3 -2 4 -1 3 -2 4 -2 3 -2 4 -1 0 -1 1 -1 0 0 1 -1 0 0 1 -1 0 0 1 0 1 -1 0 0 1 0 1 0 1 0 2 -1 2 0 1 0 3 1 2 0 5 0 6 1 4 0 4 1 4 0 4 0 4 0 3 0 4 0 4 0 4 -1 4 0 4 0 4 0 4 -1 4 0 4 0 4 -1 7 -1 8 -1 8 -1 8 -1 9 -2 8 -2 8 -2 8 -2 1 0 2 -1 2 -1 1 0 1 -1 2 0 1 0 1 0 1 1 1 0 1 0 2 1 1 1 1 0 1 1 1 1 4 4 4 4 2 1 1 1 1 1 1 1 2 1 1 1 1 1 2 1 1 0 2 0 1 0 2 0 2 0 1 0 2 0 2 0 4 -1 5 -1 4 0 5 -1 5 -1 5 -2 5 -1 5 -1 6 -1 5 -1 6 -1 5 -1 3 -1 1 0 2 0 2 0 2 0 1 0 2 0 1 0 1 0 2 0 1 0 2 1 3 0 4 1 55 13 1 0 2 0 2 0 1 0 1 0 2 0 1 0 1 0 1 -1 1 0 1 0 1 -1 1 0 1 0 1 -1 0 0 1 -1 0 0 0 -1 1 0 0 -1 0 0 0 -1 0 0 -1 -1 0 -1 -1 0 0 -1 -1 0 -1 -1 -1 0 -1 -1 -46 -15 -2 0 0 0 -1 -1 -1 0 -1 0 0 0 -1 -1 0 0 -1 0 0 -1 0 0 0 0 0 0 0 -1 0 0 0 0 0 -1 1 0 0 0 0 -1 1 0 0 0 1 0 1 -1 1 0 2 0 2 0 2 0 4 0 4 1 4 0 3 1 4 1 4 0 4 1 3 1 4 1 4 1 4 0 3 1 4 1 4 1 3 1 4 1 1 1 0 0 1 0 1 0 1 0 1 0 1 0 1 0 2 0 2 -1 1 0 1 0 0 -1 1 0 1 0 1 -1 0 0 1 -1 1 0 0 -1 0 0 1 -1 0 0 0 -1 1 0 0 -1 0 -1 -1 0 0 -1 0 0 -5 -2 -6 -2 -6 -2 -6 -1 -6 -2 -7 -2 -3 -1 -3 0 -4 -1 -3 -1 -3 0 -4 -1 -4 0 -3 -1 -4 0 -4 0 -4 0 -3 0 -4 0 -4 0 -4 1 -5 0 -4 1 -4 1 -4 1 -4 1 -1 0 -1 0 -1 0 -1 0 -2 1 -2 1 -2 1 -2 1 -1 0 -1 0 -1 0 -1 0 -2 1 -1 0 -2 1 -2 0 -1 0 -3 1 -2 0 -2 0 -2 0 -3 0 -2 0 -2 0 -3 -1 -2 0 -2 0 -2 -1 -2 0 -2 -1 -2 0 -2 -1 -2 0 -1 -1 -2 -1 -1 -1 -1 -1 0 -1 -1 0 0 -1 0 -2 1 -1 0 -1 1 -1 2 -2 2 -2 3 -1 2 -2 2 -2 2 -2 3 -2 2 -2 3 1 3 0 3 0 2 0 3 0 2 -1 3 0 3 0 2 -1 3 -1 2 -1 3 0 2 -2 3 -1 2 -1 2 -2 4 0 4 0 4 0 4 0 4 0 4 0 3 0 4 0 2 0 1 0 1 0 1 -1 1 0 1 -1 1 0 1 -1 0 -1 1 0 0 -1 1 0 0 -1 1 -1 0 -1 0 0 0 -1 0 -1 0 0 -1 -1 0 -1 0 0 -1 -1 -1 0 -1 -1 -1 0 -1 -1 -1 0 -2 0 -1 -1 -2 0 -2 0 -2 0 -1 0 -2 -1 -2 0 -2 -1 -2 0 -3 -1 -2 -1 -2 -1 -2 -1 -2 -1 -2 -1 -2 -1 -1 -2 -2 -1 -1 -1 -35 -3 -1 -1 -2 0 -1 0 -1 -1 -2 0 -1 -1 -1 0 -1 -1 -1 0 -1 -1 -1 -1 -1 0 -1 -2 -1 -1 -1 -1 -1 -1 0 0 -1 0 0 -1 -1 0 -1 0 0 0 -1 0 0 1 0 0 -1 1 0 0 0 1 0 1 0 1 0 5 1 3 0 2 0 1 -1 1 0 0 0 1 0 0 0 0 -1 0 0 0 -1 0 0 0 -1 0 0 0 -1 0 -2 -1 -1 -2 -3 -1 -2 -2 -1 -1 -1 0 -1 0 0 -1 -1 0 0 0 -1 0 0 1 0 0 -1 0 0 1 0 0 0 1 0 1 1 1 0 1 0 1 1 1 0 2 1 1 1 2 1 3 1 1 0 1 1 2 0 1 0 1 0 2 0 1 0 2 -1 1 -2 1 -1 1 -1 1 -1 1 -2 1 -1 0 -2 1 -1 0 -2 1 -2 1 -1 0 -2 0 -2 1 -2 0 -2 0 -2 0 -2 1 -3 0 -2 0 -5 0 -5 0 -6 0 -6 -1 -7 0 -6 0zm127 -28c0,0 0,0 0,1 0,1 -1,3 -2,3 -2,0 -9,-2 -9,-3 0,0 0,0 0,-1l1 0 7 0 2 0 1 0z"/>
      <path id="1" class="fil16" d="M650 2608l-6 -1 -6 -1 -6 0 -6 -1 -5 0 -6 -1 -5 0 -6 0 -5 -1 -6 0 -5 0 -5 1 -6 0 -5 0 -5 0 -6 1 -5 1 -5 0 -5 1 -5 1 -6 1 -5 1 -5 2 -5 1 -6 2 -5 1 -5 2 -5 2 -6 2 -5 2 -6 3 -5 2 -2 0 -1 -1 -1 0 -1 -1 -2 0 -1 -1 -1 -1 -1 0 -2 -1 -1 -2 -2 -1 -1 -1 -2 -3 -2 -1 -1 -1 -1 0 0 0 -1 -1 0 1 -1 0 0 0 0 0 -1 0 0 0 0 1 0 0 -1 1 0 0 0 1 0 1 -1 2 0 1 0 2 1 2 0 2 0 2 1 2 0 3 1 2 1 3 0 1 0 1 0 1 0 0 0 1 0 1 0 1 0 0 -1 1 0 1 0 1 -1 0 0 1 -1 1 0 0 -1 1 -2 3 -2 2 -2 2 -2 2 -2 2 -2 2 -2 2 -2 2 -2 1 -2 2 -2 2 -3 1 -2 1 -2 1 -2 2 -3 1 -2 1 -2 1 -3 0 -2 1 -2 1 -3 0 -2 1 -3 0 -2 1 -3 0 -3 0 -2 1 -3 0 -2 0 -3 0 -3 0 -4 0 -4 -1 -4 0 -4 1 -3 0 -4 0 -4 0 -3 1 -4 0 -3 1 -3 1 -3 1 -3 1 -3 1 -4 1 -2 1 -3 2 -3 1 -3 2 -2 1 -3 2 -3 2 -2 2 -3 2 -2 2 -3 2 -2 2 -2 3 -3 2 -2 3 -2 2 -2 3 0 1 1 0 0 1 1 0 1 1 1 0 1 1 1 0 1 0 1 1 1 0 1 0 2 0 1 0 2 0 1 0 2 -2 2 -2 2 -2 2 -2 2 -3 2 -1 2 -2 2 -2 2 -2 2 -2 2 -2 3 -1 2 -2 2 -1 3 -2 2 -2 1 0 1 0 1 0 0 0 1 0 1 1 0 0 0 0 1 0 0 1 0 0 0 0 0 1 0 1 -1 1 0 1 -1 1 -1 1 -1 2 -2 2 -1 1 -1 2 -2 2 -1 2 -2 2 -2 1 -3 4 -4 4 -3 3 -4 4 0 0 1 1 0 0 1 0 0 1 0 0 1 1 1 0 0 0 1 0 0 1 1 0 1 0 2 0 1 0 0 0 1 0 1 0 0 0 1 0 1 0 1 -1 1 0 0 0 1 -1 1 0 0 -1 1 0 1 -1 0 0 3 -5 3 -3 3 -4 3 -3 3 -3 4 -2 3 -3 3 -2 4 -2 3 -1 4 -2 4 -1 4 -1 3 -1 4 -1 4 -1 4 -1 4 0 4 -1 4 0 8 -1 7 -1 4 0 4 0 4 -1 4 -1 3 0 4 -1 4 -1 3 -1 4 0 4 -1 3 -1 4 0 4 -1 4 -1 3 -1 4 -2 4 -1 4 -1 3 -2 4 -1 3 -2 4 -2 3 -2 4 -1 0 -1 1 -1 0 0 1 -1 0 0 1 -1 0 0 1 0 1 -1 0 0 1 0 1 0 1 0 2 -1 2 0 1 0 3 1 2 0 5 0 6 1 4 0 4 1 4 0 4 0 4 0 3 0 4 0 4 0 4 -1 4 0 4 0 4 0 4 -1 4 0 4 0 4 -1 7 -1 8 -1 8 -1 8 -1 9 -2 8 -2 8 -2 8 -2 1 0 2 -1 2 -1 1 0 1 -1 2 0 1 0 1 0 1 1 1 0 1 0 2 1 1 1 1 0 1 1 1 1 4 4 4 4 2 1 1 1 1 1 1 1 2 1 1 1 1 1 2 1 1 0 2 0 1 0 2 0 2 0 1 0 2 0 2 0 4 -1 5 -1 4 0 5 -1 5 -1 5 -2 5 -1 5 -1 6 -1 5 -1 6 -1 5 -1 3 -1 1 0 2 0 2 0 2 0 1 0 2 0 1 0 1 0 2 0 1 0 2 1 3 0 4 1 55 13 1 0 2 0 2 0 1 0 1 0 2 0 1 0 1 0 1 -1 1 0 1 0 1 -1 1 0 1 0 1 -1 0 0 1 -1 0 0 0 -1 1 0 0 -1 0 0 0 -1 0 0 -1 -1 0 -1 -1 0 0 -1 -1 0 -1 -1 -1 0 -1 -1 -46 -15 -2 0 0 0 -1 -1 -1 0 -1 0 0 0 -1 -1 0 0 -1 0 0 -1 0 0 0 0 0 0 0 -1 0 0 0 0 0 -1 1 0 0 0 0 -1 1 0 0 0 1 0 1 -1 1 0 2 0 2 0 2 0 4 0 4 1 4 0 3 1 4 1 4 0 4 1 3 1 4 1 4 1 4 0 3 1 4 1 4 1 3 1 4 1 1 1 0 0 1 0 1 0 1 0 1 0 1 0 1 0 2 0 2 -1 1 0 1 0 0 -1 1 0 1 0 1 -1 0 0 1 -1 1 0 0 -1 0 0 1 -1 0 0 0 -1 1 0 0 -1 0 -1 -1 0 0 -1 0 0 -5 -2 -6 -2 -6 -2 -6 -1 -6 -2 -7 -2 -3 -1 -3 0 -4 -1 -3 -1 -3 0 -4 -1 -4 0 -3 -1 -4 0 -4 0 -4 0 -3 0 -4 0 -4 0 -4 1 -5 0 -4 1 -4 1 -4 1 -4 1 -1 0 -1 0 -1 0 -1 0 -2 1 -2 1 -2 1 -2 1 -1 0 -1 0 -1 0 -1 0 -2 1 -1 0 -2 1 -2 0 -1 0 -3 1 -2 0 -2 0 -2 0 -3 0 -2 0 -2 0 -3 -1 -2 0 -2 0 -2 -1 -2 0 -2 -1 -2 0 -2 -1 -2 0 -1 -1 -2 -1 -1 -1 -1 -1 0 -1 -1 0 0 -1 0 -2 1 -1 0 -1 1 -1 2 -2 2 -2 3 -1 2 -2 2 -2 2 -2 3 -2 2 -2 3 1 3 0 3 0 2 0 3 0 2 -1 3 0 3 0 2 -1 3 -1 2 -1 3 0 2 -2 3 -1 2 -1 2 -2 4 0 4 0 4 0 4 0 4 0 4 0 3 0 4 0 2 0 1 0 1 0 1 -1 1 0 1 -1 1 0 1 -1 0 -1 1 0 0 -1 1 0 0 -1 1 -1 0 -1 0 0 0 -1 0 -1 0 0 -1 -1 0 -1 0 0 -1 -1 -1 0 -1 -1 -1 0 -1 -1 -1 0 -2 0 -1 -1 -2 0 -2 0 -2 0 -1 0 -2 -1 -2 0 -2 -1 -2 0 -3 -1 -2 -1 -2 -1 -2 -1 -2 -1 -2 -1 -2 -1 -1 -2 -2 -1 -1 -1 -35 -3 -1 -1 -2 0 -1 0 -1 -1 -2 0 -1 -1 -1 0 -1 -1 -1 0 -1 -1 -1 -1 -1 0 -1 -2 -1 -1 -1 -1 -1 -1 0 0 -1 0 0 -1 -1 0 -1 0 0 0 -1 0 0 1 0 0 -1 1 0 0 0 1 0 1 0 1 0 5 1 3 0 2 0 1 -1 1 0 0 0 1 0 0 0 0 -1 0 0 0 -1 0 0 0 -1 0 0 0 -1 0 -2 -1 -1 -2 -3 -1 -2 -2 -1 -1 -1 0 -1 0 0 -1 -1 0 0 0 -1 0 0 1 0 0 -1 0 0 1 0 0 0 1 0 1 1 1 0 1 0 1 1 1 0 2 1 1 1 2 1 3 1 1 0 1 1 2 0 1 0 1 0 2 0 1 0 2 -1 1 -2 1 -1 1 -1 1 -1 1 -2 1 -1 0 -2 1 -1 0 -2 1 -2 1 -1 0 -2 0 -2 1 -2 0 -2 0 -2 0 -2 1 -3 0 -2 0 -5 0 -5 0 -6 0 -6 -1 -7 0 -6 0zm127 -28c0,0 0,0 0,1 0,1 -1,3 -2,3 -2,0 -9,-2 -9,-3 0,0 0,0 0,-1l1 0 7 0 2 0 1 0z"/>
     </g>
    </g>
    <path class="fil13" d="M4362 2277c4,0 7,0 9,-1 2,-1 5,-2 8,-3l3 8c-2,2 -5,3 -9,4 -4,1 -8,2 -11,2 -5,0 -10,-2 -15,-4 -4,-3 -8,-6 -10,-11 -2,-5 -4,-10 -4,-16 0,-6 2,-11 4,-16 3,-5 6,-8 10,-11 5,-2 10,-4 16,-4 3,0 6,1 10,2 4,1 7,2 10,4l-4 8c-3,-1 -6,-2 -8,-3 -2,0 -5,-1 -8,-1 -5,0 -10,2 -13,6 -3,4 -5,9 -5,15 0,6 2,11 5,15 3,4 7,6 12,6z"/>
    <path id="1" class="fil13" d="M4418 2287c-6,0 -11,-2 -15,-4 -5,-3 -8,-6 -10,-11 -3,-5 -4,-10 -4,-16 0,-6 1,-11 4,-16 2,-5 6,-8 10,-11 5,-2 10,-4 16,-4 5,0 11,2 15,4 4,3 8,6 10,11 2,5 4,10 4,16 0,6 -2,11 -4,16 -2,5 -6,8 -10,11 -5,2 -10,4 -16,4zm18 -31c0,-6 -2,-11 -5,-15 -3,-4 -7,-6 -12,-6 -6,0 -10,2 -13,6 -3,4 -5,9 -5,15 0,6 2,11 5,15 3,4 7,6 12,6 6,0 10,-2 13,-6 3,-4 5,-9 5,-15z"/>
    <polygon id="2" class="fil13" points="4455,2248 4485,2248 4487,2257 4456,2257 "/>
    <path id="3" class="fil13" d="M4513 2287c-2,0 -6,-1 -10,-2 -3,-1 -7,-2 -9,-4l4 -8c5,3 10,4 15,4 4,0 7,0 10,-2 2,-1 3,-3 3,-5 0,-4 -4,-7 -13,-10 -13,-4 -19,-10 -19,-18 0,-5 2,-9 6,-12 4,-3 9,-5 16,-5 3,0 6,1 10,2 4,1 7,2 9,4l-4 8c-3,-2 -5,-3 -7,-3 -3,-1 -5,-1 -8,-1 -3,0 -6,0 -8,2 -2,1 -3,3 -3,5 0,2 2,3 4,5 2,1 5,2 8,3 14,5 20,11 20,19 0,6 -2,10 -6,13 -4,3 -10,5 -18,5z"/>
    <path id="4" class="fil13" d="M4601 2256c0,6 -1,12 -3,16 -3,5 -6,8 -11,11 -4,3 -9,4 -15,4 -1,0 -3,0 -5,-1 -3,-1 -5,-1 -7,-3l0 30 -11 0 0 -86 6 0 3 4c2,-2 5,-3 7,-4 3,-1 5,-2 7,-2 6,0 11,2 16,4 4,3 7,6 10,11 2,5 3,10 3,16zm-12 1c0,-7 -1,-12 -4,-16 -3,-4 -7,-6 -13,-6 -4,0 -8,2 -12,4l0 34c4,3 8,4 12,4 6,0 10,-2 13,-6 3,-4 4,-8 4,-14z"/>
    <path id="5" class="fil13" d="M4637 2287c-6,0 -11,-2 -15,-4 -4,-3 -8,-6 -10,-11 -2,-5 -4,-10 -4,-16 0,-6 2,-11 4,-16 2,-5 6,-8 10,-11 5,-2 10,-4 16,-4 6,0 11,2 15,4 4,3 8,6 10,11 3,5 4,10 4,16 0,6 -1,11 -4,16 -2,5 -6,8 -10,11 -5,2 -10,4 -16,4zm18 -31c0,-6 -2,-11 -5,-15 -3,-4 -7,-6 -12,-6 -6,0 -10,2 -13,6 -3,4 -5,9 -5,15 0,6 2,11 5,15 3,4 7,6 12,6 6,0 10,-2 13,-6 3,-4 5,-9 5,-15z"/>
    <path id="6" class="fil13" d="M4707 2235c-2,0 -5,1 -8,2 -4,2 -7,4 -10,7l0 41 -11 0 0 -58 8 0 2 8c3,-3 6,-6 10,-7 4,-2 8,-3 12,-3 6,0 11,2 14,6 3,4 5,9 5,16l0 38 -12 0 0 -37c0,-4 -1,-8 -2,-10 -1,-2 -4,-3 -8,-3z"/>
    <path id="7" class="fil13" d="M4759 2287c-3,0 -6,-1 -10,-2 -4,-1 -7,-2 -10,-4l4 -8c6,3 11,4 16,4 4,0 7,0 9,-2 2,-1 3,-3 3,-5 0,-4 -4,-7 -13,-10 -12,-4 -19,-10 -19,-18 0,-5 2,-9 6,-12 4,-3 10,-5 16,-5 3,0 6,1 10,2 4,1 7,2 9,4l-4 8c-2,-2 -5,-3 -7,-3 -3,-1 -5,-1 -8,-1 -3,0 -5,0 -7,2 -2,1 -3,3 -3,5 0,2 1,3 3,5 2,1 5,2 9,3 13,5 19,11 19,19 0,6 -2,10 -6,13 -4,3 -10,5 -17,5z"/>
    <path id="8" class="fil13" d="M4818 2287c-5,0 -11,-2 -15,-4 -4,-3 -8,-6 -10,-11 -2,-5 -3,-10 -3,-16 0,-6 1,-11 3,-16 3,-5 6,-8 10,-11 5,-2 10,-4 16,-4 6,0 11,2 15,4 5,3 8,6 10,11 3,5 4,10 4,16 0,6 -1,11 -4,16 -2,5 -6,8 -10,11 -4,2 -10,4 -16,4zm18 -31c0,-6 -1,-11 -4,-15 -4,-4 -8,-6 -13,-6 -5,0 -10,2 -13,6 -3,4 -5,9 -5,15 0,6 2,11 5,15 3,4 7,6 13,6 5,0 9,-2 12,-6 3,-4 5,-9 5,-15z"/>
    <path id="9" class="fil13" d="M4891 2236c-3,0 -7,1 -10,3 -4,2 -8,5 -11,8l0 38 -11 0 0 -58 6 0 4 9c3,-2 6,-4 10,-6 3,-2 7,-3 9,-3l3 9z"/>
    <path id="10" class="fil13" d="M4924 2225c8,0 14,3 19,9 4,5 6,13 6,22l0 3 -41 0c0,5 2,10 5,13 3,3 8,5 14,5 3,0 6,0 8,-1 3,-1 6,-2 10,-4l4 8c-8,5 -15,7 -22,7 -10,0 -18,-3 -23,-9 -6,-5 -8,-13 -8,-22 0,-6 1,-11 3,-16 2,-5 6,-8 10,-11 4,-2 9,-4 15,-4zm-1 10c-4,0 -8,2 -10,4 -3,3 -4,7 -5,12l30 0c-2,-11 -6,-16 -15,-16z"/>
    <path id="11" class="fil13" d="M5010 2285l-7 0 -2 -4c-3,2 -5,3 -8,4 -3,1 -6,2 -8,2 -6,0 -11,-2 -15,-4 -5,-3 -8,-6 -10,-11 -3,-5 -4,-10 -4,-16 0,-6 2,-12 4,-16 2,-5 6,-8 10,-11 5,-2 10,-4 15,-4 2,0 4,1 6,1 3,1 5,2 7,3l0 -27 12 -2 0 85zm-25 -8c3,0 5,0 7,-1 2,-1 4,-2 6,-4l0 -32c-2,-2 -4,-3 -6,-4 -2,0 -4,-1 -7,-1 -5,0 -9,2 -12,6 -3,4 -5,9 -5,15 0,6 2,11 5,15 3,4 7,6 12,6z"/>
    <path id="12" class="fil13" d="M5107 2256c0,6 -1,12 -4,16 -2,5 -6,8 -10,11 -5,3 -10,4 -15,4 -2,0 -5,-1 -7,-1 -3,-1 -6,-3 -8,-4l-2 3 -7 0 0 -83 12 -2 0 29c2,-1 4,-2 6,-3 2,0 4,-1 6,-1 6,0 11,2 15,4 5,3 8,6 10,11 3,5 4,10 4,16zm-12 1c0,-7 -2,-12 -5,-16 -3,-4 -7,-6 -12,-6 -5,0 -9,2 -12,4l0 34c3,3 7,4 12,4 5,0 9,-2 12,-6 3,-4 5,-8 5,-14z"/>
    <polygon id="13" class="fil13" points="5166,2227 5144,2285 5144,2313 5133,2313 5133,2285 5112,2229 5123,2225 5139,2269 5154,2227 "/>
    <path class="fil13" d="M151 2277c4,0 7,0 9,-1 2,-1 5,-2 8,-3l3 8c-2,2 -5,3 -9,4 -4,1 -8,2 -11,2 -5,0 -11,-2 -15,-4 -4,-3 -8,-6 -10,-11 -2,-5 -4,-10 -4,-16 0,-6 2,-11 4,-16 2,-5 6,-8 10,-11 5,-2 10,-4 16,-4 3,0 6,1 10,2 4,1 7,2 10,4l-4 8c-3,-1 -6,-2 -8,-3 -2,0 -5,-1 -8,-1 -5,0 -10,2 -13,6 -3,4 -5,9 -5,15 0,6 2,11 5,15 3,4 7,6 12,6z"/>
    <path id="1" class="fil13" d="M207 2287c-6,0 -11,-2 -15,-4 -5,-3 -8,-6 -10,-11 -3,-5 -4,-10 -4,-16 0,-6 1,-11 4,-16 2,-5 6,-8 10,-11 4,-2 10,-4 16,-4 5,0 11,2 15,4 4,3 8,6 10,11 2,5 4,10 4,16 0,6 -2,11 -4,16 -2,5 -6,8 -10,11 -5,2 -10,4 -16,4zm18 -31c0,-6 -2,-11 -5,-15 -3,-4 -7,-6 -12,-6 -6,0 -10,2 -13,6 -3,4 -5,9 -5,15 0,6 2,11 5,15 3,4 7,6 12,6 6,0 10,-2 13,-6 3,-4 5,-9 5,-15z"/>
    <polygon id="2" class="fil13" points="244,2248 274,2248 276,2257 245,2257 "/>
    <path id="3" class="fil13" d="M302 2287c-2,0 -6,-1 -10,-2 -3,-1 -7,-2 -9,-4l4 -8c5,3 10,4 15,4 4,0 7,0 10,-2 2,-1 3,-3 3,-5 0,-4 -4,-7 -13,-10 -13,-4 -19,-10 -19,-18 0,-5 2,-9 6,-12 4,-3 9,-5 16,-5 3,0 6,1 10,2 3,1 7,2 9,4l-4 8c-3,-2 -5,-3 -7,-3 -3,-1 -5,-1 -8,-1 -3,0 -6,0 -8,2 -2,1 -3,3 -3,5 0,2 2,3 4,5 2,1 5,2 8,3 14,5 20,11 20,19 0,6 -2,10 -6,13 -4,3 -10,5 -18,5z"/>
    <path id="4" class="fil13" d="M390 2256c0,6 -1,12 -3,16 -3,5 -6,8 -11,11 -4,3 -9,4 -15,4 -1,0 -3,0 -5,-1 -3,-1 -5,-1 -7,-3l0 30 -11 0 0 -86 6 0 3 4c2,-2 5,-3 7,-4 3,-1 5,-2 7,-2 6,0 11,2 16,4 4,3 7,6 10,11 2,5 3,10 3,16zm-12 1c0,-7 -1,-12 -4,-16 -3,-4 -7,-6 -13,-6 -4,0 -9,2 -12,4l0 34c4,3 8,4 12,4 6,0 10,-2 13,-6 3,-4 4,-8 4,-14z"/>
    <path id="5" class="fil13" d="M426 2287c-6,0 -11,-2 -15,-4 -4,-3 -8,-6 -10,-11 -2,-5 -4,-10 -4,-16 0,-6 2,-11 4,-16 2,-5 6,-8 10,-11 5,-2 10,-4 16,-4 6,0 11,2 15,4 4,3 8,6 10,11 3,5 4,10 4,16 0,6 -1,11 -4,16 -2,5 -6,8 -10,11 -5,2 -10,4 -16,4zm18 -31c0,-6 -2,-11 -5,-15 -3,-4 -7,-6 -12,-6 -6,0 -10,2 -13,6 -3,4 -5,9 -5,15 0,6 2,11 5,15 3,4 7,6 12,6 6,0 10,-2 13,-6 3,-4 5,-9 5,-15z"/>
    <path id="6" class="fil13" d="M496 2235c-2,0 -5,1 -8,2 -4,2 -7,4 -10,7l0 41 -11 0 0 -58 8 0 2 8c3,-3 6,-6 10,-7 4,-2 8,-3 12,-3 6,0 11,2 14,6 3,4 5,9 5,16l0 38 -12 0 0 -37c0,-4 -1,-8 -2,-10 -1,-2 -4,-3 -8,-3z"/>
    <path id="7" class="fil13" d="M548 2287c-3,0 -6,-1 -10,-2 -4,-1 -7,-2 -10,-4l4 -8c6,3 11,4 16,4 4,0 7,0 9,-2 2,-1 3,-3 3,-5 0,-4 -4,-7 -13,-10 -12,-4 -19,-10 -19,-18 0,-5 2,-9 6,-12 4,-3 10,-5 16,-5 3,0 6,1 10,2 4,1 7,2 9,4l-4 8c-2,-2 -5,-3 -7,-3 -3,-1 -5,-1 -8,-1 -3,0 -5,0 -7,2 -2,1 -3,3 -3,5 0,2 1,3 3,5 2,1 5,2 9,3 13,5 19,11 19,19 0,6 -2,10 -6,13 -4,3 -10,5 -17,5z"/>
    <path id="8" class="fil13" d="M607 2287c-5,0 -11,-2 -15,-4 -4,-3 -8,-6 -10,-11 -2,-5 -3,-10 -3,-16 0,-6 1,-11 3,-16 3,-5 6,-8 10,-11 5,-2 10,-4 16,-4 6,0 11,2 15,4 5,3 8,6 10,11 3,5 4,10 4,16 0,6 -1,11 -4,16 -2,5 -6,8 -10,11 -4,2 -10,4 -16,4zm18 -31c0,-6 -1,-11 -4,-15 -4,-4 -8,-6 -13,-6 -5,0 -10,2 -13,6 -3,4 -5,9 -5,15 0,6 2,11 5,15 3,4 7,6 13,6 5,0 9,-2 12,-6 3,-4 5,-9 5,-15z"/>
    <path id="9" class="fil13" d="M680 2236c-3,0 -7,1 -10,3 -4,2 -8,5 -11,8l0 38 -11 0 0 -58 6 0 4 9c3,-2 6,-4 10,-6 3,-2 7,-3 9,-3l3 9z"/>
    <path id="10" class="fil13" d="M713 2225c8,0 14,3 19,9 4,5 6,13 6,22l0 3 -41 0c0,5 2,10 5,13 3,3 8,5 14,5 3,0 6,0 8,-1 3,-1 6,-2 10,-4l4 8c-8,5 -15,7 -22,7 -10,0 -18,-3 -23,-9 -6,-5 -8,-13 -8,-22 0,-6 1,-11 3,-16 2,-5 6,-8 10,-11 4,-2 9,-4 15,-4zm-1 10c-4,0 -8,2 -10,4 -3,3 -4,7 -5,12l30 0c-2,-11 -6,-16 -15,-16z"/>
    <path id="11" class="fil13" d="M799 2285l-7 0 -2 -4c-3,2 -5,3 -8,4 -3,1 -6,2 -8,2 -6,0 -11,-2 -15,-4 -5,-3 -8,-6 -10,-11 -3,-5 -4,-10 -4,-16 0,-6 2,-12 4,-16 2,-5 6,-8 10,-11 5,-2 10,-4 15,-4 2,0 4,1 6,1 3,1 5,2 7,3l0 -27 12 -2 0 85zm-25 -8c3,0 5,0 7,-1 2,-1 4,-2 6,-4l0 -32c-2,-2 -4,-3 -6,-4 -2,0 -4,-1 -7,-1 -5,0 -9,2 -12,6 -3,4 -5,9 -5,15 0,6 2,11 5,15 3,4 7,6 12,6z"/>
    <path id="12" class="fil13" d="M896 2256c0,6 -1,12 -4,16 -2,5 -6,8 -10,11 -5,3 -10,4 -15,4 -2,0 -5,-1 -7,-1 -3,-1 -6,-3 -8,-4l-2 3 -7 0 0 -83 12 -2 0 29c2,-1 4,-2 6,-3 2,0 4,-1 6,-1 6,0 11,2 15,4 5,3 8,6 10,11 3,5 4,10 4,16zm-12 1c0,-7 -2,-12 -5,-16 -3,-4 -7,-6 -12,-6 -5,0 -9,2 -12,4l0 34c3,3 7,4 12,4 5,0 9,-2 12,-6 3,-4 5,-8 5,-14z"/>
    <polygon id="13" class="fil13" points="955,2227 933,2285 933,2313 922,2313 922,2285 901,2229 912,2225 928,2269 943,2227 "/>
    <g>
     <path class="fil17" d="M4788 2656l24 40c2,5 5,9 10,11 10,6 25,4 32,-4 6,-7 4,-27 4,-38 0,-14 0,-29 0,-43 0,-14 1,-27 -11,-31 -10,-4 -25,-1 -28,12 -2,7 -1,32 -1,42l-23 -40c-3,-5 -6,-8 -10,-12 -10,-7 -25,-5 -32,3 -7,8 -4,26 -4,38 0,14 0,28 0,42 0,15 -2,27 10,33 8,4 24,3 28,-11 2,-8 0,-31 1,-42z"/>
     <path class="fil17" d="M4664 2656c1,2 13,23 15,27 5,8 11,20 19,24 10,6 25,4 31,-4 6,-8 4,-27 4,-38 0,-9 1,-57 0,-63 -5,-19 -34,-17 -38,1 -2,8 -1,31 -1,42 -8,-11 -24,-45 -33,-52 -10,-6 -23,-6 -32,3 -7,7 -5,26 -5,38 0,14 0,28 0,42 0,15 -1,27 10,33 10,4 25,2 29,-11 2,-7 0,-32 1,-42z"/>
     <path class="fil17" d="M4914 2676l0 -12c9,0 20,1 30,0 9,0 14,-6 14,-15 0,-22 -23,-16 -44,-16l0 -10c10,0 20,0 30,0 10,0 17,0 21,-8 4,-9 0,-18 -6,-22 -6,-4 -19,-2 -28,-2 -10,0 -19,0 -29,0 -27,0 -29,7 -29,31l0 60c0,10 1,19 7,23 7,5 16,4 26,4 10,0 20,0 30,0 9,0 20,2 27,-3 5,-4 8,-14 3,-22 -4,-7 -11,-8 -22,-8 -10,0 -20,0 -30,0z"/>
     <path class="fil17" d="M4559 2676l0 -12c18,-1 44,7 44,-15 0,-10 -5,-15 -14,-16 -9,-1 -20,0 -30,0l0 -9c9,-1 20,-1 30,-1 10,0 17,0 21,-8 4,-8 0,-18 -5,-21 -7,-5 -19,-3 -28,-3 -10,0 -20,0 -30,0 -26,0 -29,5 -29,30l0 61c0,10 1,18 7,23 6,5 17,4 26,4 10,0 20,0 30,0 9,0 20,2 27,-3 6,-4 8,-14 3,-22 -7,-13 -34,-6 -52,-8z"/>
     <path class="fil17" d="M5022 2682c3,3 10,20 16,25 9,7 23,4 28,-4 8,-11 0,-22 -5,-30 -2,-4 -5,-8 -8,-12l-7 -13 15 -23c5,-9 14,-23 0,-33 -2,-1 -5,-2 -7,-2 -13,-3 -18,4 -24,13 -1,3 -2,5 -3,7 -2,1 -3,5 -4,6 -1,-4 -5,-10 -7,-13 -3,-6 -4,-9 -9,-11 -4,-3 -10,-4 -16,-2 -5,1 -9,5 -11,8 -7,11 1,21 6,29 3,4 5,8 8,12 6,10 6,8 3,12 -5,8 -10,16 -15,24 -2,4 -5,8 -7,13 -4,19 19,30 32,19 7,-6 10,-18 15,-25z"/>
     <path class="fil18" d="M4657 2639l6 -1c1,8 6,15 9,22 6,9 14,23 20,33 3,4 6,8 11,10 5,3 13,2 17,0 6,-2 7,-8 8,-14 0,-6 0,-14 0,-21 0,-8 0,-57 -1,-63 0,-6 -4,-9 -10,-10 -18,-2 -17,11 -17,25l0 32c0,3 1,7 1,10l-6 1c-3,-12 -21,-41 -30,-55 -2,-4 -5,-9 -10,-11 -8,-4 -25,-3 -25,13 0,10 0,79 0,84 2,14 21,13 26,6 3,-5 2,-13 2,-20l0 -31c0,-3 -1,-8 -1,-10z"/>
     <path class="fil18" d="M4781 2638l5 -1c2,2 4,10 7,15l11 20c1,1 1,2 2,4 1,1 2,2 2,3 5,8 11,21 18,24 8,4 25,5 26,-13 0,-6 0,-14 0,-21 0,-8 0,-59 0,-63 -2,-15 -22,-13 -26,-5 -3,5 -2,12 -2,19 0,14 0,28 1,42l-5 1c-2,-2 -3,-6 -3,-8 -5,-10 -21,-36 -27,-47 -3,-4 -6,-9 -10,-11 -5,-3 -12,-3 -18,0 -5,2 -7,6 -8,13 0,6 0,14 0,21 0,7 0,58 1,63 1,13 20,14 25,6 3,-5 2,-13 2,-20l0 -31c0,-4 -1,-8 -1,-11z"/>
     <path class="fil17" d="M4437 2626c1,8 0,41 0,52 0,13 -2,32 21,33 23,0 20,-19 20,-33 0,-8 0,-48 1,-52 9,0 21,1 28,-3 9,-6 10,-25 -3,-31 -5,-2 -10,-1 -14,-1l-63 0c-11,0 -18,0 -22,8 -5,9 -2,19 4,24 8,5 19,2 28,3z"/>
     <path class="fil18" d="M4598 2682l-45 0 0 -24 37 0c6,-1 8,-5 7,-10 0,-7 -2,-9 -9,-9 -11,-1 -23,0 -35,-1l0 -20c10,-1 39,1 46,-1 3,-1 5,-3 6,-6 1,-3 1,-7 -1,-10 -3,-6 -12,-4 -19,-4 -15,0 -33,-1 -47,0 -17,1 -14,15 -14,33 0,16 0,31 0,47 0,20 -1,26 21,26 15,0 31,0 47,0 8,0 14,0 16,-7 1,-8 -3,-14 -10,-14z"/>
     <path class="fil18" d="M4879 2616l0 69c0,17 5,18 21,18l49 0c7,0 13,-1 14,-8 1,-8 -3,-12 -10,-13 -14,-1 -30,1 -45,0l0 -23 23 0c8,0 18,1 21,-6 1,-3 0,-9 -1,-11 -2,-3 -7,-3 -11,-3l-32 0 0 -21 40 0c8,0 13,-3 13,-11 -1,-9 -6,-10 -14,-10l-45 0c-18,0 -23,1 -23,19z"/>
     <path class="fil18" d="M5020 2675l5 0 13 23c10,16 33,3 23,-15 -2,-3 -5,-7 -7,-11l-15 -23c-1,-2 0,-2 2,-6l19 -27c11,-19 -14,-29 -22,-14 -3,4 -5,8 -7,12 -5,8 -4,10 -9,9 -3,0 -2,0 -4,-5 -4,-5 -7,-13 -10,-18 -8,-12 -34,-3 -21,17l17 28c2,3 3,2 0,6l-14 22c-4,7 -13,18 -8,26 5,8 17,10 24,0 2,-2 3,-4 4,-6l10 -18z"/>
     <path class="fil18" d="M4423 2620l20 0c1,5 0,12 0,17l0 50c0,9 1,18 15,18 5,0 9,-1 12,-4 3,-4 3,-9 3,-15l0 -63c0,-5 2,-3 15,-3 8,0 18,1 19,-9 1,-3 1,-5 0,-8 -2,-5 -6,-6 -13,-6l-71 0c-10,0 -14,2 -15,12 0,9 6,11 15,11z"/>
     <path class="fil17" d="M5073 2542c-25,4 -19,41 6,37 9,-1 17,-10 15,-22 -1,-9 -10,-17 -21,-15zm-3 17c4,0 11,1 11,-3 1,-5 -7,-4 -11,-4l0 7zm16 13c0,-1 -1,-1 -1,-1l-2 0c-2,-1 -2,-2 -4,-5 -3,-5 -3,-4 -9,-4l0 9 -2 0 0 -21c4,0 12,-1 15,1 1,2 2,4 1,7 -1,2 -3,3 -5,3 5,5 4,7 7,10 2,-1 2,-2 3,-4 3,-6 1,-13 -3,-17 -5,-5 -15,-6 -21,0 -5,5 -6,14 0,20 6,7 13,7 21,2z"/>
     <path class="fil19" d="M4598 2682c-1,-2 -8,-1 -10,-1l-35 0 1 -22 28 0c2,0 8,1 8,-1l-37 0 0 24 45 0z"/>
    </g>
   </g>
  </g>
 </g>
</svg>
