<?xml version="1.0" encoding="UTF-8"?>
<!DOCTYPE svg PUBLIC "-//W3C//DTD SVG 1.1//EN" "http://www.w3.org/Graphics/SVG/1.1/DTD/svg11.dtd">
<!-- Creator: CorelDRAW X7 -->
<svg xmlns="http://www.w3.org/2000/svg" xml:space="preserve" width="69.6806mm" height="67.1406mm" version="1.1" style="shape-rendering:geometricPrecision; text-rendering:geometricPrecision; image-rendering:optimizeQuality; fill-rule:evenodd; clip-rule:evenodd"
viewBox="0 0 6968 6714"
 xmlns:xlink="http://www.w3.org/1999/xlink">
 <defs>
  <style type="text/css">
   <![CDATA[
    .fil1 {fill:#76B94A}
    .fil2 {fill:#4D6F91}
    .fil3 {fill:#00A0E3}
    .fil0 {fill:#009846}
    .fil4 {fill:#FEFEFE;fill-rule:nonzero}
   ]]>
  </style>
 </defs>
 <g id="Layer_x0020_1">
  <metadata id="CorelCorpID_0Corel-Layer"/>
  <path class="fil0" d="M6970 1465c-626,-918 -1666,-1467 -2777,-1467 -1553,0 -2903,1063 -3266,2573 635,-678 1518,-1060 2448,-1060 481,0 956,100 1394,299 261,114 543,173 829,173 505,0 993,-184 1372,-518z"/>
  <path class="fil1" d="M1328 2390c-37,99 -220,471 -341,471 -54,0 -98,-44 -98,-99 0,-6 0,-12 1,-19 295,-1594 1682,-2745 3303,-2745 1111,0 2151,549 2777,1467l-34 29 -20 17c-392,-415 -937,-649 -1508,-649 -191,0 -382,26 -566,78 -787,384 -1469,955 -1989,1660 -54,90 -152,144 -257,144 -164,0 -296,-133 -296,-297 0,-67 23,-132 65,-185 367,-679 956,-1212 1670,-1507 -1004,258 -1832,964 -2246,1915 -30,75 -103,125 -184,125 -109,0 -198,-88 -198,-198 0,-24 5,-48 13,-70 289,-969 999,-1757 1933,-2145 -940,336 -1682,1072 -2025,2008z"/>
  <path class="fil2" d="M-2 3607c626,918 1666,1467 2777,1467 1553,0 2903,-1063 3266,-2573 -635,678 -1518,1060 -2448,1060 -481,0 -956,-100 -1394,-299 -261,-114 -543,-173 -828,-173 -506,0 -994,184 -1373,518z"/>
  <path class="fil3" d="M5640 2682c37,-99 220,-471 341,-471 54,0 99,44 99,99 0,6 -1,13 -2,19 -295,1594 -1682,2745 -3303,2745 -1111,0 -2151,-549 -2777,-1467l26 -22 28 -24c392,415 937,650 1508,650 191,0 382,-27 566,-79 787,-384 1469,-955 1989,-1660 54,-90 152,-144 257,-144 164,0 296,133 296,297 0,67 -22,132 -64,185 -368,679 -957,1212 -1671,1507 1004,-258 1832,-964 2246,-1915 30,-75 103,-125 184,-125 109,0 198,88 198,198 0,24 -5,48 -13,70 -289,969 -999,1757 -1933,2145 940,-336 1682,-1071 2025,-2008z"/>
  <path class="fil4" d="M1182 5386c-55,0 -102,31 -154,36 -19,0 -39,-5 -55,-14 -17,-11 -28,-22 -47,-19 -6,0 -14,3 -19,5 -17,11 -22,23 -31,42 -55,124 -110,248 -167,371l-210 468c-5,-2 -5,0 -5,3l-14 28c-19,46 -41,90 -58,135 0,8 -5,16 -8,22 -6,13 8,35 33,30 6,-3 8,-3 11,-6 44,-27 63,-77 83,-118 35,-85 74,-171 112,-256 9,-11 11,-28 20,-36 33,-22 80,-33 113,-11 57,33 123,39 190,30 173,-19 338,-123 418,-280 38,-72 49,-155 44,-234 -3,-42 -14,-83 -41,-116 -39,-47 -102,-77 -163,-77 -19,-3 -36,-3 -52,-3zm5 75c56,0 113,16 144,63 30,44 27,99 22,149 -20,121 -102,228 -212,286 -64,38 -138,63 -215,55 -61,-11 -116,-55 -129,-116 -9,-36 -3,-71 11,-104 35,-121 115,-234 228,-295 33,-16 66,-22 102,-33 16,-3 33,-5 49,-5zm780 -69c-150,5 -288,85 -376,201 -74,93 -123,214 -114,333 2,63 29,126 81,162 63,39 143,39 210,11 33,-13 63,-35 94,-49 41,-25 83,-52 124,-74 11,66 69,118 132,135 61,16 130,8 179,-33 44,-25 83,-64 86,-116 0,-14 0,-36 -14,-44 -22,-8 -44,8 -47,30 -41,53 -107,88 -176,77 -22,-2 -50,-13 -61,-35 -24,-53 -16,-113 6,-163l49 -115c39,-86 86,-169 119,-254 8,-22 8,-44 -14,-50 -8,-3 -17,-3 -25,3l-44 19c-19,3 -30,-2 -49,-5 -50,-8 -99,-25 -149,-31l-11 -2zm25 82c44,0 82,39 91,80 11,39 0,83 -17,119 -49,126 -133,242 -249,313 -38,22 -83,44 -127,47 -55,3 -107,-33 -121,-85 -14,-42 -6,-88 2,-132 28,-119 114,-218 216,-281 52,-36 113,-58 177,-61l28 0zm899 -66c-30,0 -60,0 -88,9 -35,11 -68,33 -102,52 -13,5 -22,19 -35,25 -14,0 -14,-20 -20,-25 -11,-22 -38,-30 -55,-14 -44,30 -60,85 -82,129 -77,163 -171,317 -251,479 -8,17 -13,33 -2,50 11,11 33,19 49,16 17,0 30,-11 36,-27 58,-99 99,-212 160,-311 46,-88 99,-176 181,-237 47,-33 99,-66 157,-69 33,-2 69,0 91,25 33,30 39,74 33,113l-6 30c3,0 3,3 0,8 -2,9 17,23 17,23 17,0 28,2 47,2 8,0 16,-2 22,-11 11,-25 8,-52 8,-80 0,-57 -25,-115 -71,-151 -25,-22 -56,-36 -89,-36zm460 0c-39,3 -66,39 -86,69 -35,58 -63,121 -93,182 -49,99 -91,209 -80,322 9,66 58,125 118,147 66,27 143,22 207,-6 107,-47 195,-130 258,-229 34,-58 64,-119 97,-179l3 -6c41,39 101,55 154,36 66,-16 115,-66 162,-110 17,-14 33,-28 44,-44 6,-6 14,-11 8,-19 6,-11 3,-28 -5,-36 -8,-8 -19,-14 -30,-14 -22,3 -28,28 -42,41 -41,47 -90,99 -157,111 -27,5 -60,2 -82,-20 -6,-5 -11,-11 -17,-19 28,-55 53,-107 75,-162 11,-22 8,-44 -14,-55 -14,-6 -28,-9 -41,-6 -17,3 -28,14 -36,30 -6,11 -8,22 -17,33 -74,149 -129,311 -236,441 -55,64 -122,121 -204,138 -44,8 -96,-3 -124,-41 -33,-47 -27,-111 -14,-166 31,-132 108,-248 163,-374 5,-17 16,-33 13,-53 -2,-11 -11,-11 -22,-11l-2 0zm1058 -16c-150,5 -288,85 -377,201 -73,93 -122,214 -114,333 3,63 30,126 81,162 64,39 144,39 211,11 33,-13 63,-35 94,-49 41,-25 83,-52 124,-74 11,66 69,118 132,135 61,16 129,8 179,-33 44,-25 83,-64 85,-116 0,-14 0,-36 -13,-44 -22,-8 -45,8 -47,30 -42,53 -108,88 -176,77 -22,-2 -50,-13 -61,-35 -25,-53 -17,-113 6,-163l49 -115c39,-86 85,-169 118,-254 9,-22 9,-44 -13,-50 -9,-3 -17,-3 -25,3l-44 19c-19,3 -30,-2 -50,-5 -49,-8 -99,-25 -148,-31l-11 -2zm24 82c44,0 83,39 91,80 11,39 0,83 -16,119 -50,126 -133,242 -249,313 -38,22 -83,44 -127,47 -56,3 -108,-33 -122,-85 -13,-42 -5,-88 3,-132 28,-119 113,-218 216,-281 52,-36 113,-58 177,-61l27 0zm788 -82c-150,5 -288,85 -377,201 -73,93 -122,214 -114,333 3,63 30,126 81,162 64,39 144,39 211,11 33,-13 63,-35 94,-49 41,-25 83,-52 124,-74 11,66 69,118 132,135 61,16 129,8 179,-33 44,-25 83,-64 85,-116 0,-14 0,-36 -13,-44 -22,-8 -44,8 -47,30 -41,53 -108,88 -176,77 -22,-2 -50,-13 -61,-35 -25,-53 -16,-113 6,-163l49 -115c39,-86 85,-169 118,-254 9,-22 9,-44 -13,-50 -9,-3 -17,-3 -25,3l-44 19c-19,3 -30,-2 -50,-5 -49,-8 -99,-25 -148,-31l-11 -2zm24 82c45,0 83,39 91,80 11,39 0,83 -16,119 -50,126 -133,242 -249,313 -38,22 -83,44 -127,47 -55,3 -108,-33 -122,-85 -13,-42 -5,-88 3,-132 28,-119 114,-218 216,-281 52,-36 113,-58 177,-61l27 0zm782 -415c-39,5 -64,41 -80,71 -66,141 -129,281 -195,419 -36,77 -75,148 -113,223 -44,82 -91,168 -132,253 -9,16 -17,30 -6,47 8,11 25,19 39,16 19,3 41,-3 49,-25 66,-118 113,-247 187,-363 39,-69 80,-138 146,-182 58,-38 121,-77 190,-74 47,0 85,39 94,83 13,52 -9,104 -25,154 -11,33 -22,66 -36,99 -22,55 -36,119 -25,176 9,67 50,130 116,149 83,22 168,-8 234,-58 19,-16 41,-35 61,-55 11,-16 16,-27 22,-44 2,-14 2,-27 2,-41 -2,-30 -27,-28 -55,3l-25 24c-46,45 -107,78 -170,75 -30,0 -61,-17 -75,-44 -16,-31 -22,-66 -13,-99 2,-17 8,-28 11,-48 19,-77 58,-151 71,-231 3,-66 -16,-137 -69,-182 -33,-27 -79,-41 -123,-35 -50,0 -97,22 -138,47 -22,8 -39,24 -58,35 -14,3 -14,-13 -19,-19 49,-107 102,-215 146,-325 11,-30 -11,-49 -11,-49z"/>
  <path class="fil4" d="M1431 6507l79 -190 79 190 -158 0zm66 -226c-2,0 -3,1 -4,2l-177 427c-1,2 -1,3 0,4 1,1 2,2 4,2l21 0c2,0 4,-1 4,-3l74 -177 182 0 74 177c0,2 2,3 3,3l22 0c2,0 3,-1 4,-2 1,-1 1,-2 0,-4l-177 -427c-1,-1 -2,-2 -4,-2l-26 0zm463 217l210 -210c1,-1 2,-3 1,-5 -1,-1 -2,-2 -4,-2l-29 0c-1,0 -2,0 -3,1l-193 193 0 -189c0,-3 -2,-4 -5,-4l-20 0c-3,0 -4,1 -4,4l0 426c0,3 1,4 4,4l20 0c3,0 5,-1 5,-4l0 -192 207 194c1,1 2,1 3,1l29 0c2,0 4,-1 4,-2 1,-2 0,-3 -1,-5l-224 -210zm395 218c-23,0 -45,-6 -64,-17 -20,-11 -37,-26 -48,-45 -2,-3 -2,-5 1,-6l17 -10c3,-1 5,-1 6,1 12,19 28,33 49,41 22,9 43,10 66,4 22,-6 40,-19 54,-38 14,-19 21,-40 21,-64l0 -296c0,-3 2,-5 5,-5l20 0c3,0 4,2 4,5l0 298c0,37 -13,68 -39,94 -25,25 -56,38 -92,38zm444 -372c-2,2 -4,2 -6,0 -1,-1 -3,-2 -4,-4 -3,-1 -5,-2 -7,-4 -5,-4 -10,-7 -15,-10 -13,-7 -26,-12 -40,-15 -11,-2 -19,-3 -26,-3l-7 0 -8 0c-2,0 -5,0 -7,0l-4 1 -4 0c-12,2 -21,4 -29,7 -11,4 -20,10 -26,17 -8,7 -13,16 -16,27l-1 4c0,2 0,3 0,5 -1,3 -1,6 -1,8l0 5 0 0c0,0 0,0 0,0l0 -1 0 1 0 2 0 2 0 5 1 4 0 2 1 2 1 4c0,1 1,2 1,4l1 1 1 3 2 3 2 4 2 2 1 1c1,2 2,3 3,4 7,8 18,16 30,23 10,6 22,12 38,19l5 2 5 3 10 4 20 9c16,7 30,15 41,21 15,10 27,20 36,31 11,13 18,28 22,44l1 6c0,2 0,4 0,6l1 6 0 3 0 1 0 0 0 1 0 1 0 5 -1 3c0,1 0,2 0,3l-1 6 0 6c-4,16 -10,30 -20,42 -9,12 -20,21 -34,28 -11,6 -24,11 -38,14l-5 1 -5 0c-3,1 -6,1 -9,1l-9 1 -8 1 -5 0 -2 0 -1 0 -2 0 -7 0c-3,0 -5,0 -8,-1l-5 0 -4 -1c-9,-1 -19,-3 -30,-6 -16,-4 -31,-10 -46,-19 -5,-3 -10,-6 -15,-10 -4,-2 -8,-5 -11,-8 -2,-2 -4,-3 -6,-5 -2,-2 -2,-4 0,-6l15 -14c2,-2 3,-2 5,0 2,1 3,2 4,3 3,2 6,5 9,7 4,3 9,6 14,8 12,8 25,13 39,17 9,3 18,4 25,5l4 1 3 0c3,0 5,1 8,1l8 0 0 0 0 0 1 0 2 0 4 0 7 -1 8 0c3,-1 5,-1 8,-1l4 -1 4 -1c12,-2 23,-6 31,-10 10,-5 19,-12 25,-21 7,-9 12,-19 14,-31l1 -4 0 -4c1,0 1,-1 1,-2l0 -3 0 -5 0 -1 0 -1 0 0c0,0 0,0 0,0l0 0 0 -2 0 -5c0,-1 0,-2 -1,-4l0 -2 -1 -3c-2,-11 -7,-22 -15,-31 -13,-15 -35,-30 -67,-45l-21 -9 -9 -5 -5 -2 -5 -2c-17,-7 -30,-14 -40,-20 -16,-9 -28,-19 -37,-29 -1,-1 -3,-3 -4,-5l-2 -2 -2 -3c-3,-4 -5,-8 -6,-10l-1 -3 -2 -3c0,-2 -1,-4 -2,-6l-1 -6 -1 -3 -1 -3 -1 -6 0 -6 0 -2 0 -1 0 -1 0 -1c0,0 0,0 0,0l0 0 0 -6c0,-3 0,-7 1,-12 0,-1 0,-3 1,-5l1 -6c4,-15 12,-28 23,-39 9,-9 21,-17 35,-23 10,-4 22,-7 36,-9l5 0 4 0c4,0 6,-1 8,-1l9 0 8 1c9,0 19,1 30,3 16,4 32,10 47,18 5,3 11,6 15,9 4,3 8,5 12,8 1,1 3,3 5,5 2,2 2,4 0,6l-12 13zm313 372c-30,0 -58,-6 -86,-18 -26,-11 -49,-27 -69,-47 -20,-21 -36,-45 -47,-71 -11,-28 -16,-56 -15,-86 1,-56 21,-104 59,-145 39,-41 86,-64 141,-68 49,-4 94,8 136,34 2,2 2,4 1,6l-12 17c-1,2 -3,3 -5,1 -36,-23 -75,-33 -117,-30 -49,4 -90,24 -124,60 -33,36 -50,78 -51,127 0,26 5,50 14,74 10,23 23,44 41,61 17,18 38,32 60,41 24,10 48,16 74,16 38,0 72,-11 103,-31 2,-1 4,-1 6,1l11 17c2,3 1,4 -1,6 -36,23 -76,35 -119,35zm465 -406c3,0 5,-1 5,-4l0 -20c0,-3 -2,-4 -5,-4l-271 0c-3,0 -4,1 -4,4l0 426c0,3 1,4 4,4l271 0c3,0 5,-1 5,-4l0 -20c0,-3 -2,-4 -5,-4l-247 0 0 -175 165 0c3,0 4,-1 4,-4l0 -20c0,-3 -1,-4 -4,-4l-165 0 0 -175 247 0zm220 406c-3,0 -4,-1 -4,-4l0 -426c0,-3 1,-5 4,-5l20 0c3,0 4,2 4,5l0 426c0,3 -1,4 -4,4l-20 0zm326 -14c0,-18 0,-40 0,-67 0,-4 0,-10 0,-16l0 -8 0 -8c0,-8 0,-14 0,-18 0,-7 0,-13 0,-18l0 -10c0,-4 -1,-7 -1,-11 -1,-7 -2,-15 -5,-22 -5,-14 -13,-27 -24,-39 -10,-11 -23,-19 -38,-24 -7,-3 -14,-5 -21,-6l-3 0 -3 0 -3 -1c-1,0 -2,0 -2,0l-3 0 -3 0 -2 0 -3 1c-14,0 -27,4 -40,10 -11,6 -21,14 -29,23l-2 2 0 -34c0,-3 -1,-5 -4,-5l-20 0c-3,0 -4,2 -4,5l0 256c0,3 1,4 4,4l20 0c3,0 4,-1 4,-4l0 -148 1 -6c0,-1 0,-3 0,-5l0 -2 0 -3c0,-2 1,-4 1,-6 1,-6 4,-12 6,-17 4,-7 8,-14 13,-19 6,-7 14,-13 22,-17 9,-5 19,-8 30,-8l2 0 2 0 1 0 1 0 2 0c1,0 1,0 2,0l2 0 2 0 2 1c5,1 11,2 16,4 11,4 20,10 28,18 8,9 13,18 17,29 2,5 3,11 4,16 0,3 0,5 0,8l0 10c0,11 0,23 0,36 0,5 0,10 0,16l0 9 0 7c0,27 0,49 -1,67l0 10c0,3 2,4 5,4l20 0c3,0 4,-1 4,-4l0 -10zm91 14c-3,0 -4,-1 -4,-4l0 -255c0,-3 1,-4 4,-4l20 0c3,0 4,1 4,4l0 255c0,3 -1,4 -4,4l-20 0zm31 -347c0,5 -2,10 -7,14 -4,4 -8,6 -14,6 -6,0 -11,-2 -15,-6 -4,-4 -6,-9 -6,-14 0,-6 2,-11 6,-15 4,-4 9,-6 15,-6 6,0 10,2 14,6 5,4 7,9 7,15zm212 312c-2,-2 -4,-3 -6,-1 -14,9 -26,10 -38,4 -12,-6 -19,-19 -19,-38l0 -165 42 0c3,0 4,-1 4,-4l0 -20c0,-3 -1,-5 -4,-5l-42 0 0 -75c0,-2 -1,-4 -4,-4l-20 0c-3,0 -5,2 -5,4l1 75 -37 0c-3,0 -4,2 -4,5l0 20c0,3 1,4 4,4l37 0 0 165c0,15 3,27 9,39 6,11 15,19 25,25 9,4 18,6 27,6 14,0 28,-4 41,-13 2,-2 3,-4 1,-6l-12 -16zm68 35c-3,0 -4,-1 -4,-4l0 -255c0,-3 1,-4 4,-4l20 0c3,0 4,1 4,4l0 255c0,3 -1,4 -4,4l-20 0zm31 -347c0,5 -2,10 -6,14 -4,4 -9,6 -15,6 -6,0 -11,-2 -14,-6 -5,-4 -6,-9 -6,-14 0,-6 1,-11 6,-15 3,-4 8,-6 14,-6 6,0 11,2 15,6 4,4 6,9 6,15zm227 277c-5,10 -12,19 -20,25 -10,7 -20,12 -33,15 -11,2 -24,2 -38,0 -14,-3 -24,-8 -30,-17 -6,-8 -9,-20 -9,-34 1,-12 6,-22 15,-30 7,-6 18,-11 32,-14 10,-3 21,-4 34,-5 10,-1 21,-1 31,-1 7,0 15,1 24,2 2,0 4,0 6,0l0 9 0 9 0 9 -1 6c-3,10 -6,19 -11,26zm44 70c3,0 5,-2 5,-5 -3,-17 -4,-34 -6,-50 -2,-21 -2,-40 -2,-56 0,-5 0,-11 0,-18l0 -15 0 -15c0,-11 -1,-21 -3,-29 -3,-22 -11,-39 -23,-52 -15,-16 -39,-24 -69,-24 -22,0 -41,4 -60,13 -6,3 -12,6 -18,10 -2,1 -4,3 -6,5 -2,1 -3,2 -5,3 -2,2 -2,4 0,7l15 13c2,2 4,2 6,0 1,0 2,-1 3,-2 2,-2 4,-3 5,-4 5,-3 9,-5 14,-7 14,-6 29,-9 46,-9 22,0 39,5 49,15 11,12 17,33 17,64l0 0 -4 0c-5,-1 -9,-1 -12,-1 -4,0 -9,0 -13,0 -12,-1 -22,-1 -33,0 -15,1 -28,3 -40,6 -17,4 -31,11 -42,20 -8,6 -14,13 -18,21 -4,8 -7,17 -8,27 -1,21 4,39 13,53 6,8 14,14 23,19 7,4 16,7 26,9 17,3 34,2 50,-1 16,-4 30,-11 42,-21 7,-6 14,-13 19,-21 1,13 3,27 5,41 0,3 1,4 4,4l20 0zm178 -35c-1,-2 -3,-3 -5,-1 -14,9 -27,10 -38,4 -13,-6 -19,-19 -19,-38l0 -165 41 0c3,0 5,-1 5,-4l0 -20c0,-3 -2,-5 -5,-5l-41 0 0 -75c0,-2 -2,-4 -4,-4l-21 0c-3,0 -4,2 -4,4l0 75 -36 0c-3,0 -5,2 -5,5l0 20c0,3 2,4 5,4l36 0 0 165c0,15 3,27 9,39 7,11 15,19 26,25 9,4 17,6 27,6 14,0 27,-4 41,-13 2,-2 2,-4 1,-6l-13 -16zm69 35c-3,0 -4,-1 -4,-4l0 -255c0,-3 1,-4 4,-4l20 0c3,0 4,1 4,4l0 255c0,3 -1,4 -4,4l-20 0zm30 -347c0,5 -1,10 -6,14 -4,4 -8,6 -14,6 -6,0 -11,-2 -15,-6 -4,-4 -6,-9 -6,-14 0,-6 2,-11 6,-15 4,-4 9,-6 15,-6 6,0 10,2 14,6 5,4 6,9 6,15zm177 344c-1,2 -2,3 -4,3l-18 0c-2,0 -4,-1 -4,-3l-95 -255c0,-1 0,-3 1,-4 1,-1 2,-2 3,-2l22 0c2,0 3,1 3,3l79 212 78 -212c1,-2 2,-3 4,-3l21 0c2,0 3,1 4,2 1,1 1,3 0,4l-94 255zm245 -232c-28,0 -51,10 -70,29 -18,20 -28,44 -28,73l196 -17c-3,-25 -14,-45 -32,-61 -18,-16 -40,-24 -66,-24zm5 235c-36,0 -67,-13 -93,-38 -26,-26 -39,-58 -39,-94 0,-37 13,-68 37,-94 25,-25 55,-38 91,-38 35,1 65,13 89,39 25,25 37,56 37,91l0 7c0,2 -1,3 -4,4l-217 19c6,22 18,40 36,54 19,14 40,22 63,22 18,0 35,-5 50,-13 16,-9 28,-21 37,-36 2,-2 4,-3 6,-1l18 10c2,1 3,3 1,6 -12,19 -28,34 -48,45 -20,11 -41,17 -64,17z"/>
 </g>
</svg>
